%FSLAX25Y25*%
%MOIN*%
G70*
G01*
G75*
G04 Layer_Color=16711935*
%ADD10R,0.12205X0.06299*%
%ADD11R,0.03543X0.03150*%
%ADD12R,0.03543X0.02756*%
%ADD13R,0.02756X0.03543*%
%ADD14R,0.01772X0.02362*%
%ADD15R,0.12795X0.08661*%
%ADD16R,0.03937X0.08661*%
%ADD17R,0.03937X0.05906*%
%ADD18R,0.06102X0.09646*%
%ADD19R,0.01378X0.03543*%
%ADD20R,0.01181X0.03937*%
%ADD21O,0.02362X0.08661*%
%ADD22O,0.01181X0.06299*%
%ADD23O,0.06299X0.01181*%
%ADD24R,0.20551X0.12205*%
%ADD25O,0.01378X0.06693*%
%ADD26R,0.05512X0.11811*%
%ADD27R,0.11811X0.05512*%
%ADD28R,0.02953X0.11024*%
%ADD29R,0.05118X0.06102*%
%ADD30R,0.07480X0.04331*%
%ADD31R,0.05906X0.03937*%
%ADD32C,0.01400*%
%ADD33C,0.00800*%
%ADD34C,0.01500*%
%ADD35C,0.00600*%
%ADD36C,0.03500*%
%ADD37C,0.02500*%
%ADD38C,0.01000*%
%ADD39C,0.01200*%
%ADD40C,0.03900*%
%ADD41C,0.05000*%
%ADD42R,0.05906X0.05906*%
%ADD43C,0.09055*%
%ADD44R,0.09055X0.09055*%
%ADD45C,0.05906*%
%ADD46R,0.05906X0.05906*%
%ADD47C,0.02500*%
%ADD48C,0.05000*%
%ADD49C,0.03000*%
%ADD50C,0.02000*%
%ADD51C,0.00984*%
%ADD52C,0.00394*%
%ADD53C,0.02362*%
%ADD54C,0.00984*%
%ADD55C,0.00787*%
%ADD56C,0.00500*%
%ADD57C,0.02000*%
%ADD58R,0.13005X0.07099*%
%ADD59R,0.04343X0.03950*%
%ADD60R,0.04343X0.03556*%
%ADD61R,0.03556X0.04343*%
%ADD62R,0.02572X0.03162*%
%ADD63R,0.13595X0.09461*%
%ADD64R,0.04737X0.09461*%
%ADD65R,0.04737X0.06706*%
%ADD66R,0.06902X0.10446*%
%ADD67R,0.02178X0.04343*%
%ADD68R,0.01981X0.04737*%
%ADD69O,0.03162X0.09461*%
%ADD70O,0.01981X0.07099*%
%ADD71O,0.07099X0.01981*%
%ADD72R,0.21351X0.13005*%
%ADD73O,0.02178X0.07493*%
%ADD74R,0.06312X0.12611*%
%ADD75R,0.12611X0.06312*%
%ADD76R,0.05918X0.06902*%
%ADD77R,0.08280X0.05131*%
%ADD78R,0.06706X0.04737*%
%ADD79R,0.06706X0.06706*%
%ADD80C,0.09855*%
%ADD81R,0.09855X0.09855*%
%ADD82C,0.06706*%
%ADD83R,0.06706X0.06706*%
%ADD84C,0.03300*%
%ADD85C,0.05800*%
%ADD86C,0.03800*%
%ADD87C,0.02800*%
%ADD88C,0.00495*%
%ADD89C,0.00004*%
%ADD90R,0.11496X0.02436*%
%ADD91R,0.05315X0.00953*%
%ADD92R,0.03543X0.00688*%
D38*
X102000Y174961D02*
X142000D01*
X102000Y145039D02*
X142000D01*
X102000D02*
Y174961D01*
X142000Y145039D02*
Y174961D01*
D52*
X25268Y144831D02*
G03*
X25268Y144831I-1969J0D01*
G01*
X48705Y93764D02*
G03*
X48705Y93764I-1969J0D01*
G01*
X148721Y77185D02*
G03*
X148721Y77185I-1969J0D01*
G01*
X134630Y61055D02*
X138370D01*
X134630Y67945D02*
X138370D01*
X134630Y61055D02*
Y67945D01*
X138370Y61055D02*
Y67945D01*
X137130Y76055D02*
X140870D01*
X137130Y82945D02*
X140870D01*
X137130Y76055D02*
Y82945D01*
X140870Y76055D02*
Y82945D01*
X114130Y34346D02*
X117870D01*
X114130Y27654D02*
X117870D01*
Y34346D01*
X114130Y27654D02*
Y34346D01*
X195346Y119130D02*
Y122870D01*
X188654Y119130D02*
Y122870D01*
Y119130D02*
X195346D01*
X188654Y122870D02*
X195346D01*
X211189Y133716D02*
Y148284D01*
X184811Y133716D02*
Y148284D01*
X211189D01*
X184811Y133716D02*
X211189D01*
X175189D02*
Y148284D01*
X148811Y133716D02*
Y148284D01*
X175189D01*
X148811Y133716D02*
X175189D01*
X158846Y118630D02*
Y122370D01*
X152154Y118630D02*
Y122370D01*
Y118630D02*
X158846D01*
X152154Y122370D02*
X158846D01*
X110653Y91130D02*
Y94870D01*
X117347Y91130D02*
Y94870D01*
X110653D02*
X117347D01*
X110653Y91130D02*
X117347D01*
X132153Y137130D02*
Y140870D01*
X138847Y137130D02*
Y140870D01*
X132153D02*
X138847D01*
X132153Y137130D02*
X138847D01*
X131752Y113945D02*
X143248D01*
X131752Y132055D02*
X143248D01*
X131752Y113945D02*
Y132055D01*
X143248Y113945D02*
Y132055D01*
X128689Y111216D02*
Y125784D01*
X102311Y111216D02*
Y125784D01*
X128689D01*
X102311Y111216D02*
X128689D01*
X90654Y168630D02*
Y172370D01*
X97347Y168630D02*
Y172370D01*
X90654D02*
X97347D01*
X90654Y168630D02*
X97347D01*
X95657Y156957D02*
Y164043D01*
X90342Y156957D02*
Y164043D01*
X95657D01*
X90342Y156957D02*
X95657D01*
X64630Y135555D02*
X68370D01*
X64630Y142445D02*
X68370D01*
X64630Y135555D02*
Y142445D01*
X68370Y135555D02*
Y142445D01*
X73772Y136441D02*
Y141559D01*
X70228Y136441D02*
Y141559D01*
X73772D01*
X70228Y136441D02*
X73772D01*
X75630Y142347D02*
X79370D01*
X75630Y135653D02*
X79370D01*
Y142347D01*
X75630Y135653D02*
Y142347D01*
Y152347D02*
X79370D01*
X75630Y145653D02*
X79370D01*
Y152347D01*
X75630Y145653D02*
Y152347D01*
X48272Y146941D02*
Y152059D01*
X44728Y146941D02*
Y152059D01*
X48272D01*
X44728Y146941D02*
X48272D01*
X39130Y135055D02*
X42870D01*
X39130Y141945D02*
X42870D01*
X39130Y135055D02*
Y141945D01*
X42870Y135055D02*
Y141945D01*
X48272Y135441D02*
Y140559D01*
X44728Y135441D02*
Y140559D01*
X48272D01*
X44728Y135441D02*
X48272D01*
X50130Y141847D02*
X53870D01*
X50130Y135153D02*
X53870D01*
Y141847D01*
X50130Y135153D02*
Y141847D01*
Y151847D02*
X53870D01*
X50130Y145153D02*
X53870D01*
Y151847D01*
X50130Y145153D02*
Y151847D01*
X1630Y143555D02*
X5370D01*
X1630Y150445D02*
X5370D01*
X1630Y143555D02*
Y150445D01*
X5370Y143555D02*
Y150445D01*
X7158Y132626D02*
Y148374D01*
X26842Y132626D02*
Y148374D01*
X7158Y132626D02*
X26842D01*
X7158Y148374D02*
X26842D01*
X22720Y117780D02*
X50279D01*
X22720Y90220D02*
X50279D01*
X22720D02*
Y117780D01*
X50279Y90220D02*
Y117780D01*
X36654Y69630D02*
Y73370D01*
X43347Y69630D02*
Y73370D01*
X36654D02*
X43347D01*
X36654Y69630D02*
X43347D01*
X61130Y100055D02*
X64870D01*
X61130Y106945D02*
X64870D01*
X61130Y100055D02*
Y106945D01*
X64870Y100055D02*
Y106945D01*
X66130Y100055D02*
X69870D01*
X66130Y106945D02*
X69870D01*
X66130Y100055D02*
Y106945D01*
X69870Y100055D02*
Y106945D01*
X66130Y90055D02*
X69870D01*
X66130Y96945D02*
X69870D01*
X66130Y90055D02*
Y96945D01*
X69870Y90055D02*
Y96945D01*
X61130Y90055D02*
X64870D01*
X61130Y96945D02*
X64870D01*
X61130Y90055D02*
Y96945D01*
X64870Y90055D02*
Y96945D01*
X11130Y107445D02*
X14870D01*
X11130Y100555D02*
X14870D01*
Y107445D01*
X11130Y100555D02*
Y107445D01*
X6130D02*
X9870D01*
X6130Y100555D02*
X9870D01*
Y107445D01*
X6130Y100555D02*
Y107445D01*
X53847Y69630D02*
Y73370D01*
X47153Y69630D02*
Y73370D01*
Y69630D02*
X53847D01*
X47153Y73370D02*
X53847D01*
X88130Y53847D02*
X91870D01*
X88130Y47153D02*
X91870D01*
Y53847D01*
X88130Y47153D02*
Y53847D01*
X88130Y59055D02*
X91870D01*
X88130Y65945D02*
X91870D01*
X88130Y59055D02*
Y65945D01*
X91870Y59055D02*
Y65945D01*
X63130Y117445D02*
X66870D01*
X63130Y110555D02*
X66870D01*
Y117445D01*
X63130Y110555D02*
Y117445D01*
X68130Y113055D02*
X71870D01*
X68130Y119945D02*
X71870D01*
X68130Y113055D02*
Y119945D01*
X71870Y113055D02*
Y119945D01*
X183630Y99945D02*
X187370D01*
X183630Y93055D02*
X187370D01*
Y99945D01*
X183630Y93055D02*
Y99945D01*
X187630Y67347D02*
X191370D01*
X187630Y60654D02*
X191370D01*
Y67347D01*
X187630Y60654D02*
Y67347D01*
X192630Y60555D02*
X196370D01*
X192630Y67445D02*
X196370D01*
X192630Y60555D02*
Y67445D01*
X196370Y60555D02*
Y67445D01*
X73772Y147941D02*
Y153059D01*
X70228Y147941D02*
Y153059D01*
X73772D01*
X70228Y147941D02*
X73772D01*
X104630Y92154D02*
X108370D01*
X104630Y98847D02*
X108370D01*
X104630Y92154D02*
Y98847D01*
X108370Y92154D02*
Y98847D01*
X181791Y73642D02*
Y91358D01*
X143209Y73642D02*
Y91358D01*
X181791D01*
X143209Y73642D02*
X181791D01*
X55464Y46000D02*
X57814D01*
X55464Y42000D02*
Y46000D01*
X35464Y42000D02*
X55464D01*
X35464D02*
Y46000D01*
X33114D02*
X35464D01*
X33114D02*
Y62000D01*
X41214D01*
Y58750D02*
Y62000D01*
Y58750D02*
X49714D01*
Y62000D01*
X57814D01*
Y46000D02*
Y62000D01*
D90*
X137500Y130837D02*
D03*
D91*
X92971Y163567D02*
D03*
D92*
X72000Y141215D02*
D03*
X46500Y151715D02*
D03*
Y140215D02*
D03*
X72000Y152715D02*
D03*
M02*
