M48
;Layer_Color=9474304
;FILE_FORMAT=2:5
INCH,LZ
;TYPE=PLATED
T1F00S00C0.01300
T2F00S00C0.01500
T3F00S00C0.02800
T4F00S00C0.03543
T5F00S00C0.05118
%
T01
X0153839Y0078169
X0158169
X01625
X0166831
X0171161
Y00825
Y0086831
X0166831
Y00825
X01625
Y0086831
X0158169
Y00825
X0153839
Y0086831
T02
X01125Y0025
X0085Y00215
X01Y0032
X0093488Y0047547
X00945Y00655
X00995Y00835
X0071Y0092
Y0102
X0072Y01075
X0059Y01175
X00625Y0136
X0037Y01355
X00295Y01525
X00035Y0154
Y01405
Y01275
X00085Y0114
X0008Y00975
X00035Y00945
X0046Y0107
X00455Y0067
X00505
X0057Y00715
X0071Y0071964
Y0040964
X00555Y00525
X00405
X0037047Y0067547
X0095953Y0136047
X01005Y01705
X014Y00895
X0169Y01
X0181756Y0099256
X0169Y0065
X0165Y0061102
X016Y0061
X0156102Y0065
X01985Y0061244
T03
X0105Y0139
X0125Y01025
X01295Y00315
X01815Y0027
X01955Y0032
X02005Y00875
Y011
X0207Y01205
X0179386Y0129386
T04
X01125Y0008
X01225
X01325
X01425
X01525
X01625
X01725
X01825
X01925
X02025
X02125
Y0018
X02025
X01925
X01825
X01725
X01625
X01525
X01425
X01325
X01225
X01125
X01025
Y0008
X00925
Y0018
X00725
Y0008
X00625
Y0018
X00525
Y0008
X00425
Y0018
X00325
Y0008
X00225
Y0018
X00125
Y0008
X00085Y00365
Y00465
Y00565
Y00665
Y00765
Y00865
X0024Y0044
Y0034
X00375Y015
X00405Y01655
X00505
X00685
X00785
X0063Y015
X0022Y01655
X0012
X0153
X0163
X0189
X0199
X0116Y0062
Y0052
Y0042
T05
X0112Y016
X0132
M30
