%FSLAX25Y25*%
%MOIN*%
G70*
G01*
G75*
G04 Layer_Physical_Order=2*
G04 Layer_Color=16711680*
%ADD10R,0.12205X0.06299*%
%ADD11R,0.03543X0.03150*%
%ADD12R,0.03543X0.02756*%
%ADD13R,0.02756X0.03543*%
%ADD14R,0.01772X0.02362*%
%ADD15R,0.12795X0.08661*%
%ADD16R,0.03937X0.08661*%
%ADD17R,0.03937X0.05906*%
%ADD18R,0.06102X0.09646*%
%ADD19R,0.01378X0.03543*%
%ADD20R,0.01181X0.03937*%
%ADD21O,0.02362X0.08661*%
%ADD22O,0.01181X0.06299*%
%ADD23O,0.06299X0.01181*%
%ADD24R,0.20551X0.12205*%
%ADD25O,0.01378X0.06693*%
%ADD26R,0.05512X0.11811*%
%ADD27R,0.11811X0.05512*%
%ADD28R,0.02953X0.11024*%
%ADD29R,0.05118X0.06102*%
%ADD30R,0.07480X0.04331*%
%ADD31R,0.05906X0.03937*%
%ADD32C,0.01400*%
%ADD33C,0.00800*%
%ADD34C,0.01500*%
%ADD35C,0.00600*%
%ADD36C,0.03500*%
%ADD37C,0.02500*%
%ADD38C,0.01000*%
%ADD39C,0.01200*%
%ADD40C,0.03900*%
%ADD41C,0.05000*%
%ADD42R,0.05906X0.05906*%
%ADD43C,0.09055*%
%ADD44R,0.09055X0.09055*%
%ADD45C,0.05906*%
%ADD46R,0.05906X0.05906*%
%ADD47C,0.02500*%
%ADD48C,0.05000*%
%ADD49C,0.03000*%
%ADD50C,0.02000*%
G36*
X223879Y1122D02*
X1122D01*
Y93419D01*
X1600Y93564D01*
X1986Y92986D01*
X2681Y92522D01*
X3500Y92359D01*
X4319Y92522D01*
X5014Y92986D01*
X5478Y93681D01*
X5641Y94500D01*
X5478Y95319D01*
X5014Y96014D01*
X4319Y96478D01*
X3500Y96641D01*
X2681Y96478D01*
X1986Y96014D01*
X1600Y95436D01*
X1122Y95582D01*
Y126418D01*
X1600Y126564D01*
X1986Y125986D01*
X2681Y125522D01*
X3500Y125359D01*
X4319Y125522D01*
X5014Y125986D01*
X5478Y126681D01*
X5641Y127500D01*
X5478Y128319D01*
X5014Y129014D01*
X4319Y129478D01*
X3500Y129641D01*
X2681Y129478D01*
X1986Y129014D01*
X1600Y128436D01*
X1122Y128582D01*
Y153924D01*
X1619Y153973D01*
X1619Y153973D01*
X1619Y153973D01*
X1757Y153278D01*
X2166Y152666D01*
X2778Y152257D01*
X3500Y152114D01*
X4222Y152257D01*
X4834Y152666D01*
X5243Y153278D01*
X5386Y154000D01*
X5243Y154722D01*
X4834Y155334D01*
X4222Y155743D01*
X3500Y155886D01*
X2778Y155743D01*
X2166Y155334D01*
X1757Y154722D01*
X1619Y154027D01*
X1247Y154064D01*
X1122Y154076D01*
Y173878D01*
X223879D01*
Y1122D01*
D02*
G37*
%LPC*%
G36*
X62500Y21583D02*
X61573Y21461D01*
X60708Y21103D01*
X59966Y20534D01*
X59397Y19792D01*
X59039Y18927D01*
X58917Y18000D01*
X59039Y17073D01*
X59397Y16208D01*
X59966Y15466D01*
X60708Y14897D01*
X61573Y14539D01*
X62500Y14417D01*
X63427Y14539D01*
X64292Y14897D01*
X65034Y15466D01*
X65603Y16208D01*
X65961Y17073D01*
X66083Y18000D01*
X65961Y18927D01*
X65603Y19792D01*
X65034Y20534D01*
X64292Y21103D01*
X63427Y21461D01*
X62500Y21583D01*
D02*
G37*
G36*
X102500D02*
X101573Y21461D01*
X100708Y21103D01*
X99966Y20534D01*
X99397Y19792D01*
X99039Y18927D01*
X98917Y18000D01*
X99039Y17073D01*
X99397Y16208D01*
X99966Y15466D01*
X100708Y14897D01*
X101573Y14539D01*
X102500Y14417D01*
X103427Y14539D01*
X104292Y14897D01*
X105034Y15466D01*
X105603Y16208D01*
X105961Y17073D01*
X106083Y18000D01*
X105961Y18927D01*
X105603Y19792D01*
X105034Y20534D01*
X104292Y21103D01*
X103427Y21461D01*
X102500Y21583D01*
D02*
G37*
G36*
X72500D02*
X71573Y21461D01*
X70708Y21103D01*
X69966Y20534D01*
X69397Y19792D01*
X69039Y18927D01*
X68917Y18000D01*
X69039Y17073D01*
X69397Y16208D01*
X69966Y15466D01*
X70708Y14897D01*
X71573Y14539D01*
X72500Y14417D01*
X73427Y14539D01*
X74292Y14897D01*
X75034Y15466D01*
X75603Y16208D01*
X75961Y17073D01*
X76083Y18000D01*
X75961Y18927D01*
X75603Y19792D01*
X75034Y20534D01*
X74292Y21103D01*
X73427Y21461D01*
X72500Y21583D01*
D02*
G37*
G36*
X32500D02*
X31573Y21461D01*
X30708Y21103D01*
X29966Y20534D01*
X29397Y19792D01*
X29039Y18927D01*
X28917Y18000D01*
X29039Y17073D01*
X29397Y16208D01*
X29966Y15466D01*
X30708Y14897D01*
X31573Y14539D01*
X32500Y14417D01*
X33427Y14539D01*
X34292Y14897D01*
X35034Y15466D01*
X35603Y16208D01*
X35961Y17073D01*
X36083Y18000D01*
X35961Y18927D01*
X35603Y19792D01*
X35034Y20534D01*
X34292Y21103D01*
X33427Y21461D01*
X32500Y21583D01*
D02*
G37*
G36*
X22500D02*
X21573Y21461D01*
X20708Y21103D01*
X19966Y20534D01*
X19397Y19792D01*
X19039Y18927D01*
X18917Y18000D01*
X19039Y17073D01*
X19397Y16208D01*
X19966Y15466D01*
X20708Y14897D01*
X21573Y14539D01*
X22500Y14417D01*
X23427Y14539D01*
X24292Y14897D01*
X25034Y15466D01*
X25603Y16208D01*
X25961Y17073D01*
X26083Y18000D01*
X25961Y18927D01*
X25603Y19792D01*
X25034Y20534D01*
X24292Y21103D01*
X23427Y21461D01*
X22500Y21583D01*
D02*
G37*
G36*
X52500D02*
X51573Y21461D01*
X50708Y21103D01*
X49966Y20534D01*
X49397Y19792D01*
X49039Y18927D01*
X48917Y18000D01*
X49039Y17073D01*
X49397Y16208D01*
X49966Y15466D01*
X50708Y14897D01*
X51573Y14539D01*
X52500Y14417D01*
X53427Y14539D01*
X54292Y14897D01*
X55034Y15466D01*
X55603Y16208D01*
X55961Y17073D01*
X56083Y18000D01*
X55961Y18927D01*
X55603Y19792D01*
X55034Y20534D01*
X54292Y21103D01*
X53427Y21461D01*
X52500Y21583D01*
D02*
G37*
G36*
X42500D02*
X41573Y21461D01*
X40708Y21103D01*
X39966Y20534D01*
X39397Y19792D01*
X39039Y18927D01*
X38917Y18000D01*
X39039Y17073D01*
X39397Y16208D01*
X39966Y15466D01*
X40708Y14897D01*
X41573Y14539D01*
X42500Y14417D01*
X43427Y14539D01*
X44292Y14897D01*
X45034Y15466D01*
X45603Y16208D01*
X45961Y17073D01*
X46083Y18000D01*
X45961Y18927D01*
X45603Y19792D01*
X45034Y20534D01*
X44292Y21103D01*
X43427Y21461D01*
X42500Y21583D01*
D02*
G37*
G36*
X212500D02*
X211573Y21461D01*
X210708Y21103D01*
X209966Y20534D01*
X209397Y19792D01*
X209039Y18927D01*
X208917Y18000D01*
X209039Y17073D01*
X209397Y16208D01*
X209966Y15466D01*
X210708Y14897D01*
X211573Y14539D01*
X212500Y14417D01*
X213427Y14539D01*
X214292Y14897D01*
X215034Y15466D01*
X215603Y16208D01*
X215961Y17073D01*
X216083Y18000D01*
X215961Y18927D01*
X215603Y19792D01*
X215034Y20534D01*
X214292Y21103D01*
X213427Y21461D01*
X212500Y21583D01*
D02*
G37*
G36*
X172500D02*
X171573Y21461D01*
X170708Y21103D01*
X169966Y20534D01*
X169397Y19792D01*
X169039Y18927D01*
X168917Y18000D01*
X169039Y17073D01*
X169397Y16208D01*
X169966Y15466D01*
X170708Y14897D01*
X171573Y14539D01*
X172500Y14417D01*
X173427Y14539D01*
X174292Y14897D01*
X175034Y15466D01*
X175603Y16208D01*
X175961Y17073D01*
X176083Y18000D01*
X175961Y18927D01*
X175603Y19792D01*
X175034Y20534D01*
X174292Y21103D01*
X173427Y21461D01*
X172500Y21583D01*
D02*
G37*
G36*
X96053Y21553D02*
X88947D01*
Y14447D01*
X96053D01*
Y21553D01*
D02*
G37*
G36*
X16053D02*
X8947D01*
Y14447D01*
X16053D01*
Y21553D01*
D02*
G37*
G36*
X122500Y21583D02*
X121573Y21461D01*
X120708Y21103D01*
X119966Y20534D01*
X119397Y19792D01*
X119039Y18927D01*
X118917Y18000D01*
X119039Y17073D01*
X119397Y16208D01*
X119966Y15466D01*
X120708Y14897D01*
X121573Y14539D01*
X122500Y14417D01*
X123427Y14539D01*
X124292Y14897D01*
X125034Y15466D01*
X125603Y16208D01*
X125961Y17073D01*
X126083Y18000D01*
X125961Y18927D01*
X125603Y19792D01*
X125034Y20534D01*
X124292Y21103D01*
X123427Y21461D01*
X122500Y21583D01*
D02*
G37*
G36*
X112500D02*
X111573Y21461D01*
X110708Y21103D01*
X109966Y20534D01*
X109397Y19792D01*
X109039Y18927D01*
X108917Y18000D01*
X109039Y17073D01*
X109397Y16208D01*
X109966Y15466D01*
X110708Y14897D01*
X111573Y14539D01*
X112500Y14417D01*
X113427Y14539D01*
X114292Y14897D01*
X115034Y15466D01*
X115603Y16208D01*
X115961Y17073D01*
X116083Y18000D01*
X115961Y18927D01*
X115603Y19792D01*
X115034Y20534D01*
X114292Y21103D01*
X113427Y21461D01*
X112500Y21583D01*
D02*
G37*
G36*
X152500D02*
X151573Y21461D01*
X150708Y21103D01*
X149966Y20534D01*
X149397Y19792D01*
X149039Y18927D01*
X148917Y18000D01*
X149039Y17073D01*
X149397Y16208D01*
X149966Y15466D01*
X150708Y14897D01*
X151573Y14539D01*
X152500Y14417D01*
X153427Y14539D01*
X154292Y14897D01*
X155034Y15466D01*
X155603Y16208D01*
X155961Y17073D01*
X156083Y18000D01*
X155961Y18927D01*
X155603Y19792D01*
X155034Y20534D01*
X154292Y21103D01*
X153427Y21461D01*
X152500Y21583D01*
D02*
G37*
G36*
X132500D02*
X131573Y21461D01*
X130708Y21103D01*
X129966Y20534D01*
X129397Y19792D01*
X129039Y18927D01*
X128917Y18000D01*
X129039Y17073D01*
X129397Y16208D01*
X129966Y15466D01*
X130708Y14897D01*
X131573Y14539D01*
X132500Y14417D01*
X133427Y14539D01*
X134292Y14897D01*
X135034Y15466D01*
X135603Y16208D01*
X135961Y17073D01*
X136083Y18000D01*
X135961Y18927D01*
X135603Y19792D01*
X135034Y20534D01*
X134292Y21103D01*
X133427Y21461D01*
X132500Y21583D01*
D02*
G37*
G36*
X212500Y11583D02*
X211573Y11461D01*
X210708Y11103D01*
X209966Y10534D01*
X209397Y9792D01*
X209039Y8928D01*
X208917Y8000D01*
X209039Y7073D01*
X209397Y6208D01*
X209966Y5466D01*
X210708Y4897D01*
X211573Y4539D01*
X212500Y4417D01*
X213427Y4539D01*
X214292Y4897D01*
X215034Y5466D01*
X215603Y6208D01*
X215961Y7073D01*
X216083Y8000D01*
X215961Y8928D01*
X215603Y9792D01*
X215034Y10534D01*
X214292Y11103D01*
X213427Y11461D01*
X212500Y11583D01*
D02*
G37*
G36*
X62500D02*
X61573Y11461D01*
X60708Y11103D01*
X59966Y10534D01*
X59397Y9792D01*
X59039Y8928D01*
X58917Y8000D01*
X59039Y7073D01*
X59397Y6208D01*
X59966Y5466D01*
X60708Y4897D01*
X61573Y4539D01*
X62500Y4417D01*
X63427Y4539D01*
X64292Y4897D01*
X65034Y5466D01*
X65603Y6208D01*
X65961Y7073D01*
X66083Y8000D01*
X65961Y8928D01*
X65603Y9792D01*
X65034Y10534D01*
X64292Y11103D01*
X63427Y11461D01*
X62500Y11583D01*
D02*
G37*
G36*
X72500D02*
X71573Y11461D01*
X70708Y11103D01*
X69966Y10534D01*
X69397Y9792D01*
X69039Y8928D01*
X68917Y8000D01*
X69039Y7073D01*
X69397Y6208D01*
X69966Y5466D01*
X70708Y4897D01*
X71573Y4539D01*
X72500Y4417D01*
X73427Y4539D01*
X74292Y4897D01*
X75034Y5466D01*
X75603Y6208D01*
X75961Y7073D01*
X76083Y8000D01*
X75961Y8928D01*
X75603Y9792D01*
X75034Y10534D01*
X74292Y11103D01*
X73427Y11461D01*
X72500Y11583D01*
D02*
G37*
G36*
X92500D02*
X91573Y11461D01*
X90708Y11103D01*
X89966Y10534D01*
X89397Y9792D01*
X89039Y8928D01*
X88917Y8000D01*
X89039Y7073D01*
X89397Y6208D01*
X89966Y5466D01*
X90708Y4897D01*
X91573Y4539D01*
X92500Y4417D01*
X93427Y4539D01*
X94292Y4897D01*
X95034Y5466D01*
X95603Y6208D01*
X95961Y7073D01*
X96083Y8000D01*
X95961Y8928D01*
X95603Y9792D01*
X95034Y10534D01*
X94292Y11103D01*
X93427Y11461D01*
X92500Y11583D01*
D02*
G37*
G36*
X42500D02*
X41573Y11461D01*
X40708Y11103D01*
X39966Y10534D01*
X39397Y9792D01*
X39039Y8928D01*
X38917Y8000D01*
X39039Y7073D01*
X39397Y6208D01*
X39966Y5466D01*
X40708Y4897D01*
X41573Y4539D01*
X42500Y4417D01*
X43427Y4539D01*
X44292Y4897D01*
X45034Y5466D01*
X45603Y6208D01*
X45961Y7073D01*
X46083Y8000D01*
X45961Y8928D01*
X45603Y9792D01*
X45034Y10534D01*
X44292Y11103D01*
X43427Y11461D01*
X42500Y11583D01*
D02*
G37*
G36*
X12500D02*
X11573Y11461D01*
X10708Y11103D01*
X9966Y10534D01*
X9397Y9792D01*
X9039Y8928D01*
X8917Y8000D01*
X9039Y7073D01*
X9397Y6208D01*
X9966Y5466D01*
X10708Y4897D01*
X11573Y4539D01*
X12500Y4417D01*
X13427Y4539D01*
X14292Y4897D01*
X15034Y5466D01*
X15603Y6208D01*
X15961Y7073D01*
X16083Y8000D01*
X15961Y8928D01*
X15603Y9792D01*
X15034Y10534D01*
X14292Y11103D01*
X13427Y11461D01*
X12500Y11583D01*
D02*
G37*
G36*
X22500D02*
X21573Y11461D01*
X20708Y11103D01*
X19966Y10534D01*
X19397Y9792D01*
X19039Y8928D01*
X18917Y8000D01*
X19039Y7073D01*
X19397Y6208D01*
X19966Y5466D01*
X20708Y4897D01*
X21573Y4539D01*
X22500Y4417D01*
X23427Y4539D01*
X24292Y4897D01*
X25034Y5466D01*
X25603Y6208D01*
X25961Y7073D01*
X26083Y8000D01*
X25961Y8928D01*
X25603Y9792D01*
X25034Y10534D01*
X24292Y11103D01*
X23427Y11461D01*
X22500Y11583D01*
D02*
G37*
G36*
X32500D02*
X31573Y11461D01*
X30708Y11103D01*
X29966Y10534D01*
X29397Y9792D01*
X29039Y8928D01*
X28917Y8000D01*
X29039Y7073D01*
X29397Y6208D01*
X29966Y5466D01*
X30708Y4897D01*
X31573Y4539D01*
X32500Y4417D01*
X33427Y4539D01*
X34292Y4897D01*
X35034Y5466D01*
X35603Y6208D01*
X35961Y7073D01*
X36083Y8000D01*
X35961Y8928D01*
X35603Y9792D01*
X35034Y10534D01*
X34292Y11103D01*
X33427Y11461D01*
X32500Y11583D01*
D02*
G37*
G36*
X102500D02*
X101573Y11461D01*
X100708Y11103D01*
X99966Y10534D01*
X99397Y9792D01*
X99039Y8928D01*
X98917Y8000D01*
X99039Y7073D01*
X99397Y6208D01*
X99966Y5466D01*
X100708Y4897D01*
X101573Y4539D01*
X102500Y4417D01*
X103427Y4539D01*
X104292Y4897D01*
X105034Y5466D01*
X105603Y6208D01*
X105961Y7073D01*
X106083Y8000D01*
X105961Y8928D01*
X105603Y9792D01*
X105034Y10534D01*
X104292Y11103D01*
X103427Y11461D01*
X102500Y11583D01*
D02*
G37*
G36*
X162500D02*
X161573Y11461D01*
X160708Y11103D01*
X159966Y10534D01*
X159397Y9792D01*
X159039Y8928D01*
X158917Y8000D01*
X159039Y7073D01*
X159397Y6208D01*
X159966Y5466D01*
X160708Y4897D01*
X161573Y4539D01*
X162500Y4417D01*
X163427Y4539D01*
X164292Y4897D01*
X165034Y5466D01*
X165603Y6208D01*
X165961Y7073D01*
X166083Y8000D01*
X165961Y8928D01*
X165603Y9792D01*
X165034Y10534D01*
X164292Y11103D01*
X163427Y11461D01*
X162500Y11583D01*
D02*
G37*
G36*
X172500D02*
X171573Y11461D01*
X170708Y11103D01*
X169966Y10534D01*
X169397Y9792D01*
X169039Y8928D01*
X168917Y8000D01*
X169039Y7073D01*
X169397Y6208D01*
X169966Y5466D01*
X170708Y4897D01*
X171573Y4539D01*
X172500Y4417D01*
X173427Y4539D01*
X174292Y4897D01*
X175034Y5466D01*
X175603Y6208D01*
X175961Y7073D01*
X176083Y8000D01*
X175961Y8928D01*
X175603Y9792D01*
X175034Y10534D01*
X174292Y11103D01*
X173427Y11461D01*
X172500Y11583D01*
D02*
G37*
G36*
X202500D02*
X201573Y11461D01*
X200708Y11103D01*
X199966Y10534D01*
X199397Y9792D01*
X199039Y8928D01*
X198917Y8000D01*
X199039Y7073D01*
X199397Y6208D01*
X199966Y5466D01*
X200708Y4897D01*
X201573Y4539D01*
X202500Y4417D01*
X203427Y4539D01*
X204292Y4897D01*
X205034Y5466D01*
X205603Y6208D01*
X205961Y7073D01*
X206083Y8000D01*
X205961Y8928D01*
X205603Y9792D01*
X205034Y10534D01*
X204292Y11103D01*
X203427Y11461D01*
X202500Y11583D01*
D02*
G37*
G36*
X152500D02*
X151573Y11461D01*
X150708Y11103D01*
X149966Y10534D01*
X149397Y9792D01*
X149039Y8928D01*
X148917Y8000D01*
X149039Y7073D01*
X149397Y6208D01*
X149966Y5466D01*
X150708Y4897D01*
X151573Y4539D01*
X152500Y4417D01*
X153427Y4539D01*
X154292Y4897D01*
X155034Y5466D01*
X155603Y6208D01*
X155961Y7073D01*
X156083Y8000D01*
X155961Y8928D01*
X155603Y9792D01*
X155034Y10534D01*
X154292Y11103D01*
X153427Y11461D01*
X152500Y11583D01*
D02*
G37*
G36*
X112500D02*
X111573Y11461D01*
X110708Y11103D01*
X109966Y10534D01*
X109397Y9792D01*
X109039Y8928D01*
X108917Y8000D01*
X109039Y7073D01*
X109397Y6208D01*
X109966Y5466D01*
X110708Y4897D01*
X111573Y4539D01*
X112500Y4417D01*
X113427Y4539D01*
X114292Y4897D01*
X115034Y5466D01*
X115603Y6208D01*
X115961Y7073D01*
X116083Y8000D01*
X115961Y8928D01*
X115603Y9792D01*
X115034Y10534D01*
X114292Y11103D01*
X113427Y11461D01*
X112500Y11583D01*
D02*
G37*
G36*
X122500D02*
X121573Y11461D01*
X120708Y11103D01*
X119966Y10534D01*
X119397Y9792D01*
X119039Y8928D01*
X118917Y8000D01*
X119039Y7073D01*
X119397Y6208D01*
X119966Y5466D01*
X120708Y4897D01*
X121573Y4539D01*
X122500Y4417D01*
X123427Y4539D01*
X124292Y4897D01*
X125034Y5466D01*
X125603Y6208D01*
X125961Y7073D01*
X126083Y8000D01*
X125961Y8928D01*
X125603Y9792D01*
X125034Y10534D01*
X124292Y11103D01*
X123427Y11461D01*
X122500Y11583D01*
D02*
G37*
G36*
X142500D02*
X141573Y11461D01*
X140708Y11103D01*
X139966Y10534D01*
X139397Y9792D01*
X139039Y8928D01*
X138917Y8000D01*
X139039Y7073D01*
X139397Y6208D01*
X139966Y5466D01*
X140708Y4897D01*
X141573Y4539D01*
X142500Y4417D01*
X143427Y4539D01*
X144292Y4897D01*
X145034Y5466D01*
X145603Y6208D01*
X145961Y7073D01*
X146083Y8000D01*
X145961Y8928D01*
X145603Y9792D01*
X145034Y10534D01*
X144292Y11103D01*
X143427Y11461D01*
X142500Y11583D01*
D02*
G37*
G36*
X112000Y165172D02*
X110661Y164996D01*
X109414Y164479D01*
X108343Y163657D01*
X107521Y162586D01*
X107004Y161339D01*
X106828Y160000D01*
X107004Y158661D01*
X107521Y157414D01*
X108343Y156343D01*
X109414Y155521D01*
X110661Y155004D01*
X112000Y154828D01*
X113339Y155004D01*
X114586Y155521D01*
X115657Y156343D01*
X116479Y157414D01*
X116996Y158661D01*
X117172Y160000D01*
X116996Y161339D01*
X116479Y162586D01*
X115657Y163657D01*
X114586Y164479D01*
X113339Y164996D01*
X112000Y165172D01*
D02*
G37*
G36*
X100500Y172641D02*
X99681Y172478D01*
X98986Y172014D01*
X98522Y171319D01*
X98359Y170500D01*
X98522Y169681D01*
X98986Y168986D01*
X99681Y168522D01*
X100500Y168359D01*
X101319Y168522D01*
X102014Y168986D01*
X102106Y169124D01*
X120930D01*
X126872Y163181D01*
Y154872D01*
X137128D01*
Y165128D01*
X128819D01*
X122473Y171473D01*
X122027Y171772D01*
X121500Y171876D01*
X102106D01*
X102014Y172014D01*
X101319Y172478D01*
X100500Y172641D01*
D02*
G37*
G36*
X12000Y169083D02*
X11073Y168961D01*
X10208Y168603D01*
X9466Y168034D01*
X8897Y167292D01*
X8539Y166427D01*
X8417Y165500D01*
X8539Y164573D01*
X8897Y163708D01*
X9466Y162966D01*
X10208Y162397D01*
X11073Y162039D01*
X12000Y161917D01*
X12927Y162039D01*
X13792Y162397D01*
X14534Y162966D01*
X15103Y163708D01*
X15461Y164573D01*
X15583Y165500D01*
X15461Y166427D01*
X15103Y167292D01*
X14534Y168034D01*
X13792Y168603D01*
X12927Y168961D01*
X12000Y169083D01*
D02*
G37*
G36*
X66553Y153553D02*
X59447D01*
Y146447D01*
X66553D01*
Y153553D01*
D02*
G37*
G36*
X169000Y101886D02*
X168278Y101743D01*
X167666Y101334D01*
X167257Y100722D01*
X167114Y100000D01*
X167164Y99750D01*
X165035Y97622D01*
X147000D01*
X146571Y97536D01*
X146207Y97293D01*
X146207Y97293D01*
X140250Y91337D01*
X140000Y91386D01*
X139278Y91243D01*
X138666Y90834D01*
X138257Y90222D01*
X138114Y89500D01*
X138257Y88778D01*
X138666Y88166D01*
X139278Y87757D01*
X140000Y87614D01*
X140722Y87757D01*
X141334Y88166D01*
X141743Y88778D01*
X141886Y89500D01*
X141836Y89750D01*
X147465Y95378D01*
X165500D01*
X165500Y95378D01*
X165929Y95464D01*
X166293Y95707D01*
X168750Y98163D01*
X169000Y98114D01*
X169722Y98257D01*
X170334Y98666D01*
X170743Y99278D01*
X170886Y100000D01*
X170743Y100722D01*
X170334Y101334D01*
X169722Y101743D01*
X169000Y101886D01*
D02*
G37*
G36*
X71000Y103886D02*
X70278Y103743D01*
X69666Y103334D01*
X69257Y102722D01*
X69114Y102000D01*
X69257Y101278D01*
X69666Y100666D01*
X70278Y100257D01*
X71000Y100114D01*
X71722Y100257D01*
X72334Y100666D01*
X72743Y101278D01*
X72886Y102000D01*
X72743Y102722D01*
X72334Y103334D01*
X71722Y103743D01*
X71000Y103886D01*
D02*
G37*
G36*
X41053Y153553D02*
X33947D01*
Y146447D01*
X41053D01*
Y153553D01*
D02*
G37*
G36*
X68500Y169083D02*
X67573Y168961D01*
X66708Y168603D01*
X65966Y168034D01*
X65397Y167292D01*
X65039Y166427D01*
X64917Y165500D01*
X65039Y164573D01*
X65397Y163708D01*
X65966Y162966D01*
X66708Y162397D01*
X67573Y162039D01*
X68500Y161917D01*
X69427Y162039D01*
X70292Y162397D01*
X71034Y162966D01*
X71603Y163708D01*
X71961Y164573D01*
X72083Y165500D01*
X71961Y166427D01*
X71603Y167292D01*
X71034Y168034D01*
X70292Y168603D01*
X69427Y168961D01*
X68500Y169083D01*
D02*
G37*
G36*
X82053Y169053D02*
X74947D01*
Y161947D01*
X82053D01*
Y169053D01*
D02*
G37*
G36*
X156553D02*
X149447D01*
Y161947D01*
X156553D01*
Y169053D01*
D02*
G37*
G36*
X192553D02*
X185447D01*
Y161947D01*
X192553D01*
Y169053D01*
D02*
G37*
G36*
X54053D02*
X46947D01*
Y161947D01*
X54053D01*
Y169053D01*
D02*
G37*
G36*
X163000Y169083D02*
X162073Y168961D01*
X161208Y168603D01*
X160466Y168034D01*
X159897Y167292D01*
X159539Y166427D01*
X159417Y165500D01*
X159539Y164573D01*
X159897Y163708D01*
X160466Y162966D01*
X161208Y162397D01*
X162073Y162039D01*
X163000Y161917D01*
X163927Y162039D01*
X164792Y162397D01*
X165534Y162966D01*
X166103Y163708D01*
X166461Y164573D01*
X166583Y165500D01*
X166461Y166427D01*
X166103Y167292D01*
X165534Y168034D01*
X164792Y168603D01*
X163927Y168961D01*
X163000Y169083D01*
D02*
G37*
G36*
X199000D02*
X198073Y168961D01*
X197208Y168603D01*
X196466Y168034D01*
X195897Y167292D01*
X195539Y166427D01*
X195417Y165500D01*
X195539Y164573D01*
X195897Y163708D01*
X196466Y162966D01*
X197208Y162397D01*
X198073Y162039D01*
X199000Y161917D01*
X199927Y162039D01*
X200792Y162397D01*
X201534Y162966D01*
X202103Y163708D01*
X202461Y164573D01*
X202583Y165500D01*
X202461Y166427D01*
X202103Y167292D01*
X201534Y168034D01*
X200792Y168603D01*
X199927Y168961D01*
X199000Y169083D01*
D02*
G37*
G36*
X25553Y169053D02*
X18447D01*
Y161947D01*
X25553D01*
Y169053D01*
D02*
G37*
G36*
X8000Y99386D02*
X7278Y99243D01*
X6666Y98834D01*
X6257Y98222D01*
X6114Y97500D01*
X6257Y96778D01*
X6666Y96166D01*
X7278Y95757D01*
X8000Y95614D01*
X8722Y95757D01*
X9334Y96166D01*
X9743Y96778D01*
X9886Y97500D01*
X9743Y98222D01*
X9334Y98834D01*
X8722Y99243D01*
X8000Y99386D01*
D02*
G37*
G36*
X27553Y47553D02*
X20447D01*
Y40447D01*
X27553D01*
Y47553D01*
D02*
G37*
G36*
X116000Y55583D02*
X115073Y55461D01*
X114208Y55103D01*
X113466Y54534D01*
X112897Y53792D01*
X112539Y52927D01*
X112417Y52000D01*
X112539Y51073D01*
X112897Y50208D01*
X113466Y49466D01*
X114208Y48897D01*
X115073Y48539D01*
X116000Y48417D01*
X116927Y48539D01*
X117792Y48897D01*
X118534Y49466D01*
X119103Y50208D01*
X119461Y51073D01*
X119583Y52000D01*
X119461Y52927D01*
X119103Y53792D01*
X118534Y54534D01*
X117792Y55103D01*
X116927Y55461D01*
X116000Y55583D01*
D02*
G37*
G36*
X8500Y60083D02*
X7572Y59961D01*
X6708Y59603D01*
X5966Y59034D01*
X5397Y58292D01*
X5039Y57427D01*
X4917Y56500D01*
X5039Y55573D01*
X5397Y54708D01*
X5966Y53966D01*
X6708Y53397D01*
X7572Y53039D01*
X8500Y52917D01*
X9427Y53039D01*
X10292Y53397D01*
X11034Y53966D01*
X11603Y54708D01*
X11961Y55573D01*
X12083Y56500D01*
X11961Y57427D01*
X11603Y58292D01*
X11034Y59034D01*
X10292Y59603D01*
X9427Y59961D01*
X8500Y60083D01*
D02*
G37*
G36*
X119553Y45553D02*
X112447D01*
Y38447D01*
X119553D01*
Y45553D01*
D02*
G37*
G36*
X55500Y54386D02*
X54778Y54243D01*
X54166Y53834D01*
X53757Y53222D01*
X53614Y52500D01*
X53757Y51778D01*
X54166Y51166D01*
X54778Y50757D01*
X55500Y50614D01*
X56222Y50757D01*
X56834Y51166D01*
X56976Y51378D01*
X65535D01*
X76878Y40035D01*
Y31500D01*
X76878Y31500D01*
X76964Y31071D01*
X77207Y30707D01*
X83114Y24800D01*
Y24500D01*
Y22457D01*
X83022Y22319D01*
X82859Y21500D01*
X83022Y20681D01*
X83486Y19986D01*
X84181Y19522D01*
X85000Y19359D01*
X85819Y19522D01*
X86514Y19986D01*
X86978Y20681D01*
X87141Y21500D01*
X86978Y22319D01*
X86886Y22457D01*
Y24500D01*
Y25719D01*
X94822Y33655D01*
X95231Y34266D01*
X95375Y34988D01*
X95375Y34988D01*
X95375Y34988D01*
Y34988D01*
Y46590D01*
X95467Y46728D01*
X95630Y47547D01*
X95467Y48367D01*
X95002Y49061D01*
X94308Y49525D01*
X93488Y49688D01*
X92669Y49525D01*
X91974Y49061D01*
X91510Y48367D01*
X91347Y47547D01*
X91510Y46728D01*
X91602Y46590D01*
Y35770D01*
X83709Y27877D01*
X83280D01*
X83209D01*
X83209Y27877D01*
D01*
X79122Y31965D01*
Y40500D01*
X79036Y40929D01*
X78793Y41293D01*
X78793Y41293D01*
X66793Y53293D01*
X66429Y53536D01*
X66000Y53622D01*
X66000Y53622D01*
X56976D01*
X56834Y53834D01*
X56222Y54243D01*
X55500Y54386D01*
D02*
G37*
G36*
X100000Y34141D02*
X99181Y33978D01*
X98486Y33514D01*
X98022Y32819D01*
X97859Y32000D01*
X98022Y31181D01*
X98486Y30486D01*
X99181Y30022D01*
X100000Y29859D01*
X100583Y29975D01*
X106279Y24279D01*
X106610Y24058D01*
X107000Y23980D01*
X110656D01*
X110986Y23486D01*
X111681Y23022D01*
X112500Y22859D01*
X113319Y23022D01*
X114014Y23486D01*
X114478Y24181D01*
X114641Y25000D01*
X114478Y25819D01*
X114014Y26514D01*
X113319Y26978D01*
X112500Y27141D01*
X111681Y26978D01*
X110986Y26514D01*
X110656Y26020D01*
X107422D01*
X102025Y31417D01*
X102141Y32000D01*
X101978Y32819D01*
X101514Y33514D01*
X100819Y33978D01*
X100000Y34141D01*
D02*
G37*
G36*
X24000Y37583D02*
X23073Y37461D01*
X22208Y37103D01*
X21466Y36534D01*
X20897Y35792D01*
X20539Y34927D01*
X20417Y34000D01*
X20539Y33073D01*
X20897Y32208D01*
X21466Y31466D01*
X22208Y30897D01*
X23073Y30539D01*
X24000Y30417D01*
X24927Y30539D01*
X25792Y30897D01*
X26534Y31466D01*
X27103Y32208D01*
X27461Y33073D01*
X27583Y34000D01*
X27461Y34927D01*
X27103Y35792D01*
X26534Y36534D01*
X25792Y37103D01*
X24927Y37461D01*
X24000Y37583D01*
D02*
G37*
G36*
X146000Y63641D02*
X145181Y63478D01*
X144486Y63014D01*
X144022Y62319D01*
X143859Y61500D01*
X144022Y60681D01*
X144486Y59986D01*
X145181Y59522D01*
X146000Y59359D01*
X146819Y59522D01*
X147514Y59986D01*
X147978Y60681D01*
X148141Y61500D01*
X147978Y62319D01*
X147514Y63014D01*
X146819Y63478D01*
X146000Y63641D01*
D02*
G37*
G36*
X8500Y80083D02*
X7572Y79961D01*
X6708Y79603D01*
X5966Y79034D01*
X5397Y78292D01*
X5039Y77427D01*
X4917Y76500D01*
X5039Y75573D01*
X5397Y74708D01*
X5966Y73966D01*
X6708Y73397D01*
X7572Y73039D01*
X8500Y72917D01*
X9427Y73039D01*
X10292Y73397D01*
X11034Y73966D01*
X11603Y74708D01*
X11961Y75573D01*
X12083Y76500D01*
X11961Y77427D01*
X11603Y78292D01*
X11034Y79034D01*
X10292Y79603D01*
X9427Y79961D01*
X8500Y80083D01*
D02*
G37*
G36*
X95953Y138188D02*
X95133Y138025D01*
X94439Y137561D01*
X93975Y136867D01*
X93812Y136047D01*
X93975Y135228D01*
X94439Y134533D01*
X95133Y134069D01*
X95296Y134037D01*
X97614Y131719D01*
Y84457D01*
X97522Y84319D01*
X97359Y83500D01*
X97522Y82681D01*
X97986Y81986D01*
X98681Y81522D01*
X99500Y81359D01*
X100319Y81522D01*
X101014Y81986D01*
X101478Y82681D01*
X101641Y83500D01*
X101478Y84319D01*
X101386Y84457D01*
Y132500D01*
X101243Y133222D01*
X100834Y133834D01*
X100827Y133838D01*
X100822Y133845D01*
X97963Y136704D01*
X97931Y136867D01*
X97467Y137561D01*
X96772Y138025D01*
X95953Y138188D01*
D02*
G37*
G36*
X8500Y90083D02*
X7572Y89961D01*
X6708Y89603D01*
X5966Y89034D01*
X5397Y88292D01*
X5039Y87427D01*
X4917Y86500D01*
X5039Y85573D01*
X5397Y84708D01*
X5966Y83966D01*
X6708Y83397D01*
X7572Y83039D01*
X8500Y82917D01*
X9427Y83039D01*
X10292Y83397D01*
X11034Y83966D01*
X11603Y84708D01*
X11961Y85573D01*
X12083Y86500D01*
X11961Y87427D01*
X11603Y88292D01*
X11034Y89034D01*
X10292Y89603D01*
X9427Y89961D01*
X8500Y90083D01*
D02*
G37*
G36*
X57000Y73386D02*
X56278Y73243D01*
X55666Y72834D01*
X55524Y72622D01*
X44000D01*
X43571Y72536D01*
X43207Y72293D01*
X43207Y72293D01*
X39583Y68669D01*
X38523D01*
X38381Y68881D01*
X37769Y69290D01*
X37047Y69433D01*
X36325Y69290D01*
X35713Y68881D01*
X35305Y68269D01*
X35161Y67547D01*
X35305Y66825D01*
X35713Y66214D01*
X36325Y65805D01*
X37047Y65661D01*
X37769Y65805D01*
X38381Y66214D01*
X38523Y66426D01*
X40047D01*
X40047Y66426D01*
X40476Y66511D01*
X40840Y66754D01*
X44465Y70378D01*
X55524D01*
X55666Y70166D01*
X56278Y69757D01*
X57000Y69614D01*
X57722Y69757D01*
X58334Y70166D01*
X58743Y70778D01*
X58886Y71500D01*
X58743Y72222D01*
X58334Y72834D01*
X57722Y73243D01*
X57000Y73386D01*
D02*
G37*
G36*
X179000Y64141D02*
X178181Y63978D01*
X177486Y63514D01*
X177022Y62819D01*
X176859Y62000D01*
X177022Y61181D01*
X177486Y60486D01*
X178181Y60022D01*
X179000Y59859D01*
X179819Y60022D01*
X180514Y60486D01*
X180978Y61181D01*
X181141Y62000D01*
X180978Y62819D01*
X180514Y63514D01*
X179819Y63978D01*
X179000Y64141D01*
D02*
G37*
G36*
X8500Y70083D02*
X7572Y69961D01*
X6708Y69603D01*
X5966Y69034D01*
X5397Y68292D01*
X5039Y67427D01*
X4917Y66500D01*
X5039Y65573D01*
X5397Y64708D01*
X5966Y63966D01*
X6708Y63397D01*
X7572Y63039D01*
X8500Y62917D01*
X9427Y63039D01*
X10292Y63397D01*
X11034Y63966D01*
X11603Y64708D01*
X11961Y65573D01*
X12083Y66500D01*
X11961Y67427D01*
X11603Y68292D01*
X11034Y69034D01*
X10292Y69603D01*
X9427Y69961D01*
X8500Y70083D01*
D02*
G37*
G36*
X169000Y67600D02*
X168005Y67402D01*
X167162Y66839D01*
X166598Y65995D01*
X166400Y65000D01*
X166598Y64005D01*
X166977Y63438D01*
X166623Y63085D01*
X165995Y63504D01*
X165000Y63702D01*
X164005Y63504D01*
X163162Y62941D01*
X162716Y62274D01*
X162216D01*
X161838Y62839D01*
X160995Y63402D01*
X160000Y63600D01*
X159005Y63402D01*
X158438Y63023D01*
X158085Y63377D01*
X158504Y64005D01*
X158702Y65000D01*
X158504Y65995D01*
X157941Y66839D01*
X157097Y67402D01*
X156102Y67600D01*
X155107Y67402D01*
X154264Y66839D01*
X151162Y63736D01*
X150598Y62893D01*
X150400Y61898D01*
Y29577D01*
X142392Y21569D01*
X141573Y21461D01*
X140708Y21103D01*
X139966Y20534D01*
X139397Y19792D01*
X139039Y18927D01*
X138917Y18000D01*
X139039Y17073D01*
X139397Y16208D01*
X139966Y15466D01*
X140708Y14897D01*
X141573Y14539D01*
X142500Y14417D01*
X143427Y14539D01*
X144292Y14897D01*
X145034Y15466D01*
X145603Y16208D01*
X145961Y17073D01*
X146069Y17892D01*
X154438Y26261D01*
X154900Y26070D01*
Y23000D01*
X154900Y23000D01*
X154900D01*
X155098Y22005D01*
X155662Y21161D01*
X158931Y17892D01*
X159039Y17073D01*
X159397Y16208D01*
X159966Y15466D01*
X160708Y14897D01*
X161573Y14539D01*
X162500Y14417D01*
X163427Y14539D01*
X164292Y14897D01*
X165034Y15466D01*
X165603Y16208D01*
X165961Y17073D01*
X166083Y18000D01*
X165961Y18927D01*
X165603Y19792D01*
X165034Y20534D01*
X164292Y21103D01*
X163427Y21461D01*
X162608Y21569D01*
X160100Y24077D01*
Y57423D01*
X161838Y59162D01*
X162284Y59829D01*
X162784D01*
X163162Y59264D01*
X165400Y57025D01*
Y32500D01*
X165400Y32500D01*
X165400D01*
X165598Y31505D01*
X166162Y30661D01*
X178931Y17892D01*
X179039Y17073D01*
X179397Y16208D01*
X179966Y15466D01*
X180708Y14897D01*
X181573Y14539D01*
X182500Y14417D01*
X183427Y14539D01*
X184292Y14897D01*
X185034Y15466D01*
X185603Y16208D01*
X185961Y17073D01*
X186083Y18000D01*
X185961Y18927D01*
X185603Y19792D01*
X185034Y20534D01*
X184292Y21103D01*
X183427Y21461D01*
X182608Y21569D01*
X180672Y23505D01*
X180893Y23953D01*
X181500Y23873D01*
X182309Y23980D01*
X183063Y24292D01*
X183711Y24789D01*
X184208Y25437D01*
X184520Y26191D01*
X184627Y27000D01*
X184520Y27809D01*
X184208Y28563D01*
X183711Y29211D01*
X183063Y29708D01*
X182309Y30020D01*
X182134Y30043D01*
X175100Y37077D01*
Y61500D01*
X174902Y62495D01*
X174338Y63339D01*
X170838Y66839D01*
X169995Y67402D01*
X169000Y67600D01*
D02*
G37*
%LPD*%
D33*
X100000Y32000D02*
X107000Y25000D01*
X112500D01*
D34*
X100500Y170500D02*
X121500D01*
X132000Y160000D01*
D37*
X99500Y83500D02*
Y132500D01*
X95953Y136047D02*
X99488Y132512D01*
X85000Y21500D02*
Y24500D01*
Y26500D01*
X93488Y34988D01*
Y47547D01*
D38*
X99488Y132512D02*
X99500Y132500D01*
X44000Y71500D02*
X57000D01*
X40047Y67547D02*
X44000Y71500D01*
X37047Y67547D02*
X40047D01*
X55000Y52500D02*
X55500D01*
X78000Y31500D02*
Y40500D01*
X66000Y52500D02*
X78000Y40500D01*
X55500Y52500D02*
X66000D01*
X140000Y89500D02*
X147000Y96500D01*
X165500D01*
X169000Y100000D01*
X78000Y31500D02*
X85000Y24500D01*
D40*
X169000Y65000D02*
X172500Y61500D01*
Y36000D02*
Y61500D01*
Y36000D02*
X181500Y27000D01*
X165000Y61102D02*
X168000Y58102D01*
Y32500D02*
Y58102D01*
Y32500D02*
X182500Y18000D01*
X153000Y61898D02*
X156102Y65000D01*
X153000Y28500D02*
Y61898D01*
X142500Y18000D02*
X153000Y28500D01*
X157500Y58500D02*
X160000Y61000D01*
X157500Y23000D02*
Y58500D01*
Y23000D02*
X162500Y18000D01*
D42*
X37500Y150000D02*
D03*
X63000D02*
D03*
X22000Y165500D02*
D03*
X78500D02*
D03*
X50500D02*
D03*
X189000D02*
D03*
X153000D02*
D03*
X12500Y18000D02*
D03*
X92500D02*
D03*
D43*
X112000Y160000D02*
D03*
D44*
X132000D02*
D03*
D45*
X12000Y165500D02*
D03*
X68500D02*
D03*
X40500D02*
D03*
X8500Y46500D02*
D03*
Y56500D02*
D03*
Y66500D02*
D03*
Y76500D02*
D03*
Y86500D02*
D03*
X199000Y165500D02*
D03*
X163000D02*
D03*
X116000Y52000D02*
D03*
Y62000D02*
D03*
X24000Y34000D02*
D03*
X72500Y8000D02*
D03*
Y18000D02*
D03*
X62500Y8000D02*
D03*
Y18000D02*
D03*
X52500Y8000D02*
D03*
Y18000D02*
D03*
X42500Y8000D02*
D03*
Y18000D02*
D03*
X32500Y8000D02*
D03*
Y18000D02*
D03*
X22500Y8000D02*
D03*
Y18000D02*
D03*
X12500Y8000D02*
D03*
X212500D02*
D03*
Y18000D02*
D03*
X202500Y8000D02*
D03*
Y18000D02*
D03*
X192500Y8000D02*
D03*
Y18000D02*
D03*
X182500Y8000D02*
D03*
Y18000D02*
D03*
X172500Y8000D02*
D03*
Y18000D02*
D03*
X162500Y8000D02*
D03*
Y18000D02*
D03*
X152500Y8000D02*
D03*
Y18000D02*
D03*
X142500Y8000D02*
D03*
Y18000D02*
D03*
X132500Y8000D02*
D03*
Y18000D02*
D03*
X122500Y8000D02*
D03*
Y18000D02*
D03*
X112500Y8000D02*
D03*
Y18000D02*
D03*
X102500Y8000D02*
D03*
Y18000D02*
D03*
X92500Y8000D02*
D03*
D46*
X8500Y36500D02*
D03*
X116000Y42000D02*
D03*
X24000Y44000D02*
D03*
D47*
X37047Y67547D02*
D03*
X3500Y140500D02*
D03*
X62500Y136000D02*
D03*
X37000Y135500D02*
D03*
X29500Y152500D02*
D03*
X3500Y154000D02*
D03*
X40500Y52500D02*
D03*
X57000Y71500D02*
D03*
X45500Y67000D02*
D03*
X50500D02*
D03*
X55500Y52500D02*
D03*
X71000Y71964D02*
D03*
Y40964D02*
D03*
X8000Y97500D02*
D03*
X8500Y114000D02*
D03*
X71000Y92000D02*
D03*
Y102000D02*
D03*
X72000Y107500D02*
D03*
X59000Y117500D02*
D03*
X46000Y107000D02*
D03*
X198500Y61244D02*
D03*
X140000Y89500D02*
D03*
X169000Y100000D02*
D03*
X181756Y99256D02*
D03*
D48*
X207000Y120500D02*
D03*
X105000Y139000D02*
D03*
X181500Y27000D02*
D03*
X179386Y129386D02*
D03*
X125000Y102500D02*
D03*
X195500Y32000D02*
D03*
X129500Y31500D02*
D03*
X200500Y87500D02*
D03*
Y110000D02*
D03*
D49*
X100500Y170500D02*
D03*
X165000Y61102D02*
D03*
X169000Y65000D02*
D03*
X160000Y61000D02*
D03*
X156102Y65000D02*
D03*
X99500Y83500D02*
D03*
X3500Y94500D02*
D03*
Y127500D02*
D03*
X95953Y136047D02*
D03*
X85000Y21500D02*
D03*
X93488Y47547D02*
D03*
X94500Y65500D02*
D03*
X112500Y25000D02*
D03*
X100000Y32000D02*
D03*
D50*
X171161Y86831D02*
D03*
Y82500D02*
D03*
Y78169D02*
D03*
X166831Y86831D02*
D03*
Y82500D02*
D03*
Y78169D02*
D03*
X162500Y86831D02*
D03*
Y82500D02*
D03*
Y78169D02*
D03*
X158169Y86831D02*
D03*
Y82500D02*
D03*
Y78169D02*
D03*
X153839Y86831D02*
D03*
Y82500D02*
D03*
Y78169D02*
D03*
M02*
