%FSLAX25Y25*%
%MOIN*%
G70*
G01*
G75*
%ADD10R,0.12205X0.06299*%
%ADD11R,0.03543X0.03150*%
%ADD12R,0.03543X0.02756*%
%ADD13R,0.02756X0.03543*%
%ADD14R,0.01772X0.02362*%
%ADD15R,0.12795X0.08661*%
%ADD16R,0.03937X0.08661*%
%ADD17R,0.03937X0.05906*%
%ADD18R,0.06102X0.09646*%
%ADD19R,0.01378X0.03543*%
%ADD20R,0.01181X0.03937*%
%ADD21O,0.02362X0.08661*%
%ADD22O,0.01181X0.06299*%
%ADD23O,0.06299X0.01181*%
%ADD24R,0.20551X0.12205*%
%ADD25O,0.01378X0.06693*%
%ADD26R,0.05512X0.11811*%
%ADD27R,0.11811X0.05512*%
%ADD28R,0.02953X0.11024*%
%ADD29R,0.05118X0.06102*%
%ADD30R,0.07480X0.04331*%
%ADD31R,0.05906X0.03937*%
%ADD32C,0.01400*%
%ADD33C,0.00800*%
%ADD34C,0.01500*%
%ADD35C,0.00600*%
%ADD36C,0.03500*%
%ADD37C,0.02500*%
%ADD38C,0.01000*%
%ADD39C,0.01200*%
%ADD40C,0.03900*%
%ADD41C,0.05000*%
%ADD42R,0.05906X0.05906*%
%ADD43C,0.09055*%
%ADD44R,0.09055X0.09055*%
%ADD45C,0.05906*%
%ADD46R,0.05906X0.05906*%
%ADD47C,0.02500*%
%ADD48C,0.05000*%
%ADD49C,0.03000*%
%ADD50C,0.02000*%
%ADD51C,0.00984*%
%ADD52C,0.00394*%
%ADD53C,0.02362*%
%ADD54C,0.00984*%
%ADD55C,0.00787*%
%ADD56C,0.00500*%
%ADD57C,0.02000*%
G36*
X122031Y70499D02*
X120641D01*
Y69898D01*
X121736D01*
Y69349D01*
X120641D01*
Y68706D01*
X122031D01*
Y68124D01*
X119943D01*
Y71058D01*
X122031D01*
Y70499D01*
D02*
G37*
G36*
X123505Y71095D02*
X123551Y71090D01*
X123602Y71086D01*
X123658Y71076D01*
X123718Y71067D01*
X123843Y71030D01*
X123912Y71012D01*
X123977Y70984D01*
X124041Y70952D01*
X124101Y70915D01*
X124161Y70873D01*
X124217Y70822D01*
X124221Y70818D01*
X124231Y70808D01*
X124244Y70795D01*
X124263Y70776D01*
X124282Y70748D01*
X124305Y70716D01*
X124332Y70679D01*
X124360Y70638D01*
X124411Y70545D01*
X124457Y70434D01*
X124471Y70374D01*
X124485Y70310D01*
X124494Y70245D01*
X124499Y70175D01*
Y70171D01*
Y70157D01*
Y70139D01*
X124494Y70111D01*
X124489Y70074D01*
X124485Y70037D01*
X124476Y69991D01*
X124462Y69940D01*
X124425Y69834D01*
X124402Y69774D01*
X124374Y69713D01*
X124341Y69653D01*
X124300Y69593D01*
X124254Y69533D01*
X124203Y69473D01*
X124198Y69469D01*
X124189Y69459D01*
X124171Y69441D01*
X124147Y69418D01*
X124110Y69390D01*
X124069Y69353D01*
X124018Y69311D01*
X123958Y69265D01*
X123893Y69210D01*
X123815Y69154D01*
X123727Y69090D01*
X123630Y69020D01*
X123519Y68947D01*
X123404Y68873D01*
X123270Y68789D01*
X123131Y68706D01*
X124540D01*
X124489Y68124D01*
X122290D01*
Y68692D01*
X122295Y68697D01*
X122309Y68706D01*
X122336Y68725D01*
X122373Y68752D01*
X122424Y68789D01*
X122484Y68831D01*
X122558Y68887D01*
X122641Y68947D01*
X122651Y68951D01*
X122669Y68965D01*
X122701Y68988D01*
X122738Y69020D01*
X122789Y69053D01*
X122849Y69099D01*
X122909Y69145D01*
X122979Y69196D01*
X123122Y69307D01*
X123265Y69427D01*
X123339Y69487D01*
X123404Y69542D01*
X123464Y69598D01*
X123519Y69653D01*
X123524Y69658D01*
X123533Y69667D01*
X123547Y69681D01*
X123561Y69700D01*
X123607Y69755D01*
X123658Y69820D01*
X123709Y69898D01*
X123755Y69986D01*
X123769Y70028D01*
X123783Y70074D01*
X123792Y70120D01*
X123796Y70162D01*
Y70171D01*
Y70189D01*
X123792Y70222D01*
X123783Y70263D01*
X123769Y70305D01*
X123750Y70351D01*
X123722Y70402D01*
X123686Y70443D01*
X123681Y70448D01*
X123667Y70462D01*
X123639Y70480D01*
X123607Y70499D01*
X123565Y70517D01*
X123514Y70536D01*
X123454Y70550D01*
X123390Y70554D01*
X123371D01*
X123348Y70550D01*
X123320Y70545D01*
X123288Y70536D01*
X123251Y70527D01*
X123210Y70508D01*
X123163Y70485D01*
X123122Y70453D01*
X123076Y70416D01*
X123034Y70374D01*
X122997Y70319D01*
X122960Y70254D01*
X122932Y70180D01*
X122909Y70092D01*
X122891Y69995D01*
X122290Y70129D01*
Y70134D01*
X122295Y70139D01*
Y70152D01*
X122300Y70171D01*
X122313Y70217D01*
X122336Y70282D01*
X122364Y70356D01*
X122406Y70434D01*
X122452Y70522D01*
X122507Y70614D01*
X122577Y70707D01*
X122655Y70795D01*
X122748Y70873D01*
X122854Y70947D01*
X122974Y71012D01*
X123108Y71058D01*
X123182Y71076D01*
X123256Y71090D01*
X123339Y71095D01*
X123422Y71100D01*
X123473D01*
X123505Y71095D01*
D02*
G37*
G36*
X115462D02*
X115504Y71090D01*
X115554Y71086D01*
X115614Y71076D01*
X115679Y71062D01*
X115748Y71044D01*
X115822Y71016D01*
X115901Y70989D01*
X115975Y70952D01*
X116053Y70905D01*
X116127Y70850D01*
X116201Y70790D01*
X116270Y70721D01*
X116330Y70638D01*
X116335Y70633D01*
X116344Y70619D01*
X116358Y70591D01*
X116381Y70559D01*
X116404Y70513D01*
X116432Y70462D01*
X116460Y70402D01*
X116488Y70337D01*
X116515Y70263D01*
X116548Y70180D01*
X116571Y70092D01*
X116594Y70004D01*
X116617Y69907D01*
X116631Y69806D01*
X116640Y69700D01*
X116645Y69589D01*
Y69579D01*
Y69561D01*
Y69529D01*
X116640Y69482D01*
X116635Y69427D01*
X116626Y69362D01*
X116617Y69293D01*
X116603Y69214D01*
X116589Y69131D01*
X116566Y69048D01*
X116538Y68956D01*
X116511Y68868D01*
X116469Y68776D01*
X116428Y68683D01*
X116377Y68595D01*
X116321Y68512D01*
X116317Y68508D01*
X116307Y68494D01*
X116289Y68471D01*
X116261Y68443D01*
X116229Y68411D01*
X116187Y68374D01*
X116136Y68337D01*
X116081Y68295D01*
X116021Y68253D01*
X115947Y68217D01*
X115873Y68180D01*
X115785Y68147D01*
X115698Y68120D01*
X115596Y68097D01*
X115490Y68083D01*
X115379Y68078D01*
X115351D01*
X115323Y68083D01*
X115282Y68087D01*
X115231Y68092D01*
X115175Y68101D01*
X115111Y68115D01*
X115041Y68133D01*
X114972Y68156D01*
X114894Y68184D01*
X114820Y68221D01*
X114746Y68267D01*
X114667Y68318D01*
X114598Y68374D01*
X114529Y68443D01*
X114464Y68521D01*
X114459Y68526D01*
X114450Y68540D01*
X114436Y68568D01*
X114413Y68600D01*
X114390Y68642D01*
X114362Y68697D01*
X114335Y68757D01*
X114302Y68822D01*
X114275Y68896D01*
X114242Y68979D01*
X114215Y69067D01*
X114191Y69164D01*
X114168Y69265D01*
X114154Y69372D01*
X114145Y69482D01*
X114141Y69598D01*
Y69607D01*
Y69626D01*
Y69658D01*
X114145Y69704D01*
X114150Y69760D01*
X114159Y69824D01*
X114168Y69894D01*
X114182Y69972D01*
X114201Y70055D01*
X114219Y70143D01*
X114247Y70231D01*
X114279Y70323D01*
X114316Y70411D01*
X114362Y70499D01*
X114413Y70587D01*
X114469Y70670D01*
X114473Y70674D01*
X114482Y70688D01*
X114501Y70711D01*
X114529Y70739D01*
X114561Y70771D01*
X114603Y70804D01*
X114653Y70845D01*
X114709Y70887D01*
X114769Y70924D01*
X114843Y70965D01*
X114917Y70998D01*
X115000Y71035D01*
X115092Y71058D01*
X115189Y71081D01*
X115291Y71095D01*
X115402Y71100D01*
X115429D01*
X115462Y71095D01*
D02*
G37*
G36*
X118118Y71053D02*
X118174Y71049D01*
X118229Y71044D01*
X118294Y71039D01*
X118428Y71021D01*
X118562Y70993D01*
X118691Y70956D01*
X118747Y70933D01*
X118802Y70905D01*
X118807D01*
X118816Y70896D01*
X118830Y70892D01*
X118848Y70878D01*
X118899Y70841D01*
X118964Y70790D01*
X119038Y70721D01*
X119116Y70638D01*
X119200Y70540D01*
X119283Y70425D01*
X119287Y70420D01*
X119292Y70411D01*
X119301Y70393D01*
X119315Y70365D01*
X119333Y70333D01*
X119352Y70296D01*
X119370Y70249D01*
X119389Y70199D01*
X119407Y70143D01*
X119426Y70078D01*
X119444Y70009D01*
X119463Y69940D01*
X119477Y69861D01*
X119486Y69778D01*
X119495Y69690D01*
Y69598D01*
Y69589D01*
Y69570D01*
X119491Y69538D01*
Y69492D01*
X119486Y69436D01*
X119477Y69376D01*
X119463Y69307D01*
X119449Y69228D01*
X119430Y69150D01*
X119403Y69062D01*
X119375Y68974D01*
X119338Y68887D01*
X119297Y68799D01*
X119246Y68711D01*
X119186Y68628D01*
X119121Y68545D01*
X119116Y68540D01*
X119102Y68526D01*
X119084Y68508D01*
X119052Y68480D01*
X119015Y68448D01*
X118968Y68411D01*
X118918Y68374D01*
X118853Y68337D01*
X118784Y68295D01*
X118710Y68258D01*
X118627Y68221D01*
X118534Y68189D01*
X118437Y68161D01*
X118331Y68143D01*
X118220Y68129D01*
X118100Y68124D01*
X117093D01*
Y71058D01*
X118077D01*
X118118Y71053D01*
D02*
G37*
G36*
X113697Y68124D02*
X113004D01*
Y70513D01*
X112265Y68124D01*
X111789D01*
X111077Y70513D01*
Y68124D01*
X110500D01*
Y71058D01*
X111572D01*
X112080Y69298D01*
X112621Y71058D01*
X113697D01*
Y68124D01*
D02*
G37*
G36*
X43496Y171500D02*
X42803D01*
Y173889D01*
X42064Y171500D01*
X41588D01*
X40877Y173889D01*
Y171500D01*
X40299D01*
Y174434D01*
X41371D01*
X41879Y172673D01*
X42420Y174434D01*
X43496D01*
Y171500D01*
D02*
G37*
G36*
X39708D02*
X39033D01*
Y172710D01*
X38123D01*
Y171500D01*
X37449D01*
Y174434D01*
X38123D01*
Y173293D01*
X39033D01*
Y174434D01*
X39708D01*
Y171500D01*
D02*
G37*
G36*
X45127Y174471D02*
X45169D01*
X45215Y174461D01*
X45266Y174452D01*
X45326Y174438D01*
X45390Y174420D01*
X45455Y174397D01*
X45524Y174369D01*
X45594Y174332D01*
X45663Y174291D01*
X45732Y174240D01*
X45802Y174180D01*
X45862Y174115D01*
X45922Y174036D01*
X45926Y174032D01*
X45935Y174018D01*
X45949Y173990D01*
X45968Y173958D01*
X45991Y173916D01*
X46019Y173865D01*
X46042Y173805D01*
X46074Y173741D01*
X46102Y173662D01*
X46125Y173584D01*
X46153Y173496D01*
X46176Y173403D01*
X46194Y173302D01*
X46208Y173196D01*
X46217Y173085D01*
X46222Y172969D01*
Y172960D01*
Y172941D01*
Y172905D01*
X46217Y172863D01*
X46213Y172808D01*
X46208Y172743D01*
X46199Y172669D01*
X46185Y172590D01*
X46167Y172507D01*
X46148Y172419D01*
X46125Y172332D01*
X46097Y172239D01*
X46060Y172151D01*
X46019Y172059D01*
X45972Y171971D01*
X45922Y171888D01*
X45917Y171883D01*
X45908Y171870D01*
X45889Y171846D01*
X45866Y171819D01*
X45838Y171786D01*
X45797Y171749D01*
X45755Y171713D01*
X45704Y171671D01*
X45649Y171629D01*
X45584Y171592D01*
X45515Y171555D01*
X45437Y171523D01*
X45358Y171495D01*
X45266Y171472D01*
X45173Y171458D01*
X45072Y171454D01*
X45048D01*
X45021Y171458D01*
X44984D01*
X44938Y171468D01*
X44887Y171477D01*
X44827Y171491D01*
X44762Y171509D01*
X44697Y171528D01*
X44628Y171555D01*
X44559Y171592D01*
X44489Y171634D01*
X44420Y171680D01*
X44355Y171740D01*
X44291Y171805D01*
X44231Y171879D01*
X44226Y171883D01*
X44217Y171897D01*
X44203Y171925D01*
X44185Y171957D01*
X44161Y171999D01*
X44138Y172050D01*
X44111Y172110D01*
X44083Y172175D01*
X44055Y172248D01*
X44028Y172332D01*
X44004Y172419D01*
X43981Y172516D01*
X43963Y172618D01*
X43949Y172724D01*
X43940Y172840D01*
X43935Y172960D01*
Y172969D01*
Y172988D01*
Y173020D01*
X43940Y173066D01*
X43944Y173122D01*
X43949Y173186D01*
X43958Y173256D01*
X43972Y173334D01*
X43986Y173417D01*
X44004Y173505D01*
X44032Y173593D01*
X44060Y173685D01*
X44092Y173773D01*
X44129Y173865D01*
X44175Y173953D01*
X44226Y174036D01*
X44231Y174041D01*
X44240Y174055D01*
X44258Y174078D01*
X44282Y174106D01*
X44309Y174138D01*
X44346Y174175D01*
X44392Y174217D01*
X44443Y174258D01*
X44499Y174295D01*
X44563Y174337D01*
X44633Y174374D01*
X44707Y174406D01*
X44790Y174434D01*
X44878Y174457D01*
X44975Y174471D01*
X45076Y174475D01*
X45099D01*
X45127Y174471D01*
D02*
G37*
G36*
X37153Y173852D02*
X36428D01*
Y171500D01*
X35730D01*
Y173852D01*
X35000D01*
Y174434D01*
X37153D01*
Y173852D01*
D02*
G37*
G36*
X188796Y171500D02*
X188056D01*
X187876Y172105D01*
X186929D01*
X186744Y171500D01*
X186144D01*
X187077Y174434D01*
X187876D01*
X188796Y171500D01*
D02*
G37*
G36*
X193416Y172036D02*
X194229D01*
Y171500D01*
X191854D01*
Y172036D01*
X192741D01*
Y173713D01*
X192736Y173708D01*
X192718Y173699D01*
X192690Y173681D01*
X192653Y173662D01*
X192612Y173634D01*
X192561Y173607D01*
X192501Y173574D01*
X192441Y173537D01*
X192311Y173468D01*
X192177Y173394D01*
X192043Y173329D01*
X191983Y173297D01*
X191928Y173274D01*
Y173879D01*
X191937Y173884D01*
X191960Y173889D01*
X191997Y173902D01*
X192048Y173921D01*
X192108Y173944D01*
X192177Y173967D01*
X192256Y173999D01*
X192334Y174036D01*
X192501Y174124D01*
X192584Y174170D01*
X192663Y174226D01*
X192736Y174281D01*
X192806Y174341D01*
X192866Y174406D01*
X192917Y174475D01*
X193416D01*
Y172036D01*
D02*
G37*
G36*
X155364Y171500D02*
X154768D01*
X153636Y173477D01*
Y173473D01*
Y173463D01*
Y173436D01*
Y173403D01*
X153641Y173390D01*
Y173380D01*
Y173376D01*
Y173366D01*
X153646Y173353D01*
Y173339D01*
X153650Y173297D01*
Y173256D01*
Y171500D01*
X153114D01*
Y174434D01*
X153853D01*
X154847Y172701D01*
Y172706D01*
Y172724D01*
X154842Y172747D01*
Y172775D01*
X154838Y172840D01*
X154833Y172868D01*
Y172895D01*
Y174434D01*
X155364D01*
Y171500D01*
D02*
G37*
G36*
X186084Y173852D02*
X184712D01*
Y173196D01*
X185797D01*
Y172646D01*
X184712D01*
Y171500D01*
X184000D01*
Y174434D01*
X186084D01*
Y173852D01*
D02*
G37*
G36*
X191364Y171500D02*
X190768D01*
X189636Y173477D01*
Y173473D01*
Y173463D01*
Y173436D01*
Y173403D01*
X189641Y173390D01*
Y173380D01*
Y173376D01*
Y173366D01*
X189646Y173353D01*
Y173339D01*
X189650Y173297D01*
Y173256D01*
Y171500D01*
X189114D01*
Y174434D01*
X189854D01*
X190847Y172701D01*
Y172706D01*
Y172724D01*
X190842Y172747D01*
Y172775D01*
X190838Y172840D01*
X190833Y172868D01*
Y172895D01*
Y174434D01*
X191364D01*
Y171500D01*
D02*
G37*
G36*
X11618Y95429D02*
X11673Y95424D01*
X11729Y95420D01*
X11794Y95415D01*
X11928Y95397D01*
X12061Y95369D01*
X12191Y95332D01*
X12246Y95309D01*
X12302Y95281D01*
X12306D01*
X12315Y95272D01*
X12329Y95267D01*
X12348Y95253D01*
X12399Y95217D01*
X12463Y95166D01*
X12537Y95096D01*
X12616Y95013D01*
X12699Y94916D01*
X12782Y94801D01*
X12787Y94796D01*
X12791Y94787D01*
X12801Y94768D01*
X12814Y94741D01*
X12833Y94708D01*
X12852Y94671D01*
X12870Y94625D01*
X12888Y94574D01*
X12907Y94519D01*
X12925Y94454D01*
X12944Y94385D01*
X12962Y94316D01*
X12976Y94237D01*
X12985Y94154D01*
X12995Y94066D01*
Y93974D01*
Y93964D01*
Y93946D01*
X12990Y93914D01*
Y93867D01*
X12985Y93812D01*
X12976Y93752D01*
X12962Y93683D01*
X12948Y93604D01*
X12930Y93526D01*
X12902Y93438D01*
X12875Y93350D01*
X12838Y93262D01*
X12796Y93174D01*
X12745Y93087D01*
X12685Y93004D01*
X12620Y92920D01*
X12616Y92916D01*
X12602Y92902D01*
X12584Y92883D01*
X12551Y92856D01*
X12514Y92823D01*
X12468Y92786D01*
X12417Y92750D01*
X12353Y92712D01*
X12283Y92671D01*
X12209Y92634D01*
X12126Y92597D01*
X12034Y92565D01*
X11937Y92537D01*
X11830Y92519D01*
X11720Y92505D01*
X11599Y92500D01*
X10592D01*
Y95434D01*
X11576D01*
X11618Y95429D01*
D02*
G37*
G36*
X14127Y92500D02*
X13443D01*
Y95434D01*
X14127D01*
Y92500D01*
D02*
G37*
G36*
X8084Y94852D02*
X6712D01*
Y94195D01*
X7797D01*
Y93646D01*
X6712D01*
Y92500D01*
X6000D01*
Y95434D01*
X8084D01*
Y94852D01*
D02*
G37*
G36*
X10297D02*
X9571D01*
Y92500D01*
X8874D01*
Y94852D01*
X8144D01*
Y95434D01*
X10297D01*
Y94852D01*
D02*
G37*
G36*
X76568Y35036D02*
X77381D01*
Y34500D01*
X75006D01*
Y35036D01*
X75893D01*
Y36713D01*
X75889Y36708D01*
X75870Y36699D01*
X75843Y36681D01*
X75806Y36662D01*
X75764Y36634D01*
X75713Y36607D01*
X75653Y36574D01*
X75593Y36537D01*
X75464Y36468D01*
X75330Y36394D01*
X75196Y36329D01*
X75136Y36297D01*
X75080Y36274D01*
Y36879D01*
X75090Y36884D01*
X75113Y36889D01*
X75150Y36902D01*
X75200Y36921D01*
X75260Y36944D01*
X75330Y36967D01*
X75408Y36999D01*
X75487Y37036D01*
X75653Y37124D01*
X75736Y37170D01*
X75815Y37226D01*
X75889Y37281D01*
X75958Y37341D01*
X76018Y37406D01*
X76069Y37475D01*
X76568D01*
Y35036D01*
D02*
G37*
G36*
X68894Y37471D02*
X68950Y37466D01*
X69019Y37452D01*
X69097Y37438D01*
X69185Y37415D01*
X69273Y37387D01*
X69370Y37350D01*
X69462Y37304D01*
X69555Y37249D01*
X69647Y37184D01*
X69730Y37106D01*
X69804Y37013D01*
X69869Y36902D01*
X69924Y36782D01*
X69338Y36588D01*
Y36593D01*
X69333Y36602D01*
X69324Y36621D01*
X69314Y36644D01*
X69278Y36699D01*
X69231Y36764D01*
X69199Y36796D01*
X69162Y36829D01*
X69121Y36856D01*
X69074Y36884D01*
X69023Y36907D01*
X68968Y36926D01*
X68903Y36935D01*
X68834Y36939D01*
X68797D01*
X68769Y36935D01*
X68742Y36930D01*
X68705Y36926D01*
X68631Y36907D01*
X68557Y36875D01*
X68520Y36852D01*
X68492Y36829D01*
X68464Y36796D01*
X68446Y36759D01*
X68432Y36718D01*
X68427Y36671D01*
Y36667D01*
Y36653D01*
X68432Y36634D01*
X68437Y36611D01*
X68446Y36584D01*
X68460Y36556D01*
X68478Y36524D01*
X68501Y36496D01*
X68506Y36491D01*
X68520Y36482D01*
X68538Y36468D01*
X68575Y36454D01*
X68621Y36431D01*
X68682Y36408D01*
X68756Y36390D01*
X68848Y36367D01*
X68853D01*
X68866Y36362D01*
X68889Y36357D01*
X68922Y36353D01*
X68959Y36343D01*
X69000Y36334D01*
X69097Y36311D01*
X69204Y36279D01*
X69314Y36251D01*
X69416Y36214D01*
X69462Y36200D01*
X69504Y36182D01*
X69508D01*
X69513Y36177D01*
X69541Y36163D01*
X69578Y36140D01*
X69624Y36108D01*
X69679Y36066D01*
X69740Y36015D01*
X69800Y35955D01*
X69855Y35881D01*
X69860Y35872D01*
X69878Y35844D01*
X69901Y35803D01*
X69929Y35747D01*
X69957Y35683D01*
X69980Y35604D01*
X69998Y35521D01*
X70003Y35429D01*
Y35424D01*
Y35410D01*
Y35392D01*
X69998Y35364D01*
X69994Y35327D01*
X69984Y35285D01*
X69975Y35244D01*
X69966Y35193D01*
X69929Y35087D01*
X69901Y35031D01*
X69873Y34971D01*
X69837Y34911D01*
X69795Y34856D01*
X69749Y34796D01*
X69693Y34740D01*
X69689Y34736D01*
X69679Y34726D01*
X69661Y34712D01*
X69638Y34694D01*
X69606Y34676D01*
X69564Y34648D01*
X69518Y34625D01*
X69467Y34597D01*
X69407Y34569D01*
X69338Y34546D01*
X69264Y34519D01*
X69181Y34500D01*
X69093Y34481D01*
X68996Y34468D01*
X68894Y34458D01*
X68783Y34454D01*
X68742D01*
X68709Y34458D01*
X68668D01*
X68626Y34463D01*
X68575Y34472D01*
X68520Y34481D01*
X68400Y34505D01*
X68270Y34542D01*
X68141Y34592D01*
X68076Y34620D01*
X68016Y34657D01*
X68012Y34662D01*
X68002Y34666D01*
X67989Y34680D01*
X67966Y34694D01*
X67938Y34717D01*
X67910Y34745D01*
X67878Y34773D01*
X67845Y34809D01*
X67808Y34851D01*
X67776Y34893D01*
X67739Y34944D01*
X67707Y34999D01*
X67674Y35059D01*
X67647Y35119D01*
X67624Y35188D01*
X67601Y35262D01*
X68238Y35410D01*
Y35405D01*
X68243Y35392D01*
X68252Y35373D01*
X68261Y35346D01*
X68280Y35318D01*
X68298Y35281D01*
X68321Y35244D01*
X68353Y35207D01*
X68391Y35170D01*
X68432Y35133D01*
X68478Y35096D01*
X68534Y35068D01*
X68598Y35041D01*
X68668Y35022D01*
X68746Y35008D01*
X68834Y35004D01*
X68871D01*
X68913Y35008D01*
X68968Y35013D01*
X69023Y35027D01*
X69083Y35041D01*
X69139Y35064D01*
X69185Y35091D01*
X69190Y35096D01*
X69204Y35110D01*
X69222Y35128D01*
X69245Y35151D01*
X69268Y35184D01*
X69287Y35221D01*
X69301Y35262D01*
X69305Y35309D01*
Y35313D01*
Y35332D01*
X69301Y35355D01*
X69291Y35382D01*
X69278Y35415D01*
X69259Y35447D01*
X69236Y35479D01*
X69199Y35507D01*
X69194Y35512D01*
X69176Y35521D01*
X69148Y35535D01*
X69107Y35553D01*
X69051Y35572D01*
X68982Y35595D01*
X68894Y35618D01*
X68792Y35641D01*
X68788D01*
X68769Y35646D01*
X68737Y35655D01*
X68700Y35664D01*
X68654Y35673D01*
X68603Y35687D01*
X68543Y35706D01*
X68483Y35724D01*
X68349Y35770D01*
X68215Y35821D01*
X68150Y35854D01*
X68090Y35886D01*
X68039Y35918D01*
X67989Y35955D01*
X67984Y35960D01*
X67979Y35965D01*
X67966Y35978D01*
X67952Y35992D01*
X67933Y36015D01*
X67915Y36039D01*
X67873Y36108D01*
X67827Y36191D01*
X67790Y36293D01*
X67762Y36408D01*
X67758Y36477D01*
X67753Y36547D01*
Y36551D01*
Y36565D01*
Y36584D01*
X67758Y36611D01*
X67762Y36644D01*
X67767Y36685D01*
X67776Y36727D01*
X67790Y36773D01*
X67822Y36879D01*
X67845Y36930D01*
X67873Y36986D01*
X67905Y37041D01*
X67942Y37096D01*
X67984Y37152D01*
X68035Y37203D01*
X68039Y37207D01*
X68049Y37217D01*
X68063Y37226D01*
X68086Y37244D01*
X68118Y37267D01*
X68150Y37290D01*
X68192Y37314D01*
X68238Y37341D01*
X68293Y37364D01*
X68349Y37387D01*
X68414Y37411D01*
X68483Y37434D01*
X68557Y37452D01*
X68635Y37461D01*
X68723Y37471D01*
X68811Y37475D01*
X68848D01*
X68894Y37471D01*
D02*
G37*
G36*
X72539Y36875D02*
X71149D01*
Y36274D01*
X72244D01*
Y35724D01*
X71149D01*
Y35082D01*
X72539D01*
Y34500D01*
X70451D01*
Y37434D01*
X72539D01*
Y36875D01*
D02*
G37*
G36*
X74812Y36852D02*
X74087D01*
Y34500D01*
X73389D01*
Y36852D01*
X72659D01*
Y37434D01*
X74812D01*
Y36852D01*
D02*
G37*
G36*
X42443Y33765D02*
X42009D01*
X44093Y37434D01*
X44532D01*
X42443Y33765D01*
D02*
G37*
G36*
X45968Y37429D02*
X46024Y37424D01*
X46079Y37420D01*
X46144Y37415D01*
X46278Y37397D01*
X46412Y37369D01*
X46541Y37332D01*
X46597Y37309D01*
X46652Y37281D01*
X46657D01*
X46666Y37272D01*
X46680Y37267D01*
X46698Y37253D01*
X46749Y37217D01*
X46814Y37166D01*
X46888Y37096D01*
X46966Y37013D01*
X47049Y36916D01*
X47133Y36801D01*
X47137Y36796D01*
X47142Y36787D01*
X47151Y36768D01*
X47165Y36741D01*
X47183Y36708D01*
X47202Y36671D01*
X47220Y36625D01*
X47239Y36574D01*
X47257Y36519D01*
X47276Y36454D01*
X47294Y36385D01*
X47313Y36316D01*
X47327Y36237D01*
X47336Y36154D01*
X47345Y36066D01*
Y35974D01*
Y35965D01*
Y35946D01*
X47341Y35914D01*
Y35868D01*
X47336Y35812D01*
X47327Y35752D01*
X47313Y35683D01*
X47299Y35604D01*
X47280Y35526D01*
X47253Y35438D01*
X47225Y35350D01*
X47188Y35262D01*
X47146Y35175D01*
X47096Y35087D01*
X47036Y35004D01*
X46971Y34920D01*
X46966Y34916D01*
X46952Y34902D01*
X46934Y34883D01*
X46902Y34856D01*
X46865Y34823D01*
X46818Y34786D01*
X46768Y34749D01*
X46703Y34712D01*
X46634Y34671D01*
X46560Y34634D01*
X46477Y34597D01*
X46384Y34565D01*
X46287Y34537D01*
X46181Y34519D01*
X46070Y34505D01*
X45950Y34500D01*
X44943D01*
Y37434D01*
X45927D01*
X45968Y37429D01*
D02*
G37*
G36*
X49882Y36875D02*
X48491D01*
Y36274D01*
X49586D01*
Y35724D01*
X48491D01*
Y35082D01*
X49882D01*
Y34500D01*
X47793D01*
Y37434D01*
X49882D01*
Y36875D01*
D02*
G37*
G36*
X36798Y36852D02*
X36072D01*
Y34500D01*
X35375D01*
Y36852D01*
X34645D01*
Y37434D01*
X36798D01*
Y36852D01*
D02*
G37*
G36*
X39450Y34500D02*
X38710D01*
X38530Y35105D01*
X37583D01*
X37398Y34500D01*
X36798D01*
X37731Y37434D01*
X38530D01*
X39450Y34500D01*
D02*
G37*
G36*
X71496Y171500D02*
X70803D01*
Y173889D01*
X70064Y171500D01*
X69588D01*
X68877Y173889D01*
Y171500D01*
X68299D01*
Y174434D01*
X69371D01*
X69879Y172673D01*
X70420Y174434D01*
X71496D01*
Y171500D01*
D02*
G37*
G36*
X67708D02*
X67033D01*
Y172710D01*
X66123D01*
Y171500D01*
X65449D01*
Y174434D01*
X66123D01*
Y173293D01*
X67033D01*
Y174434D01*
X67708D01*
Y171500D01*
D02*
G37*
G36*
X65153Y173852D02*
X64428D01*
Y171500D01*
X63730D01*
Y173852D01*
X63000D01*
Y174434D01*
X65153D01*
Y173852D01*
D02*
G37*
G36*
X73543Y172036D02*
X74356D01*
Y171500D01*
X71981D01*
Y172036D01*
X72868D01*
Y173713D01*
X72864Y173708D01*
X72845Y173699D01*
X72817Y173681D01*
X72781Y173662D01*
X72739Y173634D01*
X72688Y173607D01*
X72628Y173574D01*
X72568Y173537D01*
X72439Y173468D01*
X72305Y173394D01*
X72171Y173329D01*
X72111Y173297D01*
X72055Y173274D01*
Y173879D01*
X72064Y173884D01*
X72088Y173889D01*
X72124Y173902D01*
X72175Y173921D01*
X72235Y173944D01*
X72305Y173967D01*
X72383Y173999D01*
X72462Y174036D01*
X72628Y174124D01*
X72711Y174170D01*
X72790Y174226D01*
X72864Y174281D01*
X72933Y174341D01*
X72993Y174406D01*
X73044Y174475D01*
X73543D01*
Y172036D01*
D02*
G37*
G36*
X12751Y174471D02*
X12792D01*
X12839Y174461D01*
X12889Y174452D01*
X12949Y174438D01*
X13014Y174420D01*
X13079Y174397D01*
X13148Y174369D01*
X13217Y174332D01*
X13287Y174291D01*
X13356Y174240D01*
X13425Y174180D01*
X13485Y174115D01*
X13545Y174036D01*
X13550Y174032D01*
X13559Y174018D01*
X13573Y173990D01*
X13592Y173958D01*
X13615Y173916D01*
X13643Y173865D01*
X13666Y173805D01*
X13698Y173741D01*
X13726Y173662D01*
X13749Y173584D01*
X13777Y173496D01*
X13800Y173403D01*
X13818Y173302D01*
X13832Y173196D01*
X13841Y173085D01*
X13846Y172969D01*
Y172960D01*
Y172941D01*
Y172905D01*
X13841Y172863D01*
X13837Y172808D01*
X13832Y172743D01*
X13823Y172669D01*
X13809Y172590D01*
X13790Y172507D01*
X13772Y172419D01*
X13749Y172332D01*
X13721Y172239D01*
X13684Y172151D01*
X13643Y172059D01*
X13596Y171971D01*
X13545Y171888D01*
X13541Y171883D01*
X13532Y171870D01*
X13513Y171846D01*
X13490Y171819D01*
X13462Y171786D01*
X13421Y171749D01*
X13379Y171713D01*
X13328Y171671D01*
X13273Y171629D01*
X13208Y171592D01*
X13139Y171555D01*
X13060Y171523D01*
X12982Y171495D01*
X12889Y171472D01*
X12797Y171458D01*
X12695Y171454D01*
X12672D01*
X12645Y171458D01*
X12608D01*
X12561Y171468D01*
X12511Y171477D01*
X12451Y171491D01*
X12386Y171509D01*
X12321Y171528D01*
X12252Y171555D01*
X12183Y171592D01*
X12113Y171634D01*
X12044Y171680D01*
X11979Y171740D01*
X11915Y171805D01*
X11855Y171879D01*
X11850Y171883D01*
X11841Y171897D01*
X11827Y171925D01*
X11808Y171957D01*
X11785Y171999D01*
X11762Y172050D01*
X11734Y172110D01*
X11707Y172175D01*
X11679Y172248D01*
X11651Y172332D01*
X11628Y172419D01*
X11605Y172516D01*
X11587Y172618D01*
X11573Y172724D01*
X11564Y172840D01*
X11559Y172960D01*
Y172969D01*
Y172988D01*
Y173020D01*
X11564Y173066D01*
X11568Y173122D01*
X11573Y173186D01*
X11582Y173256D01*
X11596Y173334D01*
X11610Y173417D01*
X11628Y173505D01*
X11656Y173593D01*
X11684Y173685D01*
X11716Y173773D01*
X11753Y173865D01*
X11799Y173953D01*
X11850Y174036D01*
X11855Y174041D01*
X11864Y174055D01*
X11882Y174078D01*
X11905Y174106D01*
X11933Y174138D01*
X11970Y174175D01*
X12016Y174217D01*
X12067Y174258D01*
X12122Y174295D01*
X12187Y174337D01*
X12257Y174374D01*
X12330Y174406D01*
X12414Y174434D01*
X12501Y174457D01*
X12598Y174471D01*
X12700Y174475D01*
X12723D01*
X12751Y174471D01*
D02*
G37*
G36*
X63877Y37429D02*
X63909D01*
X63992Y37424D01*
X64085Y37415D01*
X64177Y37397D01*
X64270Y37378D01*
X64357Y37350D01*
X64362D01*
X64367Y37346D01*
X64394Y37332D01*
X64436Y37314D01*
X64482Y37281D01*
X64542Y37240D01*
X64602Y37184D01*
X64662Y37119D01*
X64718Y37041D01*
Y37036D01*
X64722Y37032D01*
X64732Y37018D01*
X64741Y37004D01*
X64764Y36958D01*
X64792Y36898D01*
X64815Y36824D01*
X64838Y36741D01*
X64856Y36648D01*
X64861Y36551D01*
Y36547D01*
Y36528D01*
X64856Y36500D01*
X64852Y36463D01*
X64847Y36422D01*
X64833Y36371D01*
X64819Y36316D01*
X64796Y36256D01*
X64768Y36195D01*
X64736Y36131D01*
X64694Y36066D01*
X64648Y36006D01*
X64588Y35946D01*
X64519Y35886D01*
X64440Y35835D01*
X64353Y35789D01*
X64893Y34500D01*
X64135D01*
X63683Y35660D01*
X63193D01*
Y34500D01*
X62500D01*
Y37434D01*
X63844D01*
X63877Y37429D01*
D02*
G37*
G36*
X67480Y36875D02*
X66090D01*
Y36274D01*
X67185D01*
Y35724D01*
X66090D01*
Y35082D01*
X67480D01*
Y34500D01*
X65392D01*
Y37434D01*
X67480D01*
Y36875D01*
D02*
G37*
G36*
X8653Y173852D02*
X7928D01*
Y171500D01*
X7230D01*
Y173852D01*
X6500D01*
Y174434D01*
X8653D01*
Y173852D01*
D02*
G37*
G36*
X10187Y174471D02*
X10215Y174466D01*
X10284Y174457D01*
X10367Y174438D01*
X10459Y174415D01*
X10561Y174378D01*
X10663Y174332D01*
X10769Y174272D01*
X10875Y174198D01*
X10972Y174106D01*
X11023Y174050D01*
X11065Y173995D01*
X11111Y173930D01*
X11148Y173865D01*
X11185Y173792D01*
X11222Y173713D01*
X11249Y173625D01*
X11272Y173537D01*
X11296Y173436D01*
X11309Y173334D01*
X10589Y173293D01*
Y173302D01*
Y173320D01*
X10584Y173348D01*
X10580Y173390D01*
X10570Y173436D01*
X10556Y173491D01*
X10543Y173547D01*
X10519Y173607D01*
X10496Y173662D01*
X10464Y173718D01*
X10422Y173773D01*
X10376Y173819D01*
X10321Y173861D01*
X10261Y173889D01*
X10187Y173912D01*
X10104Y173916D01*
X10080D01*
X10053Y173912D01*
X10020Y173902D01*
X9979Y173889D01*
X9933Y173865D01*
X9887Y173838D01*
X9836Y173796D01*
X9785Y173745D01*
X9739Y173681D01*
X9692Y173602D01*
X9651Y173510D01*
X9618Y173399D01*
X9605Y173339D01*
X9591Y173274D01*
X9582Y173200D01*
X9572Y173126D01*
X9568Y173043D01*
Y172955D01*
Y172951D01*
Y172932D01*
Y172905D01*
X9572Y172868D01*
Y172821D01*
X9577Y172771D01*
X9582Y172715D01*
X9586Y172655D01*
X9605Y172530D01*
X9628Y172406D01*
X9646Y172350D01*
X9665Y172295D01*
X9688Y172248D01*
X9711Y172207D01*
X9720Y172198D01*
X9739Y172175D01*
X9771Y172147D01*
X9817Y172110D01*
X9877Y172073D01*
X9946Y172045D01*
X10030Y172022D01*
X10122Y172013D01*
X10141D01*
X10164Y172017D01*
X10191Y172022D01*
X10224Y172031D01*
X10261Y172040D01*
X10302Y172059D01*
X10349Y172082D01*
X10390Y172110D01*
X10436Y172147D01*
X10482Y172193D01*
X10524Y172248D01*
X10561Y172309D01*
X10593Y172382D01*
X10621Y172470D01*
X10644Y172567D01*
X11309Y172526D01*
Y172521D01*
X11305Y172503D01*
X11300Y172475D01*
X11296Y172438D01*
X11286Y172396D01*
X11272Y172345D01*
X11254Y172290D01*
X11236Y172230D01*
X11185Y172101D01*
X11152Y172031D01*
X11115Y171967D01*
X11074Y171902D01*
X11028Y171837D01*
X10977Y171782D01*
X10917Y171726D01*
X10912Y171722D01*
X10903Y171713D01*
X10884Y171703D01*
X10857Y171685D01*
X10824Y171662D01*
X10787Y171639D01*
X10746Y171616D01*
X10695Y171592D01*
X10639Y171565D01*
X10575Y171542D01*
X10510Y171519D01*
X10441Y171495D01*
X10362Y171477D01*
X10284Y171468D01*
X10201Y171458D01*
X10113Y171454D01*
X10085D01*
X10057Y171458D01*
X10016D01*
X9965Y171468D01*
X9910Y171477D01*
X9845Y171486D01*
X9776Y171505D01*
X9702Y171523D01*
X9628Y171551D01*
X9549Y171583D01*
X9466Y171620D01*
X9387Y171666D01*
X9314Y171722D01*
X9235Y171782D01*
X9166Y171851D01*
X9161Y171856D01*
X9152Y171870D01*
X9133Y171893D01*
X9110Y171925D01*
X9083Y171967D01*
X9050Y172017D01*
X9018Y172073D01*
X8986Y172142D01*
X8953Y172216D01*
X8921Y172299D01*
X8889Y172392D01*
X8861Y172489D01*
X8838Y172600D01*
X8819Y172710D01*
X8810Y172835D01*
X8805Y172965D01*
Y172974D01*
Y172992D01*
X8810Y173029D01*
Y173075D01*
X8815Y173131D01*
X8824Y173196D01*
X8833Y173269D01*
X8852Y173348D01*
X8870Y173431D01*
X8893Y173519D01*
X8921Y173611D01*
X8953Y173704D01*
X8995Y173792D01*
X9041Y173884D01*
X9096Y173967D01*
X9156Y174050D01*
X9161Y174055D01*
X9175Y174069D01*
X9194Y174092D01*
X9221Y174115D01*
X9258Y174147D01*
X9300Y174184D01*
X9351Y174221D01*
X9411Y174263D01*
X9475Y174304D01*
X9545Y174341D01*
X9623Y174378D01*
X9711Y174411D01*
X9803Y174438D01*
X9900Y174457D01*
X10007Y174471D01*
X10118Y174475D01*
X10164D01*
X10187Y174471D01*
D02*
G37*
G36*
X152796Y171500D02*
X152056D01*
X151876Y172105D01*
X150929D01*
X150744Y171500D01*
X150144D01*
X151077Y174434D01*
X151876D01*
X152796Y171500D01*
D02*
G37*
G36*
X217707Y42272D02*
X217244D01*
Y42526D01*
X217221D01*
X217129Y42434D01*
X217036Y42364D01*
X216851Y42295D01*
X216758Y42272D01*
X216689Y42249D01*
X216619D01*
X216411Y42272D01*
X216226Y42364D01*
X216134Y42434D01*
X216087Y42457D01*
X215995Y42549D01*
X215925Y42642D01*
X215856Y42850D01*
X215810Y42989D01*
Y43035D01*
Y43059D01*
Y44655D01*
X216296D01*
Y43221D01*
X216319Y43059D01*
X216365Y42943D01*
X216434Y42850D01*
X216527Y42804D01*
X216689Y42735D01*
X216758D01*
X216920Y42758D01*
X217036Y42804D01*
X217129Y42897D01*
X217175Y42989D01*
X217244Y43151D01*
Y43197D01*
Y43221D01*
Y44655D01*
X217707D01*
Y42272D01*
D02*
G37*
G36*
X221039Y44655D02*
X221201Y44609D01*
X221340Y44539D01*
X221479Y44470D01*
X221571Y44401D01*
X221641Y44331D01*
X221687Y44285D01*
X221710Y44262D01*
X221363Y43961D01*
X221201Y44100D01*
X221062Y44169D01*
X220923Y44192D01*
X220877D01*
X220669Y44169D01*
X220530Y44077D01*
X220414Y43961D01*
X220345Y43822D01*
X220299Y43683D01*
X220276Y43568D01*
Y43475D01*
Y43452D01*
X220299Y43221D01*
X220368Y43035D01*
X220461Y42920D01*
X220576Y42827D01*
X220692Y42781D01*
X220785Y42758D01*
X220854Y42735D01*
X220877D01*
X221086Y42781D01*
X221224Y42850D01*
X221340Y42920D01*
X221363Y42966D01*
X221710Y42665D01*
X221571Y42526D01*
X221433Y42434D01*
X221294Y42341D01*
X221155Y42295D01*
X221039Y42272D01*
X220947Y42249D01*
X220854D01*
X220692Y42272D01*
X220553Y42295D01*
X220322Y42388D01*
X220229Y42434D01*
X220160Y42480D01*
X220137Y42526D01*
X220114D01*
X219998Y42665D01*
X219929Y42804D01*
X219836Y43105D01*
X219813Y43244D01*
X219790Y43359D01*
Y43429D01*
Y43452D01*
X219813Y43683D01*
X219836Y43868D01*
X219882Y44030D01*
X219952Y44169D01*
X220021Y44262D01*
X220067Y44331D01*
X220091Y44378D01*
X220114Y44401D01*
X220229Y44493D01*
X220368Y44563D01*
X220600Y44655D01*
X220692D01*
X220785Y44678D01*
X220854D01*
X221039Y44655D01*
D02*
G37*
G36*
X214583D02*
X214722Y44632D01*
X214953Y44539D01*
X215046Y44470D01*
X215115Y44424D01*
X215139Y44401D01*
X215162Y44378D01*
X215254Y44262D01*
X215300Y44123D01*
X215393Y43822D01*
Y43683D01*
X215416Y43568D01*
Y43475D01*
Y43452D01*
Y43244D01*
X215370Y43059D01*
X215347Y42897D01*
X215300Y42758D01*
X215254Y42665D01*
X215208Y42596D01*
X215185Y42573D01*
X215162Y42549D01*
X215046Y42457D01*
X214930Y42388D01*
X214676Y42295D01*
X214583Y42272D01*
X214491Y42249D01*
X214421D01*
X214259Y42272D01*
X214120Y42295D01*
X213889Y42411D01*
X213820Y42457D01*
X213750Y42503D01*
X213727Y42526D01*
X213704Y42549D01*
X213611Y42665D01*
X213565Y42804D01*
X213473Y43105D01*
Y43244D01*
X213449Y43359D01*
Y43429D01*
Y43452D01*
X213473Y43683D01*
X213496Y43868D01*
X213542Y44030D01*
X213588Y44169D01*
X213634Y44262D01*
X213658Y44331D01*
X213704Y44354D01*
Y44378D01*
X213820Y44470D01*
X213935Y44563D01*
X214167Y44632D01*
X214259Y44655D01*
X214352Y44678D01*
X214421D01*
X214583Y44655D01*
D02*
G37*
G36*
X223099Y44632D02*
X223330Y44539D01*
X223469Y44447D01*
X223492Y44424D01*
X223515Y44401D01*
X223608Y44285D01*
X223677Y44169D01*
X223770Y43938D01*
Y43845D01*
X223793Y43753D01*
Y43707D01*
Y43683D01*
Y43267D01*
X222312D01*
X222335Y43082D01*
X222405Y42943D01*
X222497Y42827D01*
X222613Y42758D01*
X222705Y42711D01*
X222798Y42688D01*
X222890D01*
X223099Y42735D01*
X223261Y42804D01*
X223353Y42873D01*
X223399Y42920D01*
X223747Y42642D01*
X223608Y42503D01*
X223469Y42411D01*
X223330Y42341D01*
X223191Y42295D01*
X223076Y42272D01*
X222983Y42249D01*
X222890D01*
X222705Y42272D01*
X222543Y42295D01*
X222266Y42434D01*
X222080Y42619D01*
X221965Y42850D01*
X221872Y43082D01*
X221849Y43267D01*
X221826Y43406D01*
Y43429D01*
Y43452D01*
X221849Y43683D01*
X221872Y43868D01*
X221942Y44030D01*
X222011Y44169D01*
X222057Y44262D01*
X222127Y44354D01*
X222150Y44378D01*
X222173Y44401D01*
X222266Y44493D01*
X222381Y44563D01*
X222590Y44655D01*
X222682D01*
X222752Y44678D01*
X222960D01*
X223099Y44632D01*
D02*
G37*
G36*
X212385Y44655D02*
X212570Y44632D01*
X212732Y44586D01*
X212871Y44516D01*
X212963Y44447D01*
X213056Y44401D01*
X213102Y44378D01*
X213125Y44354D01*
X212825Y44007D01*
X212593Y44123D01*
X212385Y44192D01*
X212223Y44216D01*
X212038D01*
X211945Y44169D01*
X211876Y44123D01*
X211829Y44077D01*
X211783Y43984D01*
Y43961D01*
Y43938D01*
X211806Y43868D01*
X211829Y43822D01*
X211945Y43776D01*
X212038Y43730D01*
X212084D01*
X212477Y43683D01*
X212709Y43637D01*
X212871Y43545D01*
X213010Y43429D01*
X213079Y43313D01*
X213125Y43174D01*
X213172Y43082D01*
Y42989D01*
Y42966D01*
Y42850D01*
X213125Y42758D01*
X213033Y42573D01*
X212940Y42480D01*
X212917Y42434D01*
X212894D01*
X212663Y42318D01*
X212454Y42272D01*
X212339Y42249D01*
X212200D01*
X211992Y42272D01*
X211783Y42318D01*
X211598Y42388D01*
X211436Y42457D01*
X211320Y42526D01*
X211228Y42596D01*
X211158Y42642D01*
X211135Y42665D01*
X211482Y42989D01*
X211598Y42897D01*
X211737Y42827D01*
X211968Y42735D01*
X212061Y42711D01*
X212154Y42688D01*
X212223D01*
X212385Y42711D01*
X212501Y42735D01*
X212570Y42781D01*
X212639Y42850D01*
X212686Y42943D01*
Y42966D01*
Y42989D01*
Y43059D01*
X212639Y43105D01*
X212547Y43174D01*
X212454Y43221D01*
X212408D01*
X211992Y43267D01*
X211760Y43313D01*
X211598Y43406D01*
X211459Y43521D01*
X211390Y43637D01*
X211344Y43753D01*
X211320Y43845D01*
X211297Y43915D01*
Y43938D01*
X211344Y44192D01*
X211436Y44378D01*
X211575Y44493D01*
X211737Y44586D01*
X211899Y44632D01*
X212038Y44678D01*
X212177D01*
X212385Y44655D01*
D02*
G37*
G36*
X219535D02*
X219697Y44586D01*
X219790Y44516D01*
X219836Y44493D01*
X219489Y44077D01*
X219373Y44146D01*
X219281Y44169D01*
X219211Y44192D01*
X219188D01*
X219026Y44169D01*
X218910Y44123D01*
X218841Y44030D01*
X218795Y43961D01*
X218725Y43776D01*
Y43730D01*
Y43707D01*
Y42272D01*
X218239D01*
Y44655D01*
X218725D01*
Y44401D01*
X218818Y44493D01*
X218910Y44563D01*
X219119Y44655D01*
X219211D01*
X219281Y44678D01*
X219350D01*
X219535Y44655D01*
D02*
G37*
G36*
X213588Y62450D02*
X213611Y62427D01*
X213634Y62380D01*
Y62357D01*
X214051Y60113D01*
X214074Y60043D01*
X214120Y60020D01*
X214143Y59974D01*
X214167D01*
X215671Y59372D01*
X215740Y59349D01*
X215787D01*
X215833Y59372D01*
X217730Y60668D01*
X217776Y60691D01*
X217823D01*
X217869Y60668D01*
X219466Y59071D01*
X219489Y59025D01*
Y58979D01*
X219466Y58956D01*
Y58933D01*
X218216Y57081D01*
X218193Y57012D01*
X218170Y56966D01*
X218193Y56919D01*
Y56896D01*
X218864Y55346D01*
X218887Y55300D01*
X218934Y55253D01*
X218980Y55230D01*
X219003D01*
X221178Y54837D01*
X221224Y54814D01*
X221271Y54767D01*
Y54744D01*
Y54721D01*
Y52477D01*
X221248Y52407D01*
X221224Y52384D01*
X221201Y52361D01*
X221178D01*
X219049Y51968D01*
X218980Y51944D01*
X218934Y51898D01*
X218910Y51875D01*
Y51852D01*
X218262Y50186D01*
X218239Y50139D01*
Y50070D01*
X218262Y50047D01*
Y50024D01*
X219466Y48265D01*
X219489Y48219D01*
Y48173D01*
X219466Y48149D01*
Y48126D01*
X217869Y46530D01*
X217823Y46506D01*
X217776D01*
X217753Y46530D01*
X217730D01*
X215995Y47710D01*
X215925Y47733D01*
X215879D01*
X215856Y47710D01*
X215833D01*
X215069Y47293D01*
X214977D01*
X214930Y47316D01*
Y47339D01*
X213380Y51134D01*
Y51204D01*
Y51250D01*
X213403Y51273D01*
X213426D01*
X213611Y51389D01*
X213681Y51458D01*
X213727Y51505D01*
X213935Y51644D01*
X214097Y51806D01*
X214259Y51968D01*
X214375Y52130D01*
X214583Y52477D01*
X214722Y52824D01*
X214791Y53124D01*
X214838Y53356D01*
X214861Y53448D01*
Y53518D01*
Y53564D01*
Y53587D01*
X214838Y53957D01*
X214745Y54282D01*
X214630Y54582D01*
X214514Y54837D01*
X214375Y55045D01*
X214259Y55207D01*
X214167Y55300D01*
X214143Y55323D01*
X213866Y55577D01*
X213565Y55762D01*
X213264Y55878D01*
X212986Y55971D01*
X212755Y56017D01*
X212570Y56063D01*
X212385D01*
X212015Y56040D01*
X211691Y55948D01*
X211390Y55832D01*
X211135Y55693D01*
X210927Y55554D01*
X210788Y55439D01*
X210672Y55346D01*
X210649Y55323D01*
X210395Y55045D01*
X210233Y54744D01*
X210094Y54467D01*
X210001Y54189D01*
X209955Y53957D01*
X209932Y53749D01*
X209909Y53634D01*
Y53610D01*
Y53587D01*
X209932Y53333D01*
X209955Y53101D01*
X210094Y52685D01*
X210279Y52338D01*
X210487Y52037D01*
X210696Y51806D01*
X210881Y51644D01*
X211020Y51528D01*
X211043Y51505D01*
X211066D01*
X211158Y51412D01*
X211182Y51389D01*
X211367Y51273D01*
X211413Y51227D01*
X211436Y51181D01*
X211413Y51158D01*
Y51134D01*
X209840Y47339D01*
X209816Y47293D01*
X209724D01*
X208960Y47710D01*
X208891Y47733D01*
X208844D01*
X208821Y47710D01*
X208798D01*
X207063Y46530D01*
X207016Y46506D01*
X206970D01*
X206947Y46530D01*
X206924D01*
X205327Y48126D01*
X205304Y48173D01*
Y48219D01*
X205327Y48265D01*
X206530Y50024D01*
X206554Y50093D01*
Y50139D01*
X206530Y50186D01*
X205859Y51852D01*
X205836Y51921D01*
X205790Y51944D01*
X205767Y51968D01*
X205744D01*
X203615Y52361D01*
X203569Y52384D01*
X203545Y52430D01*
X203522Y52453D01*
Y52477D01*
Y54721D01*
X203545Y54791D01*
X203569Y54814D01*
X203592Y54837D01*
X203615D01*
X205790Y55230D01*
X205859Y55253D01*
X205906Y55300D01*
X205929Y55323D01*
Y55346D01*
X206600Y56896D01*
X206623Y56966D01*
X206600Y57035D01*
X206577Y57058D01*
Y57081D01*
X205327Y58933D01*
X205304Y58979D01*
Y59025D01*
X205327Y59071D01*
X206924Y60668D01*
X206970Y60691D01*
X207016D01*
X207063Y60668D01*
X208937Y59372D01*
X209006Y59349D01*
X209076D01*
X209099Y59372D01*
X209122D01*
X210626Y59974D01*
X210696Y60020D01*
X210719Y60066D01*
X210742Y60090D01*
Y60113D01*
X211158Y62357D01*
X211182Y62427D01*
X211228Y62450D01*
X211251Y62473D01*
X213519D01*
X213588Y62450D01*
D02*
G37*
G36*
X204587Y44655D02*
X204679Y44632D01*
X204888Y44539D01*
X205003Y44470D01*
X205096Y44354D01*
X205119Y44308D01*
X205142Y44262D01*
X205188Y44169D01*
X205211Y44054D01*
X205235Y43892D01*
X205258Y43683D01*
Y43452D01*
Y43429D01*
Y43336D01*
Y43221D01*
X205235Y43082D01*
X205188Y42781D01*
X205142Y42665D01*
X205096Y42549D01*
Y42526D01*
X205049Y42503D01*
X204911Y42411D01*
X204726Y42295D01*
X204587Y42272D01*
X204448Y42249D01*
X204402D01*
X204263Y42295D01*
X204054Y42364D01*
X203939Y42434D01*
X203823Y42526D01*
Y40652D01*
X203846Y40675D01*
X203869Y40698D01*
X204008Y40791D01*
X204193Y40883D01*
X204332Y40930D01*
X204517D01*
X204656Y40907D01*
X204818Y40837D01*
X205003Y40721D01*
X205026D01*
X205049Y40675D01*
X205142Y40560D01*
X205211Y40351D01*
X205258Y40235D01*
Y40097D01*
Y38523D01*
X204772D01*
Y39935D01*
Y39958D01*
Y40004D01*
X204749Y40097D01*
X204726Y40189D01*
X204656Y40282D01*
X204587Y40374D01*
X204471Y40421D01*
X204309Y40444D01*
X204240D01*
X204147Y40421D01*
X204078Y40374D01*
X203985Y40328D01*
X203892Y40235D01*
X203846Y40097D01*
X203823Y39935D01*
Y38523D01*
X203360D01*
Y44655D01*
X203823D01*
Y44401D01*
X203846Y44424D01*
X203869Y44447D01*
X204008Y44539D01*
X204193Y44632D01*
X204332Y44678D01*
X204517D01*
X204587Y44655D01*
D02*
G37*
G36*
X209261D02*
X209423Y44586D01*
X209539Y44493D01*
X209585Y44470D01*
X209678Y44378D01*
X209724Y44285D01*
X209816Y44077D01*
Y43984D01*
X209840Y43915D01*
Y43868D01*
Y43845D01*
Y42272D01*
X209377D01*
Y43683D01*
X209353Y43845D01*
X209307Y43984D01*
X209215Y44077D01*
X209145Y44123D01*
X209053Y44169D01*
X208960Y44192D01*
X208891D01*
X208729Y44169D01*
X208613Y44123D01*
X208544Y44030D01*
X208497Y43938D01*
X208451Y43845D01*
X208428Y43753D01*
Y43707D01*
Y43683D01*
Y42272D01*
X207942D01*
Y44655D01*
X208428D01*
Y44401D01*
X208521Y44493D01*
X208613Y44563D01*
X208821Y44655D01*
X208914D01*
X208983Y44678D01*
X209053D01*
X209261Y44655D01*
D02*
G37*
G36*
X216458Y40907D02*
X216712Y40814D01*
X216897Y40675D01*
X217013Y40536D01*
X217082Y40398D01*
X217105Y40259D01*
X217129Y40166D01*
Y40143D01*
Y38523D01*
X216643D01*
Y38731D01*
X216573Y38662D01*
X216481Y38593D01*
X216272Y38523D01*
X216180D01*
X216110Y38500D01*
X216041D01*
X215787Y38523D01*
X215601Y38616D01*
X215486Y38685D01*
X215439Y38708D01*
X215300Y38870D01*
X215231Y39032D01*
X215208Y39171D01*
Y39194D01*
Y39217D01*
X215231Y39449D01*
X215324Y39611D01*
X215462Y39750D01*
X215601Y39819D01*
X215740Y39865D01*
X215879Y39911D01*
X216643D01*
Y40166D01*
X216619Y40282D01*
X216573Y40351D01*
X216411Y40444D01*
X216226Y40490D01*
X216157D01*
X215948Y40467D01*
X215787Y40398D01*
X215717Y40305D01*
X215694Y40282D01*
X215324Y40583D01*
X215439Y40698D01*
X215555Y40791D01*
X215694Y40837D01*
X215833Y40883D01*
X215948Y40907D01*
X216041Y40930D01*
X216319D01*
X216458Y40907D01*
D02*
G37*
G36*
X214421Y38523D02*
X214005D01*
X213496Y40189D01*
X213473D01*
X212986Y38523D01*
X212570D01*
X211806Y40907D01*
X212316D01*
X212755Y39217D01*
X212778D01*
X213311Y40907D01*
X213658D01*
X214213Y39217D01*
X214653Y40907D01*
X215185D01*
X214421Y38523D01*
D02*
G37*
G36*
X220530Y40883D02*
X220738Y40791D01*
X220877Y40698D01*
X220900Y40675D01*
X220923Y40652D01*
X221016Y40536D01*
X221109Y40421D01*
X221178Y40166D01*
X221201Y40073D01*
X221224Y39981D01*
Y39935D01*
Y39911D01*
Y39541D01*
X219743D01*
X219766Y39333D01*
X219836Y39194D01*
X219929Y39079D01*
X220021Y39009D01*
X220114Y38963D01*
X220206Y38940D01*
X220299D01*
X220507Y38986D01*
X220669Y39055D01*
X220785Y39125D01*
X220831Y39171D01*
X221178Y38870D01*
X221039Y38754D01*
X220900Y38662D01*
X220762Y38593D01*
X220623Y38546D01*
X220507Y38523D01*
X220414Y38500D01*
X220322D01*
X220137Y38523D01*
X219975Y38546D01*
X219697Y38685D01*
X219512Y38870D01*
X219396Y39102D01*
X219304Y39333D01*
X219281Y39518D01*
X219257Y39657D01*
Y39680D01*
Y39703D01*
X219281Y39935D01*
X219304Y40120D01*
X219350Y40282D01*
X219419Y40421D01*
X219489Y40513D01*
X219535Y40583D01*
X219558Y40629D01*
X219581Y40652D01*
X219674Y40745D01*
X219790Y40814D01*
X220021Y40907D01*
X220114D01*
X220183Y40930D01*
X220391D01*
X220530Y40883D01*
D02*
G37*
G36*
X206831Y40907D02*
X207086Y40814D01*
X207271Y40675D01*
X207387Y40536D01*
X207456Y40398D01*
X207479Y40259D01*
X207502Y40166D01*
Y40143D01*
Y38523D01*
X207039D01*
Y38731D01*
X207016D01*
X206947Y38662D01*
X206878Y38593D01*
X206669Y38523D01*
X206577D01*
X206507Y38500D01*
X206438D01*
X206183Y38523D01*
X205975Y38616D01*
X205859Y38685D01*
X205813Y38708D01*
X205674Y38870D01*
X205605Y39032D01*
X205582Y39171D01*
Y39194D01*
Y39217D01*
X205605Y39449D01*
X205697Y39611D01*
X205836Y39750D01*
X205975Y39819D01*
X206114Y39865D01*
X206253Y39911D01*
X207039D01*
Y40166D01*
X207016Y40282D01*
X206970Y40351D01*
X206878Y40421D01*
X206785Y40444D01*
X206692Y40467D01*
X206600Y40490D01*
X206530D01*
X206322Y40467D01*
X206183Y40398D01*
X206114Y40305D01*
X206091Y40282D01*
X205721Y40583D01*
X205813Y40698D01*
X205952Y40791D01*
X206068Y40837D01*
X206206Y40883D01*
X206322Y40907D01*
X206415Y40930D01*
X206692D01*
X206831Y40907D01*
D02*
G37*
G36*
X209330D02*
X209492Y40837D01*
X209585Y40768D01*
X209631Y40745D01*
X209284Y40328D01*
X209168Y40398D01*
X209076Y40421D01*
X209006Y40444D01*
X208983D01*
X208821Y40421D01*
X208706Y40374D01*
X208636Y40282D01*
X208590Y40212D01*
X208521Y40027D01*
Y39981D01*
Y39958D01*
Y38523D01*
X208035D01*
Y40907D01*
X208521D01*
Y40652D01*
X208613Y40745D01*
X208706Y40814D01*
X208914Y40907D01*
X209006D01*
X209076Y40930D01*
X209145D01*
X209330Y40907D01*
D02*
G37*
G36*
X202134Y44655D02*
X202273Y44632D01*
X202504Y44539D01*
X202573Y44470D01*
X202643Y44424D01*
X202666Y44401D01*
X202689Y44378D01*
X202782Y44262D01*
X202828Y44123D01*
X202921Y43822D01*
Y43683D01*
X202944Y43568D01*
Y43475D01*
Y43452D01*
Y43244D01*
X202898Y43059D01*
X202874Y42897D01*
X202828Y42758D01*
X202782Y42665D01*
X202735Y42596D01*
X202712Y42573D01*
X202689Y42549D01*
X202573Y42457D01*
X202458Y42388D01*
X202226Y42295D01*
X202134Y42272D01*
X202041Y42249D01*
X201972D01*
X201810Y42272D01*
X201671Y42295D01*
X201440Y42411D01*
X201370Y42457D01*
X201301Y42503D01*
X201278Y42526D01*
X201255Y42549D01*
X201162Y42665D01*
X201116Y42804D01*
X201023Y43105D01*
Y43244D01*
X201000Y43359D01*
Y43429D01*
Y43452D01*
X201023Y43683D01*
X201046Y43868D01*
X201093Y44030D01*
X201139Y44169D01*
X201185Y44262D01*
X201208Y44331D01*
X201255Y44354D01*
Y44378D01*
X201370Y44470D01*
X201486Y44563D01*
X201717Y44632D01*
X201810Y44655D01*
X201903Y44678D01*
X201972D01*
X202134Y44655D01*
D02*
G37*
G36*
X206831Y44632D02*
X207063Y44539D01*
X207202Y44447D01*
X207225Y44424D01*
X207248Y44401D01*
X207340Y44285D01*
X207433Y44169D01*
X207502Y43938D01*
X207525Y43845D01*
X207549Y43753D01*
Y43707D01*
Y43683D01*
Y43267D01*
X206068D01*
X206091Y43082D01*
X206160Y42943D01*
X206253Y42827D01*
X206345Y42758D01*
X206438Y42711D01*
X206530Y42688D01*
X206623D01*
X206831Y42735D01*
X206993Y42804D01*
X207109Y42873D01*
X207155Y42920D01*
X207502Y42642D01*
X207364Y42503D01*
X207225Y42411D01*
X207063Y42341D01*
X206924Y42295D01*
X206808Y42272D01*
X206716Y42249D01*
X206623D01*
X206438Y42272D01*
X206276Y42295D01*
X206021Y42434D01*
X205836Y42619D01*
X205721Y42850D01*
X205628Y43082D01*
X205605Y43267D01*
X205582Y43406D01*
Y43429D01*
Y43452D01*
X205605Y43683D01*
X205628Y43868D01*
X205674Y44030D01*
X205744Y44169D01*
X205790Y44262D01*
X205836Y44354D01*
X205859Y44378D01*
X205883Y44401D01*
X205998Y44493D01*
X206114Y44563D01*
X206322Y44655D01*
X206415D01*
X206484Y44678D01*
X206692D01*
X206831Y44632D01*
D02*
G37*
G36*
X211552Y38523D02*
X211066D01*
Y38778D01*
X210973Y38685D01*
X210858Y38616D01*
X210672Y38546D01*
X210534Y38500D01*
X210464D01*
X210325Y38523D01*
X210187Y38546D01*
X209978Y38662D01*
X209863Y38754D01*
X209816Y38778D01*
Y38801D01*
X209770Y38893D01*
X209724Y39032D01*
X209678Y39333D01*
X209654Y39472D01*
Y39588D01*
Y39680D01*
Y39703D01*
Y39935D01*
X209678Y40143D01*
X209701Y40305D01*
X209747Y40421D01*
X209770Y40513D01*
X209793Y40583D01*
X209816Y40629D01*
X209909Y40721D01*
X210025Y40814D01*
X210233Y40883D01*
X210325Y40907D01*
X210395Y40930D01*
X210580D01*
X210696Y40883D01*
X210881Y40791D01*
X211020Y40698D01*
X211043Y40675D01*
X211066Y40652D01*
Y41855D01*
X211552D01*
Y38523D01*
D02*
G37*
G36*
X218957Y40907D02*
X219119Y40837D01*
X219211Y40768D01*
X219257Y40745D01*
X218887Y40328D01*
X218772Y40398D01*
X218679Y40421D01*
X218609Y40444D01*
X218586D01*
X218424Y40421D01*
X218309Y40374D01*
X218239Y40282D01*
X218193Y40212D01*
X218124Y40027D01*
Y39981D01*
Y39958D01*
Y38523D01*
X217638D01*
Y40907D01*
X218124D01*
Y40652D01*
X218147D01*
X218239Y40745D01*
X218332Y40814D01*
X218517Y40907D01*
X218609D01*
X218679Y40930D01*
X218748D01*
X218957Y40907D01*
D02*
G37*
G36*
X143415Y108210D02*
X143502Y108202D01*
Y107006D01*
X143441D01*
X143371Y106997D01*
X143291Y106989D01*
X143195Y106980D01*
X143098Y106953D01*
X143001Y106927D01*
X142913Y106883D01*
X142905Y106874D01*
X142878Y106857D01*
X142843Y106830D01*
X142799Y106786D01*
X142746Y106734D01*
X142685Y106663D01*
X142632Y106576D01*
X142579Y106470D01*
X142571Y106461D01*
X142562Y106417D01*
X142544Y106356D01*
X142518Y106259D01*
X142492Y106154D01*
X142474Y106013D01*
X142465Y105855D01*
X142456Y105679D01*
Y104000D01*
X141279D01*
Y108131D01*
X142395D01*
Y107367D01*
X142404Y107393D01*
X142421Y107437D01*
X142448Y107490D01*
X142474Y107560D01*
X142509Y107630D01*
X142597Y107789D01*
X142720Y107947D01*
X142790Y108017D01*
X142870Y108087D01*
X142957Y108140D01*
X143054Y108184D01*
X143160Y108210D01*
X143274Y108219D01*
X143335D01*
X143415Y108210D01*
D02*
G37*
G36*
X159852D02*
X159940Y108202D01*
Y107006D01*
X159878D01*
X159808Y106997D01*
X159729Y106989D01*
X159632Y106980D01*
X159535Y106953D01*
X159439Y106927D01*
X159351Y106883D01*
X159342Y106874D01*
X159316Y106857D01*
X159281Y106830D01*
X159237Y106786D01*
X159184Y106734D01*
X159122Y106663D01*
X159070Y106576D01*
X159017Y106470D01*
X159008Y106461D01*
X158999Y106417D01*
X158982Y106356D01*
X158955Y106259D01*
X158929Y106154D01*
X158911Y106013D01*
X158903Y105855D01*
X158894Y105679D01*
Y104000D01*
X157716D01*
Y108131D01*
X158832D01*
Y107367D01*
X158841Y107393D01*
X158859Y107437D01*
X158885Y107490D01*
X158911Y107560D01*
X158947Y107630D01*
X159034Y107789D01*
X159158Y107947D01*
X159228Y108017D01*
X159307Y108087D01*
X159395Y108140D01*
X159492Y108184D01*
X159597Y108210D01*
X159711Y108219D01*
X159773D01*
X159852Y108210D01*
D02*
G37*
G36*
X178759Y104000D02*
X177353D01*
X175691Y109582D01*
X177080D01*
X178188Y105582D01*
X179357Y109582D01*
X180447D01*
X178759Y104000D01*
D02*
G37*
G36*
X136444Y106215D02*
X137833Y104000D01*
X136444D01*
X135583Y105406D01*
X134739Y104000D01*
X133702D01*
X135064Y106224D01*
X133886Y108131D01*
X135275D01*
X135934Y107006D01*
X136593Y108131D01*
X137631D01*
X136444Y106215D01*
D02*
G37*
G36*
X171947Y108202D02*
X172000D01*
X172052Y108193D01*
X172193Y108167D01*
X172343Y108131D01*
X172501Y108070D01*
X172659Y107991D01*
X172800Y107885D01*
X172817Y107868D01*
X172835Y107850D01*
X172852Y107824D01*
X172887Y107780D01*
X172914Y107736D01*
X172949Y107683D01*
X172984Y107613D01*
X173011Y107534D01*
X173046Y107446D01*
X173081Y107340D01*
X173107Y107226D01*
X173125Y107103D01*
X173142Y106962D01*
X173160Y106813D01*
Y106646D01*
Y104000D01*
X171938D01*
Y106312D01*
Y106321D01*
Y106329D01*
Y106382D01*
Y106452D01*
Y106540D01*
X171929Y106637D01*
X171921Y106734D01*
X171912Y106813D01*
X171903Y106883D01*
Y106892D01*
X171894Y106910D01*
X171885Y106936D01*
X171868Y106980D01*
X171824Y107059D01*
X171745Y107147D01*
X171736Y107156D01*
X171727Y107164D01*
X171692Y107182D01*
X171657Y107208D01*
X171613Y107226D01*
X171560Y107244D01*
X171499Y107252D01*
X171428Y107261D01*
X171402D01*
X171367Y107252D01*
X171332Y107244D01*
X171226Y107208D01*
X171173Y107182D01*
X171112Y107147D01*
X171050Y107094D01*
X170998Y107033D01*
X170945Y106953D01*
X170892Y106857D01*
X170857Y106751D01*
X170822Y106628D01*
X170804Y106479D01*
X170795Y106312D01*
Y104000D01*
X169574D01*
Y108131D01*
X170707D01*
Y107437D01*
X170716Y107446D01*
X170734Y107472D01*
X170760Y107507D01*
X170813Y107595D01*
X170883Y107692D01*
X170962Y107797D01*
X171059Y107903D01*
X171156Y107991D01*
X171261Y108061D01*
X171270Y108070D01*
X171305Y108087D01*
X171367Y108105D01*
X171437Y108140D01*
X171525Y108167D01*
X171622Y108184D01*
X171736Y108202D01*
X171850Y108210D01*
X171903D01*
X171947Y108202D01*
D02*
G37*
G36*
X157000Y174471D02*
X157041D01*
X157088Y174461D01*
X157138Y174452D01*
X157198Y174438D01*
X157263Y174420D01*
X157328Y174397D01*
X157397Y174369D01*
X157466Y174332D01*
X157536Y174291D01*
X157605Y174240D01*
X157674Y174180D01*
X157734Y174115D01*
X157794Y174036D01*
X157799Y174032D01*
X157808Y174018D01*
X157822Y173990D01*
X157841Y173958D01*
X157864Y173916D01*
X157891Y173865D01*
X157914Y173805D01*
X157947Y173741D01*
X157975Y173662D01*
X157998Y173584D01*
X158025Y173496D01*
X158048Y173403D01*
X158067Y173302D01*
X158081Y173196D01*
X158090Y173085D01*
X158095Y172969D01*
Y172960D01*
Y172941D01*
Y172905D01*
X158090Y172863D01*
X158086Y172808D01*
X158081Y172743D01*
X158072Y172669D01*
X158058Y172590D01*
X158039Y172507D01*
X158021Y172419D01*
X157998Y172332D01*
X157970Y172239D01*
X157933Y172151D01*
X157891Y172059D01*
X157845Y171971D01*
X157794Y171888D01*
X157790Y171883D01*
X157781Y171870D01*
X157762Y171846D01*
X157739Y171819D01*
X157711Y171786D01*
X157670Y171749D01*
X157628Y171713D01*
X157577Y171671D01*
X157522Y171629D01*
X157457Y171592D01*
X157388Y171555D01*
X157309Y171523D01*
X157231Y171495D01*
X157138Y171472D01*
X157046Y171458D01*
X156944Y171454D01*
X156921D01*
X156894Y171458D01*
X156857D01*
X156810Y171468D01*
X156760Y171477D01*
X156700Y171491D01*
X156635Y171509D01*
X156570Y171528D01*
X156501Y171555D01*
X156431Y171592D01*
X156362Y171634D01*
X156293Y171680D01*
X156228Y171740D01*
X156164Y171805D01*
X156104Y171879D01*
X156099Y171883D01*
X156090Y171897D01*
X156076Y171925D01*
X156057Y171957D01*
X156034Y171999D01*
X156011Y172050D01*
X155983Y172110D01*
X155956Y172175D01*
X155928Y172248D01*
X155900Y172332D01*
X155877Y172419D01*
X155854Y172516D01*
X155835Y172618D01*
X155822Y172724D01*
X155812Y172840D01*
X155808Y172960D01*
Y172969D01*
Y172988D01*
Y173020D01*
X155812Y173066D01*
X155817Y173122D01*
X155822Y173186D01*
X155831Y173256D01*
X155845Y173334D01*
X155859Y173417D01*
X155877Y173505D01*
X155905Y173593D01*
X155932Y173685D01*
X155965Y173773D01*
X156002Y173865D01*
X156048Y173953D01*
X156099Y174036D01*
X156104Y174041D01*
X156113Y174055D01*
X156131Y174078D01*
X156154Y174106D01*
X156182Y174138D01*
X156219Y174175D01*
X156265Y174217D01*
X156316Y174258D01*
X156371Y174295D01*
X156436Y174337D01*
X156505Y174374D01*
X156579Y174406D01*
X156662Y174434D01*
X156750Y174457D01*
X156847Y174471D01*
X156949Y174475D01*
X156972D01*
X157000Y174471D01*
D02*
G37*
G36*
X150084Y173852D02*
X148712D01*
Y173196D01*
X149797D01*
Y172646D01*
X148712D01*
Y171500D01*
X148000D01*
Y174434D01*
X150084D01*
Y173852D01*
D02*
G37*
G36*
X152240Y104000D02*
X151115D01*
Y104642D01*
X151106Y104633D01*
X151097Y104606D01*
X151071Y104571D01*
X151035Y104527D01*
X150992Y104475D01*
X150948Y104413D01*
X150886Y104343D01*
X150816Y104281D01*
X150649Y104141D01*
X150455Y104026D01*
X150341Y103982D01*
X150227Y103947D01*
X150104Y103921D01*
X149972Y103912D01*
X149910D01*
X149858Y103921D01*
X149805Y103930D01*
X149735Y103938D01*
X149576Y103982D01*
X149409Y104044D01*
X149313Y104097D01*
X149225Y104149D01*
X149137Y104211D01*
X149049Y104281D01*
X148970Y104369D01*
X148891Y104466D01*
Y104475D01*
X148873Y104492D01*
X148856Y104527D01*
X148829Y104571D01*
X148803Y104624D01*
X148768Y104694D01*
X148732Y104773D01*
X148697Y104870D01*
X148662Y104976D01*
X148627Y105090D01*
X148592Y105213D01*
X148565Y105354D01*
X148539Y105503D01*
X148522Y105661D01*
X148513Y105828D01*
X148504Y106013D01*
Y106022D01*
Y106057D01*
Y106110D01*
X148513Y106180D01*
Y106268D01*
X148522Y106373D01*
X148539Y106479D01*
X148557Y106602D01*
X148601Y106857D01*
X148671Y107129D01*
X148768Y107384D01*
X148829Y107507D01*
X148899Y107622D01*
X148908Y107630D01*
X148917Y107648D01*
X148943Y107674D01*
X148970Y107718D01*
X149014Y107762D01*
X149066Y107806D01*
X149119Y107859D01*
X149190Y107920D01*
X149357Y108026D01*
X149550Y108123D01*
X149655Y108158D01*
X149778Y108184D01*
X149910Y108202D01*
X150042Y108210D01*
X150104D01*
X150148Y108202D01*
X150209Y108193D01*
X150271Y108184D01*
X150420Y108149D01*
X150578Y108079D01*
X150666Y108043D01*
X150754Y107991D01*
X150833Y107929D01*
X150912Y107859D01*
X150992Y107780D01*
X151062Y107683D01*
Y109582D01*
X152240D01*
Y104000D01*
D02*
G37*
G36*
X168580Y108465D02*
X167359D01*
Y109687D01*
X168580D01*
Y108465D01*
D02*
G37*
G36*
X190010Y109652D02*
X190089D01*
X190177Y109634D01*
X190274Y109617D01*
X190388Y109590D01*
X190511Y109555D01*
X190634Y109511D01*
X190766Y109459D01*
X190898Y109388D01*
X191030Y109309D01*
X191162Y109213D01*
X191294Y109098D01*
X191408Y108975D01*
X191522Y108826D01*
X191531Y108817D01*
X191549Y108791D01*
X191575Y108738D01*
X191610Y108676D01*
X191654Y108597D01*
X191707Y108501D01*
X191751Y108386D01*
X191812Y108263D01*
X191865Y108114D01*
X191909Y107964D01*
X191962Y107797D01*
X192006Y107622D01*
X192041Y107428D01*
X192067Y107226D01*
X192085Y107015D01*
X192094Y106795D01*
Y106778D01*
Y106743D01*
Y106672D01*
X192085Y106593D01*
X192076Y106488D01*
X192067Y106365D01*
X192050Y106224D01*
X192023Y106074D01*
X191988Y105916D01*
X191953Y105749D01*
X191909Y105582D01*
X191856Y105406D01*
X191786Y105239D01*
X191707Y105064D01*
X191619Y104897D01*
X191522Y104738D01*
X191513Y104730D01*
X191496Y104703D01*
X191461Y104659D01*
X191417Y104606D01*
X191364Y104545D01*
X191285Y104475D01*
X191206Y104404D01*
X191109Y104325D01*
X191004Y104246D01*
X190881Y104176D01*
X190749Y104105D01*
X190599Y104044D01*
X190450Y103991D01*
X190274Y103947D01*
X190098Y103921D01*
X189905Y103912D01*
X189861D01*
X189808Y103921D01*
X189738D01*
X189650Y103938D01*
X189553Y103956D01*
X189439Y103982D01*
X189316Y104018D01*
X189193Y104053D01*
X189061Y104105D01*
X188929Y104176D01*
X188797Y104255D01*
X188665Y104343D01*
X188542Y104457D01*
X188419Y104580D01*
X188305Y104721D01*
X188296Y104730D01*
X188279Y104756D01*
X188252Y104809D01*
X188217Y104870D01*
X188173Y104949D01*
X188129Y105046D01*
X188077Y105160D01*
X188024Y105283D01*
X187971Y105424D01*
X187918Y105582D01*
X187874Y105749D01*
X187830Y105934D01*
X187795Y106127D01*
X187769Y106329D01*
X187751Y106549D01*
X187742Y106778D01*
Y106795D01*
Y106830D01*
Y106892D01*
X187751Y106980D01*
X187760Y107085D01*
X187769Y107208D01*
X187786Y107340D01*
X187813Y107490D01*
X187839Y107648D01*
X187874Y107815D01*
X187927Y107982D01*
X187980Y108158D01*
X188041Y108325D01*
X188112Y108501D01*
X188200Y108668D01*
X188296Y108826D01*
X188305Y108835D01*
X188323Y108861D01*
X188358Y108905D01*
X188402Y108958D01*
X188454Y109019D01*
X188525Y109089D01*
X188613Y109169D01*
X188709Y109248D01*
X188815Y109318D01*
X188938Y109397D01*
X189070Y109467D01*
X189210Y109529D01*
X189369Y109582D01*
X189536Y109626D01*
X189720Y109652D01*
X189914Y109661D01*
X189958D01*
X190010Y109652D01*
D02*
G37*
G36*
X133473Y108518D02*
X130827D01*
Y107375D01*
X132911D01*
Y106329D01*
X130827D01*
Y105107D01*
X133473D01*
Y104000D01*
X129500D01*
Y109582D01*
X133473D01*
Y108518D01*
D02*
G37*
G36*
X139714Y108131D02*
X140602D01*
Y107182D01*
X139714D01*
Y105433D01*
Y105415D01*
Y105380D01*
X139723Y105327D01*
Y105257D01*
X139758Y105107D01*
X139776Y105046D01*
X139811Y104993D01*
X139820D01*
X139828Y104976D01*
X139863Y104958D01*
X139907Y104940D01*
X139969Y104923D01*
X140048Y104905D01*
X140145Y104897D01*
X140268Y104888D01*
X140505D01*
X140655Y104897D01*
Y104000D01*
X140628D01*
X140602Y103991D01*
X140567Y103982D01*
X140470Y103974D01*
X140356Y103956D01*
X140233Y103938D01*
X140110Y103930D01*
X139987Y103912D01*
X139820D01*
X139767Y103921D01*
X139705D01*
X139635Y103930D01*
X139468Y103947D01*
X139292Y103982D01*
X139108Y104035D01*
X138949Y104105D01*
X138870Y104149D01*
X138809Y104202D01*
X138791Y104220D01*
X138756Y104264D01*
X138712Y104334D01*
X138677Y104387D01*
X138650Y104439D01*
X138624Y104510D01*
X138589Y104589D01*
X138563Y104677D01*
X138545Y104773D01*
X138519Y104879D01*
X138510Y104993D01*
X138492Y105116D01*
Y105257D01*
Y107182D01*
X137842D01*
Y108131D01*
X138563D01*
X138659Y109344D01*
X139714Y109432D01*
Y108131D01*
D02*
G37*
G36*
X155140Y108202D02*
X155211Y108193D01*
X155290Y108184D01*
X155378Y108167D01*
X155483Y108140D01*
X155694Y108070D01*
X155808Y108026D01*
X155923Y107973D01*
X156037Y107912D01*
X156160Y107832D01*
X156274Y107745D01*
X156380Y107648D01*
X156389Y107639D01*
X156406Y107622D01*
X156433Y107586D01*
X156468Y107542D01*
X156512Y107481D01*
X156564Y107402D01*
X156608Y107314D01*
X156670Y107217D01*
X156723Y107094D01*
X156767Y106962D01*
X156819Y106813D01*
X156863Y106655D01*
X156898Y106479D01*
X156925Y106285D01*
X156942Y106074D01*
X156951Y105855D01*
X154288D01*
Y105846D01*
Y105837D01*
Y105784D01*
Y105723D01*
Y105661D01*
Y105652D01*
Y105644D01*
Y105591D01*
X154297Y105512D01*
X154314Y105415D01*
X154341Y105310D01*
X154385Y105195D01*
X154437Y105090D01*
X154516Y104993D01*
X154525Y104984D01*
X154560Y104958D01*
X154613Y104923D01*
X154675Y104888D01*
X154762Y104844D01*
X154850Y104809D01*
X154965Y104782D01*
X155079Y104773D01*
X155105D01*
X155140Y104782D01*
X155176D01*
X155281Y104809D01*
X155404Y104853D01*
X155466Y104888D01*
X155527Y104932D01*
X155589Y104984D01*
X155650Y105046D01*
X155703Y105125D01*
X155747Y105213D01*
X155791Y105310D01*
X155817Y105424D01*
X156925Y105336D01*
X156916Y105318D01*
X156898Y105274D01*
X156872Y105204D01*
X156828Y105116D01*
X156775Y105002D01*
X156705Y104888D01*
X156617Y104756D01*
X156512Y104624D01*
X156397Y104492D01*
X156257Y104360D01*
X156107Y104246D01*
X155931Y104132D01*
X155747Y104044D01*
X155527Y103974D01*
X155299Y103930D01*
X155044Y103912D01*
X154938D01*
X154885Y103921D01*
X154824Y103930D01*
X154683Y103947D01*
X154516Y103974D01*
X154341Y104018D01*
X154165Y104079D01*
X153989Y104158D01*
X153980D01*
X153971Y104167D01*
X153919Y104202D01*
X153840Y104264D01*
X153743Y104343D01*
X153629Y104439D01*
X153506Y104563D01*
X153391Y104712D01*
X153277Y104879D01*
Y104888D01*
X153268Y104897D01*
X153251Y104932D01*
X153233Y104967D01*
X153215Y105011D01*
X153189Y105064D01*
X153145Y105195D01*
X153092Y105362D01*
X153048Y105556D01*
X153013Y105776D01*
X153005Y106013D01*
Y106022D01*
Y106057D01*
Y106110D01*
X153013Y106180D01*
X153022Y106259D01*
X153031Y106356D01*
X153048Y106461D01*
X153075Y106584D01*
X153136Y106830D01*
X153189Y106962D01*
X153242Y107103D01*
X153303Y107235D01*
X153374Y107358D01*
X153462Y107490D01*
X153558Y107604D01*
X153567Y107613D01*
X153585Y107630D01*
X153620Y107657D01*
X153664Y107701D01*
X153717Y107745D01*
X153787Y107797D01*
X153866Y107850D01*
X153954Y107912D01*
X154051Y107964D01*
X154156Y108017D01*
X154279Y108070D01*
X154411Y108114D01*
X154543Y108158D01*
X154692Y108184D01*
X154850Y108202D01*
X155009Y108210D01*
X155088D01*
X155140Y108202D01*
D02*
G37*
G36*
X166743Y108474D02*
X164133D01*
Y107226D01*
X166198D01*
Y106180D01*
X164133D01*
Y104000D01*
X162779D01*
Y109582D01*
X166743D01*
Y108474D01*
D02*
G37*
G36*
X187022Y104000D02*
X185756D01*
Y105266D01*
X187022D01*
Y104000D01*
D02*
G37*
G36*
X147722D02*
X146588D01*
Y104686D01*
X146570Y104659D01*
X146553Y104624D01*
X146526Y104571D01*
X146482Y104510D01*
X146438Y104448D01*
X146377Y104378D01*
X146315Y104308D01*
X146236Y104228D01*
X146148Y104158D01*
X146043Y104097D01*
X145937Y104035D01*
X145814Y103982D01*
X145674Y103947D01*
X145524Y103921D01*
X145366Y103912D01*
X145287D01*
X145208Y103921D01*
X145102Y103930D01*
X144988Y103956D01*
X144865Y103982D01*
X144751Y104026D01*
X144645Y104079D01*
X144636Y104088D01*
X144601Y104114D01*
X144566Y104149D01*
X144513Y104202D01*
X144452Y104272D01*
X144390Y104352D01*
X144337Y104448D01*
X144294Y104554D01*
Y104571D01*
X144276Y104615D01*
X144258Y104677D01*
X144241Y104782D01*
X144223Y104905D01*
X144206Y105055D01*
X144197Y105222D01*
X144188Y105424D01*
Y108131D01*
X145366D01*
Y105424D01*
Y105415D01*
Y105398D01*
Y105371D01*
X145375Y105336D01*
X145392Y105248D01*
X145428Y105151D01*
X145480Y105046D01*
X145559Y104958D01*
X145612Y104923D01*
X145674Y104897D01*
X145744Y104879D01*
X145823Y104870D01*
X145858D01*
X145902Y104879D01*
X145964Y104888D01*
X146025Y104905D01*
X146087Y104923D01*
X146157Y104958D01*
X146227Y105002D01*
X146236Y105011D01*
X146254Y105028D01*
X146289Y105055D01*
X146324Y105090D01*
X146394Y105178D01*
X146430Y105231D01*
X146447Y105283D01*
Y105292D01*
X146456Y105310D01*
X146465Y105354D01*
X146474Y105406D01*
X146482Y105477D01*
X146491Y105565D01*
X146500Y105670D01*
Y105802D01*
Y108131D01*
X147722D01*
Y104000D01*
D02*
G37*
G36*
X168580D02*
X167359D01*
Y108131D01*
X168580D01*
Y104000D01*
D02*
G37*
G36*
X182978Y109652D02*
X183066Y109643D01*
X183163Y109634D01*
X183268Y109617D01*
X183383Y109599D01*
X183620Y109529D01*
X183752Y109494D01*
X183875Y109441D01*
X183998Y109379D01*
X184112Y109309D01*
X184227Y109230D01*
X184332Y109133D01*
X184341Y109125D01*
X184358Y109107D01*
X184385Y109081D01*
X184420Y109046D01*
X184455Y108993D01*
X184499Y108931D01*
X184552Y108861D01*
X184605Y108782D01*
X184701Y108606D01*
X184789Y108395D01*
X184816Y108281D01*
X184842Y108158D01*
X184859Y108035D01*
X184868Y107903D01*
Y107894D01*
Y107868D01*
Y107832D01*
X184859Y107780D01*
X184851Y107709D01*
X184842Y107639D01*
X184824Y107551D01*
X184798Y107455D01*
X184728Y107252D01*
X184684Y107138D01*
X184631Y107024D01*
X184569Y106910D01*
X184490Y106795D01*
X184402Y106681D01*
X184306Y106567D01*
X184297Y106558D01*
X184279Y106540D01*
X184244Y106505D01*
X184200Y106461D01*
X184130Y106409D01*
X184051Y106338D01*
X183954Y106259D01*
X183840Y106171D01*
X183717Y106066D01*
X183567Y105960D01*
X183400Y105837D01*
X183216Y105705D01*
X183005Y105565D01*
X182785Y105424D01*
X182530Y105266D01*
X182266Y105107D01*
X184947D01*
X184851Y104000D01*
X180667D01*
Y105081D01*
X180675Y105090D01*
X180702Y105107D01*
X180754Y105143D01*
X180825Y105195D01*
X180921Y105266D01*
X181036Y105345D01*
X181176Y105450D01*
X181335Y105565D01*
X181352Y105573D01*
X181387Y105600D01*
X181449Y105644D01*
X181519Y105705D01*
X181616Y105767D01*
X181730Y105855D01*
X181844Y105943D01*
X181976Y106039D01*
X182249Y106250D01*
X182521Y106479D01*
X182662Y106593D01*
X182785Y106699D01*
X182899Y106804D01*
X183005Y106910D01*
X183013Y106918D01*
X183031Y106936D01*
X183057Y106962D01*
X183084Y106997D01*
X183172Y107103D01*
X183268Y107226D01*
X183365Y107375D01*
X183453Y107542D01*
X183479Y107622D01*
X183506Y107709D01*
X183523Y107797D01*
X183532Y107876D01*
Y107894D01*
Y107929D01*
X183523Y107991D01*
X183506Y108070D01*
X183479Y108149D01*
X183444Y108237D01*
X183391Y108334D01*
X183321Y108413D01*
X183312Y108421D01*
X183286Y108448D01*
X183233Y108483D01*
X183172Y108518D01*
X183093Y108553D01*
X182996Y108588D01*
X182882Y108615D01*
X182759Y108624D01*
X182723D01*
X182679Y108615D01*
X182627Y108606D01*
X182565Y108588D01*
X182495Y108571D01*
X182416Y108536D01*
X182328Y108492D01*
X182249Y108430D01*
X182161Y108360D01*
X182082Y108281D01*
X182011Y108175D01*
X181941Y108052D01*
X181888Y107912D01*
X181844Y107745D01*
X181809Y107560D01*
X180667Y107815D01*
Y107824D01*
X180675Y107832D01*
Y107859D01*
X180684Y107894D01*
X180710Y107982D01*
X180754Y108105D01*
X180807Y108246D01*
X180886Y108395D01*
X180974Y108562D01*
X181080Y108738D01*
X181212Y108914D01*
X181361Y109081D01*
X181537Y109230D01*
X181739Y109371D01*
X181967Y109494D01*
X182222Y109582D01*
X182363Y109617D01*
X182504Y109643D01*
X182662Y109652D01*
X182820Y109661D01*
X182917D01*
X182978Y109652D01*
D02*
G37*
G36*
X108427Y79100D02*
X107462D01*
Y83507D01*
X108427D01*
Y79100D01*
D02*
G37*
G36*
X105422Y82417D02*
X105505D01*
X105602Y82403D01*
X105706Y82390D01*
X105817Y82369D01*
X105928Y82341D01*
X105942D01*
X105977Y82327D01*
X106033Y82306D01*
X106095Y82285D01*
X106171Y82251D01*
X106248Y82209D01*
X106317Y82168D01*
X106386Y82112D01*
X106393Y82105D01*
X106414Y82084D01*
X106442Y82056D01*
X106477Y82015D01*
X106511Y81966D01*
X106553Y81911D01*
X106581Y81848D01*
X106608Y81786D01*
Y81779D01*
X106615Y81751D01*
X106629Y81709D01*
X106643Y81647D01*
X106650Y81564D01*
X106664Y81460D01*
X106671Y81335D01*
Y81182D01*
Y79704D01*
Y79697D01*
Y79683D01*
Y79662D01*
Y79634D01*
Y79558D01*
X106678Y79468D01*
X106685Y79371D01*
X106692Y79273D01*
X106706Y79176D01*
X106727Y79100D01*
X105797D01*
Y79107D01*
X105790Y79135D01*
X105783Y79176D01*
X105776Y79232D01*
X105762Y79301D01*
X105755Y79391D01*
X105748Y79489D01*
Y79593D01*
X105734Y79586D01*
X105706Y79544D01*
X105658Y79482D01*
X105595Y79412D01*
X105519Y79336D01*
X105436Y79260D01*
X105345Y79190D01*
X105255Y79142D01*
X105241Y79135D01*
X105214Y79128D01*
X105165Y79107D01*
X105096Y79086D01*
X105012Y79065D01*
X104922Y79051D01*
X104818Y79037D01*
X104707Y79031D01*
X104665D01*
X104631Y79037D01*
X104589D01*
X104547Y79045D01*
X104443Y79058D01*
X104325Y79093D01*
X104200Y79135D01*
X104075Y79190D01*
X103964Y79273D01*
X103951Y79287D01*
X103923Y79322D01*
X103874Y79378D01*
X103826Y79454D01*
X103777Y79544D01*
X103728Y79662D01*
X103701Y79794D01*
X103687Y79940D01*
Y79947D01*
Y79954D01*
Y79995D01*
X103694Y80051D01*
X103708Y80127D01*
X103728Y80217D01*
X103756Y80314D01*
X103791Y80412D01*
X103846Y80509D01*
X103853Y80523D01*
X103881Y80550D01*
X103916Y80599D01*
X103978Y80655D01*
X104048Y80717D01*
X104138Y80786D01*
X104249Y80856D01*
X104374Y80911D01*
X104381D01*
X104395Y80918D01*
X104416Y80925D01*
X104443Y80932D01*
X104492Y80946D01*
X104540Y80960D01*
X104603Y80974D01*
X104679Y80995D01*
X104762Y81008D01*
X104860Y81029D01*
X104971Y81050D01*
X105089Y81064D01*
X105227Y81085D01*
X105373Y81099D01*
X105533Y81120D01*
X105706Y81133D01*
Y81314D01*
Y81321D01*
Y81335D01*
Y81356D01*
X105699Y81390D01*
X105679Y81467D01*
X105644Y81557D01*
X105623Y81598D01*
X105588Y81640D01*
X105554Y81682D01*
X105505Y81716D01*
X105450Y81751D01*
X105387Y81772D01*
X105311Y81786D01*
X105227Y81793D01*
X105179D01*
X105151Y81786D01*
X105068Y81765D01*
X104971Y81737D01*
X104874Y81675D01*
X104825Y81640D01*
X104783Y81591D01*
X104742Y81543D01*
X104714Y81473D01*
X104686Y81404D01*
X104672Y81321D01*
X103784Y81404D01*
Y81411D01*
X103791Y81432D01*
X103798Y81460D01*
X103805Y81494D01*
X103819Y81543D01*
X103832Y81591D01*
X103881Y81709D01*
X103951Y81841D01*
X104041Y81966D01*
X104096Y82029D01*
X104159Y82091D01*
X104228Y82140D01*
X104305Y82188D01*
X104311D01*
X104325Y82195D01*
X104346Y82209D01*
X104381Y82223D01*
X104422Y82244D01*
X104478Y82265D01*
X104534Y82285D01*
X104596Y82306D01*
X104742Y82348D01*
X104915Y82390D01*
X105103Y82417D01*
X105304Y82424D01*
X105359D01*
X105422Y82417D01*
D02*
G37*
G36*
X98274D02*
X98357D01*
X98454Y82403D01*
X98558Y82390D01*
X98669Y82369D01*
X98780Y82341D01*
X98794D01*
X98829Y82327D01*
X98884Y82306D01*
X98947Y82285D01*
X99023Y82251D01*
X99099Y82209D01*
X99169Y82168D01*
X99238Y82112D01*
X99245Y82105D01*
X99266Y82084D01*
X99294Y82056D01*
X99329Y82015D01*
X99363Y81966D01*
X99405Y81911D01*
X99433Y81848D01*
X99460Y81786D01*
Y81779D01*
X99467Y81751D01*
X99481Y81709D01*
X99495Y81647D01*
X99502Y81564D01*
X99516Y81460D01*
X99523Y81335D01*
Y81182D01*
Y79704D01*
Y79697D01*
Y79683D01*
Y79662D01*
Y79634D01*
Y79558D01*
X99530Y79468D01*
X99537Y79371D01*
X99544Y79273D01*
X99558Y79176D01*
X99578Y79100D01*
X98648D01*
Y79107D01*
X98641Y79135D01*
X98634Y79176D01*
X98628Y79232D01*
X98614Y79301D01*
X98607Y79391D01*
X98600Y79489D01*
Y79593D01*
X98586Y79586D01*
X98558Y79544D01*
X98510Y79482D01*
X98447Y79412D01*
X98371Y79336D01*
X98287Y79260D01*
X98197Y79190D01*
X98107Y79142D01*
X98093Y79135D01*
X98065Y79128D01*
X98017Y79107D01*
X97947Y79086D01*
X97864Y79065D01*
X97774Y79051D01*
X97670Y79037D01*
X97559Y79031D01*
X97517D01*
X97482Y79037D01*
X97441D01*
X97399Y79045D01*
X97295Y79058D01*
X97177Y79093D01*
X97052Y79135D01*
X96927Y79190D01*
X96816Y79273D01*
X96802Y79287D01*
X96775Y79322D01*
X96726Y79378D01*
X96677Y79454D01*
X96629Y79544D01*
X96580Y79662D01*
X96552Y79794D01*
X96539Y79940D01*
Y79947D01*
Y79954D01*
Y79995D01*
X96545Y80051D01*
X96559Y80127D01*
X96580Y80217D01*
X96608Y80314D01*
X96643Y80412D01*
X96698Y80509D01*
X96705Y80523D01*
X96733Y80550D01*
X96768Y80599D01*
X96830Y80655D01*
X96899Y80717D01*
X96990Y80786D01*
X97101Y80856D01*
X97226Y80911D01*
X97233D01*
X97246Y80918D01*
X97267Y80925D01*
X97295Y80932D01*
X97344Y80946D01*
X97392Y80960D01*
X97455Y80974D01*
X97531Y80995D01*
X97614Y81008D01*
X97711Y81029D01*
X97822Y81050D01*
X97940Y81064D01*
X98079Y81085D01*
X98225Y81099D01*
X98385Y81120D01*
X98558Y81133D01*
Y81314D01*
Y81321D01*
Y81335D01*
Y81356D01*
X98551Y81390D01*
X98530Y81467D01*
X98496Y81557D01*
X98475Y81598D01*
X98440Y81640D01*
X98405Y81682D01*
X98357Y81716D01*
X98301Y81751D01*
X98239Y81772D01*
X98163Y81786D01*
X98079Y81793D01*
X98031D01*
X98003Y81786D01*
X97920Y81765D01*
X97822Y81737D01*
X97725Y81675D01*
X97677Y81640D01*
X97635Y81591D01*
X97593Y81543D01*
X97566Y81473D01*
X97538Y81404D01*
X97524Y81321D01*
X96636Y81404D01*
Y81411D01*
X96643Y81432D01*
X96650Y81460D01*
X96657Y81494D01*
X96671Y81543D01*
X96684Y81591D01*
X96733Y81709D01*
X96802Y81841D01*
X96892Y81966D01*
X96948Y82029D01*
X97010Y82091D01*
X97080Y82140D01*
X97156Y82188D01*
X97163D01*
X97177Y82195D01*
X97198Y82209D01*
X97233Y82223D01*
X97274Y82244D01*
X97330Y82265D01*
X97385Y82285D01*
X97448Y82306D01*
X97593Y82348D01*
X97767Y82390D01*
X97954Y82417D01*
X98156Y82424D01*
X98211D01*
X98274Y82417D01*
D02*
G37*
G36*
X110752D02*
X110835D01*
X110932Y82403D01*
X111036Y82390D01*
X111147Y82369D01*
X111258Y82341D01*
X111272D01*
X111307Y82327D01*
X111362Y82306D01*
X111425Y82285D01*
X111501Y82251D01*
X111578Y82209D01*
X111647Y82168D01*
X111716Y82112D01*
X111723Y82105D01*
X111744Y82084D01*
X111772Y82056D01*
X111807Y82015D01*
X111841Y81966D01*
X111883Y81911D01*
X111911Y81848D01*
X111939Y81786D01*
Y81779D01*
X111945Y81751D01*
X111959Y81709D01*
X111973Y81647D01*
X111980Y81564D01*
X111994Y81460D01*
X112001Y81335D01*
Y81182D01*
Y79704D01*
Y79697D01*
Y79683D01*
Y79662D01*
Y79634D01*
Y79558D01*
X112008Y79468D01*
X112015Y79371D01*
X112022Y79273D01*
X112036Y79176D01*
X112056Y79100D01*
X111126D01*
Y79107D01*
X111119Y79135D01*
X111113Y79176D01*
X111106Y79232D01*
X111092Y79301D01*
X111085Y79391D01*
X111078Y79489D01*
Y79593D01*
X111064Y79586D01*
X111036Y79544D01*
X110988Y79482D01*
X110925Y79412D01*
X110849Y79336D01*
X110766Y79260D01*
X110675Y79190D01*
X110585Y79142D01*
X110571Y79135D01*
X110544Y79128D01*
X110495Y79107D01*
X110425Y79086D01*
X110342Y79065D01*
X110252Y79051D01*
X110148Y79037D01*
X110037Y79031D01*
X109995D01*
X109961Y79037D01*
X109919D01*
X109877Y79045D01*
X109773Y79058D01*
X109655Y79093D01*
X109530Y79135D01*
X109405Y79190D01*
X109294Y79273D01*
X109280Y79287D01*
X109253Y79322D01*
X109204Y79378D01*
X109155Y79454D01*
X109107Y79544D01*
X109058Y79662D01*
X109031Y79794D01*
X109017Y79940D01*
Y79947D01*
Y79954D01*
Y79995D01*
X109024Y80051D01*
X109037Y80127D01*
X109058Y80217D01*
X109086Y80314D01*
X109121Y80412D01*
X109176Y80509D01*
X109183Y80523D01*
X109211Y80550D01*
X109246Y80599D01*
X109308Y80655D01*
X109378Y80717D01*
X109468Y80786D01*
X109579Y80856D01*
X109704Y80911D01*
X109711D01*
X109725Y80918D01*
X109745Y80925D01*
X109773Y80932D01*
X109822Y80946D01*
X109870Y80960D01*
X109933Y80974D01*
X110009Y80995D01*
X110092Y81008D01*
X110190Y81029D01*
X110301Y81050D01*
X110419Y81064D01*
X110557Y81085D01*
X110703Y81099D01*
X110863Y81120D01*
X111036Y81133D01*
Y81314D01*
Y81321D01*
Y81335D01*
Y81356D01*
X111029Y81390D01*
X111009Y81467D01*
X110974Y81557D01*
X110953Y81598D01*
X110918Y81640D01*
X110884Y81682D01*
X110835Y81716D01*
X110780Y81751D01*
X110717Y81772D01*
X110641Y81786D01*
X110557Y81793D01*
X110509D01*
X110481Y81786D01*
X110398Y81765D01*
X110301Y81737D01*
X110204Y81675D01*
X110155Y81640D01*
X110113Y81591D01*
X110072Y81543D01*
X110044Y81473D01*
X110016Y81404D01*
X110002Y81321D01*
X109114Y81404D01*
Y81411D01*
X109121Y81432D01*
X109128Y81460D01*
X109135Y81494D01*
X109149Y81543D01*
X109162Y81591D01*
X109211Y81709D01*
X109280Y81841D01*
X109371Y81966D01*
X109426Y82029D01*
X109489Y82091D01*
X109558Y82140D01*
X109634Y82188D01*
X109641D01*
X109655Y82195D01*
X109676Y82209D01*
X109711Y82223D01*
X109752Y82244D01*
X109808Y82265D01*
X109863Y82285D01*
X109926Y82306D01*
X110072Y82348D01*
X110245Y82390D01*
X110433Y82417D01*
X110634Y82424D01*
X110689D01*
X110752Y82417D01*
D02*
G37*
G36*
X95040Y79100D02*
X93929D01*
X92617Y83507D01*
X93714D01*
X94589Y80349D01*
X95512Y83507D01*
X96372D01*
X95040Y79100D01*
D02*
G37*
G36*
X125624Y81918D02*
X125638Y81932D01*
X125652Y81959D01*
X125673Y81994D01*
X125707Y82029D01*
X125742Y82070D01*
X125784Y82119D01*
X125832Y82168D01*
X125888Y82216D01*
X125957Y82265D01*
X126027Y82306D01*
X126110Y82341D01*
X126193Y82376D01*
X126290Y82403D01*
X126394Y82417D01*
X126505Y82424D01*
X126561D01*
X126623Y82417D01*
X126700Y82403D01*
X126783Y82390D01*
X126880Y82362D01*
X126977Y82327D01*
X127068Y82279D01*
X127082Y82272D01*
X127109Y82251D01*
X127151Y82223D01*
X127199Y82174D01*
X127255Y82126D01*
X127311Y82056D01*
X127359Y81987D01*
X127401Y81904D01*
X127408Y81897D01*
X127415Y81862D01*
X127428Y81814D01*
X127449Y81737D01*
X127470Y81647D01*
X127484Y81529D01*
X127491Y81397D01*
X127498Y81244D01*
Y79100D01*
X126533D01*
Y80932D01*
Y80939D01*
Y80946D01*
Y80988D01*
Y81043D01*
Y81113D01*
X126519Y81258D01*
X126513Y81328D01*
X126505Y81383D01*
Y81390D01*
X126499Y81404D01*
X126492Y81425D01*
X126478Y81460D01*
X126443Y81522D01*
X126388Y81591D01*
X126381Y81598D01*
X126374Y81605D01*
X126353Y81619D01*
X126325Y81633D01*
X126256Y81661D01*
X126207Y81675D01*
X126131D01*
X126089Y81668D01*
X126048Y81654D01*
X125992Y81640D01*
X125929Y81612D01*
X125867Y81578D01*
X125798Y81529D01*
X125791Y81522D01*
X125770Y81501D01*
X125742Y81460D01*
X125714Y81404D01*
X125680Y81321D01*
X125652Y81217D01*
X125638Y81154D01*
X125631Y81092D01*
X125624Y81015D01*
Y80932D01*
Y79100D01*
X124694D01*
Y83507D01*
X125624D01*
Y81918D01*
D02*
G37*
G36*
X116609Y83500D02*
X116658D01*
X116783Y83493D01*
X116921Y83479D01*
X117060Y83451D01*
X117199Y83424D01*
X117331Y83382D01*
X117338D01*
X117345Y83375D01*
X117386Y83354D01*
X117449Y83327D01*
X117518Y83278D01*
X117608Y83215D01*
X117699Y83132D01*
X117789Y83035D01*
X117872Y82917D01*
Y82910D01*
X117879Y82903D01*
X117893Y82882D01*
X117907Y82862D01*
X117942Y82792D01*
X117983Y82702D01*
X118018Y82591D01*
X118053Y82466D01*
X118080Y82327D01*
X118087Y82181D01*
Y82174D01*
Y82147D01*
X118080Y82105D01*
X118073Y82050D01*
X118067Y81987D01*
X118046Y81911D01*
X118025Y81827D01*
X117990Y81737D01*
X117948Y81647D01*
X117900Y81550D01*
X117838Y81453D01*
X117768Y81362D01*
X117678Y81272D01*
X117574Y81182D01*
X117456Y81106D01*
X117324Y81036D01*
X118136Y79100D01*
X116998D01*
X116318Y80842D01*
X115582D01*
Y79100D01*
X114541D01*
Y83507D01*
X116560D01*
X116609Y83500D01*
D02*
G37*
G36*
X83922Y82417D02*
X84005D01*
X84102Y82403D01*
X84206Y82390D01*
X84317Y82369D01*
X84428Y82341D01*
X84442D01*
X84477Y82327D01*
X84532Y82306D01*
X84595Y82285D01*
X84671Y82251D01*
X84747Y82209D01*
X84817Y82168D01*
X84886Y82112D01*
X84893Y82105D01*
X84914Y82084D01*
X84942Y82056D01*
X84977Y82015D01*
X85011Y81966D01*
X85053Y81911D01*
X85081Y81848D01*
X85108Y81786D01*
Y81779D01*
X85115Y81751D01*
X85129Y81709D01*
X85143Y81647D01*
X85150Y81564D01*
X85164Y81460D01*
X85171Y81335D01*
Y81182D01*
Y79704D01*
Y79697D01*
Y79683D01*
Y79662D01*
Y79634D01*
Y79558D01*
X85178Y79468D01*
X85185Y79371D01*
X85192Y79273D01*
X85206Y79176D01*
X85226Y79100D01*
X84296D01*
Y79107D01*
X84289Y79135D01*
X84283Y79176D01*
X84276Y79232D01*
X84262Y79301D01*
X84255Y79391D01*
X84248Y79489D01*
Y79593D01*
X84234Y79586D01*
X84206Y79544D01*
X84158Y79482D01*
X84095Y79412D01*
X84019Y79336D01*
X83936Y79260D01*
X83845Y79190D01*
X83755Y79142D01*
X83741Y79135D01*
X83714Y79128D01*
X83665Y79107D01*
X83596Y79086D01*
X83512Y79065D01*
X83422Y79051D01*
X83318Y79037D01*
X83207Y79031D01*
X83165D01*
X83131Y79037D01*
X83089D01*
X83047Y79045D01*
X82943Y79058D01*
X82825Y79093D01*
X82700Y79135D01*
X82575Y79190D01*
X82464Y79273D01*
X82450Y79287D01*
X82423Y79322D01*
X82374Y79378D01*
X82326Y79454D01*
X82277Y79544D01*
X82228Y79662D01*
X82201Y79794D01*
X82187Y79940D01*
Y79947D01*
Y79954D01*
Y79995D01*
X82194Y80051D01*
X82208Y80127D01*
X82228Y80217D01*
X82256Y80314D01*
X82291Y80412D01*
X82346Y80509D01*
X82353Y80523D01*
X82381Y80550D01*
X82416Y80599D01*
X82478Y80655D01*
X82548Y80717D01*
X82638Y80786D01*
X82749Y80856D01*
X82874Y80911D01*
X82881D01*
X82895Y80918D01*
X82915Y80925D01*
X82943Y80932D01*
X82992Y80946D01*
X83040Y80960D01*
X83103Y80974D01*
X83179Y80995D01*
X83262Y81008D01*
X83359Y81029D01*
X83471Y81050D01*
X83589Y81064D01*
X83727Y81085D01*
X83873Y81099D01*
X84033Y81120D01*
X84206Y81133D01*
Y81314D01*
Y81321D01*
Y81335D01*
Y81356D01*
X84199Y81390D01*
X84179Y81467D01*
X84144Y81557D01*
X84123Y81598D01*
X84088Y81640D01*
X84053Y81682D01*
X84005Y81716D01*
X83949Y81751D01*
X83887Y81772D01*
X83811Y81786D01*
X83727Y81793D01*
X83679D01*
X83651Y81786D01*
X83568Y81765D01*
X83471Y81737D01*
X83373Y81675D01*
X83325Y81640D01*
X83283Y81591D01*
X83242Y81543D01*
X83214Y81473D01*
X83186Y81404D01*
X83172Y81321D01*
X82284Y81404D01*
Y81411D01*
X82291Y81432D01*
X82298Y81460D01*
X82305Y81494D01*
X82319Y81543D01*
X82332Y81591D01*
X82381Y81709D01*
X82450Y81841D01*
X82541Y81966D01*
X82596Y82029D01*
X82659Y82091D01*
X82728Y82140D01*
X82804Y82188D01*
X82811D01*
X82825Y82195D01*
X82846Y82209D01*
X82881Y82223D01*
X82922Y82244D01*
X82978Y82265D01*
X83033Y82285D01*
X83096Y82306D01*
X83242Y82348D01*
X83415Y82390D01*
X83602Y82417D01*
X83804Y82424D01*
X83859D01*
X83922Y82417D01*
D02*
G37*
G36*
X99586Y161056D02*
X99633D01*
X99688Y161051D01*
X99748Y161042D01*
X99817Y161028D01*
X99896Y161014D01*
X99974Y160995D01*
X100062Y160968D01*
X100150Y160940D01*
X100238Y160903D01*
X100326Y160862D01*
X100413Y160811D01*
X100496Y160751D01*
X100580Y160686D01*
X100584Y160681D01*
X100598Y160668D01*
X100617Y160649D01*
X100644Y160617D01*
X100677Y160580D01*
X100714Y160533D01*
X100751Y160483D01*
X100787Y160418D01*
X100829Y160349D01*
X100866Y160275D01*
X100903Y160192D01*
X100935Y160099D01*
X100963Y160002D01*
X100981Y159896D01*
X100995Y159785D01*
X101000Y159665D01*
Y158658D01*
X98066D01*
Y159549D01*
Y159554D01*
Y159573D01*
Y159600D01*
Y159642D01*
X98071Y159683D01*
X98075Y159739D01*
X98080Y159794D01*
X98085Y159859D01*
X98103Y159993D01*
X98131Y160127D01*
X98168Y160256D01*
X98191Y160312D01*
X98219Y160367D01*
Y160372D01*
X98228Y160381D01*
X98233Y160395D01*
X98247Y160413D01*
X98283Y160464D01*
X98334Y160529D01*
X98404Y160603D01*
X98487Y160681D01*
X98584Y160765D01*
X98699Y160848D01*
X98704Y160852D01*
X98713Y160857D01*
X98732Y160866D01*
X98759Y160880D01*
X98792Y160898D01*
X98829Y160917D01*
X98875Y160935D01*
X98926Y160954D01*
X98981Y160972D01*
X99046Y160991D01*
X99115Y161009D01*
X99184Y161028D01*
X99263Y161042D01*
X99346Y161051D01*
X99434Y161060D01*
X99554D01*
X99586Y161056D01*
D02*
G37*
G36*
X101000Y157470D02*
X99023Y156339D01*
X99097D01*
X99110Y156343D01*
X99133D01*
X99147Y156348D01*
X99161D01*
X99203Y156352D01*
X101000D01*
Y155816D01*
X98066D01*
Y156556D01*
X99799Y157549D01*
X99776D01*
X99753Y157544D01*
X99725D01*
X99660Y157540D01*
X99633Y157535D01*
X98066D01*
Y158066D01*
X101000D01*
Y157470D01*
D02*
G37*
G36*
Y153312D02*
X98066D01*
Y155401D01*
X98625D01*
Y154010D01*
X99226D01*
Y155105D01*
X99776D01*
Y154010D01*
X100418D01*
Y155401D01*
X101000D01*
Y153312D01*
D02*
G37*
G36*
Y161407D02*
X100464D01*
Y162294D01*
X98787D01*
X98792Y162289D01*
X98801Y162271D01*
X98819Y162243D01*
X98838Y162206D01*
X98866Y162164D01*
X98893Y162113D01*
X98926Y162054D01*
X98963Y161993D01*
X99032Y161864D01*
X99106Y161730D01*
X99171Y161596D01*
X99203Y161536D01*
X99226Y161481D01*
X98621D01*
X98616Y161490D01*
X98611Y161513D01*
X98598Y161550D01*
X98579Y161601D01*
X98556Y161661D01*
X98533Y161730D01*
X98501Y161809D01*
X98464Y161887D01*
X98376Y162054D01*
X98330Y162137D01*
X98274Y162215D01*
X98219Y162289D01*
X98159Y162358D01*
X98094Y162418D01*
X98025Y162469D01*
Y162968D01*
X100464D01*
Y163781D01*
X101000D01*
Y161407D01*
D02*
G37*
G36*
X78384Y79100D02*
X77273D01*
X77003Y80009D01*
X75580D01*
X75302Y79100D01*
X74400D01*
X75802Y83507D01*
X77003D01*
X78384Y79100D01*
D02*
G37*
G36*
X123459Y82362D02*
X124160D01*
Y81612D01*
X123459D01*
Y80231D01*
Y80217D01*
Y80190D01*
X123466Y80148D01*
Y80092D01*
X123494Y79974D01*
X123507Y79926D01*
X123535Y79884D01*
X123542D01*
X123549Y79870D01*
X123577Y79856D01*
X123611Y79843D01*
X123660Y79829D01*
X123723Y79815D01*
X123799Y79808D01*
X123896Y79801D01*
X124083D01*
X124201Y79808D01*
Y79100D01*
X124181D01*
X124160Y79093D01*
X124132Y79086D01*
X124056Y79079D01*
X123966Y79065D01*
X123868Y79051D01*
X123771Y79045D01*
X123674Y79031D01*
X123542D01*
X123501Y79037D01*
X123452D01*
X123396Y79045D01*
X123265Y79058D01*
X123126Y79086D01*
X122980Y79128D01*
X122855Y79183D01*
X122793Y79218D01*
X122744Y79260D01*
X122730Y79273D01*
X122702Y79308D01*
X122668Y79364D01*
X122640Y79405D01*
X122619Y79447D01*
X122598Y79502D01*
X122571Y79565D01*
X122550Y79634D01*
X122536Y79711D01*
X122515Y79794D01*
X122508Y79884D01*
X122494Y79981D01*
Y80092D01*
Y81612D01*
X121981D01*
Y82362D01*
X122550D01*
X122626Y83319D01*
X123459Y83389D01*
Y82362D01*
D02*
G37*
G36*
X120308Y82417D02*
X120371Y82410D01*
X120440Y82397D01*
X120523Y82383D01*
X120607Y82362D01*
X120697Y82334D01*
X120794Y82306D01*
X120891Y82265D01*
X120988Y82216D01*
X121078Y82161D01*
X121176Y82091D01*
X121259Y82022D01*
X121342Y81932D01*
X121349Y81925D01*
X121363Y81911D01*
X121384Y81883D01*
X121412Y81841D01*
X121439Y81800D01*
X121474Y81737D01*
X121516Y81675D01*
X121557Y81598D01*
X121592Y81515D01*
X121634Y81425D01*
X121668Y81321D01*
X121703Y81217D01*
X121724Y81099D01*
X121745Y80981D01*
X121759Y80849D01*
X121765Y80717D01*
Y80710D01*
Y80682D01*
Y80648D01*
X121759Y80599D01*
X121752Y80537D01*
X121745Y80460D01*
X121731Y80384D01*
X121710Y80294D01*
X121661Y80099D01*
X121627Y80002D01*
X121578Y79898D01*
X121529Y79801D01*
X121474Y79697D01*
X121405Y79600D01*
X121328Y79510D01*
X121321Y79502D01*
X121308Y79489D01*
X121287Y79468D01*
X121252Y79433D01*
X121203Y79398D01*
X121155Y79357D01*
X121092Y79315D01*
X121023Y79273D01*
X120947Y79225D01*
X120856Y79183D01*
X120766Y79142D01*
X120662Y79107D01*
X120551Y79072D01*
X120433Y79051D01*
X120308Y79037D01*
X120176Y79031D01*
X120107D01*
X120058Y79037D01*
X120003Y79045D01*
X119933Y79058D01*
X119857Y79072D01*
X119781Y79093D01*
X119600Y79149D01*
X119510Y79183D01*
X119413Y79232D01*
X119323Y79287D01*
X119232Y79350D01*
X119149Y79419D01*
X119066Y79502D01*
X119059Y79510D01*
X119045Y79523D01*
X119024Y79551D01*
X119003Y79593D01*
X118969Y79634D01*
X118934Y79697D01*
X118899Y79759D01*
X118858Y79836D01*
X118816Y79919D01*
X118781Y80016D01*
X118747Y80113D01*
X118712Y80224D01*
X118691Y80342D01*
X118670Y80460D01*
X118656Y80592D01*
X118649Y80731D01*
Y80738D01*
Y80752D01*
Y80779D01*
Y80821D01*
X118656Y80863D01*
Y80918D01*
X118670Y81036D01*
X118698Y81175D01*
X118726Y81321D01*
X118774Y81473D01*
X118837Y81612D01*
Y81619D01*
X118844Y81626D01*
X118858Y81647D01*
X118871Y81675D01*
X118913Y81737D01*
X118969Y81820D01*
X119045Y81911D01*
X119135Y82008D01*
X119232Y82105D01*
X119350Y82195D01*
X119357D01*
X119364Y82202D01*
X119385Y82216D01*
X119413Y82230D01*
X119482Y82265D01*
X119579Y82313D01*
X119697Y82355D01*
X119843Y82390D01*
X120003Y82417D01*
X120183Y82424D01*
X120253D01*
X120308Y82417D01*
D02*
G37*
G36*
X83729Y88417D02*
X83777Y88410D01*
X83895Y88397D01*
X84027Y88376D01*
X84166Y88334D01*
X84298Y88285D01*
X84423Y88216D01*
X84430D01*
X84437Y88209D01*
X84471Y88174D01*
X84534Y88126D01*
X84603Y88056D01*
X84680Y87966D01*
X84756Y87855D01*
X84832Y87723D01*
X84902Y87564D01*
X84201Y87383D01*
Y87390D01*
X84194Y87404D01*
X84187Y87425D01*
X84173Y87453D01*
X84131Y87522D01*
X84076Y87605D01*
X83993Y87689D01*
X83937Y87723D01*
X83882Y87758D01*
X83812Y87786D01*
X83736Y87807D01*
X83653Y87821D01*
X83562Y87827D01*
X83521D01*
X83486Y87821D01*
X83410Y87814D01*
X83326Y87793D01*
X83236Y87758D01*
X83160Y87703D01*
X83125Y87668D01*
X83104Y87626D01*
X83091Y87585D01*
X83083Y87529D01*
Y87522D01*
Y87508D01*
X83091Y87487D01*
X83097Y87460D01*
X83118Y87397D01*
X83139Y87369D01*
X83167Y87342D01*
X83174D01*
X83188Y87328D01*
X83215Y87314D01*
X83257Y87300D01*
X83319Y87279D01*
X83403Y87265D01*
X83507Y87244D01*
X83632Y87224D01*
X83659D01*
X83687Y87217D01*
X83722Y87210D01*
X83771Y87203D01*
X83819Y87196D01*
X83944Y87175D01*
X84076Y87147D01*
X84215Y87120D01*
X84340Y87085D01*
X84451Y87050D01*
X84465Y87043D01*
X84492Y87029D01*
X84548Y87009D01*
X84603Y86974D01*
X84673Y86932D01*
X84749Y86877D01*
X84819Y86807D01*
X84881Y86731D01*
X84888Y86724D01*
X84909Y86689D01*
X84930Y86641D01*
X84964Y86571D01*
X84992Y86495D01*
X85013Y86398D01*
X85034Y86287D01*
X85041Y86162D01*
Y86155D01*
Y86141D01*
Y86113D01*
X85034Y86079D01*
X85027Y86037D01*
X85020Y85988D01*
X84992Y85870D01*
X84943Y85745D01*
X84874Y85607D01*
X84832Y85537D01*
X84784Y85468D01*
X84721Y85405D01*
X84652Y85343D01*
X84645D01*
X84631Y85329D01*
X84610Y85315D01*
X84583Y85294D01*
X84541Y85273D01*
X84492Y85246D01*
X84437Y85218D01*
X84374Y85190D01*
X84305Y85155D01*
X84229Y85128D01*
X84138Y85100D01*
X84041Y85079D01*
X83944Y85058D01*
X83833Y85044D01*
X83715Y85037D01*
X83590Y85031D01*
X83535D01*
X83472Y85037D01*
X83389Y85044D01*
X83292Y85058D01*
X83181Y85079D01*
X83063Y85114D01*
X82938Y85149D01*
X82806Y85204D01*
X82681Y85267D01*
X82556Y85343D01*
X82438Y85433D01*
X82327Y85544D01*
X82237Y85669D01*
X82161Y85822D01*
X82105Y85988D01*
X82910Y86113D01*
Y86106D01*
X82917Y86092D01*
X82924Y86072D01*
X82938Y86044D01*
X82973Y85974D01*
X83000Y85933D01*
X83035Y85898D01*
X83077Y85856D01*
X83132Y85815D01*
X83188Y85780D01*
X83257Y85745D01*
X83333Y85718D01*
X83424Y85697D01*
X83521Y85683D01*
X83632Y85676D01*
X83673D01*
X83715Y85683D01*
X83771Y85690D01*
X83833Y85697D01*
X83902Y85711D01*
X83972Y85732D01*
X84034Y85759D01*
X84041Y85766D01*
X84062Y85773D01*
X84090Y85794D01*
X84118Y85822D01*
X84145Y85849D01*
X84173Y85891D01*
X84194Y85940D01*
X84201Y85988D01*
Y85995D01*
X84194Y86023D01*
X84180Y86058D01*
X84152Y86106D01*
X84111Y86148D01*
X84041Y86197D01*
X84000Y86210D01*
X83951Y86231D01*
X83895Y86245D01*
X83833Y86252D01*
X83819D01*
X83791Y86259D01*
X83743Y86266D01*
X83673Y86273D01*
X83597Y86287D01*
X83507Y86308D01*
X83410Y86321D01*
X83299Y86349D01*
X83083Y86398D01*
X82868Y86467D01*
X82771Y86502D01*
X82681Y86544D01*
X82605Y86585D01*
X82535Y86634D01*
X82521Y86648D01*
X82487Y86682D01*
X82438Y86738D01*
X82383Y86821D01*
X82327Y86918D01*
X82279Y87043D01*
X82244Y87189D01*
X82237Y87265D01*
X82230Y87349D01*
Y87356D01*
Y87369D01*
Y87397D01*
X82237Y87425D01*
X82244Y87467D01*
X82251Y87515D01*
X82279Y87619D01*
X82320Y87744D01*
X82383Y87869D01*
X82424Y87932D01*
X82473Y88001D01*
X82528Y88063D01*
X82591Y88119D01*
X82598Y88126D01*
X82605Y88133D01*
X82626Y88147D01*
X82660Y88168D01*
X82695Y88188D01*
X82736Y88216D01*
X82792Y88244D01*
X82854Y88272D01*
X82917Y88299D01*
X82993Y88327D01*
X83077Y88355D01*
X83167Y88376D01*
X83264Y88397D01*
X83368Y88410D01*
X83479Y88424D01*
X83680D01*
X83729Y88417D01*
D02*
G37*
G36*
X109171Y85232D02*
Y85225D01*
X109164Y85211D01*
X109157Y85183D01*
X109143Y85149D01*
X109129Y85107D01*
X109108Y85058D01*
X109074Y84940D01*
X109025Y84822D01*
X108977Y84698D01*
X108928Y84579D01*
X108879Y84482D01*
X108873Y84475D01*
X108859Y84441D01*
X108831Y84399D01*
X108789Y84351D01*
X108741Y84288D01*
X108685Y84226D01*
X108616Y84163D01*
X108533Y84108D01*
X108526Y84101D01*
X108491Y84087D01*
X108442Y84059D01*
X108366Y84038D01*
X108276Y84010D01*
X108172Y83983D01*
X108047Y83969D01*
X107901Y83962D01*
X107825D01*
X107769Y83969D01*
X107700D01*
X107623Y83983D01*
X107533Y83990D01*
X107443Y84004D01*
Y84739D01*
X107457D01*
X107485Y84732D01*
X107533Y84725D01*
X107596Y84718D01*
X107665Y84711D01*
X107741Y84704D01*
X107908Y84698D01*
X107957D01*
X108005Y84704D01*
X108061Y84711D01*
X108123Y84725D01*
X108192Y84746D01*
X108248Y84774D01*
X108290Y84808D01*
X108297Y84816D01*
X108303Y84829D01*
X108324Y84850D01*
X108345Y84885D01*
X108366Y84926D01*
X108394Y84975D01*
X108414Y85031D01*
X108435Y85100D01*
X107255Y88362D01*
X108269D01*
X108893Y86419D01*
X109497Y88362D01*
X110198D01*
X109171Y85232D01*
D02*
G37*
G36*
X105597Y89500D02*
X105646D01*
X105770Y89493D01*
X105902Y89472D01*
X106041Y89451D01*
X106173Y89417D01*
X106291Y89368D01*
X106305Y89361D01*
X106340Y89340D01*
X106388Y89313D01*
X106450Y89271D01*
X106527Y89215D01*
X106603Y89146D01*
X106679Y89070D01*
X106749Y88980D01*
X106756Y88966D01*
X106777Y88938D01*
X106804Y88882D01*
X106839Y88813D01*
X106874Y88723D01*
X106902Y88619D01*
X106922Y88501D01*
X106929Y88369D01*
Y88362D01*
Y88334D01*
X106922Y88299D01*
X106915Y88251D01*
X106909Y88188D01*
X106888Y88126D01*
X106860Y88050D01*
X106832Y87973D01*
X106791Y87890D01*
X106735Y87807D01*
X106673Y87723D01*
X106596Y87647D01*
X106506Y87571D01*
X106402Y87501D01*
X106277Y87439D01*
X106138Y87390D01*
X106145D01*
X106159Y87383D01*
X106180Y87376D01*
X106214Y87369D01*
X106298Y87342D01*
X106395Y87300D01*
X106506Y87244D01*
X106624Y87175D01*
X106728Y87085D01*
X106825Y86981D01*
X106832Y86967D01*
X106860Y86925D01*
X106895Y86863D01*
X106943Y86786D01*
X106985Y86682D01*
X107020Y86571D01*
X107047Y86446D01*
X107054Y86314D01*
Y86308D01*
Y86294D01*
Y86266D01*
X107047Y86231D01*
X107040Y86190D01*
X107034Y86141D01*
X107006Y86023D01*
X106964Y85884D01*
X106895Y85738D01*
X106853Y85669D01*
X106804Y85593D01*
X106749Y85523D01*
X106679Y85454D01*
X106673Y85447D01*
X106659Y85440D01*
X106638Y85419D01*
X106610Y85398D01*
X106569Y85371D01*
X106520Y85343D01*
X106457Y85308D01*
X106388Y85280D01*
X106305Y85246D01*
X106221Y85211D01*
X106117Y85183D01*
X106006Y85155D01*
X105888Y85135D01*
X105756Y85114D01*
X105618Y85107D01*
X105465Y85100D01*
X103418D01*
Y89507D01*
X105548D01*
X105597Y89500D01*
D02*
G37*
G36*
X92869Y88417D02*
X92911D01*
X92952Y88410D01*
X93063Y88390D01*
X93181Y88362D01*
X93306Y88313D01*
X93431Y88251D01*
X93542Y88168D01*
X93556Y88154D01*
X93570Y88140D01*
X93584Y88119D01*
X93612Y88084D01*
X93632Y88050D01*
X93660Y88008D01*
X93688Y87952D01*
X93709Y87890D01*
X93736Y87821D01*
X93764Y87737D01*
X93785Y87647D01*
X93799Y87550D01*
X93813Y87439D01*
X93827Y87321D01*
Y87189D01*
Y85100D01*
X92862D01*
Y86925D01*
Y86932D01*
Y86939D01*
Y86981D01*
Y87036D01*
Y87106D01*
X92855Y87182D01*
X92848Y87258D01*
X92841Y87321D01*
X92834Y87376D01*
Y87383D01*
X92827Y87397D01*
X92820Y87418D01*
X92807Y87453D01*
X92772Y87515D01*
X92709Y87585D01*
X92702Y87591D01*
X92695Y87598D01*
X92668Y87612D01*
X92640Y87633D01*
X92605Y87647D01*
X92564Y87661D01*
X92515Y87668D01*
X92459Y87675D01*
X92439D01*
X92411Y87668D01*
X92383Y87661D01*
X92300Y87633D01*
X92258Y87612D01*
X92210Y87585D01*
X92161Y87543D01*
X92119Y87494D01*
X92078Y87432D01*
X92036Y87356D01*
X92008Y87272D01*
X91981Y87175D01*
X91967Y87057D01*
X91960Y86925D01*
Y85100D01*
X90995D01*
Y88362D01*
X91890D01*
Y87814D01*
X91897Y87821D01*
X91911Y87841D01*
X91932Y87869D01*
X91974Y87938D01*
X92029Y88015D01*
X92092Y88098D01*
X92168Y88181D01*
X92244Y88251D01*
X92328Y88306D01*
X92335Y88313D01*
X92362Y88327D01*
X92411Y88341D01*
X92466Y88369D01*
X92536Y88390D01*
X92612Y88403D01*
X92702Y88417D01*
X92793Y88424D01*
X92834D01*
X92869Y88417D01*
D02*
G37*
G36*
X86554Y88626D02*
X85589D01*
Y89590D01*
X86554D01*
Y88626D01*
D02*
G37*
G36*
X90502Y88903D02*
X90600Y88889D01*
Y88279D01*
X90593D01*
X90572Y88285D01*
X90544Y88292D01*
X90509Y88299D01*
X90426Y88306D01*
X90343Y88313D01*
X90329D01*
X90294Y88306D01*
X90239Y88299D01*
X90176Y88279D01*
X90107Y88244D01*
X90044Y88195D01*
X89996Y88126D01*
X89968Y88029D01*
X89982Y88015D01*
X90010Y87980D01*
X90051Y87925D01*
X90100Y87848D01*
X90148Y87758D01*
X90190Y87654D01*
X90218Y87536D01*
X90232Y87411D01*
Y87404D01*
Y87390D01*
Y87369D01*
X90225Y87335D01*
X90218Y87293D01*
X90211Y87251D01*
X90183Y87147D01*
X90135Y87029D01*
X90065Y86904D01*
X90023Y86842D01*
X89975Y86786D01*
X89912Y86731D01*
X89843Y86675D01*
X89836D01*
X89822Y86661D01*
X89801Y86648D01*
X89774Y86634D01*
X89732Y86613D01*
X89684Y86592D01*
X89628Y86564D01*
X89559Y86544D01*
X89482Y86516D01*
X89399Y86488D01*
X89309Y86467D01*
X89211Y86446D01*
X89100Y86432D01*
X88990Y86419D01*
X88864Y86405D01*
X88635D01*
X88573Y86412D01*
X88497Y86419D01*
X88413Y86426D01*
X88226Y86453D01*
X88219Y86446D01*
X88198Y86439D01*
X88178Y86412D01*
X88150Y86384D01*
X88115Y86349D01*
X88094Y86308D01*
X88073Y86259D01*
X88066Y86203D01*
Y86197D01*
Y86176D01*
X88073Y86148D01*
X88080Y86113D01*
X88101Y86079D01*
X88122Y86037D01*
X88157Y86009D01*
X88198Y85981D01*
X88205D01*
X88226Y85974D01*
X88268Y85961D01*
X88337Y85954D01*
X88379Y85947D01*
X88427Y85940D01*
X88476Y85933D01*
X88538Y85926D01*
X88608Y85919D01*
X88691Y85912D01*
X88774D01*
X88872Y85905D01*
X88906D01*
X88941Y85898D01*
X88996D01*
X89052Y85891D01*
X89121D01*
X89281Y85877D01*
X89454Y85863D01*
X89621Y85849D01*
X89704Y85836D01*
X89781Y85829D01*
X89850Y85822D01*
X89906Y85808D01*
X89919D01*
X89954Y85794D01*
X90003Y85780D01*
X90072Y85752D01*
X90148Y85718D01*
X90225Y85676D01*
X90308Y85614D01*
X90384Y85544D01*
X90391Y85537D01*
X90412Y85510D01*
X90447Y85461D01*
X90482Y85398D01*
X90516Y85329D01*
X90551Y85239D01*
X90572Y85135D01*
X90579Y85024D01*
Y85017D01*
Y85003D01*
Y84982D01*
X90572Y84947D01*
X90565Y84913D01*
X90558Y84864D01*
X90530Y84760D01*
X90475Y84642D01*
X90447Y84579D01*
X90405Y84517D01*
X90357Y84455D01*
X90301Y84392D01*
X90239Y84330D01*
X90162Y84267D01*
X90155D01*
X90141Y84253D01*
X90114Y84239D01*
X90079Y84219D01*
X90030Y84198D01*
X89975Y84170D01*
X89906Y84142D01*
X89822Y84114D01*
X89725Y84080D01*
X89621Y84052D01*
X89503Y84024D01*
X89364Y84004D01*
X89218Y83983D01*
X89059Y83969D01*
X88878Y83962D01*
X88691Y83955D01*
X88601D01*
X88531Y83962D01*
X88448D01*
X88358Y83969D01*
X88261Y83976D01*
X88150Y83983D01*
X87928Y84010D01*
X87706Y84045D01*
X87602Y84073D01*
X87511Y84101D01*
X87421Y84135D01*
X87352Y84170D01*
X87345D01*
X87338Y84177D01*
X87296Y84212D01*
X87248Y84253D01*
X87185Y84323D01*
X87123Y84399D01*
X87067Y84489D01*
X87025Y84600D01*
X87019Y84656D01*
X87012Y84718D01*
Y84725D01*
Y84739D01*
X87019Y84760D01*
Y84788D01*
X87039Y84857D01*
X87081Y84947D01*
X87109Y84996D01*
X87150Y85044D01*
X87192Y85093D01*
X87248Y85142D01*
X87310Y85183D01*
X87386Y85225D01*
X87470Y85260D01*
X87567Y85294D01*
X87560D01*
X87546Y85301D01*
X87532Y85315D01*
X87504Y85336D01*
X87435Y85378D01*
X87366Y85447D01*
X87289Y85530D01*
X87220Y85627D01*
X87192Y85683D01*
X87178Y85745D01*
X87164Y85808D01*
X87157Y85877D01*
Y85884D01*
Y85898D01*
X87164Y85919D01*
X87171Y85954D01*
X87178Y85995D01*
X87192Y86037D01*
X87213Y86085D01*
X87241Y86141D01*
X87275Y86203D01*
X87317Y86259D01*
X87372Y86321D01*
X87435Y86384D01*
X87504Y86439D01*
X87594Y86502D01*
X87692Y86557D01*
X87810Y86606D01*
X87803D01*
X87782Y86620D01*
X87754Y86634D01*
X87719Y86655D01*
X87629Y86710D01*
X87525Y86793D01*
X87414Y86904D01*
X87366Y86967D01*
X87324Y87043D01*
X87289Y87120D01*
X87261Y87210D01*
X87241Y87300D01*
X87234Y87404D01*
Y87411D01*
Y87425D01*
Y87446D01*
X87241Y87480D01*
X87248Y87515D01*
X87255Y87564D01*
X87282Y87668D01*
X87331Y87779D01*
X87366Y87841D01*
X87400Y87904D01*
X87449Y87966D01*
X87497Y88029D01*
X87560Y88084D01*
X87629Y88140D01*
X87636D01*
X87650Y88154D01*
X87671Y88168D01*
X87706Y88181D01*
X87740Y88209D01*
X87789Y88230D01*
X87851Y88258D01*
X87914Y88285D01*
X87990Y88306D01*
X88073Y88334D01*
X88164Y88362D01*
X88261Y88383D01*
X88365Y88397D01*
X88476Y88410D01*
X88601Y88424D01*
X88802D01*
X88844Y88417D01*
X88892D01*
X89003Y88403D01*
X89135Y88390D01*
X89281Y88362D01*
X89434Y88327D01*
X89593Y88279D01*
Y88292D01*
X89600Y88327D01*
X89607Y88376D01*
X89621Y88438D01*
X89642Y88515D01*
X89670Y88591D01*
X89711Y88667D01*
X89753Y88737D01*
X89760Y88744D01*
X89781Y88764D01*
X89815Y88792D01*
X89871Y88827D01*
X89947Y88862D01*
X90051Y88889D01*
X90169Y88910D01*
X90246Y88917D01*
X90412D01*
X90502Y88903D01*
D02*
G37*
G36*
X100926Y85100D02*
X100038D01*
Y85607D01*
X100031Y85600D01*
X100024Y85579D01*
X100003Y85551D01*
X99976Y85516D01*
X99941Y85475D01*
X99906Y85426D01*
X99857Y85371D01*
X99802Y85322D01*
X99670Y85211D01*
X99517Y85121D01*
X99427Y85086D01*
X99337Y85058D01*
X99240Y85037D01*
X99136Y85031D01*
X99087D01*
X99045Y85037D01*
X99004Y85044D01*
X98948Y85051D01*
X98823Y85086D01*
X98692Y85135D01*
X98615Y85176D01*
X98546Y85218D01*
X98476Y85267D01*
X98407Y85322D01*
X98345Y85391D01*
X98282Y85468D01*
Y85475D01*
X98268Y85489D01*
X98254Y85516D01*
X98233Y85551D01*
X98213Y85593D01*
X98185Y85648D01*
X98157Y85711D01*
X98129Y85787D01*
X98102Y85870D01*
X98074Y85961D01*
X98046Y86058D01*
X98025Y86169D01*
X98005Y86287D01*
X97991Y86412D01*
X97984Y86544D01*
X97977Y86689D01*
Y86696D01*
Y86724D01*
Y86766D01*
X97984Y86821D01*
Y86891D01*
X97991Y86974D01*
X98005Y87057D01*
X98018Y87154D01*
X98053Y87356D01*
X98109Y87571D01*
X98185Y87772D01*
X98233Y87869D01*
X98289Y87959D01*
X98296Y87966D01*
X98303Y87980D01*
X98324Y88001D01*
X98345Y88036D01*
X98379Y88070D01*
X98421Y88105D01*
X98463Y88147D01*
X98518Y88195D01*
X98650Y88279D01*
X98803Y88355D01*
X98886Y88383D01*
X98983Y88403D01*
X99087Y88417D01*
X99191Y88424D01*
X99240D01*
X99274Y88417D01*
X99323Y88410D01*
X99372Y88403D01*
X99490Y88376D01*
X99615Y88320D01*
X99684Y88292D01*
X99753Y88251D01*
X99816Y88202D01*
X99878Y88147D01*
X99941Y88084D01*
X99996Y88008D01*
Y89507D01*
X100926D01*
Y85100D01*
D02*
G37*
G36*
X86554D02*
X85589D01*
Y88362D01*
X86554D01*
Y85100D01*
D02*
G37*
G36*
X81590Y79100D02*
X80702D01*
Y79607D01*
X80695Y79600D01*
X80688Y79579D01*
X80667Y79551D01*
X80639Y79516D01*
X80604Y79475D01*
X80570Y79426D01*
X80521Y79371D01*
X80466Y79322D01*
X80334Y79211D01*
X80181Y79121D01*
X80091Y79086D01*
X80001Y79058D01*
X79903Y79037D01*
X79799Y79031D01*
X79751D01*
X79709Y79037D01*
X79668Y79045D01*
X79612Y79051D01*
X79487Y79086D01*
X79355Y79135D01*
X79279Y79176D01*
X79209Y79218D01*
X79140Y79267D01*
X79071Y79322D01*
X79008Y79391D01*
X78946Y79468D01*
Y79475D01*
X78932Y79489D01*
X78918Y79516D01*
X78897Y79551D01*
X78876Y79593D01*
X78848Y79648D01*
X78821Y79711D01*
X78793Y79787D01*
X78765Y79870D01*
X78737Y79961D01*
X78710Y80058D01*
X78689Y80169D01*
X78668Y80287D01*
X78654Y80412D01*
X78647Y80544D01*
X78640Y80689D01*
Y80696D01*
Y80724D01*
Y80766D01*
X78647Y80821D01*
Y80891D01*
X78654Y80974D01*
X78668Y81057D01*
X78682Y81154D01*
X78717Y81356D01*
X78772Y81571D01*
X78848Y81772D01*
X78897Y81869D01*
X78953Y81959D01*
X78960Y81966D01*
X78966Y81980D01*
X78987Y82001D01*
X79008Y82036D01*
X79043Y82070D01*
X79084Y82105D01*
X79126Y82147D01*
X79182Y82195D01*
X79313Y82279D01*
X79466Y82355D01*
X79549Y82383D01*
X79647Y82403D01*
X79751Y82417D01*
X79855Y82424D01*
X79903D01*
X79938Y82417D01*
X79987Y82410D01*
X80035Y82403D01*
X80153Y82376D01*
X80278Y82320D01*
X80348Y82292D01*
X80417Y82251D01*
X80479Y82202D01*
X80542Y82147D01*
X80604Y82084D01*
X80660Y82008D01*
Y83507D01*
X81590D01*
Y79100D01*
D02*
G37*
G36*
X89744Y82417D02*
X89821Y82410D01*
X89904Y82390D01*
X90001Y82369D01*
X90091Y82334D01*
X90182Y82285D01*
X90195Y82279D01*
X90223Y82265D01*
X90265Y82230D01*
X90313Y82195D01*
X90369Y82140D01*
X90425Y82084D01*
X90473Y82015D01*
X90515Y81938D01*
X90522Y81932D01*
X90529Y81897D01*
X90549Y81848D01*
X90570Y81772D01*
X90584Y81668D01*
X90605Y81543D01*
X90612Y81473D01*
Y81390D01*
X90619Y81307D01*
Y81210D01*
Y79100D01*
X89654D01*
Y80897D01*
Y80904D01*
Y80911D01*
Y80932D01*
Y80960D01*
Y81022D01*
Y81106D01*
X89647Y81189D01*
X89640Y81265D01*
X89633Y81335D01*
X89626Y81390D01*
Y81397D01*
X89619Y81411D01*
X89613Y81432D01*
X89605Y81460D01*
X89571Y81522D01*
X89543Y81557D01*
X89508Y81585D01*
X89501Y81591D01*
X89495Y81598D01*
X89474Y81612D01*
X89446Y81626D01*
X89404Y81640D01*
X89363Y81647D01*
X89314Y81661D01*
X89224D01*
X89189Y81654D01*
X89154Y81647D01*
X89099Y81633D01*
X89050Y81612D01*
X88988Y81585D01*
X88925Y81543D01*
X88919Y81536D01*
X88898Y81515D01*
X88877Y81480D01*
X88849Y81418D01*
X88828Y81383D01*
X88814Y81335D01*
X88801Y81286D01*
X88794Y81224D01*
X88780Y81154D01*
X88773Y81078D01*
X88766Y80995D01*
Y80897D01*
Y79100D01*
X87801D01*
Y80897D01*
Y80904D01*
Y80911D01*
Y80932D01*
Y80960D01*
Y81029D01*
X87794Y81106D01*
Y81189D01*
X87787Y81272D01*
X87773Y81342D01*
X87760Y81397D01*
Y81404D01*
X87753Y81418D01*
X87746Y81439D01*
X87732Y81467D01*
X87690Y81529D01*
X87628Y81585D01*
X87621Y81591D01*
X87614Y81598D01*
X87586Y81612D01*
X87558Y81626D01*
X87524Y81640D01*
X87482Y81647D01*
X87433Y81661D01*
X87336D01*
X87295Y81654D01*
X87239Y81640D01*
X87177Y81619D01*
X87114Y81591D01*
X87059Y81557D01*
X87010Y81501D01*
X87003Y81494D01*
X86989Y81467D01*
X86975Y81425D01*
X86954Y81369D01*
X86927Y81286D01*
X86913Y81182D01*
X86899Y81050D01*
X86892Y80897D01*
Y79100D01*
X85962D01*
Y82362D01*
X86864D01*
Y81862D01*
X86878Y81883D01*
X86892Y81911D01*
X86913Y81945D01*
X86941Y81987D01*
X86975Y82036D01*
X87017Y82084D01*
X87066Y82140D01*
X87121Y82195D01*
X87190Y82244D01*
X87267Y82292D01*
X87350Y82334D01*
X87440Y82369D01*
X87544Y82403D01*
X87655Y82417D01*
X87780Y82424D01*
X87808D01*
X87843Y82417D01*
X87884D01*
X87933Y82410D01*
X87995Y82397D01*
X88127Y82355D01*
X88204Y82320D01*
X88273Y82285D01*
X88349Y82237D01*
X88426Y82181D01*
X88495Y82119D01*
X88564Y82043D01*
X88627Y81952D01*
X88683Y81855D01*
Y81862D01*
X88696Y81883D01*
X88710Y81911D01*
X88738Y81945D01*
X88766Y81987D01*
X88801Y82036D01*
X88849Y82084D01*
X88905Y82140D01*
X88960Y82195D01*
X89030Y82244D01*
X89113Y82292D01*
X89196Y82334D01*
X89286Y82369D01*
X89390Y82403D01*
X89508Y82417D01*
X89626Y82424D01*
X89682D01*
X89744Y82417D01*
D02*
G37*
G36*
X114014Y80426D02*
X112473D01*
Y81126D01*
X114014D01*
Y80426D01*
D02*
G37*
G36*
X103090Y79100D02*
X102202D01*
Y79607D01*
X102195Y79600D01*
X102188Y79579D01*
X102167Y79551D01*
X102139Y79516D01*
X102104Y79475D01*
X102070Y79426D01*
X102021Y79371D01*
X101966Y79322D01*
X101834Y79211D01*
X101681Y79121D01*
X101591Y79086D01*
X101501Y79058D01*
X101403Y79037D01*
X101299Y79031D01*
X101251D01*
X101209Y79037D01*
X101168Y79045D01*
X101112Y79051D01*
X100987Y79086D01*
X100855Y79135D01*
X100779Y79176D01*
X100709Y79218D01*
X100640Y79267D01*
X100571Y79322D01*
X100508Y79391D01*
X100446Y79468D01*
Y79475D01*
X100432Y79489D01*
X100418Y79516D01*
X100397Y79551D01*
X100376Y79593D01*
X100349Y79648D01*
X100321Y79711D01*
X100293Y79787D01*
X100265Y79870D01*
X100238Y79961D01*
X100210Y80058D01*
X100189Y80169D01*
X100168Y80287D01*
X100154Y80412D01*
X100147Y80544D01*
X100141Y80689D01*
Y80696D01*
Y80724D01*
Y80766D01*
X100147Y80821D01*
Y80891D01*
X100154Y80974D01*
X100168Y81057D01*
X100182Y81154D01*
X100217Y81356D01*
X100272Y81571D01*
X100349Y81772D01*
X100397Y81869D01*
X100453Y81959D01*
X100460Y81966D01*
X100467Y81980D01*
X100487Y82001D01*
X100508Y82036D01*
X100543Y82070D01*
X100585Y82105D01*
X100626Y82147D01*
X100682Y82195D01*
X100814Y82279D01*
X100966Y82355D01*
X101050Y82383D01*
X101147Y82403D01*
X101251Y82417D01*
X101355Y82424D01*
X101403D01*
X101438Y82417D01*
X101487Y82410D01*
X101535Y82403D01*
X101653Y82376D01*
X101778Y82320D01*
X101848Y82292D01*
X101917Y82251D01*
X101980Y82202D01*
X102042Y82147D01*
X102104Y82084D01*
X102160Y82008D01*
Y83507D01*
X103090D01*
Y79100D01*
D02*
G37*
G36*
X76241Y89500D02*
X76324Y89493D01*
X76407Y89486D01*
X76504Y89479D01*
X76706Y89451D01*
X76907Y89410D01*
X77101Y89354D01*
X77184Y89319D01*
X77268Y89278D01*
X77275D01*
X77289Y89264D01*
X77309Y89257D01*
X77337Y89236D01*
X77413Y89181D01*
X77511Y89104D01*
X77622Y89000D01*
X77740Y88875D01*
X77865Y88730D01*
X77990Y88556D01*
X77996Y88549D01*
X78003Y88535D01*
X78017Y88507D01*
X78038Y88466D01*
X78066Y88417D01*
X78094Y88362D01*
X78121Y88292D01*
X78149Y88216D01*
X78177Y88133D01*
X78205Y88036D01*
X78233Y87932D01*
X78260Y87827D01*
X78281Y87709D01*
X78295Y87585D01*
X78309Y87453D01*
Y87314D01*
Y87300D01*
Y87272D01*
X78302Y87224D01*
Y87154D01*
X78295Y87071D01*
X78281Y86981D01*
X78260Y86877D01*
X78239Y86759D01*
X78212Y86641D01*
X78170Y86509D01*
X78128Y86377D01*
X78073Y86245D01*
X78010Y86113D01*
X77934Y85981D01*
X77844Y85856D01*
X77747Y85732D01*
X77740Y85725D01*
X77719Y85704D01*
X77691Y85676D01*
X77643Y85634D01*
X77587Y85586D01*
X77518Y85530D01*
X77441Y85475D01*
X77344Y85419D01*
X77240Y85357D01*
X77129Y85301D01*
X77004Y85246D01*
X76865Y85197D01*
X76719Y85155D01*
X76560Y85128D01*
X76393Y85107D01*
X76213Y85100D01*
X74700D01*
Y89507D01*
X76178D01*
X76241Y89500D01*
D02*
G37*
G36*
X96117Y88417D02*
X96172Y88410D01*
X96235Y88403D01*
X96304Y88390D01*
X96387Y88369D01*
X96554Y88313D01*
X96644Y88279D01*
X96734Y88237D01*
X96825Y88188D01*
X96922Y88126D01*
X97012Y88056D01*
X97095Y87980D01*
X97102Y87973D01*
X97116Y87959D01*
X97137Y87932D01*
X97165Y87897D01*
X97199Y87848D01*
X97241Y87786D01*
X97276Y87716D01*
X97324Y87640D01*
X97366Y87543D01*
X97401Y87439D01*
X97442Y87321D01*
X97477Y87196D01*
X97505Y87057D01*
X97526Y86904D01*
X97540Y86738D01*
X97546Y86564D01*
X95444D01*
Y86557D01*
Y86550D01*
Y86509D01*
Y86460D01*
Y86412D01*
Y86405D01*
Y86398D01*
Y86356D01*
X95451Y86294D01*
X95464Y86217D01*
X95485Y86134D01*
X95520Y86044D01*
X95562Y85961D01*
X95624Y85884D01*
X95631Y85877D01*
X95659Y85856D01*
X95700Y85829D01*
X95749Y85801D01*
X95818Y85766D01*
X95888Y85738D01*
X95978Y85718D01*
X96068Y85711D01*
X96089D01*
X96117Y85718D01*
X96145D01*
X96228Y85738D01*
X96325Y85773D01*
X96374Y85801D01*
X96422Y85836D01*
X96471Y85877D01*
X96519Y85926D01*
X96561Y85988D01*
X96596Y86058D01*
X96630Y86134D01*
X96651Y86224D01*
X97526Y86155D01*
X97519Y86141D01*
X97505Y86106D01*
X97484Y86051D01*
X97449Y85981D01*
X97408Y85891D01*
X97352Y85801D01*
X97283Y85697D01*
X97199Y85593D01*
X97109Y85489D01*
X96998Y85385D01*
X96880Y85294D01*
X96741Y85204D01*
X96596Y85135D01*
X96422Y85079D01*
X96242Y85044D01*
X96040Y85031D01*
X95957D01*
X95916Y85037D01*
X95867Y85044D01*
X95756Y85058D01*
X95624Y85079D01*
X95485Y85114D01*
X95346Y85163D01*
X95208Y85225D01*
X95201D01*
X95194Y85232D01*
X95152Y85260D01*
X95090Y85308D01*
X95013Y85371D01*
X94923Y85447D01*
X94826Y85544D01*
X94736Y85662D01*
X94646Y85794D01*
Y85801D01*
X94639Y85808D01*
X94625Y85836D01*
X94611Y85863D01*
X94597Y85898D01*
X94576Y85940D01*
X94542Y86044D01*
X94500Y86176D01*
X94465Y86328D01*
X94437Y86502D01*
X94430Y86689D01*
Y86696D01*
Y86724D01*
Y86766D01*
X94437Y86821D01*
X94444Y86884D01*
X94451Y86960D01*
X94465Y87043D01*
X94486Y87140D01*
X94534Y87335D01*
X94576Y87439D01*
X94618Y87550D01*
X94666Y87654D01*
X94722Y87751D01*
X94791Y87855D01*
X94868Y87945D01*
X94875Y87952D01*
X94889Y87966D01*
X94916Y87987D01*
X94951Y88022D01*
X94993Y88056D01*
X95048Y88098D01*
X95110Y88140D01*
X95180Y88188D01*
X95256Y88230D01*
X95340Y88272D01*
X95437Y88313D01*
X95541Y88348D01*
X95645Y88383D01*
X95763Y88403D01*
X95888Y88417D01*
X96013Y88424D01*
X96075D01*
X96117Y88417D01*
D02*
G37*
G36*
X80432D02*
X80488Y88410D01*
X80550Y88403D01*
X80620Y88390D01*
X80703Y88369D01*
X80870Y88313D01*
X80960Y88279D01*
X81050Y88237D01*
X81140Y88188D01*
X81238Y88126D01*
X81328Y88056D01*
X81411Y87980D01*
X81418Y87973D01*
X81432Y87959D01*
X81453Y87932D01*
X81480Y87897D01*
X81515Y87848D01*
X81557Y87786D01*
X81591Y87716D01*
X81640Y87640D01*
X81682Y87543D01*
X81716Y87439D01*
X81758Y87321D01*
X81793Y87196D01*
X81820Y87057D01*
X81841Y86904D01*
X81855Y86738D01*
X81862Y86564D01*
X79759D01*
Y86557D01*
Y86550D01*
Y86509D01*
Y86460D01*
Y86412D01*
Y86405D01*
Y86398D01*
Y86356D01*
X79766Y86294D01*
X79780Y86217D01*
X79801Y86134D01*
X79836Y86044D01*
X79877Y85961D01*
X79940Y85884D01*
X79947Y85877D01*
X79974Y85856D01*
X80016Y85829D01*
X80065Y85801D01*
X80134Y85766D01*
X80203Y85738D01*
X80294Y85718D01*
X80384Y85711D01*
X80405D01*
X80432Y85718D01*
X80460D01*
X80544Y85738D01*
X80641Y85773D01*
X80689Y85801D01*
X80738Y85836D01*
X80786Y85877D01*
X80835Y85926D01*
X80877Y85988D01*
X80911Y86058D01*
X80946Y86134D01*
X80967Y86224D01*
X81841Y86155D01*
X81834Y86141D01*
X81820Y86106D01*
X81800Y86051D01*
X81765Y85981D01*
X81723Y85891D01*
X81668Y85801D01*
X81598Y85697D01*
X81515Y85593D01*
X81425Y85489D01*
X81314Y85385D01*
X81196Y85294D01*
X81057Y85204D01*
X80911Y85135D01*
X80738Y85079D01*
X80557Y85044D01*
X80356Y85031D01*
X80273D01*
X80231Y85037D01*
X80183Y85044D01*
X80072Y85058D01*
X79940Y85079D01*
X79801Y85114D01*
X79662Y85163D01*
X79523Y85225D01*
X79516D01*
X79509Y85232D01*
X79468Y85260D01*
X79405Y85308D01*
X79329Y85371D01*
X79239Y85447D01*
X79142Y85544D01*
X79051Y85662D01*
X78961Y85794D01*
Y85801D01*
X78954Y85808D01*
X78940Y85836D01*
X78926Y85863D01*
X78913Y85898D01*
X78892Y85940D01*
X78857Y86044D01*
X78815Y86176D01*
X78781Y86328D01*
X78753Y86502D01*
X78746Y86689D01*
Y86696D01*
Y86724D01*
Y86766D01*
X78753Y86821D01*
X78760Y86884D01*
X78767Y86960D01*
X78781Y87043D01*
X78802Y87140D01*
X78850Y87335D01*
X78892Y87439D01*
X78933Y87550D01*
X78982Y87654D01*
X79037Y87751D01*
X79107Y87855D01*
X79183Y87945D01*
X79190Y87952D01*
X79204Y87966D01*
X79232Y87987D01*
X79267Y88022D01*
X79308Y88056D01*
X79364Y88098D01*
X79426Y88140D01*
X79496Y88188D01*
X79572Y88230D01*
X79655Y88272D01*
X79752Y88313D01*
X79856Y88348D01*
X79961Y88383D01*
X80079Y88403D01*
X80203Y88417D01*
X80328Y88424D01*
X80391D01*
X80432Y88417D01*
D02*
G37*
G36*
X21227Y25910D02*
X21338Y26054D01*
X21344Y26060D01*
X21349Y26071D01*
X21366Y26087D01*
X21383Y26109D01*
X21421Y26159D01*
X21460Y26209D01*
X22220Y27108D01*
X22970D01*
X22220Y26221D01*
X23070Y24500D01*
X22220D01*
X21677Y25671D01*
X21227Y25155D01*
Y24500D01*
X20500D01*
Y28024D01*
X21227D01*
Y25910D01*
D02*
G37*
G36*
X44010Y28069D02*
X44060D01*
X44115Y28058D01*
X44176Y28046D01*
X44249Y28030D01*
X44326Y28008D01*
X44404Y27980D01*
X44487Y27947D01*
X44570Y27902D01*
X44654Y27852D01*
X44737Y27791D01*
X44820Y27719D01*
X44892Y27641D01*
X44964Y27547D01*
X44970Y27541D01*
X44981Y27525D01*
X44998Y27491D01*
X45020Y27453D01*
X45048Y27403D01*
X45081Y27342D01*
X45109Y27270D01*
X45148Y27192D01*
X45181Y27097D01*
X45209Y27003D01*
X45242Y26898D01*
X45270Y26787D01*
X45292Y26665D01*
X45309Y26537D01*
X45320Y26404D01*
X45325Y26265D01*
Y26254D01*
Y26232D01*
Y26187D01*
X45320Y26137D01*
X45314Y26071D01*
X45309Y25993D01*
X45297Y25904D01*
X45281Y25810D01*
X45259Y25710D01*
X45236Y25605D01*
X45209Y25499D01*
X45175Y25388D01*
X45131Y25283D01*
X45081Y25172D01*
X45026Y25066D01*
X44964Y24966D01*
X44959Y24961D01*
X44948Y24944D01*
X44925Y24916D01*
X44898Y24883D01*
X44864Y24844D01*
X44815Y24800D01*
X44765Y24755D01*
X44704Y24705D01*
X44637Y24655D01*
X44559Y24611D01*
X44476Y24567D01*
X44382Y24528D01*
X44287Y24495D01*
X44176Y24467D01*
X44065Y24450D01*
X43943Y24444D01*
X43915D01*
X43882Y24450D01*
X43838D01*
X43782Y24461D01*
X43721Y24472D01*
X43649Y24489D01*
X43571Y24511D01*
X43494Y24533D01*
X43410Y24567D01*
X43327Y24611D01*
X43244Y24661D01*
X43161Y24716D01*
X43083Y24789D01*
X43005Y24866D01*
X42933Y24955D01*
X42928Y24961D01*
X42916Y24977D01*
X42900Y25011D01*
X42878Y25049D01*
X42850Y25099D01*
X42822Y25161D01*
X42789Y25233D01*
X42755Y25310D01*
X42722Y25399D01*
X42689Y25499D01*
X42661Y25605D01*
X42633Y25721D01*
X42611Y25843D01*
X42595Y25971D01*
X42583Y26109D01*
X42578Y26254D01*
Y26265D01*
Y26287D01*
Y26326D01*
X42583Y26381D01*
X42589Y26448D01*
X42595Y26526D01*
X42606Y26609D01*
X42622Y26703D01*
X42639Y26803D01*
X42661Y26909D01*
X42695Y27014D01*
X42728Y27125D01*
X42767Y27231D01*
X42811Y27342D01*
X42867Y27447D01*
X42928Y27547D01*
X42933Y27553D01*
X42944Y27569D01*
X42966Y27597D01*
X42994Y27630D01*
X43027Y27669D01*
X43072Y27714D01*
X43127Y27763D01*
X43188Y27813D01*
X43255Y27858D01*
X43333Y27908D01*
X43416Y27952D01*
X43505Y27991D01*
X43605Y28024D01*
X43710Y28052D01*
X43827Y28069D01*
X43949Y28074D01*
X43977D01*
X44010Y28069D01*
D02*
G37*
G36*
X25062Y28019D02*
X25101D01*
X25201Y28013D01*
X25312Y28002D01*
X25423Y27980D01*
X25534Y27958D01*
X25639Y27924D01*
X25645D01*
X25650Y27919D01*
X25684Y27902D01*
X25734Y27880D01*
X25789Y27841D01*
X25861Y27791D01*
X25933Y27724D01*
X26006Y27647D01*
X26072Y27553D01*
Y27547D01*
X26078Y27541D01*
X26089Y27525D01*
X26100Y27508D01*
X26128Y27453D01*
X26161Y27380D01*
X26189Y27292D01*
X26217Y27192D01*
X26239Y27081D01*
X26244Y26964D01*
Y26959D01*
Y26937D01*
X26239Y26903D01*
X26233Y26859D01*
X26228Y26809D01*
X26211Y26748D01*
X26194Y26681D01*
X26167Y26609D01*
X26133Y26537D01*
X26094Y26459D01*
X26044Y26381D01*
X25989Y26309D01*
X25917Y26237D01*
X25834Y26165D01*
X25739Y26104D01*
X25634Y26048D01*
X26283Y24500D01*
X25373D01*
X24829Y25893D01*
X24241D01*
Y24500D01*
X23408D01*
Y28024D01*
X25023D01*
X25062Y28019D01*
D02*
G37*
G36*
X30679Y27153D02*
X30718Y27147D01*
X30812Y27136D01*
X30917Y27120D01*
X31028Y27086D01*
X31134Y27047D01*
X31234Y26992D01*
X31239D01*
X31245Y26986D01*
X31273Y26959D01*
X31323Y26920D01*
X31378Y26864D01*
X31439Y26792D01*
X31500Y26703D01*
X31561Y26598D01*
X31617Y26470D01*
X31056Y26326D01*
Y26331D01*
X31051Y26343D01*
X31045Y26359D01*
X31034Y26381D01*
X31001Y26437D01*
X30956Y26504D01*
X30890Y26570D01*
X30845Y26598D01*
X30801Y26626D01*
X30745Y26648D01*
X30684Y26665D01*
X30618Y26676D01*
X30545Y26681D01*
X30512D01*
X30484Y26676D01*
X30423Y26670D01*
X30357Y26653D01*
X30285Y26626D01*
X30224Y26581D01*
X30196Y26553D01*
X30179Y26520D01*
X30168Y26487D01*
X30163Y26443D01*
Y26437D01*
Y26426D01*
X30168Y26409D01*
X30174Y26387D01*
X30190Y26337D01*
X30207Y26315D01*
X30229Y26293D01*
X30235D01*
X30246Y26281D01*
X30268Y26270D01*
X30301Y26259D01*
X30351Y26243D01*
X30418Y26232D01*
X30501Y26215D01*
X30601Y26198D01*
X30623D01*
X30645Y26193D01*
X30673Y26187D01*
X30712Y26182D01*
X30751Y26176D01*
X30851Y26159D01*
X30956Y26137D01*
X31067Y26115D01*
X31167Y26087D01*
X31256Y26060D01*
X31267Y26054D01*
X31289Y26043D01*
X31334Y26026D01*
X31378Y25998D01*
X31433Y25965D01*
X31495Y25921D01*
X31550Y25865D01*
X31600Y25804D01*
X31605Y25799D01*
X31622Y25771D01*
X31639Y25732D01*
X31667Y25677D01*
X31689Y25616D01*
X31705Y25538D01*
X31722Y25449D01*
X31728Y25349D01*
Y25344D01*
Y25332D01*
Y25310D01*
X31722Y25283D01*
X31717Y25249D01*
X31711Y25210D01*
X31689Y25116D01*
X31650Y25016D01*
X31594Y24905D01*
X31561Y24850D01*
X31522Y24794D01*
X31472Y24744D01*
X31417Y24694D01*
X31411D01*
X31400Y24683D01*
X31384Y24672D01*
X31361Y24655D01*
X31328Y24639D01*
X31289Y24617D01*
X31245Y24594D01*
X31195Y24572D01*
X31139Y24544D01*
X31078Y24522D01*
X31006Y24500D01*
X30928Y24483D01*
X30851Y24467D01*
X30762Y24456D01*
X30668Y24450D01*
X30568Y24444D01*
X30523D01*
X30473Y24450D01*
X30407Y24456D01*
X30329Y24467D01*
X30240Y24483D01*
X30146Y24511D01*
X30046Y24539D01*
X29941Y24583D01*
X29841Y24633D01*
X29741Y24694D01*
X29646Y24766D01*
X29558Y24855D01*
X29485Y24955D01*
X29424Y25077D01*
X29380Y25210D01*
X30024Y25310D01*
Y25305D01*
X30029Y25294D01*
X30035Y25277D01*
X30046Y25255D01*
X30074Y25199D01*
X30096Y25166D01*
X30124Y25138D01*
X30157Y25105D01*
X30201Y25072D01*
X30246Y25044D01*
X30301Y25016D01*
X30362Y24994D01*
X30435Y24977D01*
X30512Y24966D01*
X30601Y24961D01*
X30634D01*
X30668Y24966D01*
X30712Y24972D01*
X30762Y24977D01*
X30817Y24988D01*
X30873Y25005D01*
X30923Y25027D01*
X30928Y25033D01*
X30945Y25038D01*
X30967Y25055D01*
X30990Y25077D01*
X31012Y25099D01*
X31034Y25133D01*
X31051Y25172D01*
X31056Y25210D01*
Y25216D01*
X31051Y25238D01*
X31039Y25266D01*
X31017Y25305D01*
X30984Y25338D01*
X30928Y25377D01*
X30895Y25388D01*
X30856Y25405D01*
X30812Y25416D01*
X30762Y25421D01*
X30751D01*
X30729Y25427D01*
X30690Y25432D01*
X30634Y25438D01*
X30573Y25449D01*
X30501Y25466D01*
X30423Y25477D01*
X30335Y25499D01*
X30163Y25538D01*
X29991Y25593D01*
X29913Y25621D01*
X29841Y25654D01*
X29780Y25688D01*
X29724Y25727D01*
X29713Y25738D01*
X29685Y25765D01*
X29646Y25810D01*
X29602Y25876D01*
X29558Y25954D01*
X29519Y26054D01*
X29491Y26171D01*
X29485Y26232D01*
X29480Y26298D01*
Y26304D01*
Y26315D01*
Y26337D01*
X29485Y26359D01*
X29491Y26392D01*
X29497Y26431D01*
X29519Y26515D01*
X29552Y26615D01*
X29602Y26714D01*
X29635Y26764D01*
X29674Y26820D01*
X29719Y26870D01*
X29768Y26914D01*
X29774Y26920D01*
X29780Y26925D01*
X29796Y26937D01*
X29824Y26953D01*
X29852Y26970D01*
X29885Y26992D01*
X29930Y27014D01*
X29979Y27036D01*
X30029Y27059D01*
X30090Y27081D01*
X30157Y27103D01*
X30229Y27120D01*
X30307Y27136D01*
X30390Y27147D01*
X30479Y27158D01*
X30640D01*
X30679Y27153D01*
D02*
G37*
G36*
X42051Y24500D02*
X41218D01*
Y27369D01*
X40330Y24500D01*
X39759D01*
X38904Y27369D01*
Y24500D01*
X38210D01*
Y28024D01*
X39498D01*
X40108Y25910D01*
X40758Y28024D01*
X42051D01*
Y24500D01*
D02*
G37*
G36*
X33365Y27153D02*
X33409Y27147D01*
X33459Y27142D01*
X33515Y27131D01*
X33581Y27114D01*
X33715Y27070D01*
X33787Y27042D01*
X33859Y27009D01*
X33931Y26970D01*
X34009Y26920D01*
X34081Y26864D01*
X34147Y26803D01*
X34153Y26798D01*
X34164Y26787D01*
X34181Y26764D01*
X34203Y26737D01*
X34231Y26698D01*
X34264Y26648D01*
X34292Y26592D01*
X34331Y26531D01*
X34364Y26454D01*
X34392Y26370D01*
X34425Y26276D01*
X34453Y26176D01*
X34475Y26065D01*
X34492Y25943D01*
X34503Y25810D01*
X34508Y25671D01*
X32827D01*
Y25666D01*
Y25660D01*
Y25627D01*
Y25588D01*
Y25549D01*
Y25543D01*
Y25538D01*
Y25505D01*
X32832Y25455D01*
X32843Y25394D01*
X32860Y25327D01*
X32888Y25255D01*
X32921Y25188D01*
X32971Y25127D01*
X32976Y25122D01*
X32999Y25105D01*
X33032Y25083D01*
X33071Y25061D01*
X33126Y25033D01*
X33182Y25011D01*
X33254Y24994D01*
X33326Y24988D01*
X33343D01*
X33365Y24994D01*
X33387D01*
X33454Y25011D01*
X33531Y25038D01*
X33570Y25061D01*
X33609Y25088D01*
X33648Y25122D01*
X33687Y25161D01*
X33720Y25210D01*
X33748Y25266D01*
X33776Y25327D01*
X33792Y25399D01*
X34492Y25344D01*
X34486Y25332D01*
X34475Y25305D01*
X34458Y25260D01*
X34431Y25205D01*
X34397Y25133D01*
X34353Y25061D01*
X34297Y24977D01*
X34231Y24894D01*
X34159Y24811D01*
X34070Y24727D01*
X33975Y24655D01*
X33864Y24583D01*
X33748Y24528D01*
X33609Y24483D01*
X33465Y24456D01*
X33304Y24444D01*
X33237D01*
X33204Y24450D01*
X33165Y24456D01*
X33076Y24467D01*
X32971Y24483D01*
X32860Y24511D01*
X32749Y24550D01*
X32638Y24600D01*
X32632D01*
X32627Y24605D01*
X32594Y24628D01*
X32544Y24667D01*
X32482Y24716D01*
X32410Y24778D01*
X32333Y24855D01*
X32260Y24949D01*
X32188Y25055D01*
Y25061D01*
X32183Y25066D01*
X32172Y25088D01*
X32161Y25111D01*
X32149Y25138D01*
X32133Y25172D01*
X32105Y25255D01*
X32072Y25360D01*
X32044Y25482D01*
X32022Y25621D01*
X32016Y25771D01*
Y25776D01*
Y25799D01*
Y25832D01*
X32022Y25876D01*
X32027Y25926D01*
X32033Y25987D01*
X32044Y26054D01*
X32061Y26132D01*
X32100Y26287D01*
X32133Y26370D01*
X32166Y26459D01*
X32205Y26542D01*
X32249Y26620D01*
X32305Y26703D01*
X32366Y26776D01*
X32371Y26781D01*
X32383Y26792D01*
X32405Y26809D01*
X32432Y26836D01*
X32466Y26864D01*
X32510Y26898D01*
X32560Y26931D01*
X32616Y26970D01*
X32677Y27003D01*
X32743Y27036D01*
X32821Y27070D01*
X32904Y27097D01*
X32987Y27125D01*
X33082Y27142D01*
X33182Y27153D01*
X33282Y27158D01*
X33332D01*
X33365Y27153D01*
D02*
G37*
G36*
X28043D02*
X28087Y27147D01*
X28137Y27142D01*
X28192Y27131D01*
X28259Y27114D01*
X28392Y27070D01*
X28464Y27042D01*
X28536Y27009D01*
X28609Y26970D01*
X28686Y26920D01*
X28758Y26864D01*
X28825Y26803D01*
X28831Y26798D01*
X28842Y26787D01*
X28858Y26764D01*
X28881Y26737D01*
X28908Y26698D01*
X28942Y26648D01*
X28969Y26592D01*
X29008Y26531D01*
X29041Y26454D01*
X29069Y26370D01*
X29103Y26276D01*
X29130Y26176D01*
X29152Y26065D01*
X29169Y25943D01*
X29180Y25810D01*
X29186Y25671D01*
X27504D01*
Y25666D01*
Y25660D01*
Y25627D01*
Y25588D01*
Y25549D01*
Y25543D01*
Y25538D01*
Y25505D01*
X27510Y25455D01*
X27521Y25394D01*
X27537Y25327D01*
X27565Y25255D01*
X27599Y25188D01*
X27648Y25127D01*
X27654Y25122D01*
X27676Y25105D01*
X27709Y25083D01*
X27748Y25061D01*
X27804Y25033D01*
X27859Y25011D01*
X27931Y24994D01*
X28004Y24988D01*
X28020D01*
X28043Y24994D01*
X28065D01*
X28131Y25011D01*
X28209Y25038D01*
X28248Y25061D01*
X28287Y25088D01*
X28326Y25122D01*
X28364Y25161D01*
X28398Y25210D01*
X28425Y25266D01*
X28453Y25327D01*
X28470Y25399D01*
X29169Y25344D01*
X29164Y25332D01*
X29152Y25305D01*
X29136Y25260D01*
X29108Y25205D01*
X29075Y25133D01*
X29030Y25061D01*
X28975Y24977D01*
X28908Y24894D01*
X28836Y24811D01*
X28747Y24727D01*
X28653Y24655D01*
X28542Y24583D01*
X28425Y24528D01*
X28287Y24483D01*
X28142Y24456D01*
X27981Y24444D01*
X27915D01*
X27882Y24450D01*
X27843Y24456D01*
X27754Y24467D01*
X27648Y24483D01*
X27537Y24511D01*
X27426Y24550D01*
X27315Y24600D01*
X27310D01*
X27304Y24605D01*
X27271Y24628D01*
X27221Y24667D01*
X27160Y24716D01*
X27088Y24778D01*
X27010Y24855D01*
X26938Y24949D01*
X26866Y25055D01*
Y25061D01*
X26860Y25066D01*
X26849Y25088D01*
X26838Y25111D01*
X26827Y25138D01*
X26810Y25172D01*
X26783Y25255D01*
X26749Y25360D01*
X26722Y25482D01*
X26699Y25621D01*
X26694Y25771D01*
Y25776D01*
Y25799D01*
Y25832D01*
X26699Y25876D01*
X26705Y25926D01*
X26710Y25987D01*
X26722Y26054D01*
X26738Y26132D01*
X26777Y26287D01*
X26810Y26370D01*
X26844Y26459D01*
X26882Y26542D01*
X26927Y26620D01*
X26982Y26703D01*
X27044Y26776D01*
X27049Y26781D01*
X27060Y26792D01*
X27082Y26809D01*
X27110Y26836D01*
X27143Y26864D01*
X27188Y26898D01*
X27238Y26931D01*
X27293Y26970D01*
X27354Y27003D01*
X27421Y27036D01*
X27499Y27070D01*
X27582Y27097D01*
X27665Y27125D01*
X27759Y27142D01*
X27859Y27153D01*
X27959Y27158D01*
X28009D01*
X28043Y27153D01*
D02*
G37*
G36*
X35862Y27108D02*
X36423D01*
Y26509D01*
X35862D01*
Y25405D01*
Y25394D01*
Y25371D01*
X35868Y25338D01*
Y25294D01*
X35890Y25199D01*
X35901Y25161D01*
X35923Y25127D01*
X35929D01*
X35935Y25116D01*
X35957Y25105D01*
X35985Y25094D01*
X36023Y25083D01*
X36073Y25072D01*
X36134Y25066D01*
X36212Y25061D01*
X36362D01*
X36456Y25066D01*
Y24500D01*
X36440D01*
X36423Y24495D01*
X36401Y24489D01*
X36340Y24483D01*
X36268Y24472D01*
X36190Y24461D01*
X36112Y24456D01*
X36034Y24444D01*
X35929D01*
X35896Y24450D01*
X35857D01*
X35813Y24456D01*
X35707Y24467D01*
X35596Y24489D01*
X35480Y24522D01*
X35380Y24567D01*
X35330Y24594D01*
X35291Y24628D01*
X35280Y24639D01*
X35258Y24667D01*
X35230Y24711D01*
X35208Y24744D01*
X35191Y24778D01*
X35174Y24822D01*
X35152Y24872D01*
X35135Y24927D01*
X35124Y24988D01*
X35108Y25055D01*
X35102Y25127D01*
X35091Y25205D01*
Y25294D01*
Y26509D01*
X34680D01*
Y27108D01*
X35135D01*
X35196Y27874D01*
X35862Y27930D01*
Y27108D01*
D02*
G37*
G36*
X40974Y37471D02*
X41016Y37466D01*
X41062Y37461D01*
X41117Y37452D01*
X41173Y37443D01*
X41298Y37406D01*
X41367Y37387D01*
X41431Y37360D01*
X41496Y37327D01*
X41561Y37290D01*
X41621Y37249D01*
X41681Y37198D01*
X41686Y37194D01*
X41695Y37184D01*
X41709Y37170D01*
X41727Y37147D01*
X41755Y37119D01*
X41778Y37087D01*
X41810Y37046D01*
X41838Y37004D01*
X41870Y36953D01*
X41903Y36898D01*
X41935Y36838D01*
X41963Y36773D01*
X41991Y36699D01*
X42014Y36625D01*
X42037Y36547D01*
X42051Y36463D01*
X41399Y36380D01*
Y36385D01*
X41394Y36403D01*
X41390Y36431D01*
X41381Y36463D01*
X41367Y36505D01*
X41348Y36551D01*
X41330Y36597D01*
X41307Y36648D01*
X41274Y36699D01*
X41238Y36745D01*
X41196Y36792D01*
X41150Y36833D01*
X41094Y36865D01*
X41034Y36893D01*
X40965Y36912D01*
X40891Y36916D01*
X40863D01*
X40845Y36912D01*
X40794Y36902D01*
X40734Y36884D01*
X40665Y36856D01*
X40591Y36810D01*
X40558Y36782D01*
X40526Y36745D01*
X40494Y36708D01*
X40466Y36662D01*
Y36658D01*
X40461Y36648D01*
X40452Y36634D01*
X40443Y36616D01*
X40434Y36588D01*
X40424Y36556D01*
X40411Y36519D01*
X40397Y36477D01*
X40383Y36426D01*
X40374Y36376D01*
X40360Y36316D01*
X40350Y36251D01*
X40341Y36182D01*
X40332Y36108D01*
X40327Y36025D01*
Y35941D01*
Y35937D01*
Y35923D01*
Y35900D01*
X40332Y35868D01*
Y35831D01*
X40337Y35784D01*
X40341Y35738D01*
X40346Y35687D01*
X40364Y35572D01*
X40392Y35456D01*
X40429Y35346D01*
X40452Y35295D01*
X40480Y35248D01*
Y35244D01*
X40489Y35239D01*
X40508Y35212D01*
X40545Y35175D01*
X40595Y35133D01*
X40655Y35087D01*
X40734Y35050D01*
X40822Y35022D01*
X40872Y35017D01*
X40923Y35013D01*
X40956D01*
X40988Y35017D01*
X41034Y35027D01*
X41085Y35041D01*
X41140Y35064D01*
X41196Y35091D01*
X41251Y35128D01*
X41256Y35133D01*
X41274Y35151D01*
X41298Y35179D01*
X41325Y35221D01*
X41353Y35276D01*
X41376Y35341D01*
X41394Y35424D01*
X41399Y35516D01*
X40845D01*
Y36066D01*
X42051D01*
Y34500D01*
X41736D01*
Y34509D01*
X41732Y34528D01*
X41723Y34560D01*
X41709Y34602D01*
X41695Y34653D01*
X41676Y34708D01*
X41635Y34833D01*
X41630Y34828D01*
X41621Y34819D01*
X41602Y34796D01*
X41579Y34773D01*
X41547Y34745D01*
X41510Y34712D01*
X41469Y34680D01*
X41418Y34643D01*
X41362Y34606D01*
X41302Y34574D01*
X41238Y34542D01*
X41164Y34514D01*
X41090Y34491D01*
X41011Y34472D01*
X40923Y34458D01*
X40835Y34454D01*
X40812D01*
X40780Y34458D01*
X40743D01*
X40692Y34468D01*
X40637Y34477D01*
X40577Y34486D01*
X40508Y34505D01*
X40438Y34528D01*
X40364Y34555D01*
X40290Y34588D01*
X40216Y34625D01*
X40143Y34671D01*
X40073Y34726D01*
X40009Y34791D01*
X39944Y34860D01*
X39939Y34865D01*
X39930Y34879D01*
X39916Y34902D01*
X39893Y34934D01*
X39870Y34976D01*
X39842Y35027D01*
X39814Y35082D01*
X39787Y35147D01*
X39754Y35221D01*
X39727Y35299D01*
X39699Y35387D01*
X39676Y35484D01*
X39653Y35581D01*
X39639Y35692D01*
X39630Y35803D01*
X39625Y35923D01*
Y35932D01*
Y35955D01*
X39630Y35992D01*
Y36039D01*
X39634Y36099D01*
X39644Y36168D01*
X39653Y36242D01*
X39667Y36325D01*
X39685Y36413D01*
X39708Y36505D01*
X39736Y36597D01*
X39768Y36690D01*
X39805Y36782D01*
X39851Y36875D01*
X39902Y36963D01*
X39962Y37046D01*
X39967Y37050D01*
X39976Y37064D01*
X39999Y37087D01*
X40027Y37115D01*
X40059Y37147D01*
X40101Y37180D01*
X40152Y37221D01*
X40207Y37263D01*
X40272Y37300D01*
X40341Y37341D01*
X40415Y37374D01*
X40498Y37411D01*
X40586Y37434D01*
X40683Y37457D01*
X40785Y37471D01*
X40891Y37475D01*
X40937D01*
X40974Y37471D01*
D02*
G37*
G36*
X57223D02*
X57264Y37466D01*
X57310Y37461D01*
X57366Y37452D01*
X57421Y37443D01*
X57546Y37406D01*
X57615Y37387D01*
X57680Y37360D01*
X57745Y37327D01*
X57809Y37290D01*
X57869Y37249D01*
X57929Y37198D01*
X57934Y37194D01*
X57943Y37184D01*
X57957Y37170D01*
X57976Y37147D01*
X58003Y37119D01*
X58026Y37087D01*
X58059Y37046D01*
X58087Y37004D01*
X58119Y36953D01*
X58151Y36898D01*
X58184Y36838D01*
X58211Y36773D01*
X58239Y36699D01*
X58262Y36625D01*
X58285Y36547D01*
X58299Y36463D01*
X57648Y36380D01*
Y36385D01*
X57643Y36403D01*
X57639Y36431D01*
X57629Y36463D01*
X57615Y36505D01*
X57597Y36551D01*
X57578Y36597D01*
X57555Y36648D01*
X57523Y36699D01*
X57486Y36745D01*
X57444Y36792D01*
X57398Y36833D01*
X57343Y36865D01*
X57283Y36893D01*
X57213Y36912D01*
X57139Y36916D01*
X57112D01*
X57093Y36912D01*
X57042Y36902D01*
X56982Y36884D01*
X56913Y36856D01*
X56839Y36810D01*
X56807Y36782D01*
X56774Y36745D01*
X56742Y36708D01*
X56714Y36662D01*
Y36658D01*
X56710Y36648D01*
X56701Y36634D01*
X56691Y36616D01*
X56682Y36588D01*
X56673Y36556D01*
X56659Y36519D01*
X56645Y36477D01*
X56631Y36426D01*
X56622Y36376D01*
X56608Y36316D01*
X56599Y36251D01*
X56590Y36182D01*
X56581Y36108D01*
X56576Y36025D01*
Y35941D01*
Y35937D01*
Y35923D01*
Y35900D01*
X56581Y35868D01*
Y35831D01*
X56585Y35784D01*
X56590Y35738D01*
X56594Y35687D01*
X56613Y35572D01*
X56640Y35456D01*
X56678Y35346D01*
X56701Y35295D01*
X56728Y35248D01*
Y35244D01*
X56738Y35239D01*
X56756Y35212D01*
X56793Y35175D01*
X56844Y35133D01*
X56904Y35087D01*
X56982Y35050D01*
X57070Y35022D01*
X57121Y35017D01*
X57172Y35013D01*
X57204D01*
X57236Y35017D01*
X57283Y35027D01*
X57333Y35041D01*
X57389Y35064D01*
X57444Y35091D01*
X57500Y35128D01*
X57504Y35133D01*
X57523Y35151D01*
X57546Y35179D01*
X57574Y35221D01*
X57601Y35276D01*
X57625Y35341D01*
X57643Y35424D01*
X57648Y35516D01*
X57093D01*
Y36066D01*
X58299D01*
Y34500D01*
X57985D01*
Y34509D01*
X57980Y34528D01*
X57971Y34560D01*
X57957Y34602D01*
X57943Y34653D01*
X57925Y34708D01*
X57883Y34833D01*
X57879Y34828D01*
X57869Y34819D01*
X57851Y34796D01*
X57828Y34773D01*
X57796Y34745D01*
X57759Y34712D01*
X57717Y34680D01*
X57666Y34643D01*
X57611Y34606D01*
X57551Y34574D01*
X57486Y34542D01*
X57412Y34514D01*
X57338Y34491D01*
X57260Y34472D01*
X57172Y34458D01*
X57084Y34454D01*
X57061D01*
X57029Y34458D01*
X56992D01*
X56941Y34468D01*
X56885Y34477D01*
X56825Y34486D01*
X56756Y34505D01*
X56687Y34528D01*
X56613Y34555D01*
X56539Y34588D01*
X56465Y34625D01*
X56391Y34671D01*
X56322Y34726D01*
X56257Y34791D01*
X56192Y34860D01*
X56188Y34865D01*
X56178Y34879D01*
X56165Y34902D01*
X56142Y34934D01*
X56119Y34976D01*
X56091Y35027D01*
X56063Y35082D01*
X56035Y35147D01*
X56003Y35221D01*
X55975Y35299D01*
X55948Y35387D01*
X55924Y35484D01*
X55901Y35581D01*
X55888Y35692D01*
X55878Y35803D01*
X55874Y35923D01*
Y35932D01*
Y35955D01*
X55878Y35992D01*
Y36039D01*
X55883Y36099D01*
X55892Y36168D01*
X55901Y36242D01*
X55915Y36325D01*
X55934Y36413D01*
X55957Y36505D01*
X55984Y36597D01*
X56017Y36690D01*
X56054Y36782D01*
X56100Y36875D01*
X56151Y36963D01*
X56211Y37046D01*
X56216Y37050D01*
X56225Y37064D01*
X56248Y37087D01*
X56276Y37115D01*
X56308Y37147D01*
X56349Y37180D01*
X56400Y37221D01*
X56456Y37263D01*
X56520Y37300D01*
X56590Y37341D01*
X56664Y37374D01*
X56747Y37411D01*
X56835Y37434D01*
X56932Y37457D01*
X57033Y37471D01*
X57139Y37475D01*
X57186D01*
X57223Y37471D01*
D02*
G37*
G36*
X34381Y35336D02*
Y35332D01*
Y35318D01*
Y35295D01*
X34377Y35262D01*
Y35225D01*
X34372Y35184D01*
X34354Y35087D01*
X34331Y34976D01*
X34289Y34865D01*
X34238Y34763D01*
X34201Y34712D01*
X34164Y34671D01*
X34160D01*
X34155Y34662D01*
X34141Y34653D01*
X34123Y34639D01*
X34100Y34620D01*
X34072Y34602D01*
X34035Y34583D01*
X33998Y34565D01*
X33952Y34542D01*
X33901Y34523D01*
X33841Y34505D01*
X33781Y34486D01*
X33707Y34472D01*
X33633Y34463D01*
X33550Y34458D01*
X33462Y34454D01*
X33425D01*
X33379Y34458D01*
X33323D01*
X33254Y34463D01*
X33176Y34472D01*
X33092Y34486D01*
X33000Y34500D01*
Y35068D01*
X33009D01*
X33032Y35064D01*
X33074Y35059D01*
X33120Y35054D01*
X33176Y35045D01*
X33231Y35041D01*
X33291Y35036D01*
X33370D01*
X33393Y35041D01*
X33420D01*
X33485Y35054D01*
X33522Y35068D01*
X33550Y35082D01*
X33554D01*
X33564Y35091D01*
X33591Y35114D01*
X33628Y35147D01*
X33661Y35193D01*
Y35198D01*
X33665Y35207D01*
X33674Y35221D01*
X33679Y35248D01*
X33688Y35276D01*
X33693Y35318D01*
X33698Y35369D01*
Y35424D01*
Y37434D01*
X34381D01*
Y35336D01*
D02*
G37*
G36*
X101000Y147085D02*
X99790D01*
Y146175D01*
X101000D01*
Y145500D01*
X98066D01*
Y146175D01*
X99207D01*
Y147085D01*
X98066D01*
Y147759D01*
X101000D01*
Y147085D01*
D02*
G37*
G36*
X99642Y150707D02*
X99697Y150702D01*
X99762Y150693D01*
X99831Y150684D01*
X99910Y150670D01*
X99993Y150656D01*
X100076Y150633D01*
X100168Y150605D01*
X100256Y150577D01*
X100349Y150536D01*
X100441Y150494D01*
X100529Y150443D01*
X100612Y150388D01*
X100617Y150383D01*
X100630Y150374D01*
X100654Y150356D01*
X100681Y150328D01*
X100714Y150296D01*
X100751Y150254D01*
X100787Y150203D01*
X100829Y150148D01*
X100871Y150088D01*
X100908Y150014D01*
X100945Y149940D01*
X100977Y149852D01*
X101005Y149764D01*
X101028Y149663D01*
X101042Y149556D01*
X101046Y149445D01*
Y149441D01*
Y149418D01*
X101042Y149390D01*
X101037Y149348D01*
X101032Y149298D01*
X101023Y149242D01*
X101009Y149178D01*
X100991Y149108D01*
X100968Y149039D01*
X100940Y148960D01*
X100903Y148887D01*
X100857Y148812D01*
X100806Y148734D01*
X100751Y148665D01*
X100681Y148595D01*
X100603Y148531D01*
X100598Y148526D01*
X100584Y148517D01*
X100557Y148503D01*
X100524Y148480D01*
X100483Y148457D01*
X100427Y148429D01*
X100367Y148401D01*
X100302Y148369D01*
X100229Y148341D01*
X100145Y148309D01*
X100057Y148281D01*
X99961Y148258D01*
X99859Y148235D01*
X99753Y148221D01*
X99642Y148212D01*
X99526Y148207D01*
X99466D01*
X99420Y148212D01*
X99365Y148217D01*
X99300Y148226D01*
X99230Y148235D01*
X99152Y148249D01*
X99069Y148267D01*
X98981Y148286D01*
X98893Y148314D01*
X98801Y148346D01*
X98713Y148383D01*
X98625Y148429D01*
X98537Y148480D01*
X98454Y148535D01*
X98450Y148540D01*
X98436Y148549D01*
X98413Y148568D01*
X98385Y148595D01*
X98353Y148628D01*
X98320Y148669D01*
X98279Y148720D01*
X98237Y148776D01*
X98200Y148836D01*
X98159Y148910D01*
X98126Y148984D01*
X98089Y149067D01*
X98066Y149159D01*
X98043Y149256D01*
X98029Y149358D01*
X98025Y149469D01*
Y149478D01*
Y149496D01*
X98029Y149529D01*
X98034Y149570D01*
X98039Y149621D01*
X98048Y149681D01*
X98062Y149746D01*
X98080Y149815D01*
X98108Y149889D01*
X98136Y149968D01*
X98173Y150041D01*
X98219Y150120D01*
X98274Y150194D01*
X98334Y150268D01*
X98404Y150337D01*
X98487Y150397D01*
X98491Y150402D01*
X98505Y150411D01*
X98533Y150425D01*
X98565Y150448D01*
X98611Y150471D01*
X98662Y150499D01*
X98722Y150527D01*
X98787Y150554D01*
X98861Y150582D01*
X98944Y150614D01*
X99032Y150637D01*
X99120Y150661D01*
X99217Y150684D01*
X99318Y150698D01*
X99425Y150707D01*
X99536Y150711D01*
X99595D01*
X99642Y150707D01*
D02*
G37*
G36*
X55472Y35604D02*
Y35600D01*
Y35586D01*
Y35563D01*
Y35530D01*
X55467Y35493D01*
Y35452D01*
X55458Y35355D01*
X55449Y35248D01*
X55430Y35138D01*
X55402Y35036D01*
X55388Y34985D01*
X55370Y34944D01*
X55365Y34934D01*
X55352Y34907D01*
X55324Y34870D01*
X55287Y34819D01*
X55236Y34763D01*
X55171Y34708D01*
X55088Y34648D01*
X54996Y34592D01*
X54991D01*
X54982Y34588D01*
X54968Y34578D01*
X54945Y34569D01*
X54922Y34560D01*
X54890Y34551D01*
X54848Y34537D01*
X54806Y34523D01*
X54760Y34509D01*
X54705Y34500D01*
X54649Y34486D01*
X54585Y34477D01*
X54451Y34458D01*
X54298Y34454D01*
X54229D01*
X54192Y34458D01*
X54150D01*
X54104Y34463D01*
X54058Y34468D01*
X53947Y34481D01*
X53836Y34505D01*
X53725Y34532D01*
X53624Y34574D01*
X53619D01*
X53614Y34578D01*
X53601Y34588D01*
X53582Y34597D01*
X53540Y34625D01*
X53485Y34666D01*
X53425Y34717D01*
X53360Y34777D01*
X53300Y34846D01*
X53250Y34930D01*
Y34934D01*
X53245Y34939D01*
X53240Y34953D01*
X53231Y34971D01*
X53222Y34999D01*
X53212Y35027D01*
X53199Y35059D01*
X53189Y35101D01*
X53180Y35147D01*
X53166Y35198D01*
X53157Y35253D01*
X53148Y35313D01*
X53139Y35378D01*
X53134Y35447D01*
X53129Y35526D01*
Y35604D01*
Y37434D01*
X53873D01*
Y35604D01*
Y35600D01*
Y35595D01*
Y35567D01*
Y35521D01*
X53878Y35470D01*
X53882Y35415D01*
X53887Y35355D01*
X53896Y35299D01*
X53910Y35253D01*
Y35248D01*
X53919Y35235D01*
X53929Y35216D01*
X53947Y35188D01*
X53970Y35161D01*
X53998Y35133D01*
X54030Y35105D01*
X54072Y35078D01*
X54076Y35073D01*
X54095Y35068D01*
X54118Y35059D01*
X54155Y35045D01*
X54197Y35031D01*
X54247Y35022D01*
X54303Y35017D01*
X54363Y35013D01*
X54395D01*
X54432Y35017D01*
X54474Y35022D01*
X54525Y35027D01*
X54575Y35041D01*
X54631Y35054D01*
X54677Y35073D01*
X54682Y35078D01*
X54695Y35087D01*
X54719Y35101D01*
X54746Y35119D01*
X54774Y35142D01*
X54802Y35175D01*
X54825Y35207D01*
X54843Y35244D01*
Y35248D01*
X54848Y35267D01*
X54857Y35290D01*
X54866Y35332D01*
X54871Y35382D01*
X54880Y35443D01*
X54885Y35516D01*
Y35604D01*
Y37434D01*
X55472D01*
Y35604D01*
D02*
G37*
G36*
X98648Y152291D02*
X101000D01*
Y151594D01*
X98648D01*
Y150864D01*
X98066D01*
Y153017D01*
X98648D01*
Y152291D01*
D02*
G37*
G36*
X51748Y37429D02*
X51780D01*
X51863Y37424D01*
X51951Y37411D01*
X52044Y37397D01*
X52131Y37374D01*
X52210Y37341D01*
X52219Y37337D01*
X52242Y37323D01*
X52275Y37304D01*
X52316Y37277D01*
X52367Y37240D01*
X52418Y37194D01*
X52469Y37143D01*
X52515Y37083D01*
X52520Y37073D01*
X52533Y37055D01*
X52552Y37018D01*
X52575Y36972D01*
X52598Y36912D01*
X52617Y36842D01*
X52630Y36764D01*
X52635Y36676D01*
Y36671D01*
Y36653D01*
X52630Y36630D01*
X52626Y36597D01*
X52621Y36556D01*
X52607Y36514D01*
X52589Y36463D01*
X52570Y36413D01*
X52543Y36357D01*
X52506Y36302D01*
X52464Y36246D01*
X52413Y36195D01*
X52353Y36145D01*
X52284Y36099D01*
X52201Y36057D01*
X52108Y36025D01*
X52113D01*
X52122Y36020D01*
X52136Y36015D01*
X52159Y36011D01*
X52215Y35992D01*
X52279Y35965D01*
X52353Y35928D01*
X52432Y35881D01*
X52501Y35821D01*
X52566Y35752D01*
X52570Y35743D01*
X52589Y35715D01*
X52612Y35673D01*
X52644Y35623D01*
X52672Y35553D01*
X52695Y35479D01*
X52714Y35396D01*
X52718Y35309D01*
Y35304D01*
Y35295D01*
Y35276D01*
X52714Y35253D01*
X52709Y35225D01*
X52704Y35193D01*
X52686Y35114D01*
X52658Y35022D01*
X52612Y34925D01*
X52584Y34879D01*
X52552Y34828D01*
X52515Y34782D01*
X52469Y34736D01*
X52464Y34731D01*
X52455Y34726D01*
X52441Y34712D01*
X52422Y34699D01*
X52395Y34680D01*
X52362Y34662D01*
X52321Y34639D01*
X52275Y34620D01*
X52219Y34597D01*
X52164Y34574D01*
X52095Y34555D01*
X52021Y34537D01*
X51942Y34523D01*
X51854Y34509D01*
X51762Y34505D01*
X51660Y34500D01*
X50297D01*
Y37434D01*
X51716D01*
X51748Y37429D01*
D02*
G37*
%LPC*%
G36*
X206623Y44216D02*
X206554D01*
X206392Y44192D01*
X206276Y44123D01*
X206183Y44054D01*
X206137Y43961D01*
X206091Y43845D01*
X206068Y43776D01*
Y43707D01*
Y43683D01*
X207063D01*
X207039Y43868D01*
X206970Y43984D01*
X206901Y44077D01*
X206808Y44146D01*
X206716Y44192D01*
X206623Y44216D01*
D02*
G37*
G36*
X63678Y36907D02*
X63193D01*
Y36159D01*
X63683D01*
X63729Y36163D01*
X63826Y36172D01*
X63872Y36177D01*
X63909Y36186D01*
X63914D01*
X63928Y36191D01*
X63946Y36200D01*
X63969Y36214D01*
X63992Y36228D01*
X64025Y36251D01*
X64052Y36279D01*
X64080Y36311D01*
X64085Y36316D01*
X64094Y36329D01*
X64103Y36348D01*
X64117Y36380D01*
X64131Y36413D01*
X64145Y36450D01*
X64149Y36496D01*
X64154Y36542D01*
Y36547D01*
Y36565D01*
X64149Y36588D01*
X64145Y36616D01*
X64135Y36653D01*
X64122Y36690D01*
X64103Y36727D01*
X64080Y36764D01*
X64075Y36768D01*
X64066Y36778D01*
X64052Y36796D01*
X64034Y36815D01*
X63983Y36856D01*
X63951Y36870D01*
X63918Y36884D01*
X63914D01*
X63900Y36889D01*
X63881Y36893D01*
X63849Y36898D01*
X63803D01*
X63747Y36902D01*
X63678Y36907D01*
D02*
G37*
G36*
X222890Y44216D02*
X222821D01*
X222659Y44192D01*
X222543Y44123D01*
X222451Y44054D01*
X222381Y43961D01*
X222335Y43845D01*
Y43776D01*
X222312Y43707D01*
Y43683D01*
X223330D01*
X223307Y43868D01*
X223237Y43984D01*
X223168Y44077D01*
X223076Y44146D01*
X222983Y44192D01*
X222890Y44216D01*
D02*
G37*
G36*
X99524Y87758D02*
X99504D01*
X99476Y87751D01*
X99441Y87744D01*
X99392Y87723D01*
X99351Y87703D01*
X99295Y87668D01*
X99247Y87619D01*
X99198Y87564D01*
X99143Y87494D01*
X99101Y87404D01*
X99059Y87300D01*
X99018Y87175D01*
X98990Y87029D01*
X98976Y86863D01*
X98969Y86668D01*
Y86655D01*
Y86627D01*
X98976Y86578D01*
Y86516D01*
X98983Y86446D01*
X98997Y86363D01*
X99032Y86190D01*
X99059Y86099D01*
X99094Y86016D01*
X99136Y85933D01*
X99191Y85863D01*
X99247Y85801D01*
X99316Y85752D01*
X99400Y85725D01*
X99490Y85711D01*
X99524D01*
X99559Y85718D01*
X99608Y85732D01*
X99663Y85752D01*
X99726Y85787D01*
X99788Y85829D01*
X99844Y85884D01*
X99851Y85891D01*
X99864Y85919D01*
X99892Y85954D01*
X99920Y86009D01*
X99948Y86079D01*
X99976Y86169D01*
X99989Y86266D01*
X99996Y86377D01*
Y86988D01*
Y86995D01*
Y87022D01*
Y87057D01*
X99989Y87106D01*
X99982Y87168D01*
X99968Y87231D01*
X99941Y87376D01*
X99878Y87515D01*
X99844Y87578D01*
X99795Y87640D01*
X99747Y87689D01*
X99677Y87723D01*
X99608Y87751D01*
X99524Y87758D01*
D02*
G37*
G36*
X207039Y39541D02*
X206461D01*
X206322Y39518D01*
X206230Y39495D01*
X206137Y39449D01*
X206091Y39402D01*
X206045Y39287D01*
Y39264D01*
Y39241D01*
X206068Y39148D01*
X206114Y39079D01*
X206276Y38986D01*
X206415Y38940D01*
X206484D01*
X206692Y38963D01*
X206808Y38986D01*
X206878Y39009D01*
X206901D01*
X206993Y39102D01*
X207016Y39217D01*
X207039Y39310D01*
Y39356D01*
Y39541D01*
D02*
G37*
G36*
X213218Y61941D02*
X211575D01*
X211205Y59974D01*
X211182Y59858D01*
X211135Y59766D01*
X211089Y59696D01*
X211066Y59673D01*
X210904Y59534D01*
X210835Y59511D01*
X210811Y59488D01*
X209307Y58886D01*
X209215Y58840D01*
X209145Y58817D01*
X209053D01*
X208914Y58840D01*
X208798Y58886D01*
X208706Y58909D01*
X208682Y58933D01*
X207039Y60066D01*
X205883Y58886D01*
X206993Y57290D01*
X207039Y57174D01*
X207086Y57035D01*
Y56966D01*
Y56919D01*
Y56827D01*
X207063Y56734D01*
X207039Y56688D01*
Y56665D01*
X206368Y55115D01*
X206322Y55022D01*
X206253Y54929D01*
X206206Y54883D01*
X206183Y54860D01*
X206091Y54791D01*
X205998Y54744D01*
X205906Y54721D01*
X205883D01*
X204008Y54351D01*
Y52731D01*
X205836Y52384D01*
X205952Y52338D01*
X206045Y52291D01*
X206114Y52245D01*
X206137Y52222D01*
X206230Y52130D01*
X206276Y52060D01*
X206322Y51991D01*
Y51968D01*
X206993Y50324D01*
X207039Y50163D01*
Y50093D01*
Y50070D01*
X207016Y49931D01*
X206993Y49815D01*
X206947Y49723D01*
X206924Y49700D01*
X205883Y48196D01*
X207039Y47016D01*
X208521Y48034D01*
X208636Y48103D01*
X208752Y48126D01*
X208844Y48149D01*
X209006D01*
X209099Y48126D01*
X209168Y48103D01*
X209192Y48080D01*
X209562Y47872D01*
X210858Y50996D01*
X210788Y51042D01*
X210765Y51065D01*
X210534Y51227D01*
X210325Y51435D01*
X210163Y51620D01*
X210001Y51829D01*
X209886Y52037D01*
X209770Y52245D01*
X209608Y52639D01*
X209516Y52986D01*
X209492Y53148D01*
X209469Y53286D01*
X209446Y53379D01*
Y53472D01*
Y53518D01*
Y53541D01*
X209492Y53981D01*
X209585Y54374D01*
X209724Y54744D01*
X209886Y55045D01*
X210025Y55300D01*
X210163Y55462D01*
X210256Y55577D01*
X210302Y55624D01*
X210649Y55901D01*
X210997Y56109D01*
X211344Y56271D01*
X211667Y56364D01*
X211968Y56433D01*
X212177Y56457D01*
X212269Y56480D01*
X212385D01*
X212825Y56433D01*
X213241Y56341D01*
X213588Y56202D01*
X213889Y56063D01*
X214143Y55901D01*
X214329Y55762D01*
X214444Y55670D01*
X214491Y55624D01*
X214768Y55300D01*
X214977Y54929D01*
X215139Y54582D01*
X215231Y54258D01*
X215300Y53981D01*
X215324Y53749D01*
X215347Y53657D01*
Y53587D01*
Y53564D01*
Y53541D01*
X215324Y53240D01*
X215300Y52986D01*
X215231Y52731D01*
X215139Y52477D01*
X214930Y52060D01*
X214699Y51713D01*
X214444Y51435D01*
X214236Y51227D01*
X214143Y51158D01*
X214074Y51111D01*
X214051Y51065D01*
X214028D01*
X213958Y51019D01*
X213935Y50996D01*
X215231Y47872D01*
X215601Y48080D01*
X215717Y48126D01*
X215810Y48149D01*
X215902D01*
X216041Y48126D01*
X216157Y48103D01*
X216249Y48057D01*
X216272Y48034D01*
X217753Y47016D01*
X218910Y48196D01*
X217869Y49700D01*
X217800Y49815D01*
X217776Y49954D01*
X217753Y50047D01*
Y50070D01*
Y50163D01*
X217776Y50255D01*
X217800Y50301D01*
Y50324D01*
X218471Y51968D01*
X218517Y52060D01*
X218586Y52153D01*
X218633Y52199D01*
X218656Y52222D01*
X218748Y52291D01*
X218841Y52338D01*
X218934Y52384D01*
X218957D01*
X220785Y52731D01*
Y54351D01*
X218887Y54721D01*
X218772Y54744D01*
X218679Y54791D01*
X218633Y54837D01*
X218609Y54860D01*
X218517Y54953D01*
X218471Y55022D01*
X218424Y55091D01*
Y55115D01*
X217753Y56665D01*
X217707Y56827D01*
Y56896D01*
Y56919D01*
X217730Y57058D01*
X217753Y57174D01*
X217776Y57266D01*
X217800Y57290D01*
X218910Y58886D01*
X217753Y60066D01*
X216110Y58933D01*
X215995Y58886D01*
X215856Y58840D01*
X215787Y58817D01*
X215740D01*
X215648Y58840D01*
X215555Y58863D01*
X215509Y58886D01*
X215486D01*
X213982Y59488D01*
X213889Y59557D01*
X213796Y59604D01*
X213750Y59650D01*
X213727Y59673D01*
X213658Y59789D01*
X213611Y59881D01*
X213588Y59951D01*
Y59974D01*
X213218Y61941D01*
D02*
G37*
G36*
X216643Y39541D02*
X216064D01*
X215925Y39518D01*
X215833Y39495D01*
X215740Y39449D01*
X215694Y39402D01*
X215648Y39287D01*
Y39264D01*
Y39241D01*
X215671Y39148D01*
X215717Y39079D01*
X215879Y38986D01*
X216041Y38940D01*
X216110D01*
X216319Y38963D01*
X216434Y38986D01*
X216504Y39009D01*
X216527D01*
X216596Y39102D01*
X216619Y39217D01*
X216643Y39310D01*
Y39356D01*
Y39541D01*
D02*
G37*
G36*
X51522Y36916D02*
X50981D01*
Y36274D01*
X51545D01*
X51591Y36279D01*
X51651Y36288D01*
X51711Y36302D01*
X51766Y36320D01*
X51817Y36348D01*
X51840Y36367D01*
X51854Y36385D01*
X51859Y36390D01*
X51868Y36403D01*
X51877Y36426D01*
X51896Y36454D01*
X51910Y36487D01*
X51919Y36524D01*
X51928Y36560D01*
X51933Y36602D01*
Y36607D01*
Y36621D01*
X51928Y36644D01*
X51924Y36667D01*
X51905Y36727D01*
X51891Y36759D01*
X51868Y36792D01*
X51863Y36796D01*
X51859Y36805D01*
X51831Y36838D01*
X51785Y36870D01*
X51762Y36884D01*
X51734Y36893D01*
X51730D01*
X51720Y36898D01*
X51702Y36902D01*
X51674Y36907D01*
X51632D01*
X51586Y36912D01*
X51522Y36916D01*
D02*
G37*
G36*
X105278Y86974D02*
X104445D01*
Y85919D01*
X105291D01*
X105368Y85926D01*
X105451Y85940D01*
X105548Y85954D01*
X105639Y85974D01*
X105729Y86009D01*
X105798Y86058D01*
X105805Y86065D01*
X105826Y86085D01*
X105854Y86113D01*
X105888Y86162D01*
X105916Y86217D01*
X105944Y86287D01*
X105965Y86363D01*
X105972Y86453D01*
Y86460D01*
Y86488D01*
X105965Y86530D01*
X105951Y86578D01*
X105930Y86634D01*
X105902Y86696D01*
X105861Y86752D01*
X105805Y86814D01*
X105798Y86821D01*
X105777Y86842D01*
X105736Y86863D01*
X105680Y86897D01*
X105604Y86925D01*
X105514Y86946D01*
X105410Y86967D01*
X105278Y86974D01*
D02*
G37*
G36*
X45904Y36893D02*
X45617D01*
Y35050D01*
X45936D01*
X45959Y35054D01*
X45991Y35059D01*
X46028Y35064D01*
X46107Y35087D01*
X46199Y35119D01*
X46246Y35142D01*
X46292Y35165D01*
X46333Y35198D01*
X46380Y35235D01*
X46417Y35276D01*
X46453Y35327D01*
Y35332D01*
X46463Y35341D01*
X46472Y35355D01*
X46481Y35378D01*
X46495Y35405D01*
X46514Y35438D01*
X46527Y35475D01*
X46546Y35516D01*
X46578Y35613D01*
X46611Y35724D01*
X46629Y35849D01*
X46638Y35988D01*
Y35992D01*
Y36002D01*
Y36015D01*
Y36034D01*
X46634Y36085D01*
X46624Y36149D01*
X46611Y36228D01*
X46592Y36311D01*
X46569Y36394D01*
X46532Y36482D01*
Y36487D01*
X46527Y36491D01*
X46514Y36519D01*
X46490Y36560D01*
X46463Y36607D01*
X46426Y36658D01*
X46380Y36713D01*
X46329Y36759D01*
X46273Y36801D01*
X46269Y36805D01*
X46246Y36815D01*
X46213Y36829D01*
X46172Y36847D01*
X46116Y36865D01*
X46051Y36879D01*
X45982Y36889D01*
X45904Y36893D01*
D02*
G37*
G36*
X96047Y87793D02*
X96027D01*
X95999Y87786D01*
X95964D01*
X95874Y87758D01*
X95825Y87737D01*
X95770Y87709D01*
X95714Y87675D01*
X95666Y87626D01*
X95610Y87578D01*
X95562Y87508D01*
X95520Y87432D01*
X95485Y87342D01*
X95458Y87238D01*
X95444Y87120D01*
X96603D01*
Y87126D01*
Y87147D01*
X96596Y87182D01*
X96589Y87224D01*
X96575Y87279D01*
X96561Y87335D01*
X96512Y87460D01*
X96485Y87522D01*
X96443Y87578D01*
X96401Y87640D01*
X96346Y87689D01*
X96290Y87730D01*
X96214Y87765D01*
X96138Y87786D01*
X96047Y87793D01*
D02*
G37*
G36*
X80363D02*
X80342D01*
X80314Y87786D01*
X80280D01*
X80190Y87758D01*
X80141Y87737D01*
X80085Y87709D01*
X80030Y87675D01*
X79981Y87626D01*
X79926Y87578D01*
X79877Y87508D01*
X79836Y87432D01*
X79801Y87342D01*
X79773Y87238D01*
X79759Y87120D01*
X80918D01*
Y87126D01*
Y87147D01*
X80911Y87182D01*
X80904Y87224D01*
X80891Y87279D01*
X80877Y87335D01*
X80828Y87460D01*
X80800Y87522D01*
X80759Y87578D01*
X80717Y87640D01*
X80661Y87689D01*
X80606Y87730D01*
X80530Y87765D01*
X80453Y87786D01*
X80363Y87793D01*
D02*
G37*
G36*
X220322Y40490D02*
X220252D01*
X220091Y40467D01*
X219952Y40398D01*
X219859Y40305D01*
X219813Y40212D01*
X219766Y40097D01*
X219743Y40004D01*
Y39935D01*
Y39911D01*
X220738D01*
X220715Y40097D01*
X220646Y40235D01*
X220576Y40351D01*
X220484Y40421D01*
X220391Y40467D01*
X220322Y40490D01*
D02*
G37*
G36*
X51535Y35747D02*
X50981D01*
Y35045D01*
X51545D01*
X51595Y35050D01*
X51651Y35059D01*
X51716Y35068D01*
X51776Y35082D01*
X51836Y35105D01*
X51882Y35138D01*
X51887Y35142D01*
X51900Y35156D01*
X51919Y35175D01*
X51942Y35207D01*
X51960Y35244D01*
X51979Y35290D01*
X51993Y35341D01*
X51997Y35401D01*
Y35405D01*
Y35424D01*
X51993Y35452D01*
X51984Y35484D01*
X51970Y35521D01*
X51951Y35563D01*
X51924Y35600D01*
X51887Y35641D01*
X51882Y35646D01*
X51868Y35660D01*
X51840Y35673D01*
X51803Y35697D01*
X51753Y35715D01*
X51692Y35729D01*
X51623Y35743D01*
X51535Y35747D01*
D02*
G37*
G36*
X105257Y88730D02*
X104445D01*
Y87765D01*
X105291D01*
X105361Y87772D01*
X105451Y87786D01*
X105541Y87807D01*
X105625Y87834D01*
X105701Y87876D01*
X105736Y87904D01*
X105756Y87932D01*
X105763Y87938D01*
X105777Y87959D01*
X105791Y87994D01*
X105819Y88036D01*
X105840Y88084D01*
X105854Y88140D01*
X105868Y88195D01*
X105875Y88258D01*
Y88265D01*
Y88285D01*
X105868Y88320D01*
X105861Y88355D01*
X105833Y88445D01*
X105812Y88494D01*
X105777Y88542D01*
X105770Y88549D01*
X105763Y88563D01*
X105722Y88612D01*
X105652Y88660D01*
X105618Y88681D01*
X105576Y88695D01*
X105569D01*
X105555Y88702D01*
X105527Y88709D01*
X105486Y88716D01*
X105423D01*
X105354Y88723D01*
X105257Y88730D01*
D02*
G37*
G36*
X210672Y40444D02*
X210603D01*
X210441Y40421D01*
X210325Y40328D01*
X210233Y40212D01*
X210187Y40073D01*
X210140Y39935D01*
X210117Y39819D01*
Y39726D01*
Y39703D01*
X210140Y39449D01*
X210187Y39287D01*
X210279Y39148D01*
X210372Y39055D01*
X210441Y39009D01*
X210534Y38986D01*
X210580Y38963D01*
X210603D01*
X210765Y38986D01*
X210881Y39079D01*
X210950Y39194D01*
X211020Y39333D01*
X211043Y39472D01*
X211066Y39588D01*
Y39680D01*
Y39703D01*
X211043Y39958D01*
X210997Y40143D01*
X210927Y40259D01*
X210835Y40351D01*
X210742Y40398D01*
X210672Y40444D01*
D02*
G37*
G36*
X202018Y44192D02*
X201972D01*
X201787Y44169D01*
X201671Y44123D01*
X201602Y44054D01*
X201578Y44030D01*
X201532Y43961D01*
X201509Y43868D01*
X201486Y43683D01*
X201463Y43591D01*
Y43521D01*
Y43475D01*
Y43452D01*
X201486Y43197D01*
X201532Y43035D01*
X201555Y42920D01*
X201578Y42897D01*
X201694Y42804D01*
X201810Y42758D01*
X201926Y42735D01*
X201972D01*
X202134Y42758D01*
X202273Y42827D01*
X202342Y42873D01*
X202365Y42897D01*
X202435Y43059D01*
X202458Y43244D01*
X202481Y43382D01*
Y43429D01*
Y43452D01*
Y43591D01*
X202458Y43730D01*
X202435Y43892D01*
X202388Y44007D01*
X202365Y44030D01*
X202250Y44123D01*
X202111Y44169D01*
X202018Y44192D01*
D02*
G37*
G36*
X204309D02*
X204240D01*
X204147Y44146D01*
X204078Y44100D01*
X203985Y44007D01*
X203892Y43892D01*
X203846Y43707D01*
X203823Y43452D01*
Y43429D01*
Y43336D01*
X203846Y43221D01*
X203892Y43105D01*
X203939Y42966D01*
X204031Y42850D01*
X204147Y42758D01*
X204309Y42735D01*
X204332D01*
X204378Y42758D01*
X204448Y42781D01*
X204540Y42827D01*
X204633Y42920D01*
X204702Y43035D01*
X204749Y43221D01*
X204772Y43452D01*
Y43475D01*
Y43568D01*
X204749Y43683D01*
X204726Y43822D01*
X204656Y43961D01*
X204587Y44077D01*
X204471Y44169D01*
X204309Y44192D01*
D02*
G37*
G36*
X214468D02*
X214421D01*
X214259Y44169D01*
X214143Y44123D01*
X214074Y44054D01*
X214051Y44030D01*
X214005Y43961D01*
X213982Y43868D01*
X213935Y43683D01*
X213912Y43591D01*
Y43521D01*
Y43475D01*
Y43452D01*
X213935Y43197D01*
X213982Y43035D01*
X214028Y42920D01*
X214051Y42897D01*
X214167Y42804D01*
X214282Y42758D01*
X214375Y42735D01*
X214421D01*
X214583Y42758D01*
X214722Y42827D01*
X214791Y42873D01*
X214815Y42897D01*
X214884Y43059D01*
X214907Y43244D01*
X214930Y43382D01*
Y43429D01*
Y43452D01*
Y43591D01*
X214907Y43730D01*
X214884Y43892D01*
X214838Y44007D01*
X214815Y44030D01*
X214699Y44123D01*
X214560Y44169D01*
X214468Y44192D01*
D02*
G37*
G36*
X88726Y87904D02*
X88684D01*
X88643Y87897D01*
X88587Y87890D01*
X88525Y87869D01*
X88455Y87848D01*
X88393Y87814D01*
X88337Y87765D01*
X88330Y87758D01*
X88316Y87744D01*
X88296Y87709D01*
X88268Y87675D01*
X88240Y87619D01*
X88219Y87564D01*
X88205Y87494D01*
X88198Y87418D01*
Y87411D01*
Y87397D01*
X88205Y87369D01*
Y87342D01*
X88226Y87265D01*
X88268Y87175D01*
X88296Y87126D01*
X88330Y87078D01*
X88372Y87036D01*
X88420Y87002D01*
X88483Y86974D01*
X88552Y86946D01*
X88635Y86932D01*
X88726Y86925D01*
X88767D01*
X88816Y86932D01*
X88872Y86946D01*
X88934Y86960D01*
X89003Y86981D01*
X89073Y87015D01*
X89128Y87064D01*
X89135Y87071D01*
X89149Y87092D01*
X89177Y87120D01*
X89205Y87161D01*
X89232Y87217D01*
X89260Y87272D01*
X89274Y87342D01*
X89281Y87418D01*
Y87425D01*
Y87453D01*
X89274Y87487D01*
X89267Y87529D01*
X89246Y87585D01*
X89225Y87640D01*
X89191Y87696D01*
X89142Y87751D01*
X89135Y87758D01*
X89114Y87772D01*
X89087Y87800D01*
X89038Y87827D01*
X88982Y87855D01*
X88906Y87883D01*
X88823Y87897D01*
X88726Y87904D01*
D02*
G37*
G36*
X38059Y36671D02*
X37745Y35646D01*
X38368D01*
X38059Y36671D01*
D02*
G37*
G36*
X76143Y88695D02*
X75713D01*
Y85926D01*
X76192D01*
X76227Y85933D01*
X76275Y85940D01*
X76331Y85947D01*
X76449Y85981D01*
X76588Y86030D01*
X76657Y86065D01*
X76727Y86099D01*
X76789Y86148D01*
X76858Y86203D01*
X76914Y86266D01*
X76969Y86342D01*
Y86349D01*
X76983Y86363D01*
X76997Y86384D01*
X77011Y86419D01*
X77032Y86460D01*
X77060Y86509D01*
X77080Y86564D01*
X77108Y86627D01*
X77157Y86773D01*
X77205Y86939D01*
X77233Y87126D01*
X77247Y87335D01*
Y87342D01*
Y87356D01*
Y87376D01*
Y87404D01*
X77240Y87480D01*
X77226Y87578D01*
X77205Y87696D01*
X77178Y87821D01*
X77143Y87945D01*
X77087Y88077D01*
Y88084D01*
X77080Y88091D01*
X77060Y88133D01*
X77025Y88195D01*
X76983Y88265D01*
X76928Y88341D01*
X76858Y88424D01*
X76782Y88494D01*
X76699Y88556D01*
X76692Y88563D01*
X76657Y88577D01*
X76609Y88598D01*
X76546Y88626D01*
X76463Y88653D01*
X76366Y88674D01*
X76262Y88688D01*
X76143Y88695D01*
D02*
G37*
G36*
X151405Y173671D02*
X151091Y172646D01*
X151715D01*
X151405Y173671D01*
D02*
G37*
G36*
X33309Y26653D02*
X33293D01*
X33270Y26648D01*
X33243D01*
X33171Y26626D01*
X33132Y26609D01*
X33087Y26587D01*
X33043Y26559D01*
X33004Y26520D01*
X32960Y26481D01*
X32921Y26426D01*
X32888Y26365D01*
X32860Y26293D01*
X32838Y26209D01*
X32827Y26115D01*
X33753D01*
Y26121D01*
Y26137D01*
X33748Y26165D01*
X33742Y26198D01*
X33731Y26243D01*
X33720Y26287D01*
X33681Y26387D01*
X33659Y26437D01*
X33626Y26481D01*
X33593Y26531D01*
X33548Y26570D01*
X33504Y26603D01*
X33443Y26631D01*
X33382Y26648D01*
X33309Y26653D01*
D02*
G37*
G36*
X45081Y173986D02*
X45072D01*
X45039Y173981D01*
X44998Y173972D01*
X44947Y173958D01*
X44891Y173930D01*
X44831Y173889D01*
X44808Y173865D01*
X44780Y173833D01*
X44757Y173801D01*
X44739Y173759D01*
Y173755D01*
X44734Y173750D01*
X44730Y173736D01*
X44725Y173713D01*
X44716Y173690D01*
X44711Y173658D01*
X44702Y173621D01*
X44693Y173574D01*
X44684Y173524D01*
X44674Y173468D01*
X44670Y173403D01*
X44660Y173329D01*
X44656Y173251D01*
X44651Y173163D01*
X44647Y173071D01*
Y172969D01*
Y172965D01*
Y172946D01*
Y172914D01*
Y172877D01*
X44651Y172831D01*
Y172780D01*
X44656Y172720D01*
X44660Y172660D01*
X44670Y172526D01*
X44688Y172396D01*
X44697Y172336D01*
X44711Y172276D01*
X44725Y172225D01*
X44744Y172179D01*
X44748Y172170D01*
X44762Y172147D01*
X44790Y172110D01*
X44822Y172073D01*
X44868Y172031D01*
X44928Y171994D01*
X44998Y171971D01*
X45035Y171967D01*
X45076Y171962D01*
X45085D01*
X45113Y171967D01*
X45155Y171976D01*
X45206Y171990D01*
X45261Y172017D01*
X45316Y172054D01*
X45367Y172110D01*
X45390Y172142D01*
X45409Y172179D01*
Y172184D01*
X45414Y172188D01*
X45418Y172202D01*
X45427Y172221D01*
X45432Y172248D01*
X45441Y172276D01*
X45450Y172313D01*
X45464Y172355D01*
X45474Y172406D01*
X45483Y172461D01*
X45492Y172521D01*
X45497Y172590D01*
X45506Y172669D01*
X45511Y172752D01*
X45515Y172844D01*
Y172941D01*
Y172951D01*
Y172969D01*
Y172997D01*
Y173038D01*
X45511Y173089D01*
Y173145D01*
X45506Y173205D01*
X45501Y173269D01*
X45492Y173408D01*
X45474Y173542D01*
X45460Y173607D01*
X45446Y173667D01*
X45432Y173718D01*
X45414Y173764D01*
Y173768D01*
X45409Y173773D01*
X45395Y173801D01*
X45367Y173833D01*
X45335Y173875D01*
X45289Y173916D01*
X45229Y173953D01*
X45159Y173976D01*
X45122Y173981D01*
X45081Y173986D01*
D02*
G37*
G36*
X43954Y27486D02*
X43943D01*
X43904Y27480D01*
X43854Y27469D01*
X43793Y27453D01*
X43727Y27419D01*
X43655Y27369D01*
X43627Y27342D01*
X43593Y27303D01*
X43566Y27264D01*
X43544Y27214D01*
Y27208D01*
X43538Y27203D01*
X43532Y27186D01*
X43527Y27158D01*
X43516Y27131D01*
X43510Y27092D01*
X43499Y27047D01*
X43488Y26992D01*
X43477Y26931D01*
X43466Y26864D01*
X43460Y26787D01*
X43449Y26698D01*
X43444Y26603D01*
X43438Y26498D01*
X43433Y26387D01*
Y26265D01*
Y26259D01*
Y26237D01*
Y26198D01*
Y26154D01*
X43438Y26098D01*
Y26037D01*
X43444Y25965D01*
X43449Y25893D01*
X43460Y25732D01*
X43483Y25577D01*
X43494Y25505D01*
X43510Y25432D01*
X43527Y25371D01*
X43549Y25316D01*
X43555Y25305D01*
X43571Y25277D01*
X43605Y25233D01*
X43644Y25188D01*
X43699Y25138D01*
X43771Y25094D01*
X43854Y25066D01*
X43899Y25061D01*
X43949Y25055D01*
X43960D01*
X43993Y25061D01*
X44043Y25072D01*
X44104Y25088D01*
X44171Y25122D01*
X44237Y25166D01*
X44298Y25233D01*
X44326Y25271D01*
X44348Y25316D01*
Y25321D01*
X44354Y25327D01*
X44359Y25344D01*
X44370Y25366D01*
X44376Y25399D01*
X44387Y25432D01*
X44398Y25477D01*
X44415Y25527D01*
X44426Y25588D01*
X44437Y25654D01*
X44448Y25727D01*
X44454Y25810D01*
X44465Y25904D01*
X44470Y26004D01*
X44476Y26115D01*
Y26232D01*
Y26243D01*
Y26265D01*
Y26298D01*
Y26348D01*
X44470Y26409D01*
Y26476D01*
X44465Y26548D01*
X44459Y26626D01*
X44448Y26792D01*
X44426Y26953D01*
X44409Y27031D01*
X44393Y27103D01*
X44376Y27164D01*
X44354Y27220D01*
Y27225D01*
X44348Y27231D01*
X44332Y27264D01*
X44298Y27303D01*
X44260Y27353D01*
X44204Y27403D01*
X44132Y27447D01*
X44049Y27475D01*
X44004Y27480D01*
X43954Y27486D01*
D02*
G37*
G36*
X27987Y26653D02*
X27970D01*
X27948Y26648D01*
X27920D01*
X27848Y26626D01*
X27809Y26609D01*
X27765Y26587D01*
X27720Y26559D01*
X27682Y26520D01*
X27637Y26481D01*
X27599Y26426D01*
X27565Y26365D01*
X27537Y26293D01*
X27515Y26209D01*
X27504Y26115D01*
X28431D01*
Y26121D01*
Y26137D01*
X28425Y26165D01*
X28420Y26198D01*
X28409Y26243D01*
X28398Y26287D01*
X28359Y26387D01*
X28337Y26437D01*
X28303Y26481D01*
X28270Y26531D01*
X28226Y26570D01*
X28181Y26603D01*
X28120Y26631D01*
X28059Y26648D01*
X27987Y26653D01*
D02*
G37*
G36*
X156954Y173986D02*
X156944D01*
X156912Y173981D01*
X156870Y173972D01*
X156820Y173958D01*
X156764Y173930D01*
X156704Y173889D01*
X156681Y173865D01*
X156653Y173833D01*
X156630Y173801D01*
X156612Y173759D01*
Y173755D01*
X156607Y173750D01*
X156602Y173736D01*
X156598Y173713D01*
X156589Y173690D01*
X156584Y173658D01*
X156575Y173621D01*
X156565Y173574D01*
X156556Y173524D01*
X156547Y173468D01*
X156542Y173403D01*
X156533Y173329D01*
X156528Y173251D01*
X156524Y173163D01*
X156519Y173071D01*
Y172969D01*
Y172965D01*
Y172946D01*
Y172914D01*
Y172877D01*
X156524Y172831D01*
Y172780D01*
X156528Y172720D01*
X156533Y172660D01*
X156542Y172526D01*
X156561Y172396D01*
X156570Y172336D01*
X156584Y172276D01*
X156598Y172225D01*
X156616Y172179D01*
X156621Y172170D01*
X156635Y172147D01*
X156662Y172110D01*
X156695Y172073D01*
X156741Y172031D01*
X156801Y171994D01*
X156870Y171971D01*
X156907Y171967D01*
X156949Y171962D01*
X156958D01*
X156986Y171967D01*
X157027Y171976D01*
X157078Y171990D01*
X157134Y172017D01*
X157189Y172054D01*
X157240Y172110D01*
X157263Y172142D01*
X157282Y172179D01*
Y172184D01*
X157286Y172188D01*
X157291Y172202D01*
X157300Y172221D01*
X157305Y172248D01*
X157314Y172276D01*
X157323Y172313D01*
X157337Y172355D01*
X157346Y172406D01*
X157355Y172461D01*
X157365Y172521D01*
X157369Y172590D01*
X157379Y172669D01*
X157383Y172752D01*
X157388Y172844D01*
Y172941D01*
Y172951D01*
Y172969D01*
Y172997D01*
Y173038D01*
X157383Y173089D01*
Y173145D01*
X157379Y173205D01*
X157374Y173269D01*
X157365Y173408D01*
X157346Y173542D01*
X157332Y173607D01*
X157318Y173667D01*
X157305Y173718D01*
X157286Y173764D01*
Y173768D01*
X157282Y173773D01*
X157268Y173801D01*
X157240Y173833D01*
X157208Y173875D01*
X157161Y173916D01*
X157101Y173953D01*
X157032Y173976D01*
X156995Y173981D01*
X156954Y173986D01*
D02*
G37*
G36*
X24823Y27392D02*
X24241D01*
Y26493D01*
X24829D01*
X24884Y26498D01*
X25001Y26509D01*
X25056Y26515D01*
X25101Y26526D01*
X25106D01*
X25123Y26531D01*
X25145Y26542D01*
X25173Y26559D01*
X25201Y26576D01*
X25240Y26603D01*
X25273Y26637D01*
X25306Y26676D01*
X25312Y26681D01*
X25323Y26698D01*
X25334Y26720D01*
X25351Y26759D01*
X25367Y26798D01*
X25384Y26842D01*
X25390Y26898D01*
X25395Y26953D01*
Y26959D01*
Y26981D01*
X25390Y27009D01*
X25384Y27042D01*
X25373Y27086D01*
X25356Y27131D01*
X25334Y27175D01*
X25306Y27220D01*
X25301Y27225D01*
X25290Y27236D01*
X25273Y27258D01*
X25251Y27281D01*
X25190Y27330D01*
X25151Y27347D01*
X25112Y27364D01*
X25106D01*
X25090Y27369D01*
X25068Y27375D01*
X25029Y27380D01*
X24973D01*
X24907Y27386D01*
X24823Y27392D01*
D02*
G37*
G36*
X115397Y70540D02*
X115374D01*
X115346Y70536D01*
X115314Y70527D01*
X115272Y70513D01*
X115226Y70490D01*
X115180Y70462D01*
X115129Y70420D01*
X115078Y70369D01*
X115032Y70310D01*
X114986Y70231D01*
X114944Y70139D01*
X114912Y70032D01*
X114898Y69968D01*
X114884Y69903D01*
X114875Y69834D01*
X114866Y69755D01*
X114861Y69677D01*
Y69589D01*
Y69584D01*
Y69579D01*
Y69566D01*
Y69547D01*
X114866Y69501D01*
X114871Y69441D01*
X114880Y69367D01*
X114889Y69288D01*
X114908Y69201D01*
X114931Y69113D01*
X114958Y69025D01*
X114991Y68937D01*
X115037Y68859D01*
X115088Y68785D01*
X115148Y68725D01*
X115222Y68679D01*
X115259Y68660D01*
X115305Y68646D01*
X115346Y68642D01*
X115397Y68637D01*
X115420D01*
X115448Y68642D01*
X115480Y68651D01*
X115517Y68665D01*
X115563Y68688D01*
X115610Y68716D01*
X115661Y68757D01*
X115711Y68808D01*
X115758Y68868D01*
X115804Y68947D01*
X115841Y69039D01*
X115878Y69145D01*
X115892Y69205D01*
X115901Y69270D01*
X115910Y69344D01*
X115919Y69418D01*
X115924Y69496D01*
Y69584D01*
Y69589D01*
Y69593D01*
Y69607D01*
Y69626D01*
X115919Y69672D01*
X115915Y69732D01*
X115910Y69806D01*
X115896Y69889D01*
X115878Y69972D01*
X115859Y70065D01*
X115831Y70152D01*
X115795Y70240D01*
X115753Y70319D01*
X115702Y70393D01*
X115642Y70453D01*
X115573Y70499D01*
X115531Y70517D01*
X115490Y70531D01*
X115443Y70536D01*
X115397Y70540D01*
D02*
G37*
G36*
X11553Y94893D02*
X11267D01*
Y93050D01*
X11586D01*
X11609Y93054D01*
X11641Y93059D01*
X11678Y93064D01*
X11756Y93087D01*
X11849Y93119D01*
X11895Y93142D01*
X11941Y93165D01*
X11983Y93198D01*
X12029Y93235D01*
X12066Y93276D01*
X12103Y93327D01*
Y93332D01*
X12112Y93341D01*
X12122Y93355D01*
X12131Y93378D01*
X12145Y93405D01*
X12163Y93438D01*
X12177Y93475D01*
X12195Y93516D01*
X12228Y93613D01*
X12260Y93724D01*
X12279Y93849D01*
X12288Y93988D01*
Y93992D01*
Y94002D01*
Y94015D01*
Y94034D01*
X12283Y94085D01*
X12274Y94149D01*
X12260Y94228D01*
X12242Y94311D01*
X12218Y94394D01*
X12182Y94482D01*
Y94487D01*
X12177Y94491D01*
X12163Y94519D01*
X12140Y94560D01*
X12112Y94607D01*
X12075Y94657D01*
X12029Y94713D01*
X11978Y94759D01*
X11923Y94801D01*
X11918Y94805D01*
X11895Y94815D01*
X11863Y94828D01*
X11821Y94847D01*
X11766Y94865D01*
X11701Y94879D01*
X11632Y94889D01*
X11553Y94893D01*
D02*
G37*
G36*
X99628Y149991D02*
X99498D01*
X99452Y149986D01*
X99392Y149981D01*
X99318Y149977D01*
X99235Y149963D01*
X99152Y149944D01*
X99060Y149926D01*
X98972Y149898D01*
X98884Y149861D01*
X98805Y149820D01*
X98732Y149769D01*
X98672Y149709D01*
X98625Y149639D01*
X98607Y149598D01*
X98593Y149556D01*
X98588Y149510D01*
X98584Y149464D01*
Y149459D01*
Y149441D01*
X98588Y149413D01*
X98598Y149381D01*
X98611Y149339D01*
X98635Y149293D01*
X98662Y149247D01*
X98704Y149196D01*
X98755Y149145D01*
X98815Y149099D01*
X98893Y149053D01*
X98986Y149011D01*
X99092Y148979D01*
X99157Y148965D01*
X99221Y148951D01*
X99291Y148942D01*
X99369Y148933D01*
X99448Y148928D01*
X99577D01*
X99623Y148933D01*
X99683Y148937D01*
X99757Y148946D01*
X99836Y148956D01*
X99923Y148974D01*
X100011Y148997D01*
X100099Y149025D01*
X100187Y149057D01*
X100265Y149104D01*
X100339Y149154D01*
X100399Y149214D01*
X100446Y149288D01*
X100464Y149325D01*
X100478Y149372D01*
X100483Y149413D01*
X100487Y149464D01*
Y149469D01*
Y149487D01*
X100483Y149515D01*
X100473Y149547D01*
X100460Y149584D01*
X100436Y149630D01*
X100409Y149677D01*
X100367Y149727D01*
X100316Y149778D01*
X100256Y149824D01*
X100178Y149871D01*
X100085Y149908D01*
X99979Y149944D01*
X99919Y149958D01*
X99854Y149968D01*
X99780Y149977D01*
X99706Y149986D01*
X99628Y149991D01*
D02*
G37*
G36*
X187405Y173671D02*
X187091Y172646D01*
X187715D01*
X187405Y173671D01*
D02*
G37*
G36*
X118054Y70517D02*
X117767D01*
Y68674D01*
X118086D01*
X118109Y68679D01*
X118141Y68683D01*
X118178Y68688D01*
X118257Y68711D01*
X118349Y68743D01*
X118396Y68766D01*
X118442Y68789D01*
X118483Y68822D01*
X118530Y68859D01*
X118567Y68900D01*
X118604Y68951D01*
Y68956D01*
X118613Y68965D01*
X118622Y68979D01*
X118631Y69002D01*
X118645Y69030D01*
X118664Y69062D01*
X118677Y69099D01*
X118696Y69141D01*
X118728Y69238D01*
X118761Y69349D01*
X118779Y69473D01*
X118788Y69612D01*
Y69616D01*
Y69626D01*
Y69639D01*
Y69658D01*
X118784Y69709D01*
X118774Y69774D01*
X118761Y69852D01*
X118742Y69935D01*
X118719Y70018D01*
X118682Y70106D01*
Y70111D01*
X118677Y70115D01*
X118664Y70143D01*
X118640Y70185D01*
X118613Y70231D01*
X118576Y70282D01*
X118530Y70337D01*
X118479Y70383D01*
X118423Y70425D01*
X118419Y70430D01*
X118396Y70439D01*
X118363Y70453D01*
X118322Y70471D01*
X118266Y70490D01*
X118201Y70503D01*
X118132Y70513D01*
X118054Y70517D01*
D02*
G37*
G36*
X99512Y160353D02*
X99466D01*
X99415Y160349D01*
X99351Y160339D01*
X99272Y160326D01*
X99189Y160307D01*
X99106Y160284D01*
X99018Y160247D01*
X99013D01*
X99009Y160242D01*
X98981Y160229D01*
X98940Y160205D01*
X98893Y160178D01*
X98843Y160141D01*
X98787Y160095D01*
X98741Y160044D01*
X98699Y159988D01*
X98695Y159984D01*
X98685Y159961D01*
X98672Y159928D01*
X98653Y159887D01*
X98635Y159831D01*
X98621Y159767D01*
X98611Y159697D01*
X98607Y159619D01*
Y159332D01*
X100450D01*
Y159614D01*
Y159619D01*
Y159633D01*
Y159651D01*
X100446Y159674D01*
X100441Y159706D01*
X100436Y159743D01*
X100413Y159822D01*
X100381Y159914D01*
X100358Y159961D01*
X100335Y160007D01*
X100302Y160048D01*
X100265Y160095D01*
X100224Y160132D01*
X100173Y160169D01*
X100168D01*
X100159Y160178D01*
X100145Y160187D01*
X100122Y160196D01*
X100094Y160210D01*
X100062Y160229D01*
X100025Y160242D01*
X99984Y160261D01*
X99887Y160293D01*
X99776Y160326D01*
X99651Y160344D01*
X99512Y160353D01*
D02*
G37*
G36*
X84206Y80661D02*
X84192D01*
X84165Y80655D01*
X84116Y80648D01*
X84047Y80641D01*
X83970Y80620D01*
X83887Y80599D01*
X83706Y80544D01*
X83519Y80467D01*
X83436Y80412D01*
X83359Y80356D01*
X83290Y80294D01*
X83242Y80217D01*
X83214Y80134D01*
X83200Y80044D01*
Y80037D01*
Y80016D01*
X83207Y79981D01*
X83214Y79940D01*
X83228Y79898D01*
X83242Y79843D01*
X83269Y79794D01*
X83304Y79745D01*
X83311Y79738D01*
X83325Y79725D01*
X83346Y79711D01*
X83380Y79690D01*
X83422Y79662D01*
X83477Y79648D01*
X83533Y79634D01*
X83602Y79627D01*
X83616D01*
X83644Y79634D01*
X83693Y79641D01*
X83755Y79655D01*
X83818Y79676D01*
X83894Y79718D01*
X83963Y79766D01*
X84033Y79836D01*
X84040Y79843D01*
X84061Y79877D01*
X84088Y79919D01*
X84123Y79981D01*
X84151Y80058D01*
X84179Y80148D01*
X84199Y80252D01*
X84206Y80363D01*
Y80661D01*
D02*
G37*
G36*
X76295Y82362D02*
X75823Y80821D01*
X76760D01*
X76295Y82362D01*
D02*
G37*
G36*
X150464Y107367D02*
X150438D01*
X150403Y107358D01*
X150359Y107349D01*
X150297Y107323D01*
X150244Y107296D01*
X150174Y107252D01*
X150113Y107191D01*
X150051Y107121D01*
X149981Y107033D01*
X149928Y106918D01*
X149875Y106786D01*
X149822Y106628D01*
X149787Y106444D01*
X149770Y106233D01*
X149761Y105986D01*
Y105969D01*
Y105934D01*
X149770Y105872D01*
Y105793D01*
X149778Y105705D01*
X149796Y105600D01*
X149840Y105380D01*
X149875Y105266D01*
X149919Y105160D01*
X149972Y105055D01*
X150042Y104967D01*
X150113Y104888D01*
X150200Y104826D01*
X150306Y104791D01*
X150420Y104773D01*
X150464D01*
X150508Y104782D01*
X150570Y104800D01*
X150640Y104826D01*
X150719Y104870D01*
X150798Y104923D01*
X150868Y104993D01*
X150877Y105002D01*
X150895Y105037D01*
X150930Y105081D01*
X150965Y105151D01*
X151000Y105239D01*
X151035Y105354D01*
X151053Y105477D01*
X151062Y105617D01*
Y106391D01*
Y106400D01*
Y106435D01*
Y106479D01*
X151053Y106540D01*
X151044Y106619D01*
X151027Y106699D01*
X150992Y106883D01*
X150912Y107059D01*
X150868Y107138D01*
X150807Y107217D01*
X150745Y107279D01*
X150657Y107323D01*
X150570Y107358D01*
X150464Y107367D01*
D02*
G37*
G36*
X101688Y81758D02*
X101667D01*
X101639Y81751D01*
X101605Y81744D01*
X101556Y81723D01*
X101515Y81703D01*
X101459Y81668D01*
X101410Y81619D01*
X101362Y81564D01*
X101306Y81494D01*
X101265Y81404D01*
X101223Y81300D01*
X101181Y81175D01*
X101154Y81029D01*
X101140Y80863D01*
X101133Y80668D01*
Y80655D01*
Y80627D01*
X101140Y80578D01*
Y80516D01*
X101147Y80446D01*
X101161Y80363D01*
X101195Y80190D01*
X101223Y80099D01*
X101258Y80016D01*
X101299Y79933D01*
X101355Y79863D01*
X101410Y79801D01*
X101480Y79752D01*
X101563Y79725D01*
X101653Y79711D01*
X101688D01*
X101723Y79718D01*
X101771Y79732D01*
X101827Y79752D01*
X101889Y79787D01*
X101952Y79829D01*
X102007Y79884D01*
X102014Y79891D01*
X102028Y79919D01*
X102056Y79954D01*
X102084Y80009D01*
X102111Y80079D01*
X102139Y80169D01*
X102153Y80266D01*
X102160Y80377D01*
Y80988D01*
Y80995D01*
Y81022D01*
Y81057D01*
X102153Y81106D01*
X102146Y81168D01*
X102132Y81231D01*
X102104Y81376D01*
X102042Y81515D01*
X102007Y81578D01*
X101959Y81640D01*
X101910Y81689D01*
X101841Y81723D01*
X101771Y81751D01*
X101688Y81758D01*
D02*
G37*
G36*
X88108Y85121D02*
X88066D01*
X88032Y85114D01*
X87990Y85093D01*
X87928Y85051D01*
X87914Y85037D01*
X87886Y85003D01*
X87858Y84940D01*
X87851Y84906D01*
X87844Y84864D01*
Y84857D01*
X87851Y84829D01*
X87858Y84788D01*
X87879Y84746D01*
X87914Y84698D01*
X87962Y84656D01*
X88032Y84614D01*
X88122Y84586D01*
X88136D01*
X88170Y84579D01*
X88233Y84573D01*
X88309Y84559D01*
X88406Y84552D01*
X88517Y84538D01*
X88643Y84531D01*
X88899D01*
X88948Y84538D01*
X89052D01*
X89170Y84552D01*
X89281Y84566D01*
X89385Y84579D01*
X89475Y84607D01*
X89482Y84614D01*
X89510Y84621D01*
X89538Y84642D01*
X89579Y84670D01*
X89614Y84698D01*
X89649Y84739D01*
X89670Y84795D01*
X89676Y84850D01*
Y84857D01*
Y84871D01*
X89670Y84892D01*
X89656Y84920D01*
X89635Y84954D01*
X89607Y84982D01*
X89565Y85017D01*
X89510Y85044D01*
X89503D01*
X89475Y85051D01*
X89447Y85058D01*
X89420Y85065D01*
X89385Y85072D01*
X89337Y85079D01*
X89281D01*
X89218Y85086D01*
X89149Y85093D01*
X89066Y85100D01*
X88969D01*
X88864Y85107D01*
X88622D01*
X88427Y85100D01*
X88247D01*
X88212Y85107D01*
X88178D01*
X88150Y85114D01*
X88108Y85121D01*
D02*
G37*
G36*
X12705Y173986D02*
X12695D01*
X12663Y173981D01*
X12621Y173972D01*
X12571Y173958D01*
X12515Y173930D01*
X12455Y173889D01*
X12432Y173865D01*
X12404Y173833D01*
X12381Y173801D01*
X12363Y173759D01*
Y173755D01*
X12358Y173750D01*
X12353Y173736D01*
X12349Y173713D01*
X12340Y173690D01*
X12335Y173658D01*
X12326Y173621D01*
X12317Y173574D01*
X12307Y173524D01*
X12298Y173468D01*
X12293Y173403D01*
X12284Y173329D01*
X12280Y173251D01*
X12275Y173163D01*
X12270Y173071D01*
Y172969D01*
Y172965D01*
Y172946D01*
Y172914D01*
Y172877D01*
X12275Y172831D01*
Y172780D01*
X12280Y172720D01*
X12284Y172660D01*
X12293Y172526D01*
X12312Y172396D01*
X12321Y172336D01*
X12335Y172276D01*
X12349Y172225D01*
X12367Y172179D01*
X12372Y172170D01*
X12386Y172147D01*
X12414Y172110D01*
X12446Y172073D01*
X12492Y172031D01*
X12552Y171994D01*
X12621Y171971D01*
X12659Y171967D01*
X12700Y171962D01*
X12709D01*
X12737Y171967D01*
X12779Y171976D01*
X12829Y171990D01*
X12885Y172017D01*
X12940Y172054D01*
X12991Y172110D01*
X13014Y172142D01*
X13033Y172179D01*
Y172184D01*
X13037Y172188D01*
X13042Y172202D01*
X13051Y172221D01*
X13056Y172248D01*
X13065Y172276D01*
X13074Y172313D01*
X13088Y172355D01*
X13097Y172406D01*
X13107Y172461D01*
X13116Y172521D01*
X13121Y172590D01*
X13130Y172669D01*
X13134Y172752D01*
X13139Y172844D01*
Y172941D01*
Y172951D01*
Y172969D01*
Y172997D01*
Y173038D01*
X13134Y173089D01*
Y173145D01*
X13130Y173205D01*
X13125Y173269D01*
X13116Y173408D01*
X13097Y173542D01*
X13083Y173607D01*
X13070Y173667D01*
X13056Y173718D01*
X13037Y173764D01*
Y173768D01*
X13033Y173773D01*
X13019Y173801D01*
X12991Y173833D01*
X12959Y173875D01*
X12913Y173916D01*
X12853Y173953D01*
X12783Y173976D01*
X12746Y173981D01*
X12705Y173986D01*
D02*
G37*
G36*
X116311Y82716D02*
X115582D01*
Y81591D01*
X116318D01*
X116387Y81598D01*
X116533Y81612D01*
X116602Y81619D01*
X116658Y81633D01*
X116665D01*
X116685Y81640D01*
X116713Y81654D01*
X116748Y81675D01*
X116783Y81696D01*
X116831Y81730D01*
X116873Y81772D01*
X116914Y81820D01*
X116921Y81827D01*
X116935Y81848D01*
X116949Y81876D01*
X116970Y81925D01*
X116991Y81973D01*
X117012Y82029D01*
X117018Y82098D01*
X117025Y82168D01*
Y82174D01*
Y82202D01*
X117018Y82237D01*
X117012Y82279D01*
X116998Y82334D01*
X116977Y82390D01*
X116949Y82445D01*
X116914Y82501D01*
X116908Y82507D01*
X116894Y82521D01*
X116873Y82549D01*
X116845Y82577D01*
X116769Y82639D01*
X116720Y82660D01*
X116672Y82681D01*
X116665D01*
X116644Y82688D01*
X116616Y82695D01*
X116567Y82702D01*
X116498D01*
X116415Y82709D01*
X116311Y82716D01*
D02*
G37*
G36*
X189922Y108729D02*
X189905D01*
X189843Y108720D01*
X189764Y108703D01*
X189668Y108676D01*
X189562Y108624D01*
X189448Y108544D01*
X189404Y108501D01*
X189351Y108439D01*
X189307Y108377D01*
X189272Y108298D01*
Y108290D01*
X189263Y108281D01*
X189254Y108254D01*
X189246Y108210D01*
X189228Y108167D01*
X189219Y108105D01*
X189202Y108035D01*
X189184Y107947D01*
X189166Y107850D01*
X189149Y107745D01*
X189140Y107622D01*
X189123Y107481D01*
X189114Y107331D01*
X189105Y107164D01*
X189096Y106989D01*
Y106795D01*
Y106786D01*
Y106751D01*
Y106690D01*
Y106619D01*
X189105Y106532D01*
Y106435D01*
X189114Y106321D01*
X189123Y106206D01*
X189140Y105951D01*
X189175Y105705D01*
X189193Y105591D01*
X189219Y105477D01*
X189246Y105380D01*
X189281Y105292D01*
X189290Y105274D01*
X189316Y105231D01*
X189369Y105160D01*
X189430Y105090D01*
X189518Y105011D01*
X189632Y104940D01*
X189764Y104897D01*
X189835Y104888D01*
X189914Y104879D01*
X189931D01*
X189984Y104888D01*
X190063Y104905D01*
X190160Y104932D01*
X190265Y104984D01*
X190371Y105055D01*
X190467Y105160D01*
X190511Y105222D01*
X190547Y105292D01*
Y105301D01*
X190555Y105310D01*
X190564Y105336D01*
X190582Y105371D01*
X190591Y105424D01*
X190608Y105477D01*
X190626Y105547D01*
X190652Y105626D01*
X190670Y105723D01*
X190687Y105828D01*
X190705Y105943D01*
X190714Y106074D01*
X190731Y106224D01*
X190740Y106382D01*
X190749Y106558D01*
Y106743D01*
Y106760D01*
Y106795D01*
Y106848D01*
Y106927D01*
X190740Y107024D01*
Y107129D01*
X190731Y107244D01*
X190722Y107367D01*
X190705Y107630D01*
X190670Y107885D01*
X190643Y108008D01*
X190617Y108123D01*
X190591Y108219D01*
X190555Y108307D01*
Y108316D01*
X190547Y108325D01*
X190520Y108377D01*
X190467Y108439D01*
X190406Y108518D01*
X190318Y108597D01*
X190204Y108668D01*
X190072Y108711D01*
X190002Y108720D01*
X189922Y108729D01*
D02*
G37*
G36*
X111036Y80661D02*
X111022D01*
X110995Y80655D01*
X110946Y80648D01*
X110877Y80641D01*
X110800Y80620D01*
X110717Y80599D01*
X110537Y80544D01*
X110349Y80467D01*
X110266Y80412D01*
X110190Y80356D01*
X110120Y80294D01*
X110072Y80217D01*
X110044Y80134D01*
X110030Y80044D01*
Y80037D01*
Y80016D01*
X110037Y79981D01*
X110044Y79940D01*
X110058Y79898D01*
X110072Y79843D01*
X110099Y79794D01*
X110134Y79745D01*
X110141Y79738D01*
X110155Y79725D01*
X110176Y79711D01*
X110210Y79690D01*
X110252Y79662D01*
X110308Y79648D01*
X110363Y79634D01*
X110433Y79627D01*
X110446D01*
X110474Y79634D01*
X110523Y79641D01*
X110585Y79655D01*
X110648Y79676D01*
X110724Y79718D01*
X110793Y79766D01*
X110863Y79836D01*
X110870Y79843D01*
X110890Y79877D01*
X110918Y79919D01*
X110953Y79981D01*
X110981Y80058D01*
X111009Y80148D01*
X111029Y80252D01*
X111036Y80363D01*
Y80661D01*
D02*
G37*
G36*
X105706D02*
X105693D01*
X105665Y80655D01*
X105616Y80648D01*
X105547Y80641D01*
X105470Y80620D01*
X105387Y80599D01*
X105207Y80544D01*
X105019Y80467D01*
X104936Y80412D01*
X104860Y80356D01*
X104790Y80294D01*
X104742Y80217D01*
X104714Y80134D01*
X104700Y80044D01*
Y80037D01*
Y80016D01*
X104707Y79981D01*
X104714Y79940D01*
X104728Y79898D01*
X104742Y79843D01*
X104769Y79794D01*
X104804Y79745D01*
X104811Y79738D01*
X104825Y79725D01*
X104846Y79711D01*
X104880Y79690D01*
X104922Y79662D01*
X104978Y79648D01*
X105033Y79634D01*
X105103Y79627D01*
X105116D01*
X105144Y79634D01*
X105193Y79641D01*
X105255Y79655D01*
X105318Y79676D01*
X105394Y79718D01*
X105463Y79766D01*
X105533Y79836D01*
X105540Y79843D01*
X105561Y79877D01*
X105588Y79919D01*
X105623Y79981D01*
X105651Y80058D01*
X105679Y80148D01*
X105699Y80252D01*
X105706Y80363D01*
Y80661D01*
D02*
G37*
G36*
X98558D02*
X98544D01*
X98516Y80655D01*
X98468Y80648D01*
X98399Y80641D01*
X98322Y80620D01*
X98239Y80599D01*
X98058Y80544D01*
X97871Y80467D01*
X97788Y80412D01*
X97711Y80356D01*
X97642Y80294D01*
X97593Y80217D01*
X97566Y80134D01*
X97552Y80044D01*
Y80037D01*
Y80016D01*
X97559Y79981D01*
X97566Y79940D01*
X97580Y79898D01*
X97593Y79843D01*
X97621Y79794D01*
X97656Y79745D01*
X97663Y79738D01*
X97677Y79725D01*
X97698Y79711D01*
X97732Y79690D01*
X97774Y79662D01*
X97829Y79648D01*
X97885Y79634D01*
X97954Y79627D01*
X97968D01*
X97996Y79634D01*
X98045Y79641D01*
X98107Y79655D01*
X98169Y79676D01*
X98246Y79718D01*
X98315Y79766D01*
X98385Y79836D01*
X98392Y79843D01*
X98412Y79877D01*
X98440Y79919D01*
X98475Y79981D01*
X98503Y80058D01*
X98530Y80148D01*
X98551Y80252D01*
X98558Y80363D01*
Y80661D01*
D02*
G37*
G36*
X80188Y81758D02*
X80167D01*
X80139Y81751D01*
X80105Y81744D01*
X80056Y81723D01*
X80014Y81703D01*
X79959Y81668D01*
X79910Y81619D01*
X79862Y81564D01*
X79806Y81494D01*
X79765Y81404D01*
X79723Y81300D01*
X79681Y81175D01*
X79654Y81029D01*
X79640Y80863D01*
X79633Y80668D01*
Y80655D01*
Y80627D01*
X79640Y80578D01*
Y80516D01*
X79647Y80446D01*
X79660Y80363D01*
X79695Y80190D01*
X79723Y80099D01*
X79758Y80016D01*
X79799Y79933D01*
X79855Y79863D01*
X79910Y79801D01*
X79980Y79752D01*
X80063Y79725D01*
X80153Y79711D01*
X80188D01*
X80223Y79718D01*
X80271Y79732D01*
X80327Y79752D01*
X80389Y79787D01*
X80452Y79829D01*
X80507Y79884D01*
X80514Y79891D01*
X80528Y79919D01*
X80556Y79954D01*
X80584Y80009D01*
X80611Y80079D01*
X80639Y80169D01*
X80653Y80266D01*
X80660Y80377D01*
Y80988D01*
Y80995D01*
Y81022D01*
Y81057D01*
X80653Y81106D01*
X80646Y81168D01*
X80632Y81231D01*
X80604Y81376D01*
X80542Y81515D01*
X80507Y81578D01*
X80459Y81640D01*
X80410Y81689D01*
X80341Y81723D01*
X80271Y81751D01*
X80188Y81758D01*
D02*
G37*
G36*
X155052Y107411D02*
X155026D01*
X154991Y107402D01*
X154947D01*
X154833Y107367D01*
X154771Y107340D01*
X154701Y107305D01*
X154631Y107261D01*
X154569Y107200D01*
X154499Y107138D01*
X154437Y107050D01*
X154385Y106953D01*
X154341Y106839D01*
X154305Y106707D01*
X154288Y106558D01*
X155756D01*
Y106567D01*
Y106593D01*
X155747Y106637D01*
X155738Y106690D01*
X155721Y106760D01*
X155703Y106830D01*
X155641Y106989D01*
X155606Y107068D01*
X155554Y107138D01*
X155501Y107217D01*
X155430Y107279D01*
X155360Y107331D01*
X155263Y107375D01*
X155167Y107402D01*
X155052Y107411D01*
D02*
G37*
G36*
X120211Y81793D02*
X120162D01*
X120114Y81779D01*
X120058Y81765D01*
X119989Y81737D01*
X119920Y81703D01*
X119850Y81647D01*
X119794Y81578D01*
X119788Y81571D01*
X119774Y81536D01*
X119753Y81480D01*
X119739Y81439D01*
X119732Y81397D01*
X119718Y81342D01*
X119704Y81279D01*
X119690Y81210D01*
X119684Y81133D01*
X119677Y81050D01*
X119670Y80953D01*
X119663Y80849D01*
Y80738D01*
Y80731D01*
Y80710D01*
Y80682D01*
Y80648D01*
X119670Y80599D01*
Y80544D01*
X119677Y80419D01*
X119690Y80287D01*
X119718Y80148D01*
X119746Y80016D01*
X119767Y79961D01*
X119788Y79912D01*
X119794Y79898D01*
X119815Y79870D01*
X119843Y79836D01*
X119892Y79787D01*
X119947Y79738D01*
X120017Y79704D01*
X120107Y79676D01*
X120204Y79662D01*
X120218D01*
X120246Y79669D01*
X120287Y79676D01*
X120343Y79690D01*
X120405Y79711D01*
X120475Y79752D01*
X120537Y79801D01*
X120600Y79870D01*
X120607Y79884D01*
X120620Y79912D01*
X120648Y79967D01*
X120662Y80009D01*
X120676Y80051D01*
X120690Y80106D01*
X120704Y80162D01*
X120718Y80231D01*
X120731Y80308D01*
X120738Y80391D01*
X120745Y80481D01*
X120752Y80578D01*
Y80689D01*
Y80696D01*
Y80717D01*
Y80752D01*
Y80793D01*
X120745Y80849D01*
Y80904D01*
X120738Y81043D01*
X120718Y81189D01*
X120697Y81328D01*
X120662Y81460D01*
X120641Y81515D01*
X120614Y81564D01*
X120607Y81571D01*
X120586Y81598D01*
X120558Y81633D01*
X120516Y81682D01*
X120461Y81723D01*
X120391Y81758D01*
X120308Y81786D01*
X120211Y81793D01*
D02*
G37*
%LPD*%
D33*
X31988Y144488D02*
Y155488D01*
Y144488D02*
X42988D01*
X31988Y155488D02*
X42988D01*
Y144488D02*
Y155488D01*
X68500Y144500D02*
Y155500D01*
X57500D02*
X68500D01*
X57500Y144500D02*
X68500D01*
X57500D02*
Y155500D01*
X129106Y136181D02*
Y142480D01*
X120150Y136870D02*
X122906D01*
X120150Y141890D02*
X122906D01*
X132039Y61720D02*
Y64476D01*
X127020Y61720D02*
Y64476D01*
D38*
X139937Y27689D02*
X146630D01*
Y48555D01*
X143874Y51311D02*
X146630Y48555D01*
X139937Y51311D02*
X143874D01*
X125370Y27689D02*
Y48555D01*
X128126Y51311D01*
X132063D01*
X125370Y27689D02*
X132063D01*
X192937D02*
X199630D01*
Y48555D01*
X196874Y51311D02*
X199630Y48555D01*
X192937Y51311D02*
X196874D01*
X178370Y27689D02*
Y48555D01*
X181126Y51311D01*
X185063D01*
X178370Y27689D02*
X185063D01*
X196689Y93370D02*
Y100063D01*
Y93370D02*
X217555D01*
X220311Y96126D01*
Y100063D01*
X196689Y114630D02*
X217555D01*
X220311Y111874D01*
Y107937D02*
Y111874D01*
X196689Y107937D02*
Y114630D01*
Y70370D02*
Y77063D01*
Y70370D02*
X217555D01*
X220311Y73126D01*
Y77063D01*
X196689Y91630D02*
X217555D01*
X220311Y88874D01*
Y84937D02*
Y88874D01*
X196689Y84937D02*
Y91630D01*
X142000Y145039D02*
Y174961D01*
X102000Y145039D02*
Y174961D01*
Y145039D02*
X142000D01*
X102000Y174961D02*
X142000D01*
X77095Y122331D02*
X88906D01*
X77095Y106189D02*
Y122331D01*
Y106189D02*
X88906D01*
Y122331D01*
D51*
X185303Y129386D02*
G03*
X185303Y129386I-492J0D01*
G01*
X149303D02*
G03*
X149303Y129386I-492J0D01*
G01*
X132776Y134614D02*
G03*
X132776Y134614I-492J0D01*
G01*
X102803Y106886D02*
G03*
X102803Y106886I-492J0D01*
G01*
X28339Y149949D02*
G03*
X28339Y149949I-492J0D01*
G01*
X53232Y90319D02*
G03*
X53232Y90319I-492J0D01*
G01*
X143504Y71280D02*
G03*
X143504Y71280I-492J0D01*
G01*
D52*
X91327Y165815D02*
G03*
X91327Y165815I-197J0D01*
G01*
X70228Y143331D02*
G03*
X70228Y143331I-197J0D01*
G01*
X44728Y153831D02*
G03*
X44728Y153831I-197J0D01*
G01*
Y142331D02*
G03*
X44728Y142331I-197J0D01*
G01*
X70228Y154831D02*
G03*
X70228Y154831I-197J0D01*
G01*
D53*
X45260Y96421D02*
G03*
X45260Y96421I-1181J0D01*
G01*
X148327Y80138D02*
G03*
X148327Y80138I-1181J0D01*
G01*
D54*
X59342Y64402D02*
G03*
X59342Y64402I-492J0D01*
G01*
D55*
X164900Y33600D02*
Y51400D01*
X175100Y33600D02*
Y51400D01*
X117378Y30213D02*
Y31787D01*
X114622Y30213D02*
Y31787D01*
X191213Y119622D02*
X192787D01*
X191213Y122378D02*
X192787D01*
X211189Y134898D02*
Y147102D01*
X184811Y134898D02*
Y147102D01*
X211189D01*
X184811Y134898D02*
X211189D01*
X175189D02*
Y147102D01*
X148811Y134898D02*
Y147102D01*
X175189D01*
X148811Y134898D02*
X175189D01*
X154713Y119122D02*
X156287D01*
X154713Y121878D02*
X156287D01*
X113213Y94378D02*
X114787D01*
X113213Y91622D02*
X114787D01*
X134713Y140378D02*
X136287D01*
X134713Y137622D02*
X136287D01*
X131595Y113945D02*
Y132055D01*
X143405Y113945D02*
Y132055D01*
X131595Y113945D02*
X132874D01*
X131595Y132055D02*
X132874D01*
X142126Y113945D02*
X143405D01*
X142126Y132055D02*
X143405D01*
X128689Y112398D02*
Y124602D01*
X102311Y112398D02*
Y124602D01*
X128689D01*
X102311Y112398D02*
X128689D01*
X93213Y171878D02*
X94787D01*
X93213Y169122D02*
X94787D01*
X94870Y164240D02*
X95756D01*
X94870Y156760D02*
X95756D01*
X90244Y164240D02*
X91130D01*
X90244Y156760D02*
X91130D01*
X95756D02*
Y164240D01*
X90244Y156760D02*
Y164240D01*
X73968Y136244D02*
Y141756D01*
X70031Y136244D02*
Y141756D01*
X78878Y138213D02*
Y139787D01*
X76122Y138213D02*
Y139787D01*
X78878Y148213D02*
Y149787D01*
X76122Y148213D02*
Y149787D01*
X48469Y146744D02*
Y152256D01*
X44532Y146744D02*
Y152256D01*
X48469Y135244D02*
Y140756D01*
X44532Y135244D02*
Y140756D01*
X53378Y137713D02*
Y139287D01*
X50622Y137713D02*
Y139287D01*
X53378Y147713D02*
Y149287D01*
X50622Y147713D02*
Y149287D01*
X7158Y136957D02*
Y144043D01*
X26842Y136957D02*
Y144043D01*
X7158Y136957D02*
X26842D01*
X7158Y144043D02*
X26842D01*
X24984Y115516D02*
X48016D01*
X24984Y92484D02*
X48016D01*
X24984D02*
Y115516D01*
X48016Y92484D02*
Y115516D01*
X39213Y72878D02*
X40787D01*
X39213Y70122D02*
X40787D01*
X49713Y70122D02*
X51287D01*
X49713Y72878D02*
X51287D01*
X91378Y49713D02*
Y51287D01*
X88622Y49713D02*
Y51287D01*
X190878Y63213D02*
Y64787D01*
X188122Y63213D02*
Y64787D01*
X149900Y33600D02*
Y51400D01*
X160100Y33600D02*
Y51400D01*
X73968Y147744D02*
Y153256D01*
X70031Y147744D02*
Y153256D01*
X105122Y94713D02*
Y96287D01*
X107878Y94713D02*
Y96287D01*
X181791Y76201D02*
Y88799D01*
X143209Y76201D02*
Y88799D01*
X7000Y160500D02*
Y170500D01*
X27000D01*
Y160500D02*
Y170500D01*
X7000Y160500D02*
X27000D01*
X63500D02*
Y170500D01*
X83500D01*
Y160500D02*
Y170500D01*
X63500Y160500D02*
X83500D01*
X35500D02*
Y170500D01*
X55500D01*
Y160500D02*
Y170500D01*
X35500Y160500D02*
X55500D01*
X3500Y91500D02*
X13500D01*
X3500Y31500D02*
X13500D01*
X3500D02*
Y91500D01*
X13500Y31500D02*
Y91500D01*
X204000Y160500D02*
Y170500D01*
X184000Y160500D02*
X204000D01*
X184000D02*
Y170500D01*
X204000D01*
X168000Y160500D02*
Y170500D01*
X148000Y160500D02*
X168000D01*
X148000D02*
Y170500D01*
X168000D01*
X121000Y37000D02*
Y67000D01*
X111000D02*
X121000D01*
X111000Y37000D02*
Y67000D01*
Y37000D02*
X121000D01*
X19000Y29000D02*
X29000D01*
X19000D02*
Y49000D01*
X29000D01*
Y29000D02*
Y49000D01*
X7500Y3000D02*
X77500D01*
X7500Y23000D02*
X77500D01*
X7500Y3000D02*
Y23000D01*
X77500Y3000D02*
Y23000D01*
X87500Y3000D02*
X217500D01*
X87500Y23000D02*
X217500D01*
X87500Y3000D02*
Y23000D01*
X217500Y3000D02*
Y23000D01*
D56*
X213300Y148700D02*
X217700D01*
X213244Y144878D02*
Y150122D01*
Y144878D02*
X217756Y144878D01*
X217756Y144878D02*
Y150122D01*
X213244Y150122D02*
X217756Y150122D01*
X177300Y148700D02*
X181700D01*
X177244Y144878D02*
Y150122D01*
Y144878D02*
X181756Y144878D01*
X181756Y144878D02*
Y150122D01*
X177244Y150122D02*
X181756Y150122D01*
X141500Y135999D02*
Y133000D01*
X142999D01*
X143499Y133500D01*
Y135499D01*
X142999Y135999D01*
X141500D01*
X146498Y133000D02*
X144499D01*
X146498Y134999D01*
Y135499D01*
X145999Y135999D01*
X144999D01*
X144499Y135499D01*
X111001Y136500D02*
X114000D01*
Y137999D01*
X113500Y138499D01*
X111501D01*
X111001Y137999D01*
Y136500D01*
X114000Y139499D02*
Y140499D01*
Y139999D01*
X111001D01*
X111501Y139499D01*
X186999Y154000D02*
Y155999D01*
X186500Y156499D01*
X185500D01*
X185000Y155999D01*
Y154000D01*
X185500Y153500D01*
X186500D01*
X186000Y154500D02*
X186999Y153500D01*
X186500D02*
X186999Y154000D01*
X187999Y155999D02*
X188499Y156499D01*
X189499D01*
X189998Y155999D01*
Y155499D01*
X189499Y154999D01*
X188999D01*
X189499D01*
X189998Y154500D01*
Y154000D01*
X189499Y153500D01*
X188499D01*
X187999Y154000D01*
X150999D02*
Y155999D01*
X150499Y156499D01*
X149500D01*
X149000Y155999D01*
Y154000D01*
X149500Y153500D01*
X150499D01*
X150000Y154500D02*
X150999Y153500D01*
X150499D02*
X150999Y154000D01*
X153998Y153500D02*
X151999D01*
X153998Y155499D01*
Y155999D01*
X153499Y156499D01*
X152499D01*
X151999Y155999D01*
X126499Y128000D02*
Y129999D01*
X125999Y130499D01*
X125000D01*
X124500Y129999D01*
Y128000D01*
X125000Y127500D01*
X125999D01*
X125500Y128500D02*
X126499Y127500D01*
X125999D02*
X126499Y128000D01*
X127499Y127500D02*
X128499D01*
X127999D01*
Y130499D01*
X127499Y129999D01*
X17500Y121999D02*
Y119500D01*
X18000Y119000D01*
X19000D01*
X19499Y119500D01*
Y121999D01*
X20499Y121499D02*
X20999Y121999D01*
X21999D01*
X22498Y121499D01*
Y120999D01*
X21999Y120500D01*
X21499D01*
X21999D01*
X22498Y120000D01*
Y119500D01*
X21999Y119000D01*
X20999D01*
X20499Y119500D01*
X36000Y74000D02*
Y76999D01*
X37499D01*
X37999Y76499D01*
Y75499D01*
X37499Y75000D01*
X36000D01*
X37000D02*
X37999Y74000D01*
X38999D02*
X39999D01*
X39499D01*
Y76999D01*
X38999Y76499D01*
X41498D02*
X41998Y76999D01*
X42998D01*
X43498Y76499D01*
Y75999D01*
X42998Y75499D01*
X43498Y75000D01*
Y74500D01*
X42998Y74000D01*
X41998D01*
X41498Y74500D01*
Y75000D01*
X41998Y75499D01*
X41498Y75999D01*
Y76499D01*
X41998Y75499D02*
X42998D01*
X23500Y158499D02*
Y156000D01*
X24000Y155500D01*
X24999D01*
X25499Y156000D01*
Y158499D01*
X28498Y155500D02*
X26499D01*
X28498Y157499D01*
Y157999D01*
X27999Y158499D01*
X26999D01*
X26499Y157999D01*
X209000Y157499D02*
Y154500D01*
X210500D01*
X210999Y155000D01*
Y156999D01*
X210500Y157499D01*
X209000D01*
X211999Y154500D02*
X212999D01*
X212499D01*
Y157499D01*
X211999Y156999D01*
X214498D02*
X214998Y157499D01*
X215998D01*
X216498Y156999D01*
Y155000D01*
X215998Y154500D01*
X214998D01*
X214498Y155000D01*
Y156999D01*
X177500Y157499D02*
Y154500D01*
X178999D01*
X179499Y155000D01*
Y156999D01*
X178999Y157499D01*
X177500D01*
X180499D02*
X182498D01*
Y156999D01*
X180499Y155000D01*
Y154500D01*
X69500Y132999D02*
Y130000D01*
X70999D01*
X71499Y130500D01*
Y132499D01*
X70999Y132999D01*
X69500D01*
X72499Y130500D02*
X72999Y130000D01*
X73998D01*
X74498Y130500D01*
Y132499D01*
X73998Y132999D01*
X72999D01*
X72499Y132499D01*
Y131999D01*
X72999Y131500D01*
X74498D01*
X69000Y159499D02*
Y156500D01*
X70499D01*
X70999Y157000D01*
Y158999D01*
X70499Y159499D01*
X69000D01*
X71999Y158999D02*
X72499Y159499D01*
X73499D01*
X73998Y158999D01*
Y158499D01*
X73499Y158000D01*
X73998Y157500D01*
Y157000D01*
X73499Y156500D01*
X72499D01*
X71999Y157000D01*
Y157500D01*
X72499Y158000D01*
X71999Y158499D01*
Y158999D01*
X72499Y158000D02*
X73499D01*
X44000Y131499D02*
Y128500D01*
X45500D01*
X45999Y129000D01*
Y130999D01*
X45500Y131499D01*
X44000D01*
X48998D02*
X47999Y130999D01*
X46999Y129999D01*
Y129000D01*
X47499Y128500D01*
X48499D01*
X48998Y129000D01*
Y129500D01*
X48499Y129999D01*
X46999D01*
X44000Y158999D02*
Y156000D01*
X45500D01*
X45999Y156500D01*
Y158499D01*
X45500Y158999D01*
X44000D01*
X48998D02*
X46999D01*
Y157500D01*
X47999Y157999D01*
X48499D01*
X48998Y157500D01*
Y156500D01*
X48499Y156000D01*
X47499D01*
X46999Y156500D01*
X92000Y152999D02*
Y150000D01*
X93499D01*
X93999Y150500D01*
Y152499D01*
X93499Y152999D01*
X92000D01*
X96499Y150000D02*
Y152999D01*
X94999Y151499D01*
X96998D01*
X46000Y74000D02*
Y76999D01*
X47499D01*
X47999Y76499D01*
Y75499D01*
X47499Y75000D01*
X46000D01*
X47000D02*
X47999Y74000D01*
X48999D02*
X49999D01*
X49499D01*
Y76999D01*
X48999Y76499D01*
X51498Y76999D02*
X53498D01*
Y76499D01*
X51498Y74500D01*
Y74000D01*
X86000Y42036D02*
Y45035D01*
X87499D01*
X87999Y44535D01*
Y43535D01*
X87499Y43035D01*
X86000D01*
X87000D02*
X87999Y42036D01*
X88999D02*
X89999D01*
X89499D01*
Y45035D01*
X88999Y44535D01*
X93498Y45035D02*
X92498Y44535D01*
X91498Y43535D01*
Y42535D01*
X91998Y42036D01*
X92998D01*
X93498Y42535D01*
Y43035D01*
X92998Y43535D01*
X91498D01*
X179000Y119500D02*
Y122499D01*
X180499D01*
X180999Y121999D01*
Y121000D01*
X180499Y120500D01*
X179000D01*
X180000D02*
X180999Y119500D01*
X181999D02*
X182999D01*
X182499D01*
Y122499D01*
X181999Y121999D01*
X186498Y122499D02*
X184498D01*
Y121000D01*
X185498Y121499D01*
X185998D01*
X186498Y121000D01*
Y120000D01*
X185998Y119500D01*
X184998D01*
X184498Y120000D01*
X80500Y150500D02*
Y153499D01*
X81999D01*
X82499Y152999D01*
Y151999D01*
X81999Y151500D01*
X80500D01*
X81500D02*
X82499Y150500D01*
X83499D02*
X84499D01*
X83999D01*
Y153499D01*
X83499Y152999D01*
X87498Y150500D02*
Y153499D01*
X85998Y151999D01*
X87998D01*
X161500Y119000D02*
Y121999D01*
X162999D01*
X163499Y121499D01*
Y120500D01*
X162999Y120000D01*
X161500D01*
X162500D02*
X163499Y119000D01*
X164499D02*
X165499D01*
X164999D01*
Y121999D01*
X164499Y121499D01*
X166998D02*
X167498Y121999D01*
X168498D01*
X168998Y121499D01*
Y120999D01*
X168498Y120500D01*
X167998D01*
X168498D01*
X168998Y120000D01*
Y119500D01*
X168498Y119000D01*
X167498D01*
X166998Y119500D01*
X80500Y140500D02*
Y143499D01*
X81999D01*
X82499Y142999D01*
Y141999D01*
X81999Y141500D01*
X80500D01*
X81500D02*
X82499Y140500D01*
X83499D02*
X84499D01*
X83999D01*
Y143499D01*
X83499Y142999D01*
X87998Y140500D02*
X85998D01*
X87998Y142499D01*
Y142999D01*
X87498Y143499D01*
X86498D01*
X85998Y142999D01*
X50000Y154000D02*
Y156999D01*
X51499D01*
X51999Y156499D01*
Y155499D01*
X51499Y155000D01*
X50000D01*
X51000D02*
X51999Y154000D01*
X52999D02*
X53999D01*
X53499D01*
Y156999D01*
X52999Y156499D01*
X55498Y154000D02*
X56498D01*
X55998D01*
Y156999D01*
X55498Y156499D01*
X50500Y130000D02*
Y132999D01*
X51999D01*
X52499Y132499D01*
Y131500D01*
X51999Y131000D01*
X50500D01*
X51500D02*
X52499Y130000D01*
X53499D02*
X54499D01*
X53999D01*
Y132999D01*
X53499Y132499D01*
X55998D02*
X56498Y132999D01*
X57498D01*
X57998Y132499D01*
Y130500D01*
X57498Y130000D01*
X56498D01*
X55998Y130500D01*
Y132499D01*
X83500Y171500D02*
Y174499D01*
X85000D01*
X85499Y173999D01*
Y173000D01*
X85000Y172500D01*
X83500D01*
X84500D02*
X85499Y171500D01*
X86499Y172000D02*
X86999Y171500D01*
X87999D01*
X88498Y172000D01*
Y173999D01*
X87999Y174499D01*
X86999D01*
X86499Y173999D01*
Y173499D01*
X86999Y173000D01*
X88498D01*
X112500Y96000D02*
X109501D01*
Y97500D01*
X110001Y97999D01*
X111001D01*
X111500Y97500D01*
Y96000D01*
Y97000D02*
X112500Y97999D01*
X110001Y98999D02*
X109501Y99499D01*
Y100499D01*
X110001Y100998D01*
X110501D01*
X111001Y100499D01*
X111500Y100998D01*
X112000D01*
X112500Y100499D01*
Y99499D01*
X112000Y98999D01*
X111500D01*
X111001Y99499D01*
X110501Y98999D01*
X110001D01*
X111001Y99499D02*
Y100499D01*
X104600Y102900D02*
Y105899D01*
X106099D01*
X106599Y105399D01*
Y104400D01*
X106099Y103900D01*
X104600D01*
X105600D02*
X106599Y102900D01*
X107599Y105899D02*
X109598D01*
Y105399D01*
X107599Y103400D01*
Y102900D01*
X140500Y137500D02*
Y140499D01*
X141999D01*
X142499Y139999D01*
Y138999D01*
X141999Y138500D01*
X140500D01*
X141500D02*
X142499Y137500D01*
X145498Y140499D02*
X144499Y139999D01*
X143499Y138999D01*
Y138000D01*
X143999Y137500D01*
X144999D01*
X145498Y138000D01*
Y138500D01*
X144999Y138999D01*
X143499D01*
X142500Y56000D02*
Y58999D01*
X144000D01*
X144499Y58499D01*
Y57499D01*
X144000Y57000D01*
X142500D01*
X143500D02*
X144499Y56000D01*
X147498Y58999D02*
X145499D01*
Y57499D01*
X146499Y57999D01*
X146999D01*
X147498Y57499D01*
Y56500D01*
X146999Y56000D01*
X145999D01*
X145499Y56500D01*
X177500Y56000D02*
Y58999D01*
X178999D01*
X179499Y58499D01*
Y57499D01*
X178999Y57000D01*
X177500D01*
X178500D02*
X179499Y56000D01*
X181999D02*
Y58999D01*
X180499Y57499D01*
X182498D01*
X108000Y32500D02*
Y35499D01*
X109500D01*
X109999Y34999D01*
Y33999D01*
X109500Y33500D01*
X108000D01*
X109000D02*
X109999Y32500D01*
X110999Y34999D02*
X111499Y35499D01*
X112499D01*
X112998Y34999D01*
Y34499D01*
X112499Y33999D01*
X111999D01*
X112499D01*
X112998Y33500D01*
Y33000D01*
X112499Y32500D01*
X111499D01*
X110999Y33000D01*
X126500Y68618D02*
Y71617D01*
X127999D01*
X128499Y71117D01*
Y70117D01*
X127999Y69617D01*
X126500D01*
X127500D02*
X128499Y68618D01*
X131498D02*
X129499D01*
X131498Y70617D01*
Y71117D01*
X130999Y71617D01*
X129999D01*
X129499Y71117D01*
X187500Y70000D02*
Y72999D01*
X188999D01*
X189499Y72499D01*
Y71500D01*
X188999Y71000D01*
X187500D01*
X188500D02*
X189499Y70000D01*
X190499D02*
X191499D01*
X190999D01*
Y72999D01*
X190499Y72499D01*
X57501Y101499D02*
X57001Y100999D01*
Y100000D01*
X57501Y99500D01*
X59500D01*
X60000Y100000D01*
Y100999D01*
X59500Y101499D01*
X60000Y104498D02*
Y102499D01*
X58001Y104498D01*
X57501D01*
X57001Y103999D01*
Y102999D01*
X57501Y102499D01*
Y105498D02*
X57001Y105998D01*
Y106998D01*
X57501Y107497D01*
X59500D01*
X60000Y106998D01*
Y105998D01*
X59500Y105498D01*
X57501D01*
X69499Y110999D02*
X68999Y111499D01*
X68000D01*
X67500Y110999D01*
Y109000D01*
X68000Y108500D01*
X68999D01*
X69499Y109000D01*
X70499Y108500D02*
X71499D01*
X70999D01*
Y111499D01*
X70499Y110999D01*
X72998Y109000D02*
X73498Y108500D01*
X74498D01*
X74998Y109000D01*
Y110999D01*
X74498Y111499D01*
X73498D01*
X72998Y110999D01*
Y110499D01*
X73498Y110000D01*
X74998D01*
X58999Y87499D02*
X58499Y87999D01*
X57500D01*
X57000Y87499D01*
Y85500D01*
X57500Y85000D01*
X58499D01*
X58999Y85500D01*
X59999Y85000D02*
X60999D01*
X60499D01*
Y87999D01*
X59999Y87499D01*
X62498D02*
X62998Y87999D01*
X63998D01*
X64498Y87499D01*
Y86999D01*
X63998Y86500D01*
X64498Y86000D01*
Y85500D01*
X63998Y85000D01*
X62998D01*
X62498Y85500D01*
Y86000D01*
X62998Y86500D01*
X62498Y86999D01*
Y87499D01*
X62998Y86500D02*
X63998D01*
X68499Y86999D02*
X68000Y87499D01*
X67000D01*
X66500Y86999D01*
Y85000D01*
X67000Y84500D01*
X68000D01*
X68499Y85000D01*
X69499Y84500D02*
X70499D01*
X69999D01*
Y87499D01*
X69499Y86999D01*
X71998Y87499D02*
X73998D01*
Y86999D01*
X71998Y85000D01*
Y84500D01*
X10999Y111999D02*
X10499Y112499D01*
X9500D01*
X9000Y111999D01*
Y110000D01*
X9500Y109500D01*
X10499D01*
X10999Y110000D01*
X11999Y109500D02*
X12999D01*
X12499D01*
Y112499D01*
X11999Y111999D01*
X16498Y112499D02*
X15498Y111999D01*
X14498Y111000D01*
Y110000D01*
X14998Y109500D01*
X15998D01*
X16498Y110000D01*
Y110500D01*
X15998Y111000D01*
X14498D01*
X2499Y111999D02*
X2000Y112499D01*
X1000D01*
X500Y111999D01*
Y110000D01*
X1000Y109500D01*
X2000D01*
X2499Y110000D01*
X3499Y109500D02*
X4499D01*
X3999D01*
Y112499D01*
X3499Y111999D01*
X7998Y112499D02*
X5998D01*
Y111000D01*
X6998Y111499D01*
X7498D01*
X7998Y111000D01*
Y110000D01*
X7498Y109500D01*
X6498D01*
X5998Y110000D01*
X69999Y123999D02*
X69499Y124499D01*
X68500D01*
X68000Y123999D01*
Y122000D01*
X68500Y121500D01*
X69499D01*
X69999Y122000D01*
X70999Y121500D02*
X71999D01*
X71499D01*
Y124499D01*
X70999Y123999D01*
X74998Y121500D02*
Y124499D01*
X73498Y123000D01*
X75498D01*
X60999Y121999D02*
X60500Y122499D01*
X59500D01*
X59000Y121999D01*
Y120000D01*
X59500Y119500D01*
X60500D01*
X60999Y120000D01*
X61999Y119500D02*
X62999D01*
X62499D01*
Y122499D01*
X61999Y121999D01*
X64498D02*
X64998Y122499D01*
X65998D01*
X66498Y121999D01*
Y121499D01*
X65998Y121000D01*
X65498D01*
X65998D01*
X66498Y120500D01*
Y120000D01*
X65998Y119500D01*
X64998D01*
X64498Y120000D01*
X87999Y70535D02*
X87499Y71035D01*
X86500D01*
X86000Y70535D01*
Y68535D01*
X86500Y68036D01*
X87499D01*
X87999Y68535D01*
X88999Y68036D02*
X89999D01*
X89499D01*
Y71035D01*
X88999Y70535D01*
X93498Y68036D02*
X91498D01*
X93498Y70035D01*
Y70535D01*
X92998Y71035D01*
X91998D01*
X91498Y70535D01*
X2501Y134499D02*
X2001Y134000D01*
Y133000D01*
X2501Y132500D01*
X4500D01*
X5000Y133000D01*
Y134000D01*
X4500Y134499D01*
X5000Y135499D02*
Y136499D01*
Y135999D01*
X2001D01*
X2501Y135499D01*
X5000Y137998D02*
Y138998D01*
Y138498D01*
X2001D01*
X2501Y137998D01*
X57999Y142999D02*
X57499Y143499D01*
X56500D01*
X56000Y142999D01*
Y141000D01*
X56500Y140500D01*
X57499D01*
X57999Y141000D01*
X58999Y140500D02*
X59999D01*
X59499D01*
Y143499D01*
X58999Y142999D01*
X61498D02*
X61998Y143499D01*
X62998D01*
X63498Y142999D01*
Y141000D01*
X62998Y140500D01*
X61998D01*
X61498Y141000D01*
Y142999D01*
X39499Y132499D02*
X39000Y132999D01*
X38000D01*
X37500Y132499D01*
Y130500D01*
X38000Y130000D01*
X39000D01*
X39499Y130500D01*
X40499D02*
X40999Y130000D01*
X41999D01*
X42498Y130500D01*
Y132499D01*
X41999Y132999D01*
X40999D01*
X40499Y132499D01*
Y131999D01*
X40999Y131500D01*
X42498D01*
X194999Y55499D02*
X194500Y55999D01*
X193500D01*
X193000Y55499D01*
Y53500D01*
X193500Y53000D01*
X194500D01*
X194999Y53500D01*
X197998Y55999D02*
X196999Y55499D01*
X195999Y54500D01*
Y53500D01*
X196499Y53000D01*
X197499D01*
X197998Y53500D01*
Y54000D01*
X197499Y54500D01*
X195999D01*
X128499Y54999D02*
X127999Y55499D01*
X127000D01*
X126500Y54999D01*
Y53000D01*
X127000Y52500D01*
X127999D01*
X128499Y53000D01*
X131498Y55499D02*
X129499D01*
Y54000D01*
X130499Y54499D01*
X130999D01*
X131498Y54000D01*
Y53000D01*
X130999Y52500D01*
X129999D01*
X129499Y53000D01*
X136999Y72499D02*
X136500Y72999D01*
X135500D01*
X135000Y72499D01*
Y70500D01*
X135500Y70000D01*
X136500D01*
X136999Y70500D01*
X139499Y70000D02*
Y72999D01*
X137999Y71500D01*
X139998D01*
X186999Y90999D02*
X186500Y91499D01*
X185500D01*
X185000Y90999D01*
Y89000D01*
X185500Y88500D01*
X186500D01*
X186999Y89000D01*
X187999Y90999D02*
X188499Y91499D01*
X189499D01*
X189998Y90999D01*
Y90499D01*
X189499Y90000D01*
X188999D01*
X189499D01*
X189998Y89500D01*
Y89000D01*
X189499Y88500D01*
X188499D01*
X187999Y89000D01*
X137499Y87499D02*
X136999Y87999D01*
X136000D01*
X135500Y87499D01*
Y85500D01*
X136000Y85000D01*
X136999D01*
X137499Y85500D01*
X140498Y85000D02*
X138499D01*
X140498Y86999D01*
Y87499D01*
X139999Y87999D01*
X138999D01*
X138499Y87499D01*
X194499Y72499D02*
X194000Y72999D01*
X193000D01*
X192500Y72499D01*
Y70500D01*
X193000Y70000D01*
X194000D01*
X194499Y70500D01*
X195499Y70000D02*
X196499D01*
X195999D01*
Y72999D01*
X195499Y72499D01*
X138500Y94499D02*
Y92000D01*
X139000Y91500D01*
X139999D01*
X140499Y92000D01*
Y94499D01*
X141499Y91500D02*
X142499D01*
X141999D01*
Y94499D01*
X141499Y93999D01*
X221999Y115999D02*
X221499Y116499D01*
X220500D01*
X220000Y115999D01*
Y114000D01*
X220500Y113500D01*
X221499D01*
X221999Y114000D01*
X222999Y116499D02*
X224998D01*
Y115999D01*
X222999Y114000D01*
Y113500D01*
X220999Y93499D02*
X220499Y93999D01*
X219500D01*
X219000Y93499D01*
Y91500D01*
X219500Y91000D01*
X220499D01*
X220999Y91500D01*
X221999Y93499D02*
X222499Y93999D01*
X223499D01*
X223998Y93499D01*
Y92999D01*
X223499Y92500D01*
X223998Y92000D01*
Y91500D01*
X223499Y91000D01*
X222499D01*
X221999Y91500D01*
Y92000D01*
X222499Y92500D01*
X221999Y92999D01*
Y93499D01*
X222499Y92500D02*
X223499D01*
X77100Y128299D02*
X79099Y125300D01*
Y128299D02*
X77100Y125300D01*
X80099D02*
X81099D01*
X80599D01*
Y128299D01*
X80099Y127799D01*
D57*
X65000Y65563D02*
X82717D01*
Y47846D02*
Y65563D01*
X65000Y47846D02*
X82717D01*
X65000D02*
Y65563D01*
M02*
