%FSLAX25Y25*%
%MOIN*%
G70*
G01*
G75*
%ADD10R,0.12205X0.06299*%
%ADD11R,0.03543X0.03150*%
%ADD12R,0.03543X0.02756*%
%ADD13R,0.02756X0.03543*%
%ADD14R,0.01772X0.02362*%
%ADD15R,0.12795X0.08661*%
%ADD16R,0.03937X0.08661*%
%ADD17R,0.03937X0.05906*%
%ADD18R,0.06102X0.09646*%
%ADD19R,0.01378X0.03543*%
%ADD20R,0.01181X0.03937*%
%ADD21O,0.02362X0.08661*%
%ADD22O,0.01181X0.06299*%
%ADD23O,0.06299X0.01181*%
%ADD24R,0.20551X0.12205*%
%ADD25O,0.01378X0.06693*%
%ADD26R,0.05512X0.11811*%
%ADD27R,0.11811X0.05512*%
%ADD28R,0.02953X0.11024*%
%ADD29R,0.05118X0.06102*%
%ADD30R,0.07480X0.04331*%
%ADD31R,0.05906X0.03937*%
%ADD32C,0.01400*%
%ADD33C,0.00800*%
%ADD34C,0.01500*%
%ADD35C,0.00600*%
%ADD36C,0.03500*%
%ADD37C,0.02500*%
%ADD38C,0.01000*%
%ADD39C,0.01200*%
%ADD40C,0.03900*%
%ADD41C,0.05000*%
%ADD42R,0.05906X0.05906*%
%ADD43C,0.09055*%
%ADD44R,0.09055X0.09055*%
%ADD45C,0.05906*%
%ADD46R,0.05906X0.05906*%
%ADD47C,0.02500*%
%ADD48C,0.05000*%
%ADD49C,0.03000*%
%ADD50C,0.02000*%
D10*
X170000Y55295D02*
D03*
Y29705D02*
D03*
X155000Y55295D02*
D03*
Y29705D02*
D03*
D11*
X136500Y61744D02*
D03*
Y67256D02*
D03*
X139000Y76744D02*
D03*
Y82256D02*
D03*
X66500Y136244D02*
D03*
Y141756D02*
D03*
X41000Y135744D02*
D03*
Y141256D02*
D03*
X3500Y144244D02*
D03*
Y149756D02*
D03*
X63000Y100744D02*
D03*
Y106256D02*
D03*
X68000Y100744D02*
D03*
Y106256D02*
D03*
Y90744D02*
D03*
Y96256D02*
D03*
X63000Y90744D02*
D03*
Y96256D02*
D03*
X13000Y106756D02*
D03*
Y101244D02*
D03*
X8000Y106756D02*
D03*
Y101244D02*
D03*
X90000Y59744D02*
D03*
Y65256D02*
D03*
X65000Y116756D02*
D03*
Y111244D02*
D03*
X70000Y113744D02*
D03*
Y119256D02*
D03*
X185500Y99256D02*
D03*
Y93744D02*
D03*
X194500Y61244D02*
D03*
Y66756D02*
D03*
D12*
X116000Y33953D02*
D03*
Y28047D02*
D03*
X77500Y141953D02*
D03*
Y136047D02*
D03*
Y151953D02*
D03*
Y146047D02*
D03*
X52000Y141453D02*
D03*
Y135547D02*
D03*
Y151453D02*
D03*
Y145547D02*
D03*
X90000Y53453D02*
D03*
Y47547D02*
D03*
X189500Y66953D02*
D03*
Y61047D02*
D03*
X106500Y92547D02*
D03*
Y98453D02*
D03*
D13*
X194953Y121000D02*
D03*
X189047D02*
D03*
X158453Y120500D02*
D03*
X152547D02*
D03*
X111047Y93000D02*
D03*
X116953D02*
D03*
X132547Y139000D02*
D03*
X138453D02*
D03*
X91047Y170500D02*
D03*
X96953D02*
D03*
X37047Y71500D02*
D03*
X42953D02*
D03*
X53453Y71500D02*
D03*
X47547D02*
D03*
D14*
X215500Y152000D02*
D03*
Y143000D02*
D03*
X179500Y152000D02*
D03*
Y143000D02*
D03*
D15*
X198000Y152614D02*
D03*
X162000D02*
D03*
X115500Y130114D02*
D03*
D16*
X207055Y129386D02*
D03*
X198000D02*
D03*
X188945D02*
D03*
X171055D02*
D03*
X162000D02*
D03*
X152945D02*
D03*
X124555Y106886D02*
D03*
X115500D02*
D03*
X106445D02*
D03*
D17*
X117177Y139350D02*
D03*
X125839D02*
D03*
D18*
X137500Y116898D02*
D03*
Y129102D02*
D03*
D19*
X93000Y164437D02*
D03*
Y156563D02*
D03*
D20*
X72000Y141657D02*
D03*
Y136343D02*
D03*
X46500Y152157D02*
D03*
Y146843D02*
D03*
Y140657D02*
D03*
Y135343D02*
D03*
X72000Y153157D02*
D03*
Y147843D02*
D03*
D21*
X9500Y131051D02*
D03*
X14500D02*
D03*
X19500D02*
D03*
X24500D02*
D03*
X9500Y149949D02*
D03*
X14500D02*
D03*
X19500D02*
D03*
X24500D02*
D03*
D22*
X47327Y87760D02*
D03*
X45358D02*
D03*
X43390D02*
D03*
X41421D02*
D03*
X39453D02*
D03*
X37484D02*
D03*
X35516D02*
D03*
X33547D02*
D03*
X31579D02*
D03*
X29610D02*
D03*
X27642D02*
D03*
X25673D02*
D03*
Y120240D02*
D03*
X27642D02*
D03*
X29610D02*
D03*
X31579D02*
D03*
X33547D02*
D03*
X35516D02*
D03*
X37484D02*
D03*
X39453D02*
D03*
X41421D02*
D03*
X43390D02*
D03*
X45358D02*
D03*
X47327D02*
D03*
D23*
X20260Y93173D02*
D03*
Y95142D02*
D03*
Y97110D02*
D03*
Y99079D02*
D03*
Y101047D02*
D03*
Y103016D02*
D03*
Y104984D02*
D03*
Y106953D02*
D03*
Y108921D02*
D03*
Y110890D02*
D03*
Y112858D02*
D03*
Y114827D02*
D03*
X52740D02*
D03*
Y112858D02*
D03*
Y110890D02*
D03*
Y108921D02*
D03*
Y106953D02*
D03*
Y104984D02*
D03*
Y103016D02*
D03*
Y101047D02*
D03*
Y99079D02*
D03*
Y97110D02*
D03*
Y95142D02*
D03*
Y93173D02*
D03*
D24*
X162500Y82500D02*
D03*
D25*
X179134Y93721D02*
D03*
X176575D02*
D03*
X174016D02*
D03*
X171457D02*
D03*
X168898D02*
D03*
X166339D02*
D03*
X163779D02*
D03*
X161221D02*
D03*
X158661D02*
D03*
X156102D02*
D03*
X153543D02*
D03*
X150984D02*
D03*
X148425D02*
D03*
X145866D02*
D03*
X179134Y71280D02*
D03*
X176575D02*
D03*
X174016D02*
D03*
X171457D02*
D03*
X168898D02*
D03*
X166339D02*
D03*
X163779D02*
D03*
X161221D02*
D03*
X158661D02*
D03*
X156102D02*
D03*
X153543D02*
D03*
X150984D02*
D03*
X148425D02*
D03*
X145866D02*
D03*
D26*
X136000Y48555D02*
D03*
Y30445D02*
D03*
X189000Y48555D02*
D03*
Y30445D02*
D03*
D27*
X217555Y104000D02*
D03*
X199445D02*
D03*
X217555Y81000D02*
D03*
X199445D02*
D03*
D28*
X55464Y59992D02*
D03*
Y44008D02*
D03*
X50464Y59992D02*
D03*
Y44008D02*
D03*
X45464Y59992D02*
D03*
Y44008D02*
D03*
X40464Y59992D02*
D03*
Y44008D02*
D03*
X35464Y59992D02*
D03*
Y44008D02*
D03*
D29*
X65000Y72256D02*
D03*
X82717D02*
D03*
X65000Y41153D02*
D03*
X82717D02*
D03*
D30*
X83000Y118000D02*
D03*
Y110323D02*
D03*
D31*
X129500Y58787D02*
D03*
Y67449D02*
D03*
D42*
X37500Y150000D02*
D03*
X63000D02*
D03*
X22000Y165500D02*
D03*
X78500D02*
D03*
X50500D02*
D03*
X189000D02*
D03*
X153000D02*
D03*
X12500Y18000D02*
D03*
X92500D02*
D03*
D43*
X112000Y160000D02*
D03*
D44*
X132000D02*
D03*
D45*
X12000Y165500D02*
D03*
X68500D02*
D03*
X40500D02*
D03*
X8500Y46500D02*
D03*
Y56500D02*
D03*
Y66500D02*
D03*
Y76500D02*
D03*
Y86500D02*
D03*
X199000Y165500D02*
D03*
X163000D02*
D03*
X116000Y52000D02*
D03*
Y62000D02*
D03*
X24000Y34000D02*
D03*
X72500Y8000D02*
D03*
Y18000D02*
D03*
X62500Y8000D02*
D03*
Y18000D02*
D03*
X52500Y8000D02*
D03*
Y18000D02*
D03*
X42500Y8000D02*
D03*
Y18000D02*
D03*
X32500Y8000D02*
D03*
Y18000D02*
D03*
X22500Y8000D02*
D03*
Y18000D02*
D03*
X12500Y8000D02*
D03*
X212500D02*
D03*
Y18000D02*
D03*
X202500Y8000D02*
D03*
Y18000D02*
D03*
X192500Y8000D02*
D03*
Y18000D02*
D03*
X182500Y8000D02*
D03*
Y18000D02*
D03*
X172500Y8000D02*
D03*
Y18000D02*
D03*
X162500Y8000D02*
D03*
Y18000D02*
D03*
X152500Y8000D02*
D03*
Y18000D02*
D03*
X142500Y8000D02*
D03*
Y18000D02*
D03*
X132500Y8000D02*
D03*
Y18000D02*
D03*
X122500Y8000D02*
D03*
Y18000D02*
D03*
X112500Y8000D02*
D03*
Y18000D02*
D03*
X102500Y8000D02*
D03*
Y18000D02*
D03*
X92500Y8000D02*
D03*
D46*
X8500Y36500D02*
D03*
X116000Y42000D02*
D03*
X24000Y44000D02*
D03*
M02*
