%FSLAX25Y25*%
%MOIN*%
G70*
G01*
G75*
G04 Layer_Physical_Order=1*
G04 Layer_Color=255*
%ADD10R,0.12205X0.06299*%
%ADD11R,0.03543X0.03150*%
%ADD12R,0.03543X0.02756*%
%ADD13R,0.02756X0.03543*%
%ADD14R,0.01772X0.02362*%
%ADD15R,0.12795X0.08661*%
%ADD16R,0.03937X0.08661*%
%ADD17R,0.03937X0.05906*%
%ADD18R,0.06102X0.09646*%
%ADD19R,0.01378X0.03543*%
%ADD20R,0.01181X0.03937*%
%ADD21O,0.02362X0.08661*%
%ADD22O,0.01181X0.06299*%
%ADD23O,0.06299X0.01181*%
%ADD24R,0.20551X0.12205*%
%ADD25O,0.01378X0.06693*%
%ADD26R,0.05512X0.11811*%
%ADD27R,0.11811X0.05512*%
%ADD28R,0.02953X0.11024*%
%ADD29R,0.05118X0.06102*%
%ADD30R,0.07480X0.04331*%
%ADD31R,0.05906X0.03937*%
%ADD32C,0.01400*%
%ADD33C,0.00800*%
%ADD34C,0.01500*%
%ADD35C,0.00600*%
%ADD36C,0.03500*%
%ADD37C,0.02500*%
%ADD38C,0.01000*%
%ADD39C,0.01200*%
%ADD40C,0.03900*%
%ADD41C,0.05000*%
%ADD42R,0.05906X0.05906*%
%ADD43C,0.09055*%
%ADD44R,0.09055X0.09055*%
%ADD45C,0.05906*%
%ADD46R,0.05906X0.05906*%
%ADD47C,0.02500*%
%ADD48C,0.05000*%
%ADD49C,0.03000*%
%ADD50C,0.02000*%
G36*
X147000Y90500D02*
X147500Y90000D01*
X147696D01*
X147922Y89849D01*
X148425Y89749D01*
X148928Y89849D01*
X149154Y90000D01*
X150255D01*
X150481Y89849D01*
X150984Y89749D01*
X151487Y89849D01*
X151713Y90000D01*
X152814D01*
X153040Y89849D01*
X153543Y89749D01*
X154046Y89849D01*
X154272Y90000D01*
X155373D01*
X155599Y89849D01*
X156102Y89749D01*
X156605Y89849D01*
X156832Y90000D01*
X157932D01*
X158159Y89849D01*
X158661Y89749D01*
X159164Y89849D01*
X159391Y90000D01*
X160491D01*
X160717Y89849D01*
X161221Y89749D01*
X161723Y89849D01*
X161950Y90000D01*
X163050D01*
X163277Y89849D01*
X163779Y89749D01*
X164283Y89849D01*
X164509Y90000D01*
X165609D01*
X165836Y89849D01*
X166339Y89749D01*
X166841Y89849D01*
X167068Y90000D01*
X168168D01*
X168395Y89849D01*
X168898Y89749D01*
X169401Y89849D01*
X169627Y90000D01*
X170728D01*
X170954Y89849D01*
X171457Y89749D01*
X171960Y89849D01*
X172186Y90000D01*
X173287D01*
X173513Y89849D01*
X174016Y89749D01*
X174519Y89849D01*
X174745Y90000D01*
X175846D01*
X176072Y89849D01*
X176575Y89749D01*
X177078Y89849D01*
X177304Y90000D01*
X178405D01*
X178631Y89849D01*
X179134Y89749D01*
X179637Y89849D01*
X179863Y90000D01*
X181000D01*
X182500Y88500D01*
X183000Y88000D01*
Y68000D01*
X178159D01*
X177842Y68387D01*
X177889Y68622D01*
Y73937D01*
X177789Y74440D01*
X177504Y74866D01*
X177500Y74869D01*
Y75000D01*
X177304D01*
X177078Y75151D01*
X176575Y75251D01*
X176072Y75151D01*
X175846Y75000D01*
X174745D01*
X174519Y75151D01*
X174016Y75251D01*
X173513Y75151D01*
X173287Y75000D01*
X172315D01*
X172259Y75023D01*
X172193D01*
X172138Y75060D01*
X172079Y75072D01*
X171960Y75151D01*
X171457Y75251D01*
X170954Y75151D01*
X170835Y75072D01*
X170776Y75060D01*
X170721Y75023D01*
X170654D01*
X170598Y75000D01*
X169627D01*
X169401Y75151D01*
X168898Y75251D01*
X168395Y75151D01*
X168168Y75000D01*
X167197D01*
X167141Y75023D01*
X167075D01*
X167019Y75060D01*
X166960Y75072D01*
X166949Y75079D01*
D01*
X166841Y75151D01*
X166691Y75181D01*
X166465Y75226D01*
X166465D01*
X166339Y75251D01*
X166212Y75226D01*
X166212D01*
X165986Y75181D01*
X165836Y75151D01*
X165728Y75079D01*
D01*
X165717Y75072D01*
X165658Y75060D01*
X165602Y75023D01*
X165536D01*
X165480Y75000D01*
X164509D01*
X164283Y75151D01*
X163779Y75251D01*
X163277Y75151D01*
X163050Y75000D01*
X161950D01*
X161723Y75151D01*
X161221Y75251D01*
X160717Y75151D01*
X160491Y75000D01*
X159391D01*
X159164Y75151D01*
X158661Y75251D01*
X158159Y75151D01*
X157932Y75000D01*
X156832D01*
X156605Y75151D01*
X156102Y75251D01*
X155599Y75151D01*
X155373Y75000D01*
X154402D01*
X154346Y75023D01*
X154279D01*
X154224Y75060D01*
X154165Y75072D01*
X154046Y75151D01*
X153543Y75251D01*
X153040Y75151D01*
X152921Y75072D01*
X152862Y75060D01*
X152807Y75023D01*
X152741D01*
X152685Y75000D01*
X151713D01*
X151487Y75151D01*
X150984Y75251D01*
X150481Y75151D01*
X150255Y75000D01*
X149802D01*
Y75575D01*
X149802Y75575D01*
X149697Y76101D01*
X149500Y76396D01*
Y78000D01*
X148500Y79000D01*
X144500Y83000D01*
Y96723D01*
X144778Y97000D01*
X147000D01*
Y90500D01*
D02*
G37*
G36*
X159301Y69946D02*
X159300Y63002D01*
X159181Y62978D01*
X158486Y62514D01*
X158022Y61819D01*
X157859Y61000D01*
X158022Y60181D01*
X158486Y59486D01*
X159181Y59022D01*
X160000Y58859D01*
X160710Y59000D01*
X161500D01*
Y51500D01*
X148700D01*
Y59100D01*
X155964Y62886D01*
X156102Y62859D01*
X156922Y63022D01*
X157616Y63486D01*
X157885Y63888D01*
X158100Y64000D01*
Y64278D01*
X158244Y65000D01*
X158100Y65722D01*
Y69907D01*
X158486Y70224D01*
X158602Y70201D01*
X158914Y70263D01*
X159301Y69946D01*
D02*
G37*
G36*
X87000Y61964D02*
X94000D01*
Y51464D01*
X87000D01*
Y37464D01*
X80500D01*
Y40200D01*
X83716D01*
X84068Y40270D01*
X84365Y40469D01*
X84564Y40767D01*
X84634Y41118D01*
X84564Y41469D01*
X84365Y41767D01*
X84068Y41966D01*
X83716Y42036D01*
X80500D01*
Y75964D01*
X87000D01*
Y61964D01*
D02*
G37*
G36*
X166900Y65207D02*
X166859Y65000D01*
X167022Y64181D01*
X167486Y63486D01*
X168181Y63022D01*
X169000Y62859D01*
X169819Y63022D01*
X169875Y63059D01*
X176351Y58832D01*
Y51500D01*
X163628D01*
Y58963D01*
X164069Y59199D01*
X164181Y59124D01*
X165000Y58961D01*
X165819Y59124D01*
X166514Y59588D01*
X166978Y60283D01*
X167141Y61102D01*
X166978Y61922D01*
X166514Y62616D01*
X165819Y63081D01*
X165600Y63124D01*
Y73400D01*
X166900D01*
Y65207D01*
D02*
G37*
G36*
X181000Y150000D02*
X169500D01*
Y145500D01*
X166000D01*
Y125000D01*
X158000D01*
Y145500D01*
X154500D01*
Y160242D01*
X154500Y160242D01*
X154546Y160482D01*
X154549Y160490D01*
Y160500D01*
X154550Y160500D01*
X154550Y160500D01*
X154550D01*
X154550Y160500D01*
X158000D01*
Y168500D01*
X181000D01*
Y150000D01*
D02*
G37*
G36*
X217000Y150129D02*
X216947Y150000D01*
X205500D01*
Y145500D01*
X202000D01*
Y125000D01*
X194000D01*
Y145500D01*
X190500D01*
Y160371D01*
X190500Y160371D01*
D01*
X190500Y160371D01*
X190528Y160382D01*
X190533Y160387D01*
X190758Y160500D01*
X190758D01*
X190758Y160500D01*
X190758D01*
X194000D01*
Y168500D01*
X217000D01*
Y150129D01*
D02*
G37*
G36*
X123000Y122500D02*
X140500D01*
Y112500D01*
X118000D01*
Y109000D01*
Y102000D01*
X112000D01*
Y111500D01*
X111500Y112000D01*
X108500Y115000D01*
Y122500D01*
Y145000D01*
X102000D01*
Y168977D01*
X102014Y168986D01*
X102478Y169681D01*
X102641Y170500D01*
X102478Y171319D01*
X102014Y172014D01*
X102000Y172023D01*
Y173878D01*
X123000D01*
Y122500D01*
D02*
G37*
G36*
X223879Y1122D02*
X202500D01*
Y14417D01*
X203427Y14539D01*
X204292Y14897D01*
X205034Y15466D01*
X205603Y16208D01*
X205961Y17073D01*
X206083Y18000D01*
X205961Y18927D01*
X205603Y19792D01*
X205034Y20534D01*
X204292Y21103D01*
X203427Y21461D01*
X202500Y21583D01*
Y37500D01*
X132000D01*
Y56500D01*
X126500D01*
Y61000D01*
X134000D01*
Y63500D01*
X148500D01*
X152900Y67900D01*
Y74100D01*
X154100D01*
Y65697D01*
X153961Y65000D01*
X154100Y64302D01*
Y63200D01*
X153900Y63100D01*
X148000Y59600D01*
Y50500D01*
X177000D01*
Y59300D01*
X171500Y63300D01*
X170800D01*
Y63914D01*
X170978Y64181D01*
X171141Y65000D01*
X170978Y65819D01*
X170800Y66086D01*
Y73300D01*
X172200D01*
Y67500D01*
X177200Y64000D01*
X178700D01*
X179050Y63930D01*
X182000D01*
Y55000D01*
X206500D01*
Y117060D01*
X206876Y117390D01*
X207000Y117373D01*
X207809Y117480D01*
X207858Y117500D01*
X217500D01*
Y149705D01*
X217547Y149751D01*
X217600Y149881D01*
Y150010D01*
X217649Y150129D01*
Y168500D01*
X217500Y168861D01*
Y169000D01*
X217361D01*
X217000Y169149D01*
X194000D01*
X193639Y169000D01*
X193000D01*
Y161500D01*
X182000D01*
Y169000D01*
X181361D01*
X181000Y169149D01*
X158000D01*
X157639Y169000D01*
X157000D01*
Y161500D01*
X154000D01*
Y160818D01*
X153969Y160790D01*
X153969Y160790D01*
X153966Y160755D01*
X153949Y160739D01*
X153946Y160730D01*
X153946Y160661D01*
X153908Y160604D01*
X153862Y160364D01*
X153875Y160301D01*
X153851Y160242D01*
Y155500D01*
X133886D01*
Y160000D01*
X133743Y160722D01*
X133334Y161334D01*
X132722Y161743D01*
X132000Y161886D01*
X131278Y161743D01*
X130666Y161334D01*
X130257Y160722D01*
X130114Y160000D01*
Y155500D01*
X123649D01*
Y173878D01*
X223879D01*
Y1122D01*
D02*
G37*
D10*
X170000Y55295D02*
D03*
Y29705D02*
D03*
X155000Y55295D02*
D03*
Y29705D02*
D03*
D11*
X136500Y61744D02*
D03*
Y67256D02*
D03*
X139000Y76744D02*
D03*
Y82256D02*
D03*
X66500Y136244D02*
D03*
Y141756D02*
D03*
X41000Y135744D02*
D03*
Y141256D02*
D03*
X3500Y144244D02*
D03*
Y149756D02*
D03*
X63000Y100744D02*
D03*
Y106256D02*
D03*
X68000Y100744D02*
D03*
Y106256D02*
D03*
Y90744D02*
D03*
Y96256D02*
D03*
X63000Y90744D02*
D03*
Y96256D02*
D03*
X13000Y106756D02*
D03*
Y101244D02*
D03*
X8000Y106756D02*
D03*
Y101244D02*
D03*
X90000Y59744D02*
D03*
Y65256D02*
D03*
X65000Y116756D02*
D03*
Y111244D02*
D03*
X70000Y113744D02*
D03*
Y119256D02*
D03*
X185500Y99256D02*
D03*
Y93744D02*
D03*
X194500Y61244D02*
D03*
Y66756D02*
D03*
D12*
X116000Y33953D02*
D03*
Y28047D02*
D03*
X77500Y141953D02*
D03*
Y136047D02*
D03*
Y151953D02*
D03*
Y146047D02*
D03*
X52000Y141453D02*
D03*
Y135547D02*
D03*
Y151453D02*
D03*
Y145547D02*
D03*
X90000Y53453D02*
D03*
Y47547D02*
D03*
X189500Y66953D02*
D03*
Y61047D02*
D03*
X106500Y92547D02*
D03*
Y98453D02*
D03*
D13*
X194953Y121000D02*
D03*
X189047D02*
D03*
X158453Y120500D02*
D03*
X152547D02*
D03*
X111047Y93000D02*
D03*
X116953D02*
D03*
X132547Y139000D02*
D03*
X138453D02*
D03*
X91047Y170500D02*
D03*
X96953D02*
D03*
X37047Y71500D02*
D03*
X42953D02*
D03*
X53453Y71500D02*
D03*
X47547D02*
D03*
D14*
X215500Y152000D02*
D03*
Y143000D02*
D03*
X179500Y152000D02*
D03*
Y143000D02*
D03*
D15*
X198000Y152614D02*
D03*
X162000D02*
D03*
X115500Y130114D02*
D03*
D16*
X207055Y129386D02*
D03*
X198000D02*
D03*
X188945D02*
D03*
X171055D02*
D03*
X162000D02*
D03*
X152945D02*
D03*
X124555Y106886D02*
D03*
X115500D02*
D03*
X106445D02*
D03*
D17*
X117177Y139350D02*
D03*
X125839D02*
D03*
D18*
X137500Y116898D02*
D03*
Y129102D02*
D03*
D19*
X93000Y164437D02*
D03*
Y156563D02*
D03*
D20*
X72000Y141657D02*
D03*
Y136343D02*
D03*
X46500Y152157D02*
D03*
Y146843D02*
D03*
Y140657D02*
D03*
Y135343D02*
D03*
X72000Y153157D02*
D03*
Y147843D02*
D03*
D21*
X9500Y131051D02*
D03*
X14500D02*
D03*
X19500D02*
D03*
X24500D02*
D03*
X9500Y149949D02*
D03*
X14500D02*
D03*
X19500D02*
D03*
X24500D02*
D03*
D22*
X47327Y87760D02*
D03*
X45358D02*
D03*
X43390D02*
D03*
X41421D02*
D03*
X39453D02*
D03*
X37484D02*
D03*
X35516D02*
D03*
X33547D02*
D03*
X31579D02*
D03*
X29610D02*
D03*
X27642D02*
D03*
X25673D02*
D03*
Y120240D02*
D03*
X27642D02*
D03*
X29610D02*
D03*
X31579D02*
D03*
X33547D02*
D03*
X35516D02*
D03*
X37484D02*
D03*
X39453D02*
D03*
X41421D02*
D03*
X43390D02*
D03*
X45358D02*
D03*
X47327D02*
D03*
D23*
X20260Y93173D02*
D03*
Y95142D02*
D03*
Y97110D02*
D03*
Y99079D02*
D03*
Y101047D02*
D03*
Y103016D02*
D03*
Y104984D02*
D03*
Y106953D02*
D03*
Y108921D02*
D03*
Y110890D02*
D03*
Y112858D02*
D03*
Y114827D02*
D03*
X52740D02*
D03*
Y112858D02*
D03*
Y110890D02*
D03*
Y108921D02*
D03*
Y106953D02*
D03*
Y104984D02*
D03*
Y103016D02*
D03*
Y101047D02*
D03*
Y99079D02*
D03*
Y97110D02*
D03*
Y95142D02*
D03*
Y93173D02*
D03*
D24*
X162500Y82500D02*
D03*
D25*
X179134Y93721D02*
D03*
X176575D02*
D03*
X174016D02*
D03*
X171457D02*
D03*
X168898D02*
D03*
X166339D02*
D03*
X163779D02*
D03*
X161221D02*
D03*
X158661D02*
D03*
X156102D02*
D03*
X153543D02*
D03*
X150984D02*
D03*
X148425D02*
D03*
X145866D02*
D03*
X179134Y71280D02*
D03*
X176575D02*
D03*
X174016D02*
D03*
X171457D02*
D03*
X168898D02*
D03*
X166339D02*
D03*
X163779D02*
D03*
X161221D02*
D03*
X158661D02*
D03*
X156102D02*
D03*
X153543D02*
D03*
X150984D02*
D03*
X148425D02*
D03*
X145866D02*
D03*
D26*
X136000Y48555D02*
D03*
Y30445D02*
D03*
X189000Y48555D02*
D03*
Y30445D02*
D03*
D27*
X217555Y104000D02*
D03*
X199445D02*
D03*
X217555Y81000D02*
D03*
X199445D02*
D03*
D28*
X55464Y59992D02*
D03*
Y44008D02*
D03*
X50464Y59992D02*
D03*
Y44008D02*
D03*
X45464Y59992D02*
D03*
Y44008D02*
D03*
X40464Y59992D02*
D03*
Y44008D02*
D03*
X35464Y59992D02*
D03*
Y44008D02*
D03*
D29*
X65000Y72256D02*
D03*
X82717D02*
D03*
X65000Y41153D02*
D03*
X82717D02*
D03*
D30*
X83000Y118000D02*
D03*
Y110323D02*
D03*
D31*
X129500Y58787D02*
D03*
Y67449D02*
D03*
D32*
X168898Y65298D02*
Y71280D01*
X168800Y65200D02*
X169000Y65000D01*
X161221Y62221D02*
Y71280D01*
X160000Y61000D02*
X161221Y62221D01*
X163779Y62323D02*
X165000Y61102D01*
X163779Y62323D02*
Y71280D01*
X156102Y65000D02*
Y71280D01*
D33*
X116917Y88400D02*
X139517Y111000D01*
X103100Y88400D02*
X116917D01*
X101000Y90500D02*
X103100Y88400D01*
X117497Y87000D02*
X139997Y109500D01*
X102520Y87000D02*
X117497D01*
X99600Y89920D02*
X102520Y87000D01*
X30500Y13000D02*
X67500D01*
X27500Y16000D02*
X30500Y13000D01*
X27500Y16000D02*
Y18980D01*
X18400Y28080D02*
X27500Y18980D01*
X69500Y13000D02*
X78500D01*
X68100Y14400D02*
X69500Y13000D01*
X66100Y14400D02*
X68100D01*
X62500Y18000D02*
X66100Y14400D01*
X67500Y13000D02*
X72500Y8000D01*
X41421Y81921D02*
Y87760D01*
X18400Y58900D02*
X41421Y81921D01*
X18400Y28080D02*
Y58900D01*
X39453Y82013D02*
Y87760D01*
X17000Y59560D02*
X39453Y82013D01*
X37484Y82025D02*
Y87760D01*
X15600Y60140D02*
X37484Y82025D01*
X35516Y82036D02*
Y87760D01*
X14200Y60720D02*
X35516Y82036D01*
X33547Y82047D02*
Y87760D01*
X12800Y61300D02*
X33547Y82047D01*
X17000Y27500D02*
Y59560D01*
X15600Y25880D02*
Y60140D01*
X14200Y25300D02*
Y60720D01*
X12800Y24720D02*
Y61300D01*
X45980Y50520D02*
X47980D01*
X42953Y53547D02*
X45980Y50520D01*
X42953Y53547D02*
Y75000D01*
X47980Y50520D02*
X50464Y48036D01*
Y44008D02*
Y48036D01*
X102500Y94000D02*
Y123440D01*
X111500Y56500D02*
X116000Y52000D01*
X17900Y12600D02*
X22500Y8000D01*
X112000Y48000D02*
X116000Y52000D01*
X112000Y36000D02*
Y48000D01*
Y36000D02*
X114047Y33953D01*
X116000D01*
X176575Y93721D02*
Y96925D01*
X88000Y12500D02*
Y21000D01*
Y12500D02*
X92500Y8000D01*
X102500Y18000D02*
X105700Y21200D01*
X103500Y13000D02*
X107100Y16600D01*
X102500Y8000D02*
X108500Y14000D01*
X97500Y13000D02*
X103500D01*
X92500Y18000D02*
X97500Y13000D01*
X156102Y93721D02*
Y96898D01*
X153543Y93721D02*
Y97437D01*
X39453Y120240D02*
Y123953D01*
X184950Y64950D02*
X186953Y66953D01*
X179050Y64950D02*
X184950D01*
X186953Y66953D02*
X189500D01*
X176575Y67425D02*
X179050Y64950D01*
X176575Y67425D02*
Y71280D01*
X12500Y8000D02*
X16500Y12000D01*
X58547Y21953D02*
X62500Y18000D01*
X158602Y71220D02*
X158661Y71280D01*
X31579Y120240D02*
Y124478D01*
X29610Y120240D02*
Y124489D01*
X179386Y129386D02*
X179500Y129500D01*
X188945Y121102D02*
X189047Y121000D01*
X188945Y121102D02*
Y129386D01*
X152547Y128988D02*
X152945Y129386D01*
X152547Y120500D02*
Y128988D01*
X102500Y94000D02*
X103953Y92547D01*
X106500D01*
X37500Y52500D02*
X40500D01*
X35464Y54536D02*
X37500Y52500D01*
X35464Y54536D02*
Y59992D01*
X47547Y70500D02*
X47988Y70059D01*
X55464Y44008D02*
Y49036D01*
X47327Y71500D02*
Y87760D01*
X43390Y75000D02*
Y87760D01*
X53980Y50520D02*
X55464Y49036D01*
X111500Y56500D02*
Y65164D01*
X81000Y21035D02*
X83965Y24000D01*
X88000Y21000D02*
X89600Y22600D01*
X166339Y93721D02*
Y99161D01*
X163779Y93721D02*
Y99221D01*
X161221Y93721D02*
Y99779D01*
X150984Y93721D02*
Y97016D01*
X111500Y65164D02*
X144436Y98100D01*
X149900D01*
X150984Y97016D01*
X109900Y65544D02*
X143856Y99500D01*
X151480D01*
X153543Y97437D01*
X108500Y66124D02*
X143276Y100900D01*
X152100D01*
X156102Y96898D01*
X107100Y66704D02*
X142696Y102300D01*
X158700D01*
X161221Y99779D01*
X105700Y67284D02*
X142116Y103700D01*
X159300D01*
X163779Y99221D01*
X104300Y67864D02*
X141536Y105100D01*
X160400D01*
X166339Y99161D01*
X102900Y68444D02*
X140956Y106500D01*
X167000D01*
X176575Y96925D01*
X177547Y109500D02*
X189047Y121000D01*
X139997Y109500D02*
X177547D01*
X139517Y111000D02*
X150000D01*
X152547Y113547D01*
Y120500D01*
X9500Y116182D02*
Y131051D01*
Y116182D02*
X14792Y110890D01*
X20260D01*
X16642Y112858D02*
X20260D01*
X14500Y115000D02*
X16642Y112858D01*
X14500Y115000D02*
Y131051D01*
X20260Y114827D02*
Y116740D01*
X19500Y117500D02*
X20260Y116740D01*
X19500Y117500D02*
Y131051D01*
X108500Y14000D02*
Y66124D01*
X107100Y16600D02*
Y66704D01*
X105700Y21200D02*
Y67284D01*
X89600Y22600D02*
X101100D01*
X104300Y25800D01*
Y67864D01*
X100520Y24000D02*
X102900Y26380D01*
Y68444D01*
X83965Y24000D02*
X100520D01*
X78500Y13000D02*
X81000Y15500D01*
Y21035D01*
X116000Y24500D02*
Y28047D01*
Y24500D02*
X122500Y18000D01*
X109900Y20600D02*
Y65544D01*
Y20600D02*
X112500Y18000D01*
Y8000D02*
X117500Y13000D01*
Y20000D01*
X112500Y25000D02*
X117500Y20000D01*
X100000Y32000D02*
Y34500D01*
X101500Y36000D01*
Y69024D01*
X140376Y107900D01*
X199107Y58669D02*
X200750Y60312D01*
X140376Y107900D02*
X181617D01*
X189500Y61047D02*
X189936D01*
X192314Y58669D01*
X199107D01*
X200750Y60312D02*
Y69250D01*
X190000Y80000D02*
X200750Y69250D01*
X190000Y80000D02*
Y99517D01*
X181617Y107900D02*
X190000Y99517D01*
X31579Y124478D02*
X36101Y129000D01*
X94960D01*
X101000Y122960D01*
X35521Y130400D02*
X95540D01*
X29610Y124489D02*
X35521Y130400D01*
X95540D02*
X102500Y123440D01*
X39453Y123953D02*
X43000Y127500D01*
X94480D01*
X99600Y122380D01*
X12500Y18000D02*
X15000Y20500D01*
X12800Y24720D02*
X15000Y22520D01*
Y20500D02*
Y22520D01*
X14200Y25300D02*
X16500Y23000D01*
Y12000D02*
Y23000D01*
X15600Y25880D02*
X17900Y23580D01*
Y12600D02*
Y23580D01*
X17000Y27500D02*
X22500Y22000D01*
Y18000D02*
Y22000D01*
X24000Y25500D02*
Y34000D01*
Y25500D02*
X27547Y21953D01*
X58547D01*
X101000Y90500D02*
Y122960D01*
X99600Y89920D02*
Y122380D01*
X47988Y54066D02*
X51534Y50520D01*
X47988Y54066D02*
Y71500D01*
X51534Y50520D02*
X53980D01*
D34*
X148425Y71280D02*
Y75575D01*
X141744Y82256D02*
X148425Y75575D01*
X139000Y82256D02*
X141744D01*
X145866Y71280D02*
Y74634D01*
X143756Y76744D02*
X145866Y74634D01*
X139000Y76744D02*
X143756D01*
X149000Y66000D02*
X150984Y67984D01*
Y71280D01*
X96953Y170500D02*
X100500D01*
X93000Y151000D02*
X105000Y139000D01*
X93000Y151000D02*
Y156563D01*
X90244Y65500D02*
X94500D01*
X129500Y67453D02*
X139047D01*
X140500Y66000D01*
X149000D01*
D35*
X48691Y91809D02*
X50500Y90000D01*
Y77000D02*
Y90000D01*
Y77000D02*
X53000Y74500D01*
X58000D01*
X57000Y37000D02*
X59150Y39150D01*
Y73350D01*
X58000Y74500D02*
X59150Y73350D01*
X45358Y90858D02*
X46309Y91809D01*
X48691D01*
X45358Y87760D02*
Y90858D01*
X79118Y41118D02*
X83716D01*
X75000Y37000D02*
X79118Y41118D01*
X57000Y37000D02*
X75000D01*
X35464Y38536D02*
X37000Y37000D01*
X57000D01*
X45464Y59992D02*
X45500Y60028D01*
Y67000D01*
X50464Y59992D02*
X50500Y60028D01*
Y67000D01*
X66154Y40964D02*
Y71964D01*
X66256D02*
X71000D01*
X66000Y72220D02*
X66154Y72067D01*
Y40964D02*
X71000D01*
X24000Y44000D02*
X35456D01*
X35464Y38536D02*
Y44000D01*
D36*
X206500Y121000D02*
X207000Y120500D01*
X158453Y120500D02*
X175500D01*
X179386Y124386D01*
Y129386D01*
X207000Y120500D02*
Y128831D01*
X171055Y129386D02*
X179386D01*
D37*
X194953Y121000D02*
X206500D01*
X38000Y3000D02*
X78000D01*
X125839Y139350D02*
X132197D01*
X138453Y139000D02*
Y145547D01*
Y130055D02*
Y139000D01*
X132000Y152000D02*
X138453Y145547D01*
X132000Y152000D02*
Y160000D01*
X185476Y93721D02*
X185500Y93744D01*
X179500Y129500D02*
Y143000D01*
X3500Y94500D02*
Y127500D01*
X207000Y120500D02*
X210500D01*
X213500Y123500D01*
Y141000D01*
X215500Y143000D01*
X85000Y10000D02*
Y21500D01*
X90000Y47547D02*
X93488D01*
X117500Y3000D02*
X122500Y8000D01*
X78000Y3000D02*
X85000Y10000D01*
X78000Y3000D02*
X117500D01*
X93488Y47547D02*
X98000Y52059D01*
Y82000D01*
X99500Y83500D01*
X3500Y8000D02*
Y94500D01*
Y8000D02*
X8500Y3000D01*
X37500D01*
X42500Y8000D01*
D38*
X194500Y61244D02*
X198500D01*
X179134Y93721D02*
X185476D01*
X38256Y141256D02*
X41000D01*
X34500Y137500D02*
X38256Y141256D01*
X34500Y134000D02*
Y137500D01*
X25673Y125173D02*
X34500Y134000D01*
X25673Y120240D02*
Y125173D01*
X27642Y120240D02*
Y124642D01*
X63244Y138500D02*
X66500Y141756D01*
X50000Y138500D02*
X63244D01*
X49000Y137500D02*
X50000Y138500D01*
X49000Y133500D02*
Y137500D01*
X106500Y92547D02*
Y92961D01*
X57000Y67500D02*
Y71500D01*
X55500Y66000D02*
X57000Y67500D01*
X8000Y97500D02*
Y101256D01*
X3500Y94500D02*
X6500D01*
X8000Y96000D01*
Y97500D01*
X3500Y127500D02*
X7000Y131000D01*
Y146256D01*
X3500Y149756D02*
X7000Y146256D01*
X8500Y106756D02*
X13000D01*
X8500Y107256D02*
Y114000D01*
X12900Y91663D02*
X16379Y95142D01*
X12900Y80900D02*
Y91663D01*
X8500Y76500D02*
X12900Y80900D01*
X14500Y91000D02*
X16673Y93173D01*
X14500Y71500D02*
Y91000D01*
X9500Y66500D02*
X14500Y71500D01*
X16379Y95142D02*
X20260D01*
X16673Y93173D02*
X20260D01*
X8500Y66500D02*
X9500D01*
X3500Y140500D02*
X3500Y140500D01*
X3500Y140500D02*
Y144244D01*
X52000Y135547D02*
X54547Y133000D01*
X74453D01*
X77500Y136047D01*
X46098Y135744D02*
X46500Y135343D01*
X41000Y135744D02*
X46098D01*
X71902Y136244D02*
X72000Y136343D01*
X66500Y136244D02*
X71902D01*
X66256Y136000D02*
X66500Y136244D01*
X62500Y136000D02*
X66256D01*
X40756Y135500D02*
X41000Y135744D01*
X37000Y135500D02*
X40756D01*
X77500Y136047D02*
X95953D01*
X116953Y99283D02*
X124555Y106886D01*
X116953Y93000D02*
Y99283D01*
X106445Y106886D02*
X106500Y106831D01*
Y98453D02*
Y106831D01*
Y92547D02*
X110594D01*
X46500Y152157D02*
Y159000D01*
X45500Y160000D02*
X46500Y159000D01*
X45500Y160000D02*
Y169000D01*
X47000Y170500D01*
X73000D01*
X74000Y169500D01*
X72000Y153157D02*
Y156000D01*
X74000Y158000D01*
Y169500D01*
X75000Y170500D01*
X91047D01*
Y166390D02*
X93000Y164437D01*
X91047Y166390D02*
Y170500D01*
X82500Y144500D02*
Y161500D01*
X79953Y141953D02*
X82500Y144500D01*
X77500Y141953D02*
X79953D01*
X78500Y165500D02*
X82500Y161500D01*
X52000Y141453D02*
X54453D01*
X56000Y143000D01*
Y160000D01*
X50500Y165500D02*
X56000Y160000D01*
X12000Y159000D02*
Y165500D01*
X14500Y149949D02*
Y156500D01*
X12000Y159000D02*
X14500Y156500D01*
X22000Y159000D02*
Y165500D01*
X19500Y156500D02*
X22000Y159000D01*
X19500Y149949D02*
Y156500D01*
X63000Y150000D02*
X66500Y146500D01*
Y141756D02*
Y146500D01*
X41000Y141256D02*
Y146500D01*
X37500Y150000D02*
X41000Y146500D01*
X71902Y141756D02*
X72000Y141657D01*
X66500Y141756D02*
X71902D01*
X77500Y141953D02*
Y146047D01*
X76110Y151953D02*
X77500D01*
X72000Y147843D02*
X76110Y151953D01*
X72000Y141657D02*
Y147843D01*
X45902Y141256D02*
X46500Y140657D01*
X41000Y141256D02*
X45902D01*
X52000Y141453D02*
Y145547D01*
X51110Y151453D02*
X52000D01*
X46500Y146843D02*
X51110Y151453D01*
X46500Y140657D02*
Y146843D01*
X26949Y149949D02*
X29500Y152500D01*
X24500Y149949D02*
X26949D01*
X3500Y149756D02*
X3500Y149756D01*
Y154000D01*
X3500Y149756D02*
X9307D01*
X14772Y103016D02*
X20260D01*
X14772Y104984D02*
X20260D01*
X46000Y107000D02*
X46047Y106953D01*
X52740D01*
X60484Y104984D02*
X62000Y106500D01*
X52740Y104984D02*
X60484D01*
X52740Y110890D02*
X56627D01*
X55858Y112858D02*
X59000Y116000D01*
X52740Y112858D02*
X55858D01*
X52740Y103016D02*
X61228D01*
X37047Y67547D02*
Y71500D01*
X57000Y71500D02*
X57000Y71500D01*
X53453Y71500D02*
X57000D01*
X55500Y52500D02*
Y66000D01*
X7744Y106500D02*
X8000Y106756D01*
X62244Y92000D02*
X71000D01*
X62000Y92244D02*
X62244Y92000D01*
X59000Y116000D02*
Y117500D01*
X13000Y106756D02*
X14772Y104984D01*
X13000Y101244D02*
X14772Y103016D01*
X8000Y101244D02*
X13000D01*
X189697Y66756D02*
X194500D01*
X116000Y42000D02*
X120500Y37500D01*
Y72043D01*
X137957Y89500D01*
X140000D01*
X174016Y93721D02*
Y96984D01*
X171000Y100000D02*
X174016Y96984D01*
X169000Y100000D02*
X171000D01*
X181756Y99256D02*
X185500D01*
X120500Y27500D02*
X127000Y21000D01*
Y12500D02*
Y21000D01*
X122500Y8000D02*
X127000Y12500D01*
X120500Y27500D02*
Y37500D01*
X27642Y124642D02*
X35000Y132000D01*
X47500D01*
X49000Y133500D01*
X71000Y102000D02*
X81000D01*
X99500Y83500D01*
X52740Y108921D02*
X57421D01*
X62500Y114000D01*
X73000D01*
X76500Y110500D01*
X59000Y117500D02*
X60931Y119431D01*
X69325D01*
X70000Y118756D01*
X69500Y106500D02*
X70500Y107500D01*
X72000D01*
X52740Y106953D02*
X57715D01*
X62007Y111244D01*
X65000D01*
X62000Y106500D02*
X69500D01*
X70000Y96500D02*
X71000Y97500D01*
Y102000D01*
X52740Y101047D02*
X56453D01*
X61000Y96500D01*
X70000D01*
X61228Y103016D02*
X63244Y101000D01*
X69000D01*
X70000Y102000D01*
X71000D01*
X56627Y110890D02*
X62237Y116500D01*
X73500D01*
X75000Y118000D01*
X83000D01*
X76500Y110500D02*
X82000D01*
X83500Y109000D01*
D39*
X174016Y71280D02*
X176575D01*
D40*
X172500Y18000D02*
X181500Y27000D01*
X155000Y29705D02*
X170000D01*
X136740D02*
X155000D01*
X136000Y30445D02*
X136740Y29705D01*
X170000D02*
X177063D01*
X179408Y32050D01*
X183592D01*
X183642Y32000D01*
X187445D01*
X189000Y30445D01*
X190555Y32000D01*
X195500D01*
X129500Y31500D02*
X134945D01*
X200500Y82055D02*
Y87500D01*
Y105055D02*
Y110000D01*
X172500Y8000D02*
X182500Y18000D01*
D41*
X162500Y8000D02*
X172500Y18000D01*
X152500Y8000D02*
X162500Y18000D01*
X142500Y8000D02*
Y18000D01*
D42*
X37500Y150000D02*
D03*
X63000D02*
D03*
X22000Y165500D02*
D03*
X78500D02*
D03*
X50500D02*
D03*
X189000D02*
D03*
X153000D02*
D03*
X12500Y18000D02*
D03*
X92500D02*
D03*
D43*
X112000Y160000D02*
D03*
D44*
X132000D02*
D03*
D45*
X12000Y165500D02*
D03*
X68500D02*
D03*
X40500D02*
D03*
X8500Y46500D02*
D03*
Y56500D02*
D03*
Y66500D02*
D03*
Y76500D02*
D03*
Y86500D02*
D03*
X199000Y165500D02*
D03*
X163000D02*
D03*
X116000Y52000D02*
D03*
Y62000D02*
D03*
X24000Y34000D02*
D03*
X72500Y8000D02*
D03*
Y18000D02*
D03*
X62500Y8000D02*
D03*
Y18000D02*
D03*
X52500Y8000D02*
D03*
Y18000D02*
D03*
X42500Y8000D02*
D03*
Y18000D02*
D03*
X32500Y8000D02*
D03*
Y18000D02*
D03*
X22500Y8000D02*
D03*
Y18000D02*
D03*
X12500Y8000D02*
D03*
X212500D02*
D03*
Y18000D02*
D03*
X202500Y8000D02*
D03*
Y18000D02*
D03*
X192500Y8000D02*
D03*
Y18000D02*
D03*
X182500Y8000D02*
D03*
Y18000D02*
D03*
X172500Y8000D02*
D03*
Y18000D02*
D03*
X162500Y8000D02*
D03*
Y18000D02*
D03*
X152500Y8000D02*
D03*
Y18000D02*
D03*
X142500Y8000D02*
D03*
Y18000D02*
D03*
X132500Y8000D02*
D03*
Y18000D02*
D03*
X122500Y8000D02*
D03*
Y18000D02*
D03*
X112500Y8000D02*
D03*
Y18000D02*
D03*
X102500Y8000D02*
D03*
Y18000D02*
D03*
X92500Y8000D02*
D03*
D46*
X8500Y36500D02*
D03*
X116000Y42000D02*
D03*
X24000Y44000D02*
D03*
D47*
X37047Y67547D02*
D03*
X3500Y140500D02*
D03*
X62500Y136000D02*
D03*
X37000Y135500D02*
D03*
X29500Y152500D02*
D03*
X3500Y154000D02*
D03*
X40500Y52500D02*
D03*
X57000Y71500D02*
D03*
X45500Y67000D02*
D03*
X50500D02*
D03*
X55500Y52500D02*
D03*
X71000Y71964D02*
D03*
Y40964D02*
D03*
X8000Y97500D02*
D03*
X8500Y114000D02*
D03*
X71000Y92000D02*
D03*
Y102000D02*
D03*
X72000Y107500D02*
D03*
X59000Y117500D02*
D03*
X46000Y107000D02*
D03*
X198500Y61244D02*
D03*
X140000Y89500D02*
D03*
X169000Y100000D02*
D03*
X181756Y99256D02*
D03*
D48*
X207000Y120500D02*
D03*
X105000Y139000D02*
D03*
X181500Y27000D02*
D03*
X179386Y129386D02*
D03*
X125000Y102500D02*
D03*
X195500Y32000D02*
D03*
X129500Y31500D02*
D03*
X200500Y87500D02*
D03*
Y110000D02*
D03*
D49*
X100500Y170500D02*
D03*
X165000Y61102D02*
D03*
X169000Y65000D02*
D03*
X160000Y61000D02*
D03*
X156102Y65000D02*
D03*
X99500Y83500D02*
D03*
X3500Y94500D02*
D03*
Y127500D02*
D03*
X95953Y136047D02*
D03*
X85000Y21500D02*
D03*
X93488Y47547D02*
D03*
X94500Y65500D02*
D03*
X112500Y25000D02*
D03*
X100000Y32000D02*
D03*
D50*
X171161Y86831D02*
D03*
Y82500D02*
D03*
Y78169D02*
D03*
X166831Y86831D02*
D03*
Y82500D02*
D03*
Y78169D02*
D03*
X162500Y86831D02*
D03*
Y82500D02*
D03*
Y78169D02*
D03*
X158169Y86831D02*
D03*
Y82500D02*
D03*
Y78169D02*
D03*
X153839Y86831D02*
D03*
Y82500D02*
D03*
Y78169D02*
D03*
M02*
